<?xml version="1.0" standalone="no"?>
<!DOCTYPE svg PUBLIC "-//W3C//DTD SVG 1.1//EN" "http://www.w3.org/Graphics/SVG/1.1/DTD/svg11.dtd" >
<svg xmlns="http://www.w3.org/2000/svg" xmlns:xlink="http://www.w3.org/1999/xlink" version="1.1">
<metadata>
Created by FontForge 20191125 at Mon Apr  1 13:47:44 2019
 By convertio
Copyright \(c\) 2019 by Mathieu Desjardins. All rights reserved.
</metadata>
<defs>
<font id="NeueMachina-Ultrabold" horiz-adv-x="1096" >
  <font-face 
    font-family="Neue Machina Ultrabold"
    font-weight="800"
    font-stretch="normal"
    units-per-em="1000"
    panose-1="0 0 9 0 0 0 0 0 0 0"
    ascent="800"
    descent="-200"
    x-height="505"
    cap-height="705"
    bbox="-604 -366 1681 1002"
    underline-thickness="50"
    underline-position="-75"
    stemh="140"
    stemv="160"
    unicode-range="U+0020-277E"
  />
<missing-glyph horiz-adv-x="483" 
d="M396 735v-965h-306v965h306zM321 670h-159v-31h63v-36h-64v-32h160v32h-63v36h63v31zM258 546h-97v-100h160v32h-63v68zM225 513v-35h-32v35h32zM321 419h-160v-31h64v-36h-64v-32h97v68h63v31zM321 362h-31v-64h-129v-33h160v97zM321 244h-96v-54h33v22h32v-45h-97v77
h-32v-109h160v109zM321 77h-160v-109h160v109zM290 45v-45h-97v45h97zM321 -54h-160v-32h68l-68 -46v-31h160v31h-98l67 46h31v32z" />
    <glyph glyph-name="f_f" unicode="ff" horiz-adv-x="835" 
d="M719 595c-47 0 -68 -21 -68 -77v-13h146v-140h-146v-225h146v-140h-767v140h122v225h-122v140h123c13 134 107 200 245 200h191c38 20 88 30 150 30h86v-140h-106zM491 505v18c0 15 1 29 3 42h-96c-53 0 -76 -19 -83 -60h176zM491 140v225h-179v-225h179z" />
    <glyph glyph-name="f_f_i" unicode="ffi" horiz-adv-x="1217" 
d="M1057 140h140v-140h-1167v140h121l1 225h-122v140h123c13 134 107 200 245 200h193c41 29 96 44 168 40l176 -10v-140l-196 10c-47 2 -68 -31 -68 -87v-8l299 5c56 1 87 -28 87 -84v-291zM398 565c-53 0 -76 -19 -83 -60h100l96 2v16c0 14 1 29 3 42h-116zM897 140v231
l-226 -3v-228h226zM511 140v226l-75 -1h-124v-225h199z" />
    <glyph glyph-name="f_i" unicode="fi" horiz-adv-x="832" 
d="M672 140h140v-140h-782v140h96v226l-96 -1v140l96 2v16c0 136 80 232 248 222l176 -10v-140l-196 10c-47 2 -68 -31 -68 -87v-8l299 5c56 1 87 -28 87 -84v-291zM512 140v231l-226 -3v-228h226z" />
    <glyph glyph-name=".notdef" horiz-adv-x="483" 
d="M396 735v-965h-306v965h306zM321 670h-159v-31h63v-36h-64v-32h160v32h-63v36h63v31zM258 546h-97v-100h160v32h-63v68zM225 513v-35h-32v35h32zM321 419h-160v-31h64v-36h-64v-32h97v68h63v31zM321 362h-31v-64h-129v-33h160v97zM321 244h-96v-54h33v22h32v-45h-97v77
h-32v-109h160v109zM321 77h-160v-109h160v109zM290 45v-45h-97v45h97zM321 -54h-160v-32h68l-68 -46v-31h160v31h-98l67 46h31v32z" />
    <glyph glyph-name="space" unicode=" " horiz-adv-x="280" 
 />
    <glyph glyph-name="A" unicode="A" horiz-adv-x="777" 
d="M595 0l-64 226h-286l-63 -226h-162l203 705h330l204 -705h-162zM284 366h208l-84 299h-40z" />
    <glyph glyph-name="Aacute" unicode="&#xc1;" horiz-adv-x="777" 
d="M587 841l-390 -86l-27 114l390 86zM595 0l-64 226h-286l-63 -226h-162l203 705h330l204 -705h-162zM284 366h208l-84 299h-40z" />
    <glyph glyph-name="Abreve" unicode="&#x102;" horiz-adv-x="777" 
d="M389 755c-135 0 -183 97 -183 199h120c0 -70 24 -89 63 -89s63 19 63 89h120c0 -102 -48 -199 -183 -199zM595 0l-64 226h-286l-63 -226h-162l203 705h330l204 -705h-162zM284 366h208l-84 299h-40z" />
    <glyph glyph-name="Acircumflex" unicode="&#xc2;" horiz-adv-x="777" 
d="M389 835l-131 -91l-85 80l216 151l216 -151l-85 -80zM595 0l-64 226h-286l-63 -226h-162l203 705h330l204 -705h-162zM284 366h208l-84 299h-40z" />
    <glyph glyph-name="Adieresis" unicode="&#xc4;" horiz-adv-x="777" 
d="M258 755c-64 0 -99 28 -99 80c0 51 35 80 99 80s101 -29 101 -80c0 -52 -37 -80 -101 -80zM518 755c-64 0 -99 28 -99 80c0 51 35 80 99 80s101 -29 101 -80c0 -52 -37 -80 -101 -80zM595 0l-64 226h-286l-63 -226h-162l203 705h330l204 -705h-162zM284 366h208l-84 299
h-40z" />
    <glyph glyph-name="Agrave" unicode="&#xc0;" horiz-adv-x="777" 
d="M607 869l-27 -114l-390 86l27 114zM595 0l-64 226h-286l-63 -226h-162l203 705h330l204 -705h-162zM284 366h208l-84 299h-40z" />
    <glyph glyph-name="Amacron" unicode="&#x100;" horiz-adv-x="777" 
d="M604 920v-118l-430 -2v120h430zM595 0l-64 226h-286l-63 -226h-162l203 705h330l204 -705h-162zM284 366h208l-84 299h-40z" />
    <glyph glyph-name="Aogonek" unicode="&#x104;" horiz-adv-x="777" 
d="M719 -79l136 14v-120l-185 -15c-71 -6 -118 56 -85 106l61 94h-51l-64 226h-286l-63 -226h-162l203 705h330l204 -704v-1zM284 366h208l-84 299h-40z" />
    <glyph glyph-name="Aring" unicode="&#xc5;" horiz-adv-x="777" 
d="M388 755c-97 0 -157 40 -157 123c0 82 60 123 157 123s158 -41 158 -123s-61 -123 -158 -123zM388 910c-21 0 -37 -8 -37 -32c0 -25 16 -33 37 -33c22 0 38 8 38 33c0 24 -17 32 -38 32zM595 0l-64 226h-286l-63 -226h-162l203 705h330l204 -705h-162zM284 366h208
l-84 299h-40z" />
    <glyph glyph-name="Atilde" unicode="&#xc3;" horiz-adv-x="777" 
d="M312 870c-22 0 -37 -10 -37 -70h-120c0 116 55 190 147 190s120 -80 164 -80c22 0 37 10 37 70h120c0 -116 -55 -190 -147 -190s-120 80 -164 80zM595 0l-64 226h-286l-63 -226h-162l203 705h330l204 -705h-162zM284 366h208l-84 299h-40z" />
    <glyph glyph-name="AE" unicode="&#xc6;" horiz-adv-x="1104" 
d="M1064 565h-343v-142h293v-140h-293v-143h343v-140h-503v234h-252l-120 -234h-169l363 705h681v-140zM381 374h180v291h-30z" />
    <glyph glyph-name="B" unicode="B" horiz-adv-x="701" 
d="M60 0v705h248c196 0 291 -34 291 -173c0 -132 -94 -135 -169 -141v-40c107 -4 221 -14 221 -164c0 -160 -147 -187 -331 -187h-260zM220 437h108c65 0 111 0 111 64s-46 64 -111 64h-108v-128zM220 140h120c95 0 151 0 151 78c0 79 -56 79 -151 79h-120v-157z" />
    <glyph glyph-name="C" unicode="C" horiz-adv-x="810" 
d="M50 353c0 205 138 362 362 362c197 0 327 -108 348 -282h-160c-16 93 -90 142 -186 142c-123 0 -204 -77 -204 -222c0 -146 81 -223 204 -223c96 0 170 50 186 143h160c-21 -175 -151 -283 -348 -283c-224 0 -362 157 -362 363z" />
    <glyph glyph-name="Cacute" unicode="&#x106;" horiz-adv-x="810" 
d="M191 869l390 86l27 -114l-390 -86zM50 353c0 205 138 362 362 362c197 0 327 -108 348 -282h-160c-16 93 -90 142 -186 142c-123 0 -204 -77 -204 -222c0 -146 81 -223 204 -223c96 0 170 50 186 143h160c-21 -175 -151 -283 -348 -283c-224 0 -362 157 -362 363z" />
    <glyph glyph-name="Ccaron" unicode="&#x10c;" horiz-adv-x="810" 
d="M626 901l-216 -151l-216 151l85 80l131 -91l131 91zM50 353c0 205 138 362 362 362c197 0 327 -108 348 -282h-160c-16 93 -90 142 -186 142c-123 0 -204 -77 -204 -222c0 -146 81 -223 204 -223c96 0 170 50 186 143h160c-21 -175 -151 -283 -348 -283
c-224 0 -362 157 -362 363z" />
    <glyph glyph-name="Ccedilla" unicode="&#xc7;" horiz-adv-x="810" 
d="M414 130c96 0 170 50 186 143h160c-19 -162 -132 -266 -304 -281l-47 -52c24 11 60 20 93 20c41 0 86 -12 86 -62c0 -98 -137 -108 -279 -108v90c107 0 159 -4 159 23c0 10 -9 17 -23 17c-18 0 -38 -4 -78 -18l-51 39l25 55c-182 29 -291 174 -291 357
c0 205 138 362 362 362c197 0 327 -108 348 -282h-160c-16 93 -90 142 -186 142c-123 0 -204 -77 -204 -222c0 -146 81 -223 204 -223z" />
    <glyph glyph-name="Cdotaccent" unicode="&#x10a;" horiz-adv-x="810" 
d="M409 755c-64 0 -99 28 -99 80c0 51 35 80 99 80s101 -29 101 -80c0 -52 -37 -80 -101 -80zM50 353c0 205 138 362 362 362c197 0 327 -108 348 -282h-160c-16 93 -90 142 -186 142c-123 0 -204 -77 -204 -222c0 -146 81 -223 204 -223c96 0 170 50 186 143h160
c-21 -175 -151 -283 -348 -283c-224 0 -362 157 -362 363z" />
    <glyph glyph-name="D" unicode="D" horiz-adv-x="754" 
d="M320 705c188 0 384 -49 384 -352c0 -304 -196 -353 -384 -353h-260v705h260zM320 140c125 0 224 10 224 213c0 202 -99 212 -224 212h-100v-425h100z" />
    <glyph glyph-name="Eth" unicode="&#xd0;" horiz-adv-x="834" 
d="M400 705c188 0 384 -49 384 -352c0 -304 -196 -353 -384 -353h-260v305h-90v120h90v280h260zM400 140c125 0 224 10 224 213c0 202 -99 212 -224 212h-100v-140h148v-120h-148v-165h100z" />
    <glyph glyph-name="Dcaron" unicode="&#x10e;" horiz-adv-x="754" 
d="M529 901l-216 -151l-216 151l85 80l131 -91l131 91zM320 705c188 0 384 -49 384 -352c0 -304 -196 -353 -384 -353h-260v705h260zM320 140c125 0 224 10 224 213c0 202 -99 212 -224 212h-100v-425h100z" />
    <glyph glyph-name="Dcroat" unicode="&#x110;" horiz-adv-x="834" 
d="M400 705c188 0 384 -49 384 -352c0 -304 -196 -353 -384 -353h-260v305h-90v120h90v280h260zM400 140c125 0 224 10 224 213c0 202 -99 212 -224 212h-100v-140h148v-120h-148v-165h100z" />
    <glyph glyph-name="E" unicode="E" horiz-adv-x="603" 
d="M60 0v705h503v-140h-343v-142h293v-140h-293v-143h343v-140h-503z" />
    <glyph glyph-name="Eacute" unicode="&#xc9;" horiz-adv-x="603" 
d="M93 869l390 86l27 -114l-390 -86zM60 0v705h503v-140h-343v-142h293v-140h-293v-143h343v-140h-503z" />
    <glyph glyph-name="Ecaron" unicode="&#x11a;" horiz-adv-x="603" 
d="M528 901l-216 -151l-216 151l85 80l131 -91l131 91zM60 0v705h503v-140h-343v-142h293v-140h-293v-143h343v-140h-503z" />
    <glyph glyph-name="Ecircumflex" unicode="&#xca;" horiz-adv-x="603" 
d="M528 824l-85 -80l-131 91l-131 -91l-85 80l216 151zM60 0v705h503v-140h-343v-142h293v-140h-293v-143h343v-140h-503z" />
    <glyph glyph-name="Edieresis" unicode="&#xcb;" horiz-adv-x="603" 
d="M181 755c-64 0 -99 28 -99 80c0 51 35 80 99 80s101 -29 101 -80c0 -52 -37 -80 -101 -80zM441 755c-64 0 -99 28 -99 80c0 51 35 80 99 80s101 -29 101 -80c0 -52 -37 -80 -101 -80zM60 0v705h503v-140h-343v-142h293v-140h-293v-143h343v-140h-503z" />
    <glyph glyph-name="Edotaccent" unicode="&#x116;" horiz-adv-x="603" 
d="M311 755c-64 0 -99 28 -99 80c0 51 35 80 99 80s101 -29 101 -80c0 -52 -37 -80 -101 -80zM60 0v705h503v-140h-343v-142h293v-140h-293v-143h343v-140h-503z" />
    <glyph glyph-name="Egrave" unicode="&#xc8;" horiz-adv-x="603" 
d="M530 869l-27 -114l-390 86l27 114zM60 0v705h503v-140h-343v-142h293v-140h-293v-143h343v-140h-503z" />
    <glyph glyph-name="Emacron" unicode="&#x112;" horiz-adv-x="603" 
d="M97 920h430v-118l-430 -2v120zM60 0v705h503v-140h-343v-142h293v-140h-293v-143h343v-140h-503z" />
    <glyph glyph-name="Eogonek" unicode="&#x118;" horiz-adv-x="603" 
d="M563 565h-343v-142h293v-140h-293v-143h343v-140h-108l-38 -79l136 14v-120l-185 -15c-71 -6 -118 56 -85 106l61 94h-284v705h503v-140z" />
    <glyph glyph-name="F" unicode="F" horiz-adv-x="603" 
d="M60 0v705h503v-140h-343v-203l320 20v-142l-320 -20v-220h-160z" />
    <glyph glyph-name="G" unicode="G" horiz-adv-x="889" 
d="M50 353c0 215 151 362 355 362c177 0 314 -108 335 -262h-160c-16 83 -69 122 -175 122c-123 0 -195 -67 -195 -222c0 -156 57 -223 173 -223c96 0 156 48 156 143h-163v120h368c55 0 85 -30 85 -85v-308h-160v243l30 110h-40c-1 -221 -88 -363 -282 -363
c-211 0 -327 147 -327 363z" />
    <glyph glyph-name="Gbreve" unicode="&#x11e;" horiz-adv-x="889" 
d="M588 954c0 -102 -48 -199 -183 -199s-183 97 -183 199h120c0 -70 24 -89 63 -89s63 19 63 89h120zM50 353c0 215 151 362 355 362c177 0 314 -108 335 -262h-160c-16 83 -69 122 -175 122c-123 0 -195 -67 -195 -222c0 -156 57 -223 173 -223c96 0 156 48 156 143h-163
v120h368c55 0 85 -30 85 -85v-308h-160v243l30 110h-40c-1 -221 -88 -363 -282 -363c-211 0 -327 147 -327 363z" />
    <glyph glyph-name="uni0122" unicode="&#x122;" horiz-adv-x="889" 
d="M50 353c0 215 151 362 355 362c177 0 314 -108 335 -262h-160c-16 83 -69 122 -175 122c-123 0 -195 -67 -195 -222c0 -156 57 -223 173 -223c96 0 156 48 156 143h-163v120h368c55 0 85 -30 85 -85v-308h-160v243l30 110h-40c-1 -221 -88 -363 -282 -363
c-211 0 -327 147 -327 363zM317 -49l114 -37l-62 -171l-114 37z" />
    <glyph glyph-name="Gdotaccent" unicode="&#x120;" horiz-adv-x="889" 
d="M404 755c-64 0 -99 28 -99 80c0 51 35 80 99 80s101 -29 101 -80c0 -52 -37 -80 -101 -80zM50 353c0 215 151 362 355 362c177 0 314 -108 335 -262h-160c-16 83 -69 122 -175 122c-123 0 -195 -67 -195 -222c0 -156 57 -223 173 -223c96 0 156 48 156 143h-163v120h368
c55 0 85 -30 85 -85v-308h-160v243l30 110h-40c-1 -221 -88 -363 -282 -363c-211 0 -327 147 -327 363z" />
    <glyph glyph-name="H" unicode="H" horiz-adv-x="794" 
d="M574 705h160v-705h-160v273h-354v-273h-160v705h160v-292h354v292z" />
    <glyph glyph-name="Hbar" unicode="&#x126;" horiz-adv-x="854" 
d="M824 625v-120h-60v-505h-160v273h-354v-273h-160v505h-60v120h60v80h160v-80h354v80h160v-80h60zM604 413v92h-354v-92h354z" />
    <glyph glyph-name="I" unicode="I" horiz-adv-x="580" 
d="M530 565h-160v-425h160v-140h-480v140h160v425h-160v140h480v-140z" />
    <glyph glyph-name="Iacute" unicode="&#xcd;" horiz-adv-x="580" 
d="M488 841l-390 -86l-27 114l390 86zM530 565h-160v-425h160v-140h-480v140h160v425h-160v140h480v-140z" />
    <glyph glyph-name="Icircumflex" unicode="&#xce;" horiz-adv-x="580" 
d="M290 835l-131 -91l-85 80l216 151l216 -151l-85 -80zM530 565h-160v-425h160v-140h-480v140h160v425h-160v140h480v-140z" />
    <glyph glyph-name="Idieresis" unicode="&#xcf;" horiz-adv-x="580" 
d="M159 755c-64 0 -99 28 -99 80c0 51 35 80 99 80s101 -29 101 -80c0 -52 -37 -80 -101 -80zM419 755c-64 0 -99 28 -99 80c0 51 35 80 99 80s101 -29 101 -80c0 -52 -37 -80 -101 -80zM530 565h-160v-425h160v-140h-480v140h160v425h-160v140h480v-140z" />
    <glyph glyph-name="Idotaccent" unicode="&#x130;" horiz-adv-x="580" 
d="M289 755c-64 0 -99 28 -99 80c0 51 35 80 99 80s101 -29 101 -80c0 -52 -37 -80 -101 -80zM530 565h-160v-425h160v-140h-480v140h160v425h-160v140h480v-140z" />
    <glyph glyph-name="Igrave" unicode="&#xcc;" horiz-adv-x="580" 
d="M508 869l-27 -114l-390 86l27 114zM530 565h-160v-425h160v-140h-480v140h160v425h-160v140h480v-140z" />
    <glyph glyph-name="Imacron" unicode="&#x12a;" horiz-adv-x="580" 
d="M505 920v-118l-430 -2v120h430zM530 565h-160v-425h160v-140h-480v140h160v425h-160v140h480v-140z" />
    <glyph glyph-name="Iogonek" unicode="&#x12e;" horiz-adv-x="580" 
d="M530 565h-160v-425h160v-140h-99l-38 -79l136 14v-120l-185 -15c-71 -6 -118 56 -85 106l61 94h-270v140h160v425h-160v140h480v-140z" />
    <glyph glyph-name="J" unicode="J" horiz-adv-x="535" 
d="M199 -10l-179 10v140l179 -10c117 -7 126 73 126 194v251l-212 -10v140l287 10c55 2 85 -30 85 -85v-360c0 -199 -60 -293 -286 -280z" />
    <glyph glyph-name="K" unicode="K" horiz-adv-x="769" 
d="M749 705l-425 -353l425 -352h-234l-295 249v-249h-160v705h160v-250l295 250h234z" />
    <glyph glyph-name="uni0136" unicode="&#x136;" horiz-adv-x="769" 
d="M749 705l-425 -353l425 -352h-234l-295 249v-249h-160v705h160v-250l295 250h234zM245 -220l62 171l114 -37l-62 -171z" />
    <glyph glyph-name="L" unicode="L" horiz-adv-x="583" 
d="M146 -10c-55 -1 -86 29 -86 84v631h160v-575l343 10v-140z" />
    <glyph glyph-name="Lacute" unicode="&#x139;" horiz-adv-x="590" 
d="M60 869l390 86l27 -114l-390 -86zM153 -10c-55 -1 -86 29 -86 84v631h160v-575l343 10v-140z" />
    <glyph glyph-name="Lcaron" unicode="&#x13d;" horiz-adv-x="593" 
d="M337 775h120v-320h-120v320zM146 -10c-55 -1 -86 29 -86 84v631h160v-575l343 10v-140z" />
    <glyph glyph-name="uni013B" unicode="&#x13b;" horiz-adv-x="583" 
d="M146 -10c-55 -1 -86 29 -86 84v631h160v-575l343 10v-140zM269 -49l114 -37l-62 -171l-114 37z" />
    <glyph glyph-name="Lslash" unicode="&#x141;" horiz-adv-x="676" 
d="M303 130l343 10v-140l-417 -10c-55 -1 -86 29 -86 84v225l-73 -20l-30 114l103 28v284h160v-241l172 47l30 -114l-202 -55v-212z" />
    <glyph glyph-name="M" unicode="M" horiz-adv-x="996" 
d="M60 0v705h315l103 -665h40l103 665h315v-705h-160v565l30 100h-40l-113 -665h-310l-113 665h-40l30 -100v-565h-160z" />
    <glyph glyph-name="N" unicode="N" horiz-adv-x="818" 
d="M60 0v705h315l213 -665h40l-30 100v565h160v-705h-315l-213 665h-40l30 -100v-565h-160z" />
    <glyph glyph-name="Nacute" unicode="&#x143;" horiz-adv-x="818" 
d="M210 869l390 86l27 -114l-390 -86zM60 0v705h315l213 -665h40l-30 100v565h160v-705h-315l-213 665h-40l30 -100v-565h-160z" />
    <glyph glyph-name="Ncaron" unicode="&#x147;" horiz-adv-x="818" 
d="M645 901l-216 -151l-216 151l85 80l131 -91l131 91zM60 0v705h315l213 -665h40l-30 100v565h160v-705h-315l-213 665h-40l30 -100v-565h-160z" />
    <glyph glyph-name="uni0145" unicode="&#x145;" horiz-adv-x="818" 
d="M60 0v705h315l213 -665h40l-30 100v565h160v-705h-315l-213 665h-40l30 -100v-565h-160zM346 -49l114 -37l-62 -171l-114 37z" />
    <glyph glyph-name="Eng" unicode="&#x14a;" horiz-adv-x="818" 
d="M598 705h160v-821c0 -56 -31 -86 -86 -84l-247 7v140l173 -6v59h-155l-213 665h-40l30 -100v-565h-160v705h315l213 -665h40l-30 100v565z" />
    <glyph glyph-name="Ntilde" unicode="&#xd1;" horiz-adv-x="818" 
d="M195 800c0 116 55 190 147 190s120 -80 164 -80c22 0 37 10 37 70h120c0 -116 -55 -190 -147 -190s-120 80 -164 80c-22 0 -37 -10 -37 -70h-120zM60 0v705h315l213 -665h40l-30 100v565h160v-705h-315l-213 665h-40l30 -100v-565h-160z" />
    <glyph glyph-name="O" unicode="O" horiz-adv-x="819" 
d="M50 353c0 205 136 362 360 362c223 0 359 -157 359 -362c0 -206 -136 -363 -359 -363c-224 0 -360 157 -360 363zM210 353c0 -136 67 -223 200 -223s199 87 199 223c0 135 -66 222 -199 222s-200 -87 -200 -222z" />
    <glyph glyph-name="Oacute" unicode="&#xd3;" horiz-adv-x="819" 
d="M191 869l390 86l27 -114l-390 -86zM50 353c0 205 136 362 360 362c223 0 359 -157 359 -362c0 -206 -136 -363 -359 -363c-224 0 -360 157 -360 363zM210 353c0 -136 67 -223 200 -223s199 87 199 223c0 135 -66 222 -199 222s-200 -87 -200 -222z" />
    <glyph glyph-name="Ocircumflex" unicode="&#xd4;" horiz-adv-x="819" 
d="M626 824l-85 -80l-131 91l-131 -91l-85 80l216 151zM50 353c0 205 136 362 360 362c223 0 359 -157 359 -362c0 -206 -136 -363 -359 -363c-224 0 -360 157 -360 363zM210 353c0 -136 67 -223 200 -223s199 87 199 223c0 135 -66 222 -199 222s-200 -87 -200 -222z" />
    <glyph glyph-name="Odieresis" unicode="&#xd6;" horiz-adv-x="819" 
d="M279 755c-64 0 -99 28 -99 80c0 51 35 80 99 80s101 -29 101 -80c0 -52 -37 -80 -101 -80zM539 755c-64 0 -99 28 -99 80c0 51 35 80 99 80s101 -29 101 -80c0 -52 -37 -80 -101 -80zM50 353c0 205 136 362 360 362c223 0 359 -157 359 -362c0 -206 -136 -363 -359 -363
c-224 0 -360 157 -360 363zM210 353c0 -136 67 -223 200 -223s199 87 199 223c0 135 -66 222 -199 222s-200 -87 -200 -222z" />
    <glyph glyph-name="Ograve" unicode="&#xd2;" horiz-adv-x="819" 
d="M628 869l-27 -114l-390 86l27 114zM50 353c0 205 136 362 360 362c223 0 359 -157 359 -362c0 -206 -136 -363 -359 -363c-224 0 -360 157 -360 363zM210 353c0 -136 67 -223 200 -223s199 87 199 223c0 135 -66 222 -199 222s-200 -87 -200 -222z" />
    <glyph glyph-name="Ohungarumlaut" unicode="&#x150;" horiz-adv-x="819" 
d="M178 833l200 169l84 -78l-200 -169zM428 833l200 169l84 -78l-200 -169zM50 353c0 205 136 362 360 362c223 0 359 -157 359 -362c0 -206 -136 -363 -359 -363c-224 0 -360 157 -360 363zM210 353c0 -136 67 -223 200 -223s199 87 199 223c0 135 -66 222 -199 222
s-200 -87 -200 -222z" />
    <glyph glyph-name="Omacron" unicode="&#x14c;" horiz-adv-x="819" 
d="M195 920h430v-118l-430 -2v120zM50 353c0 205 136 362 360 362c223 0 359 -157 359 -362c0 -206 -136 -363 -359 -363c-224 0 -360 157 -360 363zM210 353c0 -136 67 -223 200 -223s199 87 199 223c0 135 -66 222 -199 222s-200 -87 -200 -222z" />
    <glyph glyph-name="Oslash" unicode="&#xd8;" horiz-adv-x="819" 
d="M636 644c85 -65 133 -169 133 -291c0 -206 -136 -363 -359 -363c-52 0 -99 8 -141 24l-48 -83l-84 49l47 81c-86 65 -134 170 -134 292c0 205 136 362 360 362c51 0 97 -8 138 -23l48 82l86 -50zM210 353c0 -67 16 -123 49 -161l217 375c-20 5 -42 8 -66 8
c-133 0 -200 -87 -200 -222zM410 130c133 0 199 87 199 223c0 67 -16 122 -49 161l-218 -375c20 -6 43 -9 68 -9z" />
    <glyph glyph-name="Otilde" unicode="&#xd5;" horiz-adv-x="819" 
d="M176 800c0 116 55 190 147 190s120 -80 164 -80c22 0 37 10 37 70h120c0 -116 -55 -190 -147 -190s-120 80 -164 80c-22 0 -37 -10 -37 -70h-120zM50 353c0 205 136 362 360 362c223 0 359 -157 359 -362c0 -206 -136 -363 -359 -363c-224 0 -360 157 -360 363zM210 353
c0 -136 67 -223 200 -223s199 87 199 223c0 135 -66 222 -199 222s-200 -87 -200 -222z" />
    <glyph glyph-name="OE" unicode="&#x152;" horiz-adv-x="1162" 
d="M1122 565h-343v-142h293v-140h-293v-143h343v-140h-503v49c-56 -38 -127 -59 -209 -59c-224 0 -360 157 -360 363c0 205 136 362 360 362c82 0 153 -21 209 -59v49h503v-140zM410 130c133 0 199 87 199 223c0 135 -66 222 -199 222s-200 -87 -200 -222
c0 -136 67 -223 200 -223z" />
    <glyph glyph-name="P" unicode="P" horiz-adv-x="667" 
d="M313 705c178 0 314 -34 314 -247c0 -214 -136 -248 -314 -248h-93v-210h-160v705h253zM323 350c95 0 144 10 144 108c0 97 -49 107 -144 107h-103v-215h103z" />
    <glyph glyph-name="Thorn" unicode="&#xde;" horiz-adv-x="667" 
d="M313 600c178 0 314 -34 314 -247c0 -214 -136 -248 -314 -248h-93v-105h-160v705h160v-105h93zM323 245c95 0 144 0 144 108c0 107 -49 107 -144 107h-103v-215h103z" />
    <glyph glyph-name="Q" unicode="Q" horiz-adv-x="835" 
d="M556 -30c101 8 200 1 359 -20v-140c-276 38 -445 31 -695 -5l-13 130c101 10 246 19 354 80l-22 36c-36 -30 -82 -51 -177 -51c-166 0 -312 137 -312 353c0 205 146 362 370 362c223 0 369 -147 369 -362c0 -200 -113 -318 -233 -383zM420 130c133 0 209 87 209 223
c0 135 -76 222 -209 222s-210 -87 -210 -222c0 -136 77 -223 210 -223z" />
    <glyph glyph-name="R" unicode="R" horiz-adv-x="716" 
d="M60 0v705h273c168 0 314 -39 314 -197c0 -116 -94 -148 -179 -158v-40h103c55 0 85 -30 85 -85v-225h-160v248h-276v-248h-160zM220 388h113c95 0 154 0 154 88c0 89 -59 89 -154 89h-113v-177z" />
    <glyph glyph-name="Racute" unicode="&#x154;" horiz-adv-x="716" 
d="M124 869l390 86l27 -114l-390 -86zM60 0v705h273c168 0 314 -39 314 -197c0 -116 -94 -148 -179 -158v-40h103c55 0 85 -30 85 -85v-225h-160v248h-276v-248h-160zM220 388h113c95 0 154 0 154 88c0 89 -59 89 -154 89h-113v-177z" />
    <glyph glyph-name="Rcaron" unicode="&#x158;" horiz-adv-x="716" 
d="M559 901l-216 -151l-216 151l85 80l131 -91l131 91zM60 0v705h273c168 0 314 -39 314 -197c0 -116 -94 -148 -179 -158v-40h103c55 0 85 -30 85 -85v-225h-160v248h-276v-248h-160zM220 388h113c95 0 154 0 154 88c0 89 -59 89 -154 89h-113v-177z" />
    <glyph glyph-name="uni0156" unicode="&#x156;" horiz-adv-x="716" 
d="M60 0v705h273c168 0 314 -39 314 -197c0 -116 -94 -148 -179 -158v-40h103c55 0 85 -30 85 -85v-225h-160v248h-276v-248h-160zM220 388h113c95 0 154 0 154 88c0 89 -59 89 -154 89h-113v-177zM310 -49l114 -37l-62 -171l-114 37z" />
    <glyph glyph-name="S" unicode="S" horiz-adv-x="711" 
d="M681 194c0 -121 -85 -204 -302 -204c-254 0 -349 104 -349 282h160c0 -108 54 -142 194 -142c103 0 137 24 137 62c0 51 -86 74 -189 109c-149 50 -270 90 -270 228c0 120 95 186 277 186c216 0 313 -110 313 -250h-160c0 86 -66 110 -153 110c-72 0 -117 -16 -117 -52
c0 -32 17 -44 130 -82c130 -44 329 -100 329 -247z" />
    <glyph glyph-name="Sacute" unicode="&#x15a;" horiz-adv-x="711" 
d="M137 869l390 86l27 -114l-390 -86zM681 194c0 -121 -85 -204 -302 -204c-254 0 -349 104 -349 282h160c0 -108 54 -142 194 -142c103 0 137 24 137 62c0 51 -86 74 -189 109c-149 50 -270 90 -270 228c0 120 95 186 277 186c216 0 313 -110 313 -250h-160
c0 86 -66 110 -153 110c-72 0 -117 -16 -117 -52c0 -32 17 -44 130 -82c130 -44 329 -100 329 -247z" />
    <glyph glyph-name="Scaron" unicode="&#x160;" horiz-adv-x="711" 
d="M572 901l-216 -151l-216 151l85 80l131 -91l131 91zM681 194c0 -121 -85 -204 -302 -204c-254 0 -349 104 -349 282h160c0 -108 54 -142 194 -142c103 0 137 24 137 62c0 51 -86 74 -189 109c-149 50 -270 90 -270 228c0 120 95 186 277 186c216 0 313 -110 313 -250
h-160c0 86 -66 110 -153 110c-72 0 -117 -16 -117 -52c0 -32 17 -44 130 -82c130 -44 329 -100 329 -247z" />
    <glyph glyph-name="Scedilla" unicode="&#x15e;" horiz-adv-x="711" 
d="M681 194c0 -116 -78 -197 -276 -204l-45 -50c24 11 60 20 93 20c41 0 86 -12 86 -62c0 -98 -137 -108 -279 -108v90c107 0 159 -4 159 23c0 10 -9 17 -23 17c-18 0 -38 -4 -78 -18l-51 39l25 54c-189 22 -262 121 -262 277h160c0 -108 54 -142 194 -142
c103 0 137 24 137 62c0 51 -86 74 -189 109c-149 50 -270 90 -270 228c0 120 95 186 277 186c216 0 313 -110 313 -250h-160c0 86 -66 110 -153 110c-72 0 -117 -16 -117 -52c0 -32 17 -44 130 -82c130 -44 329 -100 329 -247z" />
    <glyph glyph-name="uni0218" unicode="&#x218;" horiz-adv-x="711" 
d="M681 194c0 -121 -85 -204 -302 -204c-254 0 -349 104 -349 282h160c0 -108 54 -142 194 -142c103 0 137 24 137 62c0 51 -86 74 -189 109c-149 50 -270 90 -270 228c0 120 95 186 277 186c216 0 313 -110 313 -250h-160c0 86 -66 110 -153 110c-72 0 -117 -16 -117 -52
c0 -32 17 -44 130 -82c130 -44 329 -100 329 -247zM293 -49l114 -37l-62 -171l-114 37z" />
    <glyph glyph-name="uni1E9E" unicode="&#x1e9e;" horiz-adv-x="711" 
d="M276 0v140l124 -9c85 -6 121 18 121 75c0 100 -105 107 -180 40l-49 198l147 57c0 46 -26 74 -94 74c-76 0 -125 -29 -125 -128v-447h-160v471c0 150 127 244 285 244c111 0 254 -74 254 -249l-247 -101l8 -38c134 86 321 38 321 -144c0 -144 -85 -209 -281 -193z" />
    <glyph glyph-name="T" unicode="T" horiz-adv-x="681" 
d="M651 705v-140h-230v-565h-160v565h-231v140h621z" />
    <glyph glyph-name="Tbar" unicode="&#x166;" horiz-adv-x="681" 
d="M651 565h-230v-170h149v-120h-149v-275h-160v275h-151v120h151v170h-231v140h621v-140z" />
    <glyph glyph-name="Tcaron" unicode="&#x164;" horiz-adv-x="681" 
d="M557 901l-216 -151l-216 151l85 80l131 -91l131 91zM651 705v-140h-230v-565h-160v565h-231v140h621z" />
    <glyph glyph-name="uni0162" unicode="&#x162;" horiz-adv-x="681" 
d="M421 0h-22l-54 -60c24 11 60 20 93 20c41 0 86 -12 86 -62c0 -98 -137 -108 -279 -108v90c107 0 159 -4 159 23c0 10 -9 17 -23 17c-18 0 -38 -4 -78 -18l-51 39l27 59h-18v565h-231v140h621v-140h-230v-565z" />
    <glyph glyph-name="uni021A" unicode="&#x21a;" horiz-adv-x="681" 
d="M651 705v-140h-230v-565h-160v565h-231v140h621zM216 -220l62 171l114 -37l-62 -171z" />
    <glyph glyph-name="U" unicode="U" horiz-adv-x="717" 
d="M40 262v443h160v-372c0 -126 11 -203 158 -203s159 77 159 203v372h160v-443c0 -176 -110 -272 -319 -272s-318 96 -318 272z" />
    <glyph glyph-name="Uacute" unicode="&#xda;" horiz-adv-x="717" 
d="M139 869l390 86l27 -114l-390 -86zM40 262v443h160v-372c0 -126 11 -203 158 -203s159 77 159 203v372h160v-443c0 -176 -110 -272 -319 -272s-318 96 -318 272z" />
    <glyph glyph-name="Ucircumflex" unicode="&#xdb;" horiz-adv-x="717" 
d="M574 824l-85 -80l-131 91l-131 -91l-85 80l216 151zM40 262v443h160v-372c0 -126 11 -203 158 -203s159 77 159 203v372h160v-443c0 -176 -110 -272 -319 -272s-318 96 -318 272z" />
    <glyph glyph-name="Udieresis" unicode="&#xdc;" horiz-adv-x="717" 
d="M227 755c-64 0 -99 28 -99 80c0 51 35 80 99 80s101 -29 101 -80c0 -52 -37 -80 -101 -80zM487 755c-64 0 -99 28 -99 80c0 51 35 80 99 80s101 -29 101 -80c0 -52 -37 -80 -101 -80zM40 262v443h160v-372c0 -126 11 -203 158 -203s159 77 159 203v372h160v-443
c0 -176 -110 -272 -319 -272s-318 96 -318 272z" />
    <glyph glyph-name="Ugrave" unicode="&#xd9;" horiz-adv-x="717" 
d="M576 869l-27 -114l-390 86l27 114zM40 262v443h160v-372c0 -126 11 -203 158 -203s159 77 159 203v372h160v-443c0 -176 -110 -272 -319 -272s-318 96 -318 272z" />
    <glyph glyph-name="Uhungarumlaut" unicode="&#x170;" horiz-adv-x="717" 
d="M126 833l200 169l84 -78l-200 -169zM376 833l200 169l84 -78l-200 -169zM40 262v443h160v-372c0 -126 11 -203 158 -203s159 77 159 203v372h160v-443c0 -176 -110 -272 -319 -272s-318 96 -318 272z" />
    <glyph glyph-name="Umacron" unicode="&#x16a;" horiz-adv-x="717" 
d="M143 920h430v-118l-430 -2v120zM40 262v443h160v-372c0 -126 11 -203 158 -203s159 77 159 203v372h160v-443c0 -176 -110 -272 -319 -272s-318 96 -318 272z" />
    <glyph glyph-name="Uogonek" unicode="&#x172;" horiz-adv-x="717" 
d="M517 705h160v-443c0 -144 -74 -235 -216 -263l-37 -78l136 14v-120l-185 -15c-71 -6 -118 56 -85 106l55 84c-201 4 -305 100 -305 272v443h160v-372c0 -126 11 -203 158 -203s159 77 159 203v372z" />
    <glyph glyph-name="Uring" unicode="&#x16e;" horiz-adv-x="717" 
d="M357 755c-97 0 -157 40 -157 123c0 82 60 123 157 123s158 -41 158 -123s-61 -123 -158 -123zM357 845c22 0 38 8 38 33c0 24 -17 32 -38 32s-37 -8 -37 -32c0 -25 16 -33 37 -33zM40 262v443h160v-372c0 -126 11 -203 158 -203s159 77 159 203v372h160v-443
c0 -176 -110 -272 -319 -272s-318 96 -318 272z" />
    <glyph glyph-name="V" unicode="V" horiz-adv-x="777" 
d="M20 705h162l186 -665h40l187 665h162l-204 -705h-330z" />
    <glyph glyph-name="W" unicode="W" horiz-adv-x="1168" 
d="M20 705h155l112 -665h40l87 665h340l87 -665h40l112 665h155l-121 -705h-332l-91 665h-40l-91 -665h-332z" />
    <glyph glyph-name="Wacute" unicode="&#x1e82;" horiz-adv-x="1168" 
d="M365 869l390 86l27 -114l-390 -86zM20 705h155l112 -665h40l87 665h340l87 -665h40l112 665h155l-121 -705h-332l-91 665h-40l-91 -665h-332z" />
    <glyph glyph-name="Wcircumflex" unicode="&#x174;" horiz-adv-x="1168" 
d="M800 824l-85 -80l-131 91l-131 -91l-85 80l216 151zM20 705h155l112 -665h40l87 665h340l87 -665h40l112 665h155l-121 -705h-332l-91 665h-40l-91 -665h-332z" />
    <glyph glyph-name="Wdieresis" unicode="&#x1e84;" horiz-adv-x="1168" 
d="M453 755c-64 0 -99 28 -99 80c0 51 35 80 99 80s101 -29 101 -80c0 -52 -37 -80 -101 -80zM713 755c-64 0 -99 28 -99 80c0 51 35 80 99 80s101 -29 101 -80c0 -52 -37 -80 -101 -80zM20 705h155l112 -665h40l87 665h340l87 -665h40l112 665h155l-121 -705h-332l-91 665
h-40l-91 -665h-332z" />
    <glyph glyph-name="Wgrave" unicode="&#x1e80;" horiz-adv-x="1168" 
d="M802 869l-27 -114l-390 86l27 114zM20 705h155l112 -665h40l87 665h340l87 -665h40l112 665h155l-121 -705h-332l-91 665h-40l-91 -665h-332z" />
    <glyph glyph-name="X" unicode="X" horiz-adv-x="789" 
d="M20 0l238 333v40l-238 332h184l190 -270l191 270h184l-239 -332v-40l239 -333h-184l-191 271l-190 -271h-184z" />
    <glyph glyph-name="Y" unicode="Y" horiz-adv-x="723" 
d="M532 705h171l-262 -478v-227h-160v227l-261 478h171l150 -294v-90h40v90z" />
    <glyph glyph-name="Yacute" unicode="&#xdd;" horiz-adv-x="723" 
d="M142 869l390 86l27 -114l-390 -86zM532 705h171l-262 -478v-227h-160v227l-261 478h171l150 -294v-90h40v90z" />
    <glyph glyph-name="Ycircumflex" unicode="&#x176;" horiz-adv-x="723" 
d="M577 824l-85 -80l-131 91l-131 -91l-85 80l216 151zM532 705h171l-262 -478v-227h-160v227l-261 478h171l150 -294v-90h40v90z" />
    <glyph glyph-name="Ydieresis" unicode="&#x178;" horiz-adv-x="723" 
d="M230 755c-64 0 -99 28 -99 80c0 51 35 80 99 80s101 -29 101 -80c0 -52 -37 -80 -101 -80zM490 755c-64 0 -99 28 -99 80c0 51 35 80 99 80s101 -29 101 -80c0 -52 -37 -80 -101 -80zM532 705h171l-262 -478v-227h-160v227l-261 478h171l150 -294v-90h40v90z" />
    <glyph glyph-name="Ygrave" unicode="&#x1ef2;" horiz-adv-x="723" 
d="M579 869l-27 -114l-390 86l27 114zM532 705h171l-262 -478v-227h-160v227l-261 478h171l150 -294v-90h40v90z" />
    <glyph glyph-name="Z" unicode="Z" horiz-adv-x="667" 
d="M40 0v295l547 260v40l-90 -30h-457v140h587v-295l-547 -260v-40l90 30h457v-140h-587z" />
    <glyph glyph-name="Zacute" unicode="&#x179;" horiz-adv-x="667" 
d="M115 869l390 86l27 -114l-390 -86zM40 0v295l547 260v40l-90 -30h-457v140h587v-295l-547 -260v-40l90 30h457v-140h-587z" />
    <glyph glyph-name="Zcaron" unicode="&#x17d;" horiz-adv-x="667" 
d="M550 901l-216 -151l-216 151l85 80l131 -91l131 91zM40 0v295l547 260v40l-90 -30h-457v140h587v-295l-547 -260v-40l90 30h457v-140h-587z" />
    <glyph glyph-name="Zdotaccent" unicode="&#x17b;" horiz-adv-x="667" 
d="M333 755c-64 0 -99 28 -99 80c0 51 35 80 99 80s101 -29 101 -80c0 -52 -37 -80 -101 -80zM40 0v295l547 260v40l-90 -30h-457v140h587v-295l-547 -260v-40l90 30h457v-140h-587z" />
    <glyph glyph-name="G.ss01" horiz-adv-x="829" 
d="M50 353c0 215 151 362 355 362c177 0 314 -108 335 -262h-160c-16 83 -69 122 -175 122c-123 0 -195 -77 -195 -222c0 -146 57 -223 188 -223c111 0 211 48 211 143h-203v120h278c55 0 85 -30 85 -85v-308h-160v63l30 110h-40c-1 -41 -18 -183 -227 -183
c-206 0 -322 147 -322 363z" />
    <glyph glyph-name="Gbreve.ss01" horiz-adv-x="829" 
d="M588 954c0 -102 -48 -199 -183 -199s-183 97 -183 199h120c0 -70 24 -89 63 -89s63 19 63 89h120zM50 353c0 215 151 362 355 362c177 0 314 -108 335 -262h-160c-16 83 -69 122 -175 122c-123 0 -195 -77 -195 -222c0 -146 57 -223 188 -223c111 0 211 48 211 143h-203
v120h278c55 0 85 -30 85 -85v-308h-160v63l30 110h-40c-1 -41 -18 -183 -227 -183c-206 0 -322 147 -322 363z" />
    <glyph glyph-name="uni0122.ss01" horiz-adv-x="829" 
d="M50 353c0 215 151 362 355 362c177 0 314 -108 335 -262h-160c-16 83 -69 122 -175 122c-123 0 -195 -77 -195 -222c0 -146 57 -223 188 -223c111 0 211 48 211 143h-203v120h278c55 0 85 -30 85 -85v-308h-160v63l30 110h-40c-1 -41 -18 -183 -227 -183
c-206 0 -322 147 -322 363zM317 -49l114 -37l-62 -171l-114 37z" />
    <glyph glyph-name="Gdotaccent.ss01" horiz-adv-x="829" 
d="M404 755c-64 0 -99 28 -99 80c0 51 35 80 99 80s101 -29 101 -80c0 -52 -37 -80 -101 -80zM50 353c0 215 151 362 355 362c177 0 314 -108 335 -262h-160c-16 83 -69 122 -175 122c-123 0 -195 -77 -195 -222c0 -146 57 -223 188 -223c111 0 211 48 211 143h-203v120h278
c55 0 85 -30 85 -85v-308h-160v63l30 110h-40c-1 -41 -18 -183 -227 -183c-206 0 -322 147 -322 363z" />
    <glyph glyph-name="a" unicode="a" horiz-adv-x="644" 
d="M40 138c0 87 52 138 202 159l159 22c0 41 -32 66 -101 66c-64 0 -100 -27 -100 -73h-150c0 128 109 203 250 203c139 0 261 -67 261 -233v-142h73v-140h-111c-48 0 -75 27 -75 75v10l25 60h-40c-19 -84 -68 -155 -209 -155c-157 0 -184 96 -184 148zM200 168
c0 -29 28 -38 55 -38c88 0 146 37 146 99l-129 -18c-48 -7 -72 -14 -72 -43z" />
    <glyph glyph-name="aacute" unicode="&#xe1;" horiz-adv-x="644" 
d="M91 669l390 86l27 -114l-390 -86zM40 138c0 87 52 138 202 159l159 22c0 41 -32 66 -101 66c-64 0 -100 -27 -100 -73h-150c0 128 109 203 250 203c139 0 261 -67 261 -233v-142h73v-140h-111c-48 0 -75 27 -75 75v10l25 60h-40c-19 -84 -68 -155 -209 -155
c-157 0 -184 96 -184 148zM200 168c0 -29 28 -38 55 -38c88 0 146 37 146 99l-129 -18c-48 -7 -72 -14 -72 -43z" />
    <glyph glyph-name="abreve" unicode="&#x103;" horiz-adv-x="644" 
d="M493 754c0 -102 -48 -199 -183 -199s-183 97 -183 199h120c0 -70 24 -89 63 -89s63 19 63 89h120zM40 138c0 87 52 138 202 159l159 22c0 41 -32 66 -101 66c-64 0 -100 -27 -100 -73h-150c0 128 109 203 250 203c139 0 261 -67 261 -233v-142h73v-140h-111
c-48 0 -75 27 -75 75v10l25 60h-40c-19 -84 -68 -155 -209 -155c-157 0 -184 96 -184 148zM200 168c0 -29 28 -38 55 -38c88 0 146 37 146 99l-129 -18c-48 -7 -72 -14 -72 -43z" />
    <glyph glyph-name="acircumflex" unicode="&#xe2;" horiz-adv-x="644" 
d="M526 624l-85 -80l-131 91l-131 -91l-85 80l216 151zM40 138c0 87 52 138 202 159l159 22c0 41 -32 66 -101 66c-64 0 -100 -27 -100 -73h-150c0 128 109 203 250 203c139 0 261 -67 261 -233v-142h73v-140h-111c-48 0 -75 27 -75 75v10l25 60h-40
c-19 -84 -68 -155 -209 -155c-157 0 -184 96 -184 148zM200 168c0 -29 28 -38 55 -38c88 0 146 37 146 99l-129 -18c-48 -7 -72 -14 -72 -43z" />
    <glyph glyph-name="adieresis" unicode="&#xe4;" horiz-adv-x="644" 
d="M179 555c-64 0 -99 28 -99 80c0 51 35 80 99 80s101 -29 101 -80c0 -52 -37 -80 -101 -80zM439 555c-64 0 -99 28 -99 80c0 51 35 80 99 80s101 -29 101 -80c0 -52 -37 -80 -101 -80zM40 138c0 87 52 138 202 159l159 22c0 41 -32 66 -101 66c-64 0 -100 -27 -100 -73
h-150c0 128 109 203 250 203c139 0 261 -67 261 -233v-142h73v-140h-111c-48 0 -75 27 -75 75v10l25 60h-40c-19 -84 -68 -155 -209 -155c-157 0 -184 96 -184 148zM200 168c0 -29 28 -38 55 -38c88 0 146 37 146 99l-129 -18c-48 -7 -72 -14 -72 -43z" />
    <glyph glyph-name="agrave" unicode="&#xe0;" horiz-adv-x="644" 
d="M528 669l-27 -114l-390 86l27 114zM40 138c0 87 52 138 202 159l159 22c0 41 -32 66 -101 66c-64 0 -100 -27 -100 -73h-150c0 128 109 203 250 203c139 0 261 -67 261 -233v-142h73v-140h-111c-48 0 -75 27 -75 75v10l25 60h-40c-19 -84 -68 -155 -209 -155
c-157 0 -184 96 -184 148zM200 168c0 -29 28 -38 55 -38c88 0 146 37 146 99l-129 -18c-48 -7 -72 -14 -72 -43z" />
    <glyph glyph-name="amacron" unicode="&#x101;" horiz-adv-x="644" 
d="M95 720h430v-118l-430 -2v120zM40 138c0 87 52 138 202 159l159 22c0 41 -32 66 -101 66c-64 0 -100 -27 -100 -73h-150c0 128 109 203 250 203c139 0 261 -67 261 -233v-142h73v-140h-111c-48 0 -75 27 -75 75v10l25 60h-40c-19 -84 -68 -155 -209 -155
c-157 0 -184 96 -184 148zM200 168c0 -29 28 -38 55 -38c88 0 146 37 146 99l-129 -18c-48 -7 -72 -14 -72 -43z" />
    <glyph glyph-name="aogonek" unicode="&#x105;" horiz-adv-x="644" 
d="M596 -79l136 14v-120l-185 -15c-71 -6 -118 56 -85 106l61 94c-48 0 -75 27 -75 75v10l25 60h-40c-19 -84 -68 -155 -209 -155c-157 0 -184 96 -184 148c0 87 52 138 202 159l159 22c0 41 -32 66 -101 66c-64 0 -100 -27 -100 -73h-150c0 128 109 203 250 203
c139 0 261 -67 261 -233v-142h73v-140zM255 130c88 0 146 37 146 99l-129 -18c-48 -7 -72 -14 -72 -43s28 -38 55 -38z" />
    <glyph glyph-name="aring" unicode="&#xe5;" horiz-adv-x="644" 
d="M309 555c-97 0 -157 40 -157 123c0 82 60 123 157 123s158 -41 158 -123s-61 -123 -158 -123zM309 645c22 0 38 8 38 33c0 24 -17 32 -38 32s-37 -8 -37 -32c0 -25 16 -33 37 -33zM40 138c0 87 52 138 202 159l159 22c0 41 -32 66 -101 66c-64 0 -100 -27 -100 -73h-150
c0 128 109 203 250 203c139 0 261 -67 261 -233v-142h73v-140h-111c-48 0 -75 27 -75 75v10l25 60h-40c-19 -84 -68 -155 -209 -155c-157 0 -184 96 -184 148zM200 168c0 -29 28 -38 55 -38c88 0 146 37 146 99l-129 -18c-48 -7 -72 -14 -72 -43z" />
    <glyph glyph-name="atilde" unicode="&#xe3;" horiz-adv-x="644" 
d="M76 600c0 116 55 190 147 190s120 -80 164 -80c22 0 37 10 37 70h120c0 -116 -55 -190 -147 -190s-120 80 -164 80c-22 0 -37 -10 -37 -70h-120zM40 138c0 87 52 138 202 159l159 22c0 41 -32 66 -101 66c-64 0 -100 -27 -100 -73h-150c0 128 109 203 250 203
c139 0 261 -67 261 -233v-142h73v-140h-111c-48 0 -75 27 -75 75v10l25 60h-40c-19 -84 -68 -155 -209 -155c-157 0 -184 96 -184 148zM200 168c0 -29 28 -38 55 -38c88 0 146 37 146 99l-129 -18c-48 -7 -72 -14 -72 -43z" />
    <glyph glyph-name="ae" unicode="&#xe6;" horiz-adv-x="1041" 
d="M841 178h160c-10 -73 -93 -188 -268 -188c-140 0 -225 65 -262 155h-38c-19 -84 -78 -155 -209 -155c-157 0 -184 96 -184 148c0 87 52 138 202 159l159 22c0 41 -32 66 -101 66c-64 0 -100 -27 -100 -73h-150c0 128 109 203 250 203c85 0 158 -29 199 -97
c46 62 123 97 217 97c157 0 267 -93 267 -246v-50h-383c0 -58 42 -99 133 -99c56 0 98 20 108 58zM716 385c-89 0 -116 -38 -116 -76h233c0 38 -28 76 -117 76zM255 130c88 0 146 37 146 99l-129 -18c-48 -7 -72 -14 -72 -46c0 -30 28 -35 55 -35z" />
    <glyph glyph-name="b" unicode="b" horiz-adv-x="688" 
d="M60 0v735h160v-261l-30 -90h40c26 67 74 131 199 131c146 0 219 -119 219 -262s-73 -263 -219 -263c-125 0 -173 64 -199 131h-40l30 -90v-31h-160zM220 253c0 -85 48 -123 134 -123s134 38 134 123s-48 122 -134 122s-134 -37 -134 -122z" />
    <glyph glyph-name="c" unicode="c" horiz-adv-x="627" 
d="M40 253c0 168 115 262 276 262c138 0 264 -75 271 -219h-160c-6 45 -47 79 -111 79c-76 0 -116 -45 -116 -122c0 -78 40 -123 116 -123c64 0 105 34 111 79h160c-7 -144 -133 -219 -271 -219c-161 0 -276 94 -276 263z" />
    <glyph glyph-name="cacute" unicode="&#x107;" horiz-adv-x="627" 
d="M97 669l390 86l27 -114l-390 -86zM40 253c0 168 115 262 276 262c138 0 264 -75 271 -219h-160c-6 45 -47 79 -111 79c-76 0 -116 -45 -116 -122c0 -78 40 -123 116 -123c64 0 105 34 111 79h160c-7 -144 -133 -219 -271 -219c-161 0 -276 94 -276 263z" />
    <glyph glyph-name="ccaron" unicode="&#x10d;" horiz-adv-x="627" 
d="M532 701l-216 -151l-216 151l85 80l131 -91l131 91zM40 253c0 168 115 262 276 262c138 0 264 -75 271 -219h-160c-6 45 -47 79 -111 79c-76 0 -116 -45 -116 -122c0 -78 40 -123 116 -123c64 0 105 34 111 79h160c-7 -144 -133 -219 -271 -219c-161 0 -276 94 -276 263z
" />
    <glyph glyph-name="ccedilla" unicode="&#xe7;" horiz-adv-x="627" 
d="M316 130c64 0 105 34 111 79h160c-6 -126 -104 -200 -221 -216l-48 -53c24 11 60 20 93 20c41 0 86 -12 86 -62c0 -98 -137 -108 -279 -108v90c107 0 159 -4 159 23c0 10 -9 17 -23 17c-18 0 -38 -4 -78 -18l-51 39l25 55c-126 22 -210 112 -210 257
c0 168 115 262 276 262c138 0 264 -75 271 -219h-160c-6 45 -47 79 -111 79c-76 0 -116 -45 -116 -122c0 -78 40 -123 116 -123z" />
    <glyph glyph-name="cdotaccent" unicode="&#x10b;" horiz-adv-x="627" 
d="M315 555c-64 0 -99 28 -99 80c0 51 35 80 99 80s101 -29 101 -80c0 -52 -37 -80 -101 -80zM40 253c0 168 115 262 276 262c138 0 264 -75 271 -219h-160c-6 45 -47 79 -111 79c-76 0 -116 -45 -116 -122c0 -78 40 -123 116 -123c64 0 105 34 111 79h160
c-7 -144 -133 -219 -271 -219c-161 0 -276 94 -276 263z" />
    <glyph glyph-name="d" unicode="d" horiz-adv-x="688" 
d="M628 0h-160v31l30 90h-40c-26 -67 -74 -131 -199 -131c-146 0 -219 120 -219 263s73 262 219 262c125 0 173 -64 199 -131h40l-30 90v261h160v-735zM468 253c0 85 -48 122 -134 122s-134 -37 -134 -122s48 -123 134 -123s134 38 134 123z" />
    <glyph glyph-name="eth" unicode="&#xf0;" horiz-adv-x="703" 
d="M509 660c97 -74 154 -184 154 -341c0 -206 -121 -329 -315 -329c-190 0 -308 110 -308 262c0 146 104 263 279 263c152 0 229 -100 241 -237h40l-30 90c-13 107 -75 174 -178 216l-83 -53l-106 47l66 42c-31 7 -65 12 -101 17v140c92 -10 176 -30 248 -62l73 47l106 -47z
M352 130c101 0 151 46 151 122c0 88 -50 123 -151 123s-152 -35 -152 -123c0 -76 51 -122 152 -122z" />
    <glyph glyph-name="dcaron" unicode="&#x10f;" horiz-adv-x="868" 
d="M718 775h120v-320h-120v320zM628 0h-160v31l30 90h-40c-26 -67 -74 -131 -199 -131c-146 0 -219 120 -219 263s73 262 219 262c125 0 173 -64 199 -131h40l-30 90v261h160v-735zM468 253c0 85 -48 122 -134 122s-134 -37 -134 -122s48 -123 134 -123s134 38 134 123z" />
    <glyph glyph-name="dcroat" unicode="&#x111;" horiz-adv-x="718" 
d="M688 687v-120h-60v-567h-160v31l30 90h-40c-26 -67 -74 -131 -199 -131c-146 0 -219 120 -219 263s73 262 219 262c125 0 173 -64 199 -131h40l-30 90v93h-140v120h140v48h160v-48h60zM334 130c86 0 134 38 134 123s-48 122 -134 122s-134 -37 -134 -122
s48 -123 134 -123z" />
    <glyph glyph-name="e" unicode="e" horiz-adv-x="631" 
d="M40 259c0 160 109 256 266 256s267 -93 267 -246v-50h-383c0 -58 42 -99 133 -99c56 0 98 20 108 58h160c-10 -73 -93 -188 -268 -188c-194 0 -283 126 -283 269zM190 309h233c0 38 -28 76 -117 76s-116 -38 -116 -76z" />
    <glyph glyph-name="eacute" unicode="&#xe9;" horiz-adv-x="631" 
d="M97 669l390 86l27 -114l-390 -86zM40 259c0 160 109 256 266 256s267 -93 267 -246v-50h-383c0 -58 42 -99 133 -99c56 0 98 20 108 58h160c-10 -73 -93 -188 -268 -188c-194 0 -283 126 -283 269zM190 309h233c0 38 -28 76 -117 76s-116 -38 -116 -76z" />
    <glyph glyph-name="ecaron" unicode="&#x11b;" horiz-adv-x="631" 
d="M532 701l-216 -151l-216 151l85 80l131 -91l131 91zM40 259c0 160 109 256 266 256s267 -93 267 -246v-50h-383c0 -58 42 -99 133 -99c56 0 98 20 108 58h160c-10 -73 -93 -188 -268 -188c-194 0 -283 126 -283 269zM190 309h233c0 38 -28 76 -117 76s-116 -38 -116 -76z
" />
    <glyph glyph-name="ecircumflex" unicode="&#xea;" horiz-adv-x="631" 
d="M532 624l-85 -80l-131 91l-131 -91l-85 80l216 151zM40 259c0 160 109 256 266 256s267 -93 267 -246v-50h-383c0 -58 42 -99 133 -99c56 0 98 20 108 58h160c-10 -73 -93 -188 -268 -188c-194 0 -283 126 -283 269zM190 309h233c0 38 -28 76 -117 76s-116 -38 -116 -76z
" />
    <glyph glyph-name="edieresis" unicode="&#xeb;" horiz-adv-x="631" 
d="M185 555c-64 0 -99 28 -99 80c0 51 35 80 99 80s101 -29 101 -80c0 -52 -37 -80 -101 -80zM445 555c-64 0 -99 28 -99 80c0 51 35 80 99 80s101 -29 101 -80c0 -52 -37 -80 -101 -80zM40 259c0 160 109 256 266 256s267 -93 267 -246v-50h-383c0 -58 42 -99 133 -99
c56 0 98 20 108 58h160c-10 -73 -93 -188 -268 -188c-194 0 -283 126 -283 269zM190 309h233c0 38 -28 76 -117 76s-116 -38 -116 -76z" />
    <glyph glyph-name="edotaccent" unicode="&#x117;" horiz-adv-x="631" 
d="M315 555c-64 0 -99 28 -99 80c0 51 35 80 99 80s101 -29 101 -80c0 -52 -37 -80 -101 -80zM40 259c0 160 109 256 266 256s267 -93 267 -246v-50h-383c0 -58 42 -99 133 -99c56 0 98 20 108 58h160c-10 -73 -93 -188 -268 -188c-194 0 -283 126 -283 269zM190 309h233
c0 38 -28 76 -117 76s-116 -38 -116 -76z" />
    <glyph glyph-name="egrave" unicode="&#xe8;" horiz-adv-x="631" 
d="M534 669l-27 -114l-390 86l27 114zM40 259c0 160 109 256 266 256s267 -93 267 -246v-50h-383c0 -58 42 -99 133 -99c56 0 98 20 108 58h160c-10 -73 -93 -188 -268 -188c-194 0 -283 126 -283 269zM190 309h233c0 38 -28 76 -117 76s-116 -38 -116 -76z" />
    <glyph glyph-name="emacron" unicode="&#x113;" horiz-adv-x="631" 
d="M101 720h430v-118l-430 -2v120zM40 259c0 160 109 256 266 256s267 -93 267 -246v-50h-383c0 -58 42 -99 133 -99c56 0 98 20 108 58h160c-10 -73 -93 -188 -268 -188c-194 0 -283 126 -283 269zM190 309h233c0 38 -28 76 -117 76s-116 -38 -116 -76z" />
    <glyph glyph-name="eogonek" unicode="&#x119;" horiz-adv-x="631" 
d="M591 178c-8 -60 -67 -150 -186 -179l-37 -78l136 14v-120l-185 -15c-71 -6 -118 56 -85 106l56 85c-171 14 -250 133 -250 268c0 160 109 256 266 256s267 -93 267 -246v-50h-383c0 -58 42 -99 133 -99c56 0 98 20 108 58h160zM306 385c-89 0 -116 -38 -116 -76h233
c0 38 -28 76 -117 76z" />
    <glyph glyph-name="f" unicode="f" horiz-adv-x="470" 
d="M354 595c-47 0 -68 -21 -68 -77v-13h146v-140h-146v-225h146v-140h-402v140h96v225h-96v140h96v18c0 136 79 212 248 212h86v-140h-106z" />
    <glyph glyph-name="g" unicode="g" horiz-adv-x="706" 
d="M652 505h44v-140h-34c-15 0 -33 0 -47 -9c6 -8 14 -31 14 -58c0 -95 -89 -155 -228 -202c115 7 222 -23 222 -130c0 -149 -175 -166 -550 -166v140c327 0 389 5 389 60c0 74 -181 41 -336 15l-17 90c115 12 219 24 311 46v40c-185 -66 -380 -39 -380 127
c0 133 126 197 285 197c77 0 147 -15 200 -54c30 39 82 44 127 44zM335 241c96 0 134 24 134 67c0 42 -38 67 -134 67s-135 -25 -135 -67c0 -43 39 -67 135 -67z" />
    <glyph glyph-name="gbreve" unicode="&#x11f;" horiz-adv-x="706" 
d="M335 555c-135 0 -183 97 -183 199h120c0 -70 24 -89 63 -89s63 19 63 89h120c0 -102 -48 -199 -183 -199zM652 505h44v-140h-34c-15 0 -33 0 -47 -9c6 -8 14 -31 14 -58c0 -95 -89 -155 -228 -202c115 7 222 -23 222 -130c0 -149 -175 -166 -550 -166v140
c327 0 389 5 389 60c0 74 -181 41 -336 15l-17 90c115 12 219 24 311 46v40c-185 -66 -380 -39 -380 127c0 133 126 197 285 197c77 0 147 -15 200 -54c30 39 82 44 127 44zM335 241c96 0 134 24 134 67c0 42 -38 67 -134 67s-135 -25 -135 -67c0 -43 39 -67 135 -67z" />
    <glyph glyph-name="uni0123" unicode="&#x123;" horiz-adv-x="706" 
d="M455 772l-73 -217l-116 31l73 217zM652 505h44v-140h-34c-15 0 -33 0 -47 -9c6 -8 14 -31 14 -58c0 -95 -89 -155 -228 -202c115 7 222 -23 222 -130c0 -149 -175 -166 -550 -166v140c327 0 389 5 389 60c0 74 -181 41 -336 15l-17 90c115 12 219 24 311 46v40
c-185 -66 -380 -39 -380 127c0 133 126 197 285 197c77 0 147 -15 200 -54c30 39 82 44 127 44zM335 241c96 0 134 24 134 67c0 42 -38 67 -134 67s-135 -25 -135 -67c0 -43 39 -67 135 -67z" />
    <glyph glyph-name="gdotaccent" unicode="&#x121;" horiz-adv-x="706" 
d="M334 555c-64 0 -99 28 -99 80c0 51 35 80 99 80s101 -29 101 -80c0 -52 -37 -80 -101 -80zM652 505h44v-140h-34c-15 0 -33 0 -47 -9c6 -8 14 -31 14 -58c0 -95 -89 -155 -228 -202c115 7 222 -23 222 -130c0 -149 -175 -166 -550 -166v140c327 0 389 5 389 60
c0 74 -181 41 -336 15l-17 90c115 12 219 24 311 46v40c-185 -66 -380 -39 -380 127c0 133 126 197 285 197c77 0 147 -15 200 -54c30 39 82 44 127 44zM335 241c96 0 134 24 134 67c0 42 -38 67 -134 67s-135 -25 -135 -67c0 -43 39 -67 135 -67z" />
    <glyph glyph-name="h" unicode="h" horiz-adv-x="678" 
d="M421 515c129 0 207 -86 207 -242v-273h-160v248c0 92 -27 127 -104 127c-87 0 -144 -46 -144 -188v-187h-160v735h160v-291l-30 -90h40c20 90 83 161 191 161z" />
    <glyph glyph-name="hbar" unicode="&#x127;" horiz-adv-x="718" 
d="M461 515c129 0 207 -86 207 -242v-273h-160v248c0 92 -27 127 -104 127c-87 0 -144 -46 -144 -188v-187h-160v567h-60v120h60v48h160v-48h140v-120h-140v-123l-30 -90h40c20 90 83 161 191 161z" />
    <glyph glyph-name="i" unicode="i" horiz-adv-x="500" 
d="M247 555c-59 0 -94 28 -94 80c0 51 35 80 94 80s96 -29 96 -80c0 -52 -37 -80 -96 -80zM40 0v140h143v231l-123 -6v140l190 10c56 3 87 -28 87 -84v-291h143v-140h-440z" />
    <glyph glyph-name="dotlessi" unicode="&#x131;" horiz-adv-x="500" 
d="M40 0v140h143v231l-123 -6v140l190 10c56 3 87 -28 87 -84v-291h143v-140h-440z" />
    <glyph glyph-name="iacute" unicode="&#xed;" horiz-adv-x="519" 
d="M40 669l390 86l27 -114l-390 -86zM59 0v140h143v231l-123 -6v140l190 10c56 3 87 -28 87 -84v-291h143v-140h-440z" />
    <glyph glyph-name="icircumflex" unicode="&#xee;" horiz-adv-x="516" 
d="M462 624l-85 -80l-131 91l-131 -91l-85 80l216 151zM56 0v140h143v231l-123 -6v140l190 10c56 3 87 -28 87 -84v-291h143v-140h-440z" />
    <glyph glyph-name="idieresis" unicode="&#xef;" horiz-adv-x="519" 
d="M128 555c-64 0 -99 28 -99 80c0 51 35 80 99 80s101 -29 101 -80c0 -52 -37 -80 -101 -80zM388 555c-64 0 -99 28 -99 80c0 51 35 80 99 80s101 -29 101 -80c0 -52 -37 -80 -101 -80zM59 0v140h143v231l-123 -6v140l190 10c56 3 87 -28 87 -84v-291h143v-140h-440z" />
    <glyph glyph-name="i.loclTRK" horiz-adv-x="500" 
d="M229 555c-64 0 -99 28 -99 80c0 51 35 80 99 80s101 -29 101 -80c0 -52 -37 -80 -101 -80zM40 0v140h143v231l-123 -6v140l190 10c56 3 87 -28 87 -84v-291h143v-140h-440z" />
    <glyph glyph-name="igrave" unicode="&#xec;" horiz-adv-x="500" 
d="M448 669l-27 -114l-390 86l27 114zM40 0v140h143v231l-123 -6v140l190 10c56 3 87 -28 87 -84v-291h143v-140h-440z" />
    <glyph glyph-name="imacron" unicode="&#x12b;" horiz-adv-x="515" 
d="M40 720h430v-118l-430 -2v120zM55 0v140h143v231l-123 -6v140l190 10c56 3 87 -28 87 -84v-291h143v-140h-440z" />
    <glyph glyph-name="iogonek" unicode="&#x12f;" horiz-adv-x="500" 
d="M229 555c-64 0 -99 28 -99 80c0 51 35 80 99 80s101 -29 101 -80c0 -52 -37 -80 -101 -80zM480 0h-108l-38 -79l136 14v-120l-185 -15c-71 -6 -118 56 -85 106l61 94h-221v140h143v231l-123 -6v140l190 10c56 3 87 -28 87 -84v-291h143v-140z" />
    <glyph glyph-name="j" unicode="j" horiz-adv-x="347" 
d="M206 555c-59 0 -94 28 -94 80c0 51 35 80 94 80s96 -29 96 -80c0 -52 -37 -80 -96 -80zM10 -200l106 174c13 21 17 42 17 68v329l-123 -6v140l203 7c55 2 86 -28 86 -83v-399c0 -26 -4 -44 -17 -68l-92 -162h-180z" />
    <glyph glyph-name="k" unicode="k" horiz-adv-x="669" 
d="M457 0l-126 195l-111 -52v-143h-160v735h160v-427l231 106l-2 91h160v-110c0 -48 -19 -79 -63 -100l-78 -36l171 -259h-182z" />
    <glyph glyph-name="uni0137" unicode="&#x137;" horiz-adv-x="669" 
d="M468 259l171 -259h-182l-126 195l-111 -52v-143h-160v735h160v-427l231 106l-2 91h160v-110c0 -48 -19 -79 -63 -100zM210 -220l62 171l114 -37l-62 -171z" />
    <glyph glyph-name="l" unicode="l" horiz-adv-x="490" 
d="M30 0v140h140v461l-120 -6v140l193 7c56 2 87 -28 87 -84v-518h140v-140h-440z" />
    <glyph glyph-name="lacute" unicode="&#x13a;" horiz-adv-x="512" 
d="M28 899l390 86l27 -114l-390 -86zM52 0v140h140v461l-120 -6v140l193 7c56 2 87 -28 87 -84v-518h140v-140h-440z" />
    <glyph glyph-name="lcaron" unicode="&#x13e;" horiz-adv-x="540" 
d="M400 775h120v-320h-120v320zM30 0v140h140v461l-120 -6v140l193 7c56 2 87 -28 87 -84v-518h140v-140h-440z" />
    <glyph glyph-name="uni013C" unicode="&#x13c;" horiz-adv-x="490" 
d="M30 0v140h140v461l-120 -6v140l193 7c56 2 87 -28 87 -84v-518h140v-140h-440zM182 -49l114 -37l-62 -171l-114 37z" />
    <glyph glyph-name="lslash" unicode="&#x142;" horiz-adv-x="490" 
d="M330 140h140v-140h-440v140h140v142l-98 -27l-30 115l128 35v196l-120 -6v140l193 7c56 2 87 -28 87 -84v-210l98 27l30 -115l-128 -35v-185z" />
    <glyph glyph-name="m" unicode="m" horiz-adv-x="954" 
d="M736 515c129 0 168 -116 168 -252v-263h-160v252c0 96 -16 123 -75 123c-87 0 -107 -76 -107 -198v-177h-160v252c0 96 -16 123 -75 123c-87 0 -107 -76 -107 -198v-177h-160v505h160v-51l-30 -90h40c20 90 66 151 164 151c95 0 135 -63 150 -151h29
c20 90 65 151 163 151z" />
    <glyph glyph-name="n" unicode="n" horiz-adv-x="678" 
d="M364 375c-87 0 -144 -46 -144 -188v-187h-160v505h160v-61l-30 -90h40c20 90 83 161 191 161c129 0 207 -86 207 -242v-273h-160v248c0 92 -27 127 -104 127z" />
    <glyph glyph-name="nacute" unicode="&#x144;" horiz-adv-x="678" 
d="M140 669l390 86l27 -114l-390 -86zM364 375c-87 0 -144 -46 -144 -188v-187h-160v505h160v-61l-30 -90h40c20 90 83 161 191 161c129 0 207 -86 207 -242v-273h-160v248c0 92 -27 127 -104 127z" />
    <glyph glyph-name="ncaron" unicode="&#x148;" horiz-adv-x="678" 
d="M575 701l-216 -151l-216 151l85 80l131 -91l131 91zM364 375c-87 0 -144 -46 -144 -188v-187h-160v505h160v-61l-30 -90h40c20 90 83 161 191 161c129 0 207 -86 207 -242v-273h-160v248c0 92 -27 127 -104 127z" />
    <glyph glyph-name="uni0146" unicode="&#x146;" horiz-adv-x="678" 
d="M364 375c-87 0 -144 -46 -144 -188v-187h-160v505h160v-61l-30 -90h40c20 90 83 161 191 161c129 0 207 -86 207 -242v-273h-160v248c0 92 -27 127 -104 127zM286 -49l114 -37l-62 -171l-114 37z" />
    <glyph glyph-name="eng" unicode="&#x14b;" horiz-adv-x="678" 
d="M421 515c129 0 207 -86 207 -242v-389c0 -56 -31 -86 -86 -84l-247 7v140l173 -6v307c0 92 -27 127 -104 127c-87 0 -144 -46 -144 -188v-187h-160v505h160v-61l-30 -90h40c20 90 83 161 191 161z" />
    <glyph glyph-name="ntilde" unicode="&#xf1;" horiz-adv-x="678" 
d="M125 600c0 116 55 190 147 190s120 -80 164 -80c22 0 37 10 37 70h120c0 -116 -55 -190 -147 -190s-120 80 -164 80c-22 0 -37 -10 -37 -70h-120zM364 375c-87 0 -144 -46 -144 -188v-187h-160v505h160v-61l-30 -90h40c20 90 83 161 191 161c129 0 207 -86 207 -242v-273
h-160v248c0 92 -27 127 -104 127z" />
    <glyph glyph-name="o" unicode="o" horiz-adv-x="649" 
d="M40 253c0 176 126 262 285 262c158 0 284 -86 284 -262c0 -177 -126 -263 -284 -263c-159 0 -285 86 -285 263zM200 253c0 -85 49 -123 125 -123c75 0 124 38 124 123c0 84 -49 122 -124 122c-76 0 -125 -38 -125 -122z" />
    <glyph glyph-name="oacute" unicode="&#xf3;" horiz-adv-x="649" 
d="M106 669l390 86l27 -114l-390 -86zM40 253c0 176 126 262 285 262c158 0 284 -86 284 -262c0 -177 -126 -263 -284 -263c-159 0 -285 86 -285 263zM200 253c0 -85 49 -123 125 -123c75 0 124 38 124 123c0 84 -49 122 -124 122c-76 0 -125 -38 -125 -122z" />
    <glyph glyph-name="ocircumflex" unicode="&#xf4;" horiz-adv-x="649" 
d="M541 624l-85 -80l-131 91l-131 -91l-85 80l216 151zM40 253c0 176 126 262 285 262c158 0 284 -86 284 -262c0 -177 -126 -263 -284 -263c-159 0 -285 86 -285 263zM200 253c0 -85 49 -123 125 -123c75 0 124 38 124 123c0 84 -49 122 -124 122c-76 0 -125 -38 -125 -122
z" />
    <glyph glyph-name="odieresis" unicode="&#xf6;" horiz-adv-x="649" 
d="M194 555c-64 0 -99 28 -99 80c0 51 35 80 99 80s101 -29 101 -80c0 -52 -37 -80 -101 -80zM454 555c-64 0 -99 28 -99 80c0 51 35 80 99 80s101 -29 101 -80c0 -52 -37 -80 -101 -80zM40 253c0 176 126 262 285 262c158 0 284 -86 284 -262c0 -177 -126 -263 -284 -263
c-159 0 -285 86 -285 263zM200 253c0 -85 49 -123 125 -123c75 0 124 38 124 123c0 84 -49 122 -124 122c-76 0 -125 -38 -125 -122z" />
    <glyph glyph-name="ograve" unicode="&#xf2;" horiz-adv-x="649" 
d="M543 669l-27 -114l-390 86l27 114zM40 253c0 176 126 262 285 262c158 0 284 -86 284 -262c0 -177 -126 -263 -284 -263c-159 0 -285 86 -285 263zM200 253c0 -85 49 -123 125 -123c75 0 124 38 124 123c0 84 -49 122 -124 122c-76 0 -125 -38 -125 -122z" />
    <glyph glyph-name="ohungarumlaut" unicode="&#x151;" horiz-adv-x="649" 
d="M93 633l200 169l84 -78l-200 -169zM343 633l200 169l84 -78l-200 -169zM40 253c0 176 126 262 285 262c158 0 284 -86 284 -262c0 -177 -126 -263 -284 -263c-159 0 -285 86 -285 263zM200 253c0 -85 49 -123 125 -123c75 0 124 38 124 123c0 84 -49 122 -124 122
c-76 0 -125 -38 -125 -122z" />
    <glyph glyph-name="omacron" unicode="&#x14d;" horiz-adv-x="649" 
d="M110 720h430v-118l-430 -2v120zM40 253c0 176 126 262 285 262c158 0 284 -86 284 -262c0 -177 -126 -263 -284 -263c-159 0 -285 86 -285 263zM200 253c0 -85 49 -123 125 -123c75 0 124 38 124 123c0 84 -49 122 -124 122c-76 0 -125 -38 -125 -122z" />
    <glyph glyph-name="oslash" unicode="&#xf8;" horiz-adv-x="649" 
d="M505 467c64 -43 104 -113 104 -213c0 -177 -126 -263 -284 -263c-32 0 -63 3 -91 10l-33 -56l-84 48l27 47c-64 43 -104 114 -104 214c0 176 126 262 285 262c31 0 61 -3 89 -10l32 56l86 -49zM200 254c0 -34 8 -60 22 -80l116 202h-13c-76 0 -125 -38 -125 -122z
M325 131c75 0 124 38 124 123c0 33 -8 60 -22 79l-117 -201c5 -1 10 -1 15 -1z" />
    <glyph glyph-name="otilde" unicode="&#xf5;" horiz-adv-x="649" 
d="M91 600c0 116 55 190 147 190s120 -80 164 -80c22 0 37 10 37 70h120c0 -116 -55 -190 -147 -190s-120 80 -164 80c-22 0 -37 -10 -37 -70h-120zM40 253c0 176 126 262 285 262c158 0 284 -86 284 -262c0 -177 -126 -263 -284 -263c-159 0 -285 86 -285 263zM200 253
c0 -85 49 -123 125 -123c75 0 124 38 124 123c0 84 -49 122 -124 122c-76 0 -125 -38 -125 -122z" />
    <glyph glyph-name="oe" unicode="&#x153;" horiz-adv-x="1080" 
d="M880 178h160c-10 -73 -93 -188 -268 -188c-102 0 -175 35 -222 89c-51 -60 -133 -89 -225 -89c-159 0 -285 86 -285 263c0 176 126 262 285 262c90 0 170 -28 222 -85c47 55 120 85 208 85c157 0 267 -93 267 -246v-50h-383c0 -58 42 -99 133 -99c56 0 98 20 108 58z
M755 385c-89 0 -116 -38 -116 -76h233c0 38 -28 76 -117 76zM325 130c75 0 124 38 124 123c0 84 -49 122 -124 122c-76 0 -125 -38 -125 -122c0 -85 49 -123 125 -123z" />
    <glyph glyph-name="p" unicode="p" horiz-adv-x="688" 
d="M60 505h160v-31l-30 -90h40c26 67 74 131 199 131c146 0 219 -120 219 -263s-73 -262 -219 -262c-125 0 -173 64 -199 131h-40l30 -90v-221h-160v695zM220 252c0 -86 48 -122 134 -122s134 36 134 122s-48 123 -134 123s-134 -37 -134 -123z" />
    <glyph glyph-name="thorn" unicode="&#xfe;" horiz-adv-x="688" 
d="M429 515c146 0 219 -120 219 -263s-73 -262 -219 -262c-125 0 -173 64 -199 131h-40l30 -90v-221h-160v925h160v-261l-30 -90h40c26 67 74 131 199 131zM354 130c86 0 134 36 134 122s-48 123 -134 123s-134 -37 -134 -123s48 -122 134 -122z" />
    <glyph glyph-name="q" unicode="q" horiz-adv-x="688" 
d="M628 505v-695h-160v221l30 90h-40c-26 -67 -74 -131 -199 -131c-146 0 -219 119 -219 262s73 263 219 263c125 0 173 -64 199 -131h40l-30 90v31h160zM468 252c0 86 -48 123 -134 123s-134 -37 -134 -123s48 -122 134 -122s134 36 134 122z" />
    <glyph glyph-name="r" unicode="r" horiz-adv-x="487" 
d="M60 0v429c0 55 31 85 86 84l331 -8v-140l-257 6v-371h-160z" />
    <glyph glyph-name="racute" unicode="&#x155;" horiz-adv-x="499" 
d="M60 669l390 86l27 -114l-390 -86zM72 0v429c0 55 31 85 86 84l331 -8v-140l-257 6v-371h-160z" />
    <glyph glyph-name="rcaron" unicode="&#x159;" horiz-adv-x="502" 
d="M492 701l-216 -151l-216 151l85 80l131 -91l131 91zM69 0v429c0 55 31 85 86 84l331 -8v-140l-257 6v-371h-160z" />
    <glyph glyph-name="uni0157" unicode="&#x157;" horiz-adv-x="476" 
d="M49 0v429c0 55 31 85 86 84l331 -8v-140l-257 6v-371h-160zM67 -49l114 -37l-62 -171l-114 37z" />
    <glyph glyph-name="s" unicode="s" horiz-adv-x="551" 
d="M531 139c0 -85 -61 -149 -235 -149c-186 0 -266 75 -266 193h160c0 -39 27 -73 111 -73c43 0 70 10 70 34c0 26 -28 33 -109 60c-94 31 -209 56 -209 169c0 90 81 142 220 142c171 0 241 -85 241 -183h-160c0 36 -27 63 -82 63c-38 0 -59 -9 -59 -29
c0 -24 50 -39 130 -65c98 -32 188 -57 188 -162z" />
    <glyph glyph-name="sacute" unicode="&#x15b;" horiz-adv-x="551" 
d="M62 669l390 86l27 -114l-390 -86zM531 139c0 -85 -61 -149 -235 -149c-186 0 -266 75 -266 193h160c0 -39 27 -73 111 -73c43 0 70 10 70 34c0 26 -28 33 -109 60c-94 31 -209 56 -209 169c0 90 81 142 220 142c171 0 241 -85 241 -183h-160c0 36 -27 63 -82 63
c-38 0 -59 -9 -59 -29c0 -24 50 -39 130 -65c98 -32 188 -57 188 -162z" />
    <glyph glyph-name="scaron" unicode="&#x161;" horiz-adv-x="551" 
d="M497 701l-216 -151l-216 151l85 80l131 -91l131 91zM531 139c0 -85 -61 -149 -235 -149c-186 0 -266 75 -266 193h160c0 -39 27 -73 111 -73c43 0 70 10 70 34c0 26 -28 33 -109 60c-94 31 -209 56 -209 169c0 90 81 142 220 142c171 0 241 -85 241 -183h-160
c0 36 -27 63 -82 63c-38 0 -59 -9 -59 -29c0 -24 50 -39 130 -65c98 -32 188 -57 188 -162z" />
    <glyph glyph-name="scedilla" unicode="&#x15f;" horiz-adv-x="551" 
d="M531 139c0 -79 -53 -140 -200 -148l-46 -51c24 11 60 20 93 20c41 0 86 -12 86 -62c0 -98 -137 -108 -279 -108v90c107 0 159 -4 159 23c0 10 -9 17 -23 17c-18 0 -38 -4 -78 -18l-51 39l25 54c-130 19 -187 88 -187 188h160c0 -39 27 -73 111 -73c43 0 70 10 70 34
c0 26 -28 33 -109 60c-94 31 -209 56 -209 169c0 90 81 142 220 142c171 0 241 -85 241 -183h-160c0 36 -27 63 -82 63c-38 0 -59 -9 -59 -29c0 -24 50 -39 130 -65c98 -32 188 -57 188 -162z" />
    <glyph glyph-name="uni0219" unicode="&#x219;" horiz-adv-x="551" 
d="M531 139c0 -85 -61 -149 -235 -149c-186 0 -266 75 -266 193h160c0 -39 27 -73 111 -73c43 0 70 10 70 34c0 26 -28 33 -109 60c-94 31 -209 56 -209 169c0 90 81 142 220 142c171 0 241 -85 241 -183h-160c0 36 -27 63 -82 63c-38 0 -59 -9 -59 -29
c0 -24 50 -39 130 -65c98 -32 188 -57 188 -162zM218 -49l114 -37l-62 -171l-114 37z" />
    <glyph glyph-name="germandbls" unicode="&#xdf;" horiz-adv-x="674" 
d="M276 0v140l124 -9c65 -5 94 9 94 65c0 99 -181 58 -181 184c0 93 99 106 99 154c0 27 -19 41 -77 41c-66 0 -115 -26 -115 -122v-453h-160v473c0 180 122 242 275 242c166 0 237 -74 237 -148c0 -90 -99 -106 -99 -177c0 -87 181 -38 181 -214
c0 -137 -106 -195 -234 -186z" />
    <glyph glyph-name="t" unicode="t" horiz-adv-x="506" 
d="M290 130l186 10v-140l-261 -10c-55 -2 -85 30 -85 85v290h-120v140h120v95l160 50v-145h166v-140h-166v-235z" />
    <glyph glyph-name="tbar" unicode="&#x167;" horiz-adv-x="506" 
d="M290 130l186 10v-140l-261 -10c-55 -2 -85 30 -85 85v127h-100v120h100v43h-120v140h120v95l160 50v-145h166v-140h-166v-43h146v-120h-146v-72z" />
    <glyph glyph-name="tcaron" unicode="&#x165;" horiz-adv-x="506" 
d="M356 735h120v-180h-120v180zM290 365v-235l186 10v-140l-261 -10c-55 -2 -85 30 -85 85v290h-120v140h120v95l160 50v-145h166v-140h-166z" />
    <glyph glyph-name="uni0163" unicode="&#x163;" horiz-adv-x="506" 
d="M400 -40c41 0 86 -12 86 -62c0 -98 -137 -108 -279 -108v90c107 0 159 -4 159 23c0 10 -9 17 -23 17c-18 0 -38 -4 -78 -18l-51 39l23 50l-22 -1c-55 -2 -85 30 -85 85v290h-120v140h120v95l160 50v-145h166v-140h-166v-235l186 10v-140l-119 -5l-50 -55
c24 11 60 20 93 20z" />
    <glyph glyph-name="uni021B" unicode="&#x21b;" horiz-adv-x="506" 
d="M290 130l186 10v-140l-261 -10c-55 -2 -85 30 -85 85v290h-120v140h120v95l160 50v-145h166v-140h-166v-235zM178 -220l62 171l114 -37l-62 -171z" />
    <glyph glyph-name="u" unicode="u" horiz-adv-x="668" 
d="M314 130c87 0 144 46 144 188v187h160v-505h-160v61l30 90h-40c-20 -90 -83 -161 -191 -161c-129 0 -207 86 -207 242v273h160v-248c0 -92 27 -127 104 -127z" />
    <glyph glyph-name="uacute" unicode="&#xfa;" horiz-adv-x="668" 
d="M115 669l390 86l27 -114l-390 -86zM314 130c87 0 144 46 144 188v187h160v-505h-160v61l30 90h-40c-20 -90 -83 -161 -191 -161c-129 0 -207 86 -207 242v273h160v-248c0 -92 27 -127 104 -127z" />
    <glyph glyph-name="ucircumflex" unicode="&#xfb;" horiz-adv-x="668" 
d="M550 624l-85 -80l-131 91l-131 -91l-85 80l216 151zM314 130c87 0 144 46 144 188v187h160v-505h-160v61l30 90h-40c-20 -90 -83 -161 -191 -161c-129 0 -207 86 -207 242v273h160v-248c0 -92 27 -127 104 -127z" />
    <glyph glyph-name="udieresis" unicode="&#xfc;" horiz-adv-x="668" 
d="M203 555c-64 0 -99 28 -99 80c0 51 35 80 99 80s101 -29 101 -80c0 -52 -37 -80 -101 -80zM463 555c-64 0 -99 28 -99 80c0 51 35 80 99 80s101 -29 101 -80c0 -52 -37 -80 -101 -80zM314 130c87 0 144 46 144 188v187h160v-505h-160v61l30 90h-40
c-20 -90 -83 -161 -191 -161c-129 0 -207 86 -207 242v273h160v-248c0 -92 27 -127 104 -127z" />
    <glyph glyph-name="ugrave" unicode="&#xf9;" horiz-adv-x="668" 
d="M552 669l-27 -114l-390 86l27 114zM314 130c87 0 144 46 144 188v187h160v-505h-160v61l30 90h-40c-20 -90 -83 -161 -191 -161c-129 0 -207 86 -207 242v273h160v-248c0 -92 27 -127 104 -127z" />
    <glyph glyph-name="uhungarumlaut" unicode="&#x171;" horiz-adv-x="668" 
d="M102 633l200 169l84 -78l-200 -169zM352 633l200 169l84 -78l-200 -169zM314 130c87 0 144 46 144 188v187h160v-505h-160v61l30 90h-40c-20 -90 -83 -161 -191 -161c-129 0 -207 86 -207 242v273h160v-248c0 -92 27 -127 104 -127z" />
    <glyph glyph-name="umacron" unicode="&#x16b;" horiz-adv-x="668" 
d="M119 720h430v-118l-430 -2v120zM314 130c87 0 144 46 144 188v187h160v-505h-160v61l30 90h-40c-20 -90 -83 -161 -191 -161c-129 0 -207 86 -207 242v273h160v-248c0 -92 27 -127 104 -127z" />
    <glyph glyph-name="uogonek" unicode="&#x173;" horiz-adv-x="668" 
d="M580 -79l136 14v-120l-185 -15c-71 -6 -118 56 -85 106l61 94h-49v61l30 90h-40c-20 -90 -83 -161 -191 -161c-129 0 -207 86 -207 242v273h160v-248c0 -92 27 -127 104 -127c87 0 144 46 144 188v187h160v-505z" />
    <glyph glyph-name="uring" unicode="&#x16f;" horiz-adv-x="668" 
d="M333 555c-97 0 -157 40 -157 123c0 82 60 123 157 123s158 -41 158 -123s-61 -123 -158 -123zM333 645c22 0 38 8 38 33c0 24 -17 32 -38 32s-37 -8 -37 -32c0 -25 16 -33 37 -33zM314 130c87 0 144 46 144 188v187h160v-505h-160v61l30 90h-40
c-20 -90 -83 -161 -191 -161c-129 0 -207 86 -207 242v273h160v-248c0 -92 27 -127 104 -127z" />
    <glyph glyph-name="v" unicode="v" horiz-adv-x="607" 
d="M439 505h158l-128 -505h-330l-129 505h158l116 -465h40z" />
    <glyph glyph-name="w" unicode="w" horiz-adv-x="948" 
d="M10 505h153l65 -465h40l39 465h334l39 -465h40l66 465h152l-71 -505h-334l-39 465h-40l-39 -465h-334z" />
    <glyph glyph-name="wacute" unicode="&#x1e83;" horiz-adv-x="948" 
d="M255 669l390 86l27 -114l-390 -86zM10 505h153l65 -465h40l39 465h334l39 -465h40l66 465h152l-71 -505h-334l-39 465h-40l-39 -465h-334z" />
    <glyph glyph-name="wcircumflex" unicode="&#x175;" horiz-adv-x="948" 
d="M690 624l-85 -80l-131 91l-131 -91l-85 80l216 151zM10 505h153l65 -465h40l39 465h334l39 -465h40l66 465h152l-71 -505h-334l-39 465h-40l-39 -465h-334z" />
    <glyph glyph-name="wdieresis" unicode="&#x1e85;" horiz-adv-x="948" 
d="M343 555c-64 0 -99 28 -99 80c0 51 35 80 99 80s101 -29 101 -80c0 -52 -37 -80 -101 -80zM603 555c-64 0 -99 28 -99 80c0 51 35 80 99 80s101 -29 101 -80c0 -52 -37 -80 -101 -80zM10 505h153l65 -465h40l39 465h334l39 -465h40l66 465h152l-71 -505h-334l-39 465h-40
l-39 -465h-334z" />
    <glyph glyph-name="wgrave" unicode="&#x1e81;" horiz-adv-x="948" 
d="M692 669l-27 -114l-390 86l27 114zM10 505h153l65 -465h40l39 465h334l39 -465h40l66 465h152l-71 -505h-334l-39 465h-40l-39 -465h-334z" />
    <glyph glyph-name="x" unicode="x" horiz-adv-x="674" 
d="M30 0l192 233v40l-192 232h190l117 -162l117 162h190l-192 -232v-40l192 -233h-190l-117 163l-117 -163h-190z" />
    <glyph glyph-name="y" unicode="y" horiz-adv-x="672" 
d="M471 505h181l-231 -475v-156c0 -56 -31 -86 -86 -84l-247 7v140l173 -3v96l-231 475h180l111 -278v-80h40v80z" />
    <glyph glyph-name="yacute" unicode="&#xfd;" horiz-adv-x="672" 
d="M539 641l-390 -86l-27 114l390 86zM471 505h181l-231 -475v-156c0 -56 -31 -86 -86 -84l-247 7v140l173 -3v96l-231 475h180l111 -278v-80h40v80z" />
    <glyph glyph-name="ycircumflex" unicode="&#x177;" horiz-adv-x="672" 
d="M341 635l-131 -91l-85 80l216 151l216 -151l-85 -80zM471 505h181l-231 -475v-156c0 -56 -31 -86 -86 -84l-247 7v140l173 -3v96l-231 475h180l111 -278v-80h40v80z" />
    <glyph glyph-name="ydieresis" unicode="&#xff;" horiz-adv-x="672" 
d="M210 555c-64 0 -99 28 -99 80c0 51 35 80 99 80s101 -29 101 -80c0 -52 -37 -80 -101 -80zM470 555c-64 0 -99 28 -99 80c0 51 35 80 99 80s101 -29 101 -80c0 -52 -37 -80 -101 -80zM471 505h181l-231 -475v-156c0 -56 -31 -86 -86 -84l-247 7v140l173 -3v96l-231 475
h180l111 -278v-80h40v80z" />
    <glyph glyph-name="ygrave" unicode="&#x1ef3;" horiz-adv-x="672" 
d="M559 669l-27 -114l-390 86l27 114zM471 505h181l-231 -475v-156c0 -56 -31 -86 -86 -84l-247 7v140l173 -3v96l-231 475h180l111 -278v-80h40v80z" />
    <glyph glyph-name="z" unicode="z" horiz-adv-x="577" 
d="M40 0v270l457 85v40l-90 -30h-367v140h497v-270l-457 -85v-40l90 30h367v-140h-497z" />
    <glyph glyph-name="zacute" unicode="&#x17a;" horiz-adv-x="577" 
d="M70 669l390 86l27 -114l-390 -86zM40 0v270l457 85v40l-90 -30h-367v140h497v-270l-457 -85v-40l90 30h367v-140h-497z" />
    <glyph glyph-name="zcaron" unicode="&#x17e;" horiz-adv-x="577" 
d="M505 701l-216 -151l-216 151l85 80l131 -91l131 91zM40 0v270l457 85v40l-90 -30h-367v140h497v-270l-457 -85v-40l90 30h367v-140h-497z" />
    <glyph glyph-name="zdotaccent" unicode="&#x17c;" horiz-adv-x="577" 
d="M288 555c-64 0 -99 28 -99 80c0 51 35 80 99 80s101 -29 101 -80c0 -52 -37 -80 -101 -80zM40 0v270l457 85v40l-90 -30h-367v140h497v-270l-457 -85v-40l90 30h367v-140h-497z" />
    <glyph glyph-name="a.ss01" horiz-adv-x="708" 
d="M648 0h-160v31l30 90h-40c-26 -67 -84 -131 -199 -131c-156 0 -239 120 -239 263s83 262 239 262c115 0 173 -64 199 -131h40l-30 90v31h160v-505zM488 253c0 91 -58 122 -144 122s-144 -31 -144 -122c0 -92 58 -123 144 -123s144 31 144 123z" />
    <glyph glyph-name="aacute.ss01" horiz-adv-x="708" 
d="M135 669l390 86l27 -114l-390 -86zM648 0h-160v31l30 90h-40c-26 -67 -84 -131 -199 -131c-156 0 -239 120 -239 263s83 262 239 262c115 0 173 -64 199 -131h40l-30 90v31h160v-505zM488 253c0 91 -58 122 -144 122s-144 -31 -144 -122c0 -92 58 -123 144 -123
s144 31 144 123z" />
    <glyph glyph-name="abreve.ss01" horiz-adv-x="708" 
d="M537 754c0 -102 -48 -199 -183 -199s-183 97 -183 199h120c0 -70 24 -89 63 -89s63 19 63 89h120zM648 0h-160v31l30 90h-40c-26 -67 -84 -131 -199 -131c-156 0 -239 120 -239 263s83 262 239 262c115 0 173 -64 199 -131h40l-30 90v31h160v-505zM488 253
c0 91 -58 122 -144 122s-144 -31 -144 -122c0 -92 58 -123 144 -123s144 31 144 123z" />
    <glyph glyph-name="acircumflex.ss01" horiz-adv-x="708" 
d="M570 624l-85 -80l-131 91l-131 -91l-85 80l216 151zM648 0h-160v31l30 90h-40c-26 -67 -84 -131 -199 -131c-156 0 -239 120 -239 263s83 262 239 262c115 0 173 -64 199 -131h40l-30 90v31h160v-505zM488 253c0 91 -58 122 -144 122s-144 -31 -144 -122
c0 -92 58 -123 144 -123s144 31 144 123z" />
    <glyph glyph-name="adieresis.ss01" horiz-adv-x="708" 
d="M223 555c-64 0 -99 28 -99 80c0 51 35 80 99 80s101 -29 101 -80c0 -52 -37 -80 -101 -80zM483 555c-64 0 -99 28 -99 80c0 51 35 80 99 80s101 -29 101 -80c0 -52 -37 -80 -101 -80zM648 0h-160v31l30 90h-40c-26 -67 -84 -131 -199 -131c-156 0 -239 120 -239 263
s83 262 239 262c115 0 173 -64 199 -131h40l-30 90v31h160v-505zM488 253c0 91 -58 122 -144 122s-144 -31 -144 -122c0 -92 58 -123 144 -123s144 31 144 123z" />
    <glyph glyph-name="agrave.ss01" horiz-adv-x="708" 
d="M572 669l-27 -114l-390 86l27 114zM648 0h-160v31l30 90h-40c-26 -67 -84 -131 -199 -131c-156 0 -239 120 -239 263s83 262 239 262c115 0 173 -64 199 -131h40l-30 90v31h160v-505zM488 253c0 91 -58 122 -144 122s-144 -31 -144 -122c0 -92 58 -123 144 -123
s144 31 144 123z" />
    <glyph glyph-name="amacron.ss01" horiz-adv-x="708" 
d="M139 720h430v-118l-430 -2v120zM648 0h-160v31l30 90h-40c-26 -67 -84 -131 -199 -131c-156 0 -239 120 -239 263s83 262 239 262c115 0 173 -64 199 -131h40l-30 90v31h160v-505zM488 253c0 91 -58 122 -144 122s-144 -31 -144 -122c0 -92 58 -123 144 -123
s144 31 144 123z" />
    <glyph glyph-name="aogonek.ss01" horiz-adv-x="708" 
d="M610 -80l136 14v-120l-185 -15c-71 -6 -118 56 -85 106l62 95h-50v31l30 90h-40c-26 -67 -84 -131 -199 -131c-156 0 -239 120 -239 263s83 262 239 262c115 0 173 -64 199 -131h40l-30 90v31h160v-505zM344 130c86 0 144 31 144 123c0 91 -58 122 -144 122
s-144 -31 -144 -122c0 -92 58 -123 144 -123z" />
    <glyph glyph-name="aring.ss01" horiz-adv-x="708" 
d="M353 555c-97 0 -157 40 -157 123c0 82 60 123 157 123s158 -41 158 -123s-61 -123 -158 -123zM353 645c22 0 38 8 38 33c0 24 -17 32 -38 32s-37 -8 -37 -32c0 -25 16 -33 37 -33zM648 0h-160v31l30 90h-40c-26 -67 -84 -131 -199 -131c-156 0 -239 120 -239 263
s83 262 239 262c115 0 173 -64 199 -131h40l-30 90v31h160v-505zM488 253c0 91 -58 122 -144 122s-144 -31 -144 -122c0 -92 58 -123 144 -123s144 31 144 123z" />
    <glyph glyph-name="atilde.ss01" horiz-adv-x="708" 
d="M120 600c0 116 55 190 147 190s120 -80 164 -80c22 0 37 10 37 70h120c0 -116 -55 -190 -147 -190s-120 80 -164 80c-22 0 -37 -10 -37 -70h-120zM648 0h-160v31l30 90h-40c-26 -67 -84 -131 -199 -131c-156 0 -239 120 -239 263s83 262 239 262c115 0 173 -64 199 -131
h40l-30 90v31h160v-505zM488 253c0 91 -58 122 -144 122s-144 -31 -144 -122c0 -92 58 -123 144 -123s144 31 144 123z" />
    <glyph glyph-name="g.ss01" horiz-adv-x="708" 
d="M488 505h160v-621c0 -56 -31 -85 -86 -84l-424 7v140l350 -6v90l30 90h-40c-26 -67 -84 -131 -199 -131c-156 0 -239 120 -239 263s83 262 239 262c115 0 173 -64 199 -131h40l-30 90v31zM344 130c86 0 144 31 144 123c0 91 -58 122 -144 122s-144 -31 -144 -122
c0 -92 58 -123 144 -123z" />
    <glyph glyph-name="gbreve.ss01" horiz-adv-x="708" 
d="M335 555c-135 0 -183 97 -183 199h120c0 -70 24 -89 63 -89s63 19 63 89h120c0 -102 -48 -199 -183 -199zM488 505h160v-621c0 -56 -31 -85 -86 -84l-424 7v140l350 -6v90l30 90h-40c-26 -67 -84 -131 -199 -131c-156 0 -239 120 -239 263s83 262 239 262
c115 0 173 -64 199 -131h40l-30 90v31zM344 130c86 0 144 31 144 123c0 91 -58 122 -144 122s-144 -31 -144 -122c0 -92 58 -123 144 -123z" />
    <glyph glyph-name="uni0123.ss01" horiz-adv-x="708" 
d="M455 772l-73 -217l-116 31l73 217zM488 505h160v-621c0 -56 -31 -85 -86 -84l-424 7v140l350 -6v90l30 90h-40c-26 -67 -84 -131 -199 -131c-156 0 -239 120 -239 263s83 262 239 262c115 0 173 -64 199 -131h40l-30 90v31zM344 130c86 0 144 31 144 123
c0 91 -58 122 -144 122s-144 -31 -144 -122c0 -92 58 -123 144 -123z" />
    <glyph glyph-name="gdotaccent.ss01" horiz-adv-x="708" 
d="M334 555c-64 0 -99 28 -99 80c0 51 35 80 99 80s101 -29 101 -80c0 -52 -37 -80 -101 -80zM488 505h160v-621c0 -56 -31 -85 -86 -84l-424 7v140l350 -6v90l30 90h-40c-26 -67 -84 -131 -199 -131c-156 0 -239 120 -239 263s83 262 239 262c115 0 173 -64 199 -131h40
l-30 90v31zM344 130c86 0 144 31 144 123c0 91 -58 122 -144 122s-144 -31 -144 -122c0 -92 58 -123 144 -123z" />
    <glyph glyph-name="k.ss01" horiz-adv-x="707" 
d="M677 505l-247 -203l247 -302h-196l-167 207l-94 -77v-130h-160v735h160v-411l220 181h237z" />
    <glyph glyph-name="uni0137.ss01" horiz-adv-x="707" 
d="M677 505l-247 -203l247 -302h-196l-167 207l-94 -77v-130h-160v735h160v-411l220 181h237zM240 -220l62 171l114 -37l-62 -171z" />
    <glyph glyph-name="uni0410" unicode="&#x410;" horiz-adv-x="777" 
d="M595 0l-64 226h-286l-63 -226h-162l203 705h330l204 -705h-162zM284 366h208l-84 299h-40z" />
    <glyph glyph-name="uni0411" unicode="&#x411;" horiz-adv-x="677" 
d="M313 475c168 0 314 -30 314 -238s-146 -237 -314 -237h-253v705h484v-140h-324v-90h93zM313 140c115 0 154 10 154 97s-39 98 -154 98h-93v-195h93z" />
    <glyph glyph-name="uni0412" unicode="&#x412;" horiz-adv-x="701" 
d="M60 0v705h248c196 0 291 -34 291 -173c0 -132 -94 -135 -169 -141v-40c107 -4 221 -14 221 -164c0 -160 -147 -187 -331 -187h-260zM220 437h108c65 0 111 0 111 64s-46 64 -111 64h-108v-128zM220 140h120c95 0 151 0 151 78c0 79 -56 79 -151 79h-120v-157z" />
    <glyph glyph-name="uni0413" unicode="&#x413;" horiz-adv-x="587" 
d="M60 0v705h497v-140h-337v-565h-160z" />
    <glyph glyph-name="uni0403" unicode="&#x403;" horiz-adv-x="587" 
d="M103 869l390 86l27 -114l-390 -86zM60 0v705h497v-140h-337v-565h-160z" />
    <glyph glyph-name="uni0490" unicode="&#x490;" horiz-adv-x="567" 
d="M397 815h160v-250h-337v-565h-160v705h337v110z" />
    <glyph glyph-name="uni0414" unicode="&#x414;" horiz-adv-x="774" 
d="M688 140h66v-280h-160v140h-414v-140h-160v280h66c64 82 104 269 104 565h498v-565zM246 140h282v425h-181c-11 -216 -48 -357 -101 -425z" />
    <glyph glyph-name="uni0415" unicode="&#x415;" horiz-adv-x="603" 
d="M60 0v705h503v-140h-343v-142h293v-140h-293v-143h343v-140h-503z" />
    <glyph glyph-name="uni0400" unicode="&#x400;" horiz-adv-x="603" 
d="M530 869l-27 -114l-390 86l27 114zM60 0v705h503v-140h-343v-142h293v-140h-293v-143h343v-140h-503z" />
    <glyph glyph-name="uni0401" unicode="&#x401;" horiz-adv-x="603" 
d="M181 755c-64 0 -99 28 -99 80c0 51 35 80 99 80s101 -29 101 -80c0 -52 -37 -80 -101 -80zM441 755c-64 0 -99 28 -99 80c0 51 35 80 99 80s101 -29 101 -80c0 -52 -37 -80 -101 -80zM60 0v705h503v-140h-343v-142h293v-140h-293v-143h343v-140h-503z" />
    <glyph glyph-name="uni0416" unicode="&#x416;" horiz-adv-x="1072" 
d="M1052 565h-121l-175 -200l296 -365h-198l-203 257c-10 -6 -22 -11 -35 -13v-244h-160v244c-13 2 -25 7 -35 13l-203 -257h-198l296 365l-175 200h-121v140h138c44 0 76 -16 104 -48l194 -223v271h160v-271l194 223c28 32 60 48 104 48h138v-140z" />
    <glyph glyph-name="uni0417" unicode="&#x417;" horiz-adv-x="732" 
d="M50 269h160c0 -111 44 -139 169 -139c103 0 143 24 143 81c0 56 -37 82 -97 82h-98v140h98c60 0 87 25 87 71c0 47 -30 71 -133 71c-125 0 -159 -28 -159 -109h-160c0 182 138 249 319 249c169 0 293 -62 293 -191c0 -106 -77 -126 -167 -141v-40
c90 -12 177 -27 177 -152c0 -139 -134 -201 -303 -201c-181 0 -329 67 -329 279z" />
    <glyph glyph-name="uni0418" unicode="&#x418;" horiz-adv-x="818" 
d="M758 0h-160v565l30 100h-40l-213 -665h-315v705h160v-565l-30 -100h40l213 665h315v-705z" />
    <glyph glyph-name="uni0419" unicode="&#x419;" horiz-adv-x="818" 
d="M608 954c0 -102 -48 -199 -183 -199s-183 97 -183 199h120c0 -70 24 -89 63 -89s63 19 63 89h120zM758 0h-160v565l30 100h-40l-213 -665h-315v705h160v-565l-30 -100h40l213 665h315v-705z" />
    <glyph glyph-name="uni040D" unicode="&#x40d;" horiz-adv-x="818" 
d="M643 869l-27 -114l-390 86l27 114zM758 0h-160v565l30 100h-40l-213 -665h-315v705h160v-565l-30 -100h40l213 665h315v-705z" />
    <glyph glyph-name="uni041A" unicode="&#x41a;" horiz-adv-x="696" 
d="M486 0l-211 271c-17 -14 -34 -23 -55 -27v-244h-160v705h160v-271l194 223c28 32 60 48 104 48h138v-140h-121l-158 -180l299 -385h-190z" />
    <glyph glyph-name="uni040C" unicode="&#x40c;" horiz-adv-x="696" 
d="M536 841l-390 -86l-27 114l390 86zM486 0l-211 271c-17 -14 -34 -23 -55 -27v-244h-160v705h160v-271l194 223c28 32 60 48 104 48h138v-140h-121l-158 -180l299 -385h-190z" />
    <glyph glyph-name="uni041B" unicode="&#x41b;" horiz-adv-x="736" 
d="M676 705v-705h-160v565h-189c-4 -320 -37 -565 -307 -565v140c148 0 148 233 148 565h508z" />
    <glyph glyph-name="uni041C" unicode="&#x41c;" horiz-adv-x="996" 
d="M60 0v705h315l103 -665h40l103 665h315v-705h-160v565l30 100h-40l-113 -665h-310l-113 665h-40l30 -100v-565h-160z" />
    <glyph glyph-name="uni041D" unicode="&#x41d;" horiz-adv-x="794" 
d="M574 705h160v-705h-160v273h-354v-273h-160v705h160v-292h354v292z" />
    <glyph glyph-name="uni041E" unicode="&#x41e;" horiz-adv-x="819" 
d="M50 353c0 205 136 362 360 362c223 0 359 -157 359 -362c0 -206 -136 -363 -359 -363c-224 0 -360 157 -360 363zM210 353c0 -136 67 -223 200 -223s199 87 199 223c0 135 -66 222 -199 222s-200 -87 -200 -222z" />
    <glyph glyph-name="uni041F" unicode="&#x41f;" horiz-adv-x="734" 
d="M674 705v-705h-160v565h-294v-565h-160v705h614z" />
    <glyph glyph-name="uni0420" unicode="&#x420;" horiz-adv-x="667" 
d="M313 705c178 0 314 -34 314 -247c0 -214 -136 -248 -314 -248h-93v-210h-160v705h253zM323 350c95 0 144 10 144 108c0 97 -49 107 -144 107h-103v-215h103z" />
    <glyph glyph-name="uni0421" unicode="&#x421;" horiz-adv-x="810" 
d="M50 353c0 205 138 362 362 362c197 0 327 -108 348 -282h-160c-16 93 -90 142 -186 142c-123 0 -204 -77 -204 -222c0 -146 81 -223 204 -223c96 0 170 50 186 143h160c-21 -175 -151 -283 -348 -283c-224 0 -362 157 -362 363z" />
    <glyph glyph-name="uni0422" unicode="&#x422;" horiz-adv-x="681" 
d="M651 705v-140h-230v-565h-160v565h-231v140h621z" />
    <glyph glyph-name="uni0423" unicode="&#x423;" horiz-adv-x="692" 
d="M501 705h171l-241 -485v-146c0 -56 -31 -86 -86 -84l-247 7v140l173 -6v89l-241 485h170l131 -286v-80h40v80z" />
    <glyph glyph-name="uni0424" unicode="&#x424;" horiz-adv-x="869" 
d="M839 351c0 -162 -120 -260 -334 -277v-74h-140v74c-215 17 -335 115 -335 277c0 161 120 259 335 276v78h140v-78c214 -17 334 -115 334 -276zM190 351c0 -92 57 -128 175 -138v275c-118 -10 -175 -46 -175 -137zM505 213c117 10 174 47 174 138s-57 127 -174 137v-275z
" />
    <glyph glyph-name="uni0425" unicode="&#x425;" horiz-adv-x="789" 
d="M20 0l238 333v40l-238 332h184l190 -270l191 270h184l-239 -332v-40l239 -333h-184l-191 271l-190 -271h-184z" />
    <glyph glyph-name="uni0427" unicode="&#x427;" horiz-adv-x="750" 
d="M530 705h160v-705h-160v228l-383 -20c-56 -3 -87 26 -87 82v415h160v-353l310 16v337z" />
    <glyph glyph-name="uni0426" unicode="&#x426;" horiz-adv-x="893" 
d="M778 140c55 0 85 -30 85 -85v-195h-160v140h-643v705h160v-565h294v565h160v-565h104z" />
    <glyph glyph-name="uni0428" unicode="&#x428;" horiz-adv-x="998" 
d="M778 705h160v-705h-878v705h160v-565h199v565h160v-565h199v565z" />
    <glyph glyph-name="uni0429" unicode="&#x429;" horiz-adv-x="1157" 
d="M1042 140c55 0 85 -30 85 -85v-195h-160v140h-907v705h160v-565h199v565h160v-565h199v565h160v-565h104z" />
    <glyph glyph-name="uni040F" unicode="&#x40f;" horiz-adv-x="754" 
d="M534 705h160v-705h-237v-140h-160v140h-237v705h160v-565h314v565z" />
    <glyph glyph-name="uni042C" unicode="&#x42c;" horiz-adv-x="667" 
d="M220 705v-230h93c168 0 314 -30 314 -238s-146 -237 -314 -237h-253v705h160zM220 140h93c115 0 154 10 154 97s-39 98 -154 98h-93v-195z" />
    <glyph glyph-name="uni042A" unicode="&#x42a;" horiz-adv-x="787" 
d="M433 475c168 0 314 -30 314 -238s-146 -237 -314 -237h-253v565h-160v140h320v-230h93zM433 140c115 0 154 10 154 97s-39 98 -154 98h-93v-195h93z" />
    <glyph glyph-name="uni042B" unicode="&#x42b;" horiz-adv-x="936" 
d="M220 705v-230h93c168 0 314 -30 314 -238s-146 -237 -314 -237h-253v705h160zM716 705h160v-705h-160v705zM220 140h93c115 0 154 10 154 97s-39 98 -154 98h-93v-195z" />
    <glyph glyph-name="uni0409" unicode="&#x409;" horiz-adv-x="1123" 
d="M769 475c168 0 314 -30 314 -238s-146 -237 -314 -237h-253v565h-189c-4 -320 -37 -565 -307 -565v140c148 0 148 233 148 565h508v-230h93zM769 140c115 0 154 10 154 97s-39 98 -154 98h-93v-195h93z" />
    <glyph glyph-name="uni040A" unicode="&#x40a;" horiz-adv-x="1181" 
d="M827 475c168 0 314 -30 314 -238s-146 -237 -314 -237h-253v273h-354v-273h-160v705h160v-292h354v292h160v-230h93zM827 140c115 0 154 10 154 97s-39 98 -154 98h-93v-195h93z" />
    <glyph glyph-name="uni0405" unicode="&#x405;" horiz-adv-x="711" 
d="M681 194c0 -121 -85 -204 -302 -204c-254 0 -349 104 -349 282h160c0 -108 54 -142 194 -142c103 0 137 24 137 62c0 51 -86 74 -189 109c-149 50 -270 90 -270 228c0 120 95 186 277 186c216 0 313 -110 313 -250h-160c0 86 -66 110 -153 110c-72 0 -117 -16 -117 -52
c0 -32 17 -44 130 -82c130 -44 329 -100 329 -247z" />
    <glyph glyph-name="uni0404" unicode="&#x404;" horiz-adv-x="810" 
d="M414 130c96 0 170 50 186 143h160c-21 -175 -151 -283 -348 -283c-224 0 -362 157 -362 363c0 205 138 362 362 362c197 0 327 -108 348 -282h-160c-16 93 -90 142 -186 142c-101 0 -174 -52 -197 -152h255v-140h-255c23 -100 95 -153 197 -153z" />
    <glyph glyph-name="uni042D" unicode="&#x42d;" horiz-adv-x="810" 
d="M398 715c224 0 362 -157 362 -362c0 -206 -138 -363 -362 -363c-197 0 -327 108 -348 283h160c16 -93 90 -143 186 -143c102 0 174 53 197 153h-255v140h255c-23 100 -96 152 -197 152c-96 0 -170 -49 -186 -142h-160c21 174 151 282 348 282z" />
    <glyph glyph-name="uni0406" unicode="&#x406;" horiz-adv-x="580" 
d="M530 565h-160v-425h160v-140h-480v140h160v425h-160v140h480v-140z" />
    <glyph glyph-name="uni0407" unicode="&#x407;" horiz-adv-x="580" 
d="M159 755c-64 0 -99 28 -99 80c0 51 35 80 99 80s101 -29 101 -80c0 -52 -37 -80 -101 -80zM419 755c-64 0 -99 28 -99 80c0 51 35 80 99 80s101 -29 101 -80c0 -52 -37 -80 -101 -80zM530 565h-160v-425h160v-140h-480v140h160v425h-160v140h480v-140z" />
    <glyph glyph-name="uni0408" unicode="&#x408;" horiz-adv-x="535" 
d="M199 -10l-179 10v140l179 -10c117 -7 126 73 126 194v251l-212 -10v140l287 10c55 2 85 -30 85 -85v-360c0 -199 -60 -293 -286 -280z" />
    <glyph glyph-name="uni040B" unicode="&#x40b;" horiz-adv-x="863" 
d="M716 497c56 3 87 -26 87 -82v-415h-160v353l-310 -16v-337h-160v565h-153v140h560v-140h-247v-88z" />
    <glyph glyph-name="uni042E" unicode="&#x42e;" horiz-adv-x="1026" 
d="M637 715c223 0 339 -147 339 -362c0 -216 -116 -363 -339 -363c-199 0 -313 116 -336 293h-81v-283h-160v705h160v-282h81c24 176 137 292 336 292zM637 130c113 0 179 60 179 223c0 162 -66 222 -179 222s-180 -60 -180 -222c0 -163 67 -223 180 -223z" />
    <glyph glyph-name="uni042F" unicode="&#x42f;" horiz-adv-x="687" 
d="M627 705v-705h-160v290h-74l-120 -229c-22 -42 -54 -61 -101 -61h-152v140h125l84 156c-117 17 -196 72 -196 202c0 163 126 207 294 207h300zM467 430v135h-160c-75 0 -114 -10 -114 -67c0 -58 39 -68 114 -68h160z" />
    <glyph glyph-name="uni0402" unicode="&#x402;" horiz-adv-x="867" 
d="M530 443c182 25 297 -19 297 -199c0 -198 -165 -244 -315 -244v140c106 0 155 38 155 94c0 73 -57 81 -140 69l-127 -18v-285h-160v565h-220v140h600v-140h-220v-140z" />
    <glyph glyph-name="uni0430" unicode="&#x430;" horiz-adv-x="644" 
d="M40 138c0 87 52 138 202 159l159 22c0 41 -32 66 -101 66c-64 0 -100 -27 -100 -73h-150c0 128 109 203 250 203c139 0 261 -67 261 -233v-142h73v-140h-111c-48 0 -75 27 -75 75v10l25 60h-40c-19 -84 -68 -155 -209 -155c-157 0 -184 96 -184 148zM200 168
c0 -29 28 -38 55 -38c88 0 146 37 146 99l-129 -18c-48 -7 -72 -14 -72 -43z" />
    <glyph glyph-name="uni0431" unicode="&#x431;" horiz-adv-x="696" 
d="M50 327c0 210 97 299 259 351c125 40 158 59 167 97h180c-18 -141 -152 -178 -287 -207c-136 -29 -196 -79 -216 -181l-40 -90h40c22 138 109 218 241 218c155 0 259 -110 259 -256c0 -152 -91 -269 -301 -269c-194 0 -302 123 -302 337zM210 253c0 -81 52 -123 142 -123
s141 42 141 123s-51 122 -141 122s-142 -41 -142 -122z" />
    <glyph glyph-name="uni0432" unicode="&#x432;" horiz-adv-x="576" 
d="M60 0v505h235c128 0 214 -24 214 -119c0 -90 -71 -102 -111 -105v-40c66 -1 148 -15 148 -110c0 -97 -86 -131 -214 -131h-272zM210 313h85c48 0 64 3 64 41c0 35 -16 41 -64 41h-85v-82zM210 110h122c47 0 64 12 64 47c0 38 -17 46 -64 46h-122v-93z" />
    <glyph glyph-name="uni0433" unicode="&#x433;" horiz-adv-x="498" 
d="M60 0v505h428v-140h-268v-365h-160z" />
    <glyph glyph-name="uni0453" unicode="&#x453;" horiz-adv-x="505" 
d="M60 669l390 86l27 -114l-390 -86zM67 0v505h428v-140h-268v-365h-160z" />
    <glyph glyph-name="uni0491" unicode="&#x491;" horiz-adv-x="498" 
d="M328 634h160v-269h-268v-365h-160v505h268v129z" />
    <glyph glyph-name="uni0434" unicode="&#x434;" horiz-adv-x="714" 
d="M598 140h66v-280h-160v140h-304v-140h-160v280h66c54 72 74 169 74 365h418v-365zM266 140h172v225h-103c-8 -107 -30 -173 -69 -225z" />
    <glyph glyph-name="uni0435" unicode="&#x435;" horiz-adv-x="631" 
d="M40 259c0 160 109 256 266 256s267 -93 267 -246v-50h-383c0 -58 42 -99 133 -99c56 0 98 20 108 58h160c-10 -73 -93 -188 -268 -188c-194 0 -283 126 -283 269zM190 309h233c0 38 -28 76 -117 76s-116 -38 -116 -76z" />
    <glyph glyph-name="uni0450" unicode="&#x450;" horiz-adv-x="631" 
d="M534 669l-27 -114l-390 86l27 114zM40 259c0 160 109 256 266 256s267 -93 267 -246v-50h-383c0 -58 42 -99 133 -99c56 0 98 20 108 58h160c-10 -73 -93 -188 -268 -188c-194 0 -283 126 -283 269zM190 309h233c0 38 -28 76 -117 76s-116 -38 -116 -76z" />
    <glyph glyph-name="uni0451" unicode="&#x451;" horiz-adv-x="631" 
d="M185 555c-64 0 -99 28 -99 80c0 51 35 80 99 80s101 -29 101 -80c0 -52 -37 -80 -101 -80zM445 555c-64 0 -99 28 -99 80c0 51 35 80 99 80s101 -29 101 -80c0 -52 -37 -80 -101 -80zM40 259c0 160 109 256 266 256s267 -93 267 -246v-50h-383c0 -58 42 -99 133 -99
c56 0 98 20 108 58h160c-10 -73 -93 -188 -268 -188c-194 0 -283 126 -283 269zM190 309h233c0 38 -28 76 -117 76s-116 -38 -116 -76z" />
    <glyph glyph-name="uni0436" unicode="&#x436;" horiz-adv-x="880" 
d="M860 365h-81l-73 -95l154 -270h-173l-107 188h-9h-51v-188h-160v188h-51h-9l-107 -188h-173l154 270l-73 95h-81v140h90c43 0 81 -8 106 -41l101 -136h43v177h160v-177h43l101 136c25 33 63 41 106 41h90v-140z" />
    <glyph glyph-name="uni0437" unicode="&#x437;" horiz-adv-x="586" 
d="M50 194h150c0 -80 32 -94 102 -94c53 0 84 15 84 54c0 43 -31 50 -75 50h-50v110h50c44 0 65 15 65 46c0 35 -24 45 -78 45c-69 0 -88 -13 -88 -63h-150c0 112 79 173 238 173c150 0 228 -57 228 -138c0 -75 -52 -98 -106 -98v-40c54 0 116 -25 116 -104
c0 -87 -84 -145 -234 -145c-159 0 -252 62 -252 204z" />
    <glyph glyph-name="uni0438" unicode="&#x438;" horiz-adv-x="692" 
d="M652 0h-160v380l30 85h-40l-109 -465h-313v505h160v-375l-30 -90h40l109 465h313v-505z" />
    <glyph glyph-name="uni0439" unicode="&#x439;" horiz-adv-x="692" 
d="M544 754c0 -102 -48 -199 -183 -199s-183 97 -183 199h120c0 -70 24 -89 63 -89s63 19 63 89h120zM652 0h-160v380l30 85h-40l-109 -465h-313v505h160v-375l-30 -90h40l109 465h313v-505z" />
    <glyph glyph-name="uni043A" unicode="&#x43a;" horiz-adv-x="600" 
d="M580 0h-173l-108 189c-9 -1 -18 -1 -28 -1h-51v-188h-160v505h160v-177h43l101 136c25 33 63 41 106 41h90v-140h-81l-61 -80z" />
    <glyph glyph-name="uni045C" unicode="&#x45c;" horiz-adv-x="600" 
d="M517 641l-390 -86l-27 114l390 86zM580 0h-173l-108 189c-9 -1 -18 -1 -28 -1h-51v-188h-160v505h160v-177h43l101 136c25 33 63 41 106 41h90v-140h-81l-61 -80z" />
    <glyph glyph-name="uni043B" unicode="&#x43b;" horiz-adv-x="626" 
d="M566 505v-505h-160v365h-109c-7 -231 -46 -365 -257 -365v140c88 0 98 83 98 365h428z" />
    <glyph glyph-name="uni043C" unicode="&#x43c;" horiz-adv-x="879" 
d="M60 0v505h317l42 -465h40l42 465h318v-505h-160v375l30 90h-40l-54 -465h-312l-53 465h-40l30 -90v-375h-160z" />
    <glyph glyph-name="uni043D" unicode="&#x43d;" horiz-adv-x="678" 
d="M458 505h160v-505h-160v183h-238v-183h-160v505h160v-182h238v182z" />
    <glyph glyph-name="uni043E" unicode="&#x43e;" horiz-adv-x="649" 
d="M40 253c0 176 126 262 285 262c158 0 284 -86 284 -262c0 -177 -126 -263 -284 -263c-159 0 -285 86 -285 263zM200 253c0 -85 49 -123 125 -123c75 0 124 38 124 123c0 84 -49 122 -124 122c-76 0 -125 -38 -125 -122z" />
    <glyph glyph-name="uni043F" unicode="&#x43f;" horiz-adv-x="634" 
d="M574 505v-505h-160v365h-194v-365h-160v505h514z" />
    <glyph glyph-name="uni0440" unicode="&#x440;" horiz-adv-x="688" 
d="M60 505h160v-31l-30 -90h40c26 67 74 131 199 131c146 0 219 -120 219 -263s-73 -262 -219 -262c-125 0 -173 64 -199 131h-40l30 -90v-221h-160v695zM220 252c0 -86 48 -122 134 -122s134 36 134 122s-48 123 -134 123s-134 -37 -134 -123z" />
    <glyph glyph-name="uni0441" unicode="&#x441;" horiz-adv-x="627" 
d="M40 253c0 168 115 262 276 262c138 0 264 -75 271 -219h-160c-6 45 -47 79 -111 79c-76 0 -116 -45 -116 -122c0 -78 40 -123 116 -123c64 0 105 34 111 79h160c-7 -144 -133 -219 -271 -219c-161 0 -276 94 -276 263z" />
    <glyph glyph-name="uni0442" unicode="&#x442;" horiz-adv-x="600" 
d="M570 505v-140h-190v-365h-160v365h-190v140h540z" />
    <glyph glyph-name="uni0443" unicode="&#x443;" horiz-adv-x="672" 
d="M471 505h181l-231 -475v-156c0 -56 -31 -86 -86 -84l-247 7v140l173 -3v96l-231 475h180l111 -278v-80h40v80z" />
    <glyph glyph-name="uni0444" unicode="&#x444;" horiz-adv-x="809" 
d="M769 254c0 -156 -115 -243 -294 -261v-173h-140v173c-180 18 -295 105 -295 261c0 153 115 240 295 258v163h140v-163c179 -18 294 -105 294 -258zM200 254c0 -75 50 -109 135 -120v237c-85 -11 -135 -44 -135 -117zM475 134c84 11 134 45 134 120c0 73 -50 106 -134 117
v-237z" />
    <glyph glyph-name="uni0445" unicode="&#x445;" horiz-adv-x="674" 
d="M30 0l192 233v40l-192 232h190l117 -162l117 162h190l-192 -232v-40l192 -233h-190l-117 163l-117 -163h-190z" />
    <glyph glyph-name="uni0447" unicode="&#x447;" horiz-adv-x="660" 
d="M440 505h160v-505h-160v180l-292 -19c-56 -4 -88 26 -88 82v262h160v-203l220 18v185z" />
    <glyph glyph-name="uni0446" unicode="&#x446;" horiz-adv-x="764" 
d="M659 140c55 0 85 -30 85 -85v-195h-160v140h-524v505h160v-365h194v365h160v-365h85z" />
    <glyph glyph-name="uni0448" unicode="&#x448;" horiz-adv-x="818" 
d="M598 505h160v-505h-698v505h160v-365h109v365h160v-365h109v365z" />
    <glyph glyph-name="uni0449" unicode="&#x449;" horiz-adv-x="948" 
d="M843 140c55 0 85 -30 85 -85v-195h-160v140h-708v505h160v-365h109v365h160v-365h109v365h160v-365h85z" />
    <glyph glyph-name="uni045F" unicode="&#x45f;" horiz-adv-x="674" 
d="M454 495h160v-495h-197v-140h-160v140h-197v495h160v-355h234v355z" />
    <glyph glyph-name="uni044C" unicode="&#x44c;" horiz-adv-x="576" 
d="M292 396c118 0 244 -34 244 -198s-126 -198 -244 -198h-232v505h160v-109h72zM220 140h62c67 0 94 7 94 58s-27 58 -94 58h-62v-116z" />
    <glyph glyph-name="uni044A" unicode="&#x44a;" horiz-adv-x="668" 
d="M384 396c118 0 244 -34 244 -198s-126 -198 -244 -198h-232v365h-132v140h292v-109h72zM374 140c67 0 94 7 94 58s-27 58 -94 58h-62v-116h62z" />
    <glyph glyph-name="uni044B" unicode="&#x44b;" horiz-adv-x="833" 
d="M292 396c118 0 244 -34 244 -198s-126 -198 -244 -198h-232v505h160v-109h72zM613 0v505h160v-505h-160zM220 140h62c67 0 94 7 94 58s-27 58 -94 58h-62v-116z" />
    <glyph glyph-name="uni0459" unicode="&#x459;" horiz-adv-x="922" 
d="M638 396c118 0 244 -34 244 -198s-126 -198 -244 -198h-232v365h-109c-7 -231 -46 -365 -257 -365v140c88 0 98 83 98 365h428v-109h72zM628 140c67 0 94 7 94 58s-27 58 -94 58h-62v-116h62z" />
    <glyph glyph-name="uni045A" unicode="&#x45a;" horiz-adv-x="974" 
d="M690 396c118 0 244 -34 244 -198s-126 -198 -244 -198h-232v183h-238v-183h-160v505h160v-182h238v182h160v-109h72zM680 140c67 0 94 7 94 58s-27 58 -94 58h-62v-116h62z" />
    <glyph glyph-name="uni0455" unicode="&#x455;" horiz-adv-x="551" 
d="M531 139c0 -85 -61 -149 -235 -149c-186 0 -266 75 -266 193h160c0 -39 27 -73 111 -73c43 0 70 10 70 34c0 26 -28 33 -109 60c-94 31 -209 56 -209 169c0 90 81 142 220 142c171 0 241 -85 241 -183h-160c0 36 -27 63 -82 63c-38 0 -59 -9 -59 -29
c0 -24 50 -39 130 -65c98 -32 188 -57 188 -162z" />
    <glyph glyph-name="uni0454" unicode="&#x454;" horiz-adv-x="627" 
d="M316 130c64 0 105 34 111 79h160c-7 -144 -133 -219 -271 -219c-161 0 -276 94 -276 263c0 168 115 262 276 262c138 0 264 -75 271 -219h-160c-6 45 -47 79 -111 79c-58 0 -95 -26 -109 -72h150v-100h-150c14 -47 51 -73 109 -73z" />
    <glyph glyph-name="uni044D" unicode="&#x44d;" horiz-adv-x="627" 
d="M311 515c161 0 276 -94 276 -262c0 -169 -115 -263 -276 -263c-138 0 -264 75 -271 219h160c6 -45 47 -79 111 -79c58 0 95 26 109 73h-150v100h150c-14 46 -51 72 -109 72c-64 0 -105 -34 -111 -79h-160c7 144 133 219 271 219z" />
    <glyph glyph-name="uni0456" unicode="&#x456;" horiz-adv-x="500" 
d="M247 555c-59 0 -94 28 -94 80c0 51 35 80 94 80s96 -29 96 -80c0 -52 -37 -80 -96 -80zM40 0v140h143v231l-123 -6v140l190 10c56 3 87 -28 87 -84v-291h143v-140h-440z" />
    <glyph glyph-name="uni0457" unicode="&#x457;" horiz-adv-x="519" 
d="M128 555c-64 0 -99 28 -99 80c0 51 35 80 99 80s101 -29 101 -80c0 -52 -37 -80 -101 -80zM388 555c-64 0 -99 28 -99 80c0 51 35 80 99 80s101 -29 101 -80c0 -52 -37 -80 -101 -80zM59 0v140h143v231l-123 -6v140l190 10c56 3 87 -28 87 -84v-291h143v-140h-440z" />
    <glyph glyph-name="uni0458" unicode="&#x458;" horiz-adv-x="347" 
d="M206 555c-59 0 -94 28 -94 80c0 51 35 80 94 80s96 -29 96 -80c0 -52 -37 -80 -96 -80zM10 -200l106 174c13 21 17 42 17 68v329l-123 -6v140l203 7c55 2 86 -28 86 -83v-399c0 -26 -4 -44 -17 -68l-92 -162h-180z" />
    <glyph glyph-name="uni045B" unicode="&#x45b;" horiz-adv-x="718" 
d="M461 515c129 0 207 -86 207 -242v-273h-160v248c0 92 -27 127 -104 127c-87 0 -144 -46 -144 -188v-187h-160v567h-60v120h60v48h160v-48h140v-120h-140v-123l-30 -90h40c20 90 83 161 191 161z" />
    <glyph glyph-name="uni044E" unicode="&#x44e;" horiz-adv-x="839" 
d="M545 515c168 0 254 -109 254 -262c0 -154 -86 -263 -254 -263c-142 0 -225 77 -248 193h-77v-183h-160v505h160v-182h77c23 115 106 192 248 192zM545 130c65 0 94 40 94 123c0 82 -29 122 -94 122c-66 0 -95 -40 -95 -122c0 -83 29 -123 95 -123z" />
    <glyph glyph-name="uni044F" unicode="&#x44f;" horiz-adv-x="549" 
d="M489 505v-505h-160v200h-40l-103 -146c-27 -38 -57 -54 -102 -54h-74v130h77l53 74c-66 11 -117 44 -117 149c0 113 96 152 194 152h272zM329 310v85h-72c-55 0 -74 -10 -74 -42c0 -33 19 -43 74 -43h72z" />
    <glyph glyph-name="uni0452" unicode="&#x452;" horiz-adv-x="728" 
d="M471 515c129 0 207 -86 207 -242v-389c0 -56 -31 -86 -86 -84l-247 7v140l173 -6v307c0 92 -27 127 -104 127c-87 0 -144 -46 -144 -188v-187h-160v567h-60v120h60v48h160v-48h140v-120h-140v-123l-30 -90h40c20 90 83 161 191 161z" />
    <glyph glyph-name="uni0438.loclBGR" horiz-adv-x="692" 
d="M652 0h-160v380l30 85h-40l-109 -465h-313v505h160v-375l-30 -90h40l109 465h313v-505z" />
    <glyph glyph-name="uni0439.loclBGR" horiz-adv-x="692" 
d="M544 754c0 -102 -48 -199 -183 -199s-183 97 -183 199h120c0 -70 24 -89 63 -89s63 19 63 89h120zM652 0h-160v380l30 85h-40l-109 -465h-313v505h160v-375l-30 -90h40l109 465h313v-505z" />
    <glyph glyph-name="uni045D.loclBGR" horiz-adv-x="692" 
d="M579 669l-27 -114l-390 86l27 114zM652 0h-160v380l30 85h-40l-109 -465h-313v505h160v-375l-30 -90h40l109 465h313v-505z" />
    <glyph glyph-name="zero" unicode="0" horiz-adv-x="759" 
d="M380 715c213 0 339 -147 339 -362c0 -216 -126 -363 -339 -363c-214 0 -340 147 -340 363c0 215 126 362 340 362zM380 575c-113 0 -180 -77 -180 -222c0 -35 4 -65 11 -92l269 287c-27 18 -61 27 -100 27zM380 130c113 0 179 77 179 223c0 34 -4 65 -11 92l-269 -287
c28 -19 62 -28 101 -28z" />
    <glyph glyph-name="one" unicode="1" horiz-adv-x="580" 
d="M30 425c130 51 179 119 179 280h311v-705h-160v575l30 90h-40c-12 -182 -47 -318 -264 -385z" />
    <glyph glyph-name="two" unicode="2" horiz-adv-x="696" 
d="M40 382c0 237 148 333 333 333c167 0 283 -83 283 -237c0 -237 -236 -267 -566 -328v-40l100 30h466v-140h-606v280c72 10 446 49 446 205c0 45 -30 90 -121 90c-121 0 -175 -58 -175 -193h-160z" />
    <glyph glyph-name="three" unicode="3" horiz-adv-x="712" 
d="M30 269h160c0 -111 44 -139 169 -139c103 0 143 24 143 81c0 56 -37 82 -97 82h-98v140h98c60 0 87 25 87 71c0 47 -30 71 -133 71c-125 0 -159 -28 -159 -109h-160c0 182 138 249 319 249c169 0 293 -62 293 -191c0 -106 -77 -126 -167 -141v-40
c90 -12 177 -27 177 -152c0 -139 -134 -201 -303 -201c-181 0 -329 67 -329 279z" />
    <glyph glyph-name="four" unicode="4" horiz-adv-x="695" 
d="M655 259v-140h-77v-119h-160v119h-368v291c168 26 271 128 283 295h160c-11 -233 -153 -384 -403 -436v-40l100 30h228v156h160v-156h77z" />
    <glyph glyph-name="five" unicode="5" horiz-adv-x="732" 
d="M40 259h160c0 -85 47 -129 172 -129c113 0 150 44 150 132c0 75 -37 113 -112 113c-59 0 -106 -24 -146 -75l-180 104v301h542v-140h-382v-101l-30 -90l33 -19c38 110 112 160 211 160c124 0 224 -87 224 -249c0 -194 -124 -276 -310 -276s-332 77 -332 269z" />
    <glyph glyph-name="six" unicode="6" horiz-adv-x="723" 
d="M50 347c0 220 97 389 349 368l237 -20v-140l-237 20c-128 11 -206 -26 -236 -158l-40 -90h40c12 118 119 188 251 188c175 0 279 -97 279 -258c0 -157 -121 -267 -321 -267c-194 0 -322 113 -322 357zM210 247c0 -61 50 -117 162 -117c110 0 161 33 161 127
c0 82 -49 118 -157 118c-117 0 -166 -45 -166 -128z" />
    <glyph glyph-name="seven" unicode="7" horiz-adv-x="609" 
d="M114 0c0 305 166 478 425 555v40l-90 -30h-419v140h549v-231c-211 -86 -295 -214 -295 -474h-170z" />
    <glyph glyph-name="eight" unicode="8" horiz-adv-x="689" 
d="M20 198c0 123 100 158 207 170v40c-79 7 -167 37 -167 144c0 128 146 163 285 163c138 0 284 -35 284 -163c0 -107 -88 -137 -167 -144v-40c107 -12 207 -57 207 -170c0 -149 -131 -208 -324 -208c-194 0 -325 59 -325 208zM220 516c0 -43 39 -59 125 -59
c85 0 124 16 124 59c0 42 -39 59 -124 59c-86 0 -125 -17 -125 -59zM180 223c0 -63 49 -93 165 -93c115 0 164 30 164 93c0 62 -49 94 -164 94c-116 0 -165 -32 -165 -94z" />
    <glyph glyph-name="nine" unicode="9" horiz-adv-x="723" 
d="M673 358c0 -220 -97 -389 -349 -368l-237 20v140l237 -20c128 -11 206 26 236 158l40 90h-40c-12 -118 -119 -188 -251 -188c-175 0 -279 97 -279 258c0 157 121 267 321 267c194 0 322 -113 322 -357zM513 458c0 61 -50 117 -162 117c-110 0 -161 -33 -161 -127
c0 -82 49 -118 157 -118c117 0 166 45 166 128z" />
    <glyph glyph-name="uni24FF" unicode="&#x24ff;" 
d="M548 -177c-308 0 -498 223 -498 498s190 498 498 498s498 -223 498 -498s-190 -498 -498 -498zM332 322c0 -143 74 -248 217 -248c142 0 216 105 216 248c0 141 -74 247 -216 247c-143 0 -217 -106 -217 -247zM452 322c0 75 37 127 97 127c25 0 44 -7 58 -18l-147 -165
c-5 16 -8 35 -8 56zM491 215l148 163c4 -16 6 -35 6 -56c0 -76 -27 -128 -96 -128c-23 0 -42 8 -58 21z" />
    <glyph glyph-name="uni2776" unicode="&#x2776;" 
d="M548 -177c308 0 498 223 498 498s-190 498 -498 498s-498 -223 -498 -498s190 -498 498 -498zM355 389c61 51 72 67 83 169h226v-475h-120v365l20 70h-30c-6 -89 -29 -197 -128 -239z" />
    <glyph glyph-name="uni2777" unicode="&#x2777;" 
d="M548 -177c308 0 498 223 498 498s-190 498 -498 498s-498 -223 -498 -498s190 -498 498 -498zM343 377c0 111 68 212 215 212c136 0 185 -83 185 -164c0 -143 -147 -186 -334 -206v-30l70 15h264v-100h-374v185c43 6 254 22 254 136c0 32 -18 64 -74 64
c-67 0 -86 -40 -86 -112h-120z" />
    <glyph glyph-name="uni2778" unicode="&#x2778;" 
d="M548 -177c308 0 498 223 498 498s-190 498 -498 498s-498 -223 -498 -498s190 -498 498 -498zM338 263h120c0 -77 41 -89 99 -89c51 0 82 10 82 57c0 45 -33 50 -71 50h-48v99h48c38 0 64 5 64 44c0 35 -24 45 -75 45c-58 0 -93 -13 -93 -64h-120c0 104 79 164 213 164
c136 0 196 -58 196 -127c0 -71 -55 -88 -117 -98v-30c62 -12 123 -24 123 -100c0 -85 -66 -140 -202 -140c-134 0 -219 59 -219 189z" />
    <glyph glyph-name="uni2779" unicode="&#x2779;" 
d="M548 -177c308 0 498 223 498 498s-190 498 -498 498s-498 -223 -498 -498s190 -498 498 -498zM346 155v246c101 19 166 72 182 169h120c-12 -120 -90 -249 -282 -285v-30l70 20h130v79h120v-79h65v-120h-65v-60h-120v60h-220z" />
    <glyph glyph-name="uni277A" unicode="&#x277a;" 
d="M548 -177c308 0 498 223 498 498s-190 498 -498 498s-498 -223 -498 -498s190 -498 498 -498zM352 217h120c0 -44 39 -63 85 -63c53 0 90 16 90 70c0 62 -31 77 -63 77c-40 0 -66 -25 -85 -55l-134 46v247h373v-100h-253v-86l-16 -44l20 -11c16 56 60 103 141 103
c98 0 137 -77 137 -166c0 -97 -62 -181 -206 -181c-133 0 -209 57 -209 163z" />
    <glyph glyph-name="uni277B" unicode="&#x277b;" 
d="M548 -177c308 0 498 223 498 498s-190 498 -498 498s-498 -223 -498 -498s190 -498 498 -498zM336 301c0 155 55 292 268 267l85 -10v-100l-95 10c-136 14 -175 -42 -175 -121l-31 -70h30c13 58 60 129 164 129c81 0 158 -43 158 -164c0 -124 -92 -169 -192 -169
c-136 0 -212 67 -212 228zM456 240c0 -47 25 -67 82 -67c56 0 82 20 82 67c0 45 -26 66 -82 66c-57 0 -82 -21 -82 -66z" />
    <glyph glyph-name="uni277C" unicode="&#x277c;" 
d="M548 -177c308 0 498 223 498 498s-190 498 -498 498s-498 -223 -498 -498s190 -498 498 -498zM430 62c0 210 91 300 273 345v30h-329v100h369v-203c-148 -45 -193 -123 -193 -272h-120z" />
    <glyph glyph-name="uni277D" unicode="&#x277d;" 
d="M548 -177c308 0 498 223 498 498s-190 498 -498 498s-498 -223 -498 -498s190 -498 498 -498zM344 206c0 81 72 109 135 118v20c-47 6 -112 31 -112 105c0 73 59 120 181 120c121 0 180 -47 180 -120c0 -74 -65 -99 -111 -105v-20c63 -9 135 -37 135 -118
c0 -80 -74 -132 -204 -132s-204 52 -204 132zM487 429c0 -22 9 -45 61 -45s60 23 60 45c0 21 -8 40 -60 40s-61 -19 -61 -40zM464 228c0 -37 28 -54 84 -54c55 0 84 17 84 54s-29 56 -84 56c-56 0 -84 -19 -84 -56z" />
    <glyph glyph-name="uni277E" unicode="&#x277e;" 
d="M548 -177c308 0 498 223 498 498s-190 498 -498 498s-498 -223 -498 -498s190 -498 498 -498zM763 343c0 -155 -55 -292 -268 -267l-85 10v100l95 -10c136 -14 175 42 175 121l31 70h-30c-13 -58 -60 -129 -164 -129c-81 0 -158 43 -158 164c0 124 92 169 192 169
c136 0 212 -67 212 -228zM643 404c0 47 -25 67 -82 67c-56 0 -82 -20 -82 -67c0 -45 26 -66 82 -66c57 0 82 21 82 66z" />
    <glyph glyph-name="uni24EA" unicode="&#x24ea;" 
d="M548 819c308 0 498 -223 498 -498s-190 -498 -498 -498s-498 223 -498 498s190 498 498 498zM548 -77c246 0 398 183 398 398s-152 398 -398 398s-398 -183 -398 -398s152 -398 398 -398zM549 569c142 0 216 -106 216 -247c0 -143 -74 -248 -216 -248
c-143 0 -217 105 -217 248c0 141 74 247 217 247zM549 449c-60 0 -97 -52 -97 -127c0 -21 3 -40 8 -56l147 165c-14 11 -33 18 -58 18zM549 194c69 0 96 52 96 128c0 21 -2 40 -6 56l-148 -163c16 -13 35 -21 58 -21z" />
    <glyph glyph-name="uni2460" unicode="&#x2460;" 
d="M548 -177c-308 0 -498 223 -498 498s190 498 498 498s498 -223 498 -498s-190 -498 -498 -498zM548 -77c246 0 398 183 398 398s-152 398 -398 398s-398 -183 -398 -398s152 -398 398 -398zM355 389c61 51 72 67 83 169h226v-475h-120v365l20 70h-30
c-6 -89 -29 -197 -128 -239z" />
    <glyph glyph-name="uni2461" unicode="&#x2461;" 
d="M548 -177c-308 0 -498 223 -498 498s190 498 498 498s498 -223 498 -498s-190 -498 -498 -498zM548 -77c246 0 398 183 398 398s-152 398 -398 398s-398 -183 -398 -398s152 -398 398 -398zM343 377c0 111 68 212 215 212c136 0 185 -83 185 -164
c0 -143 -147 -186 -334 -206v-30l70 15h264v-100h-374v185c43 6 254 22 254 136c0 32 -18 64 -74 64c-67 0 -86 -40 -86 -112h-120z" />
    <glyph glyph-name="uni2462" unicode="&#x2462;" 
d="M548 -177c-308 0 -498 223 -498 498s190 498 498 498s498 -223 498 -498s-190 -498 -498 -498zM548 -77c246 0 398 183 398 398s-152 398 -398 398s-398 -183 -398 -398s152 -398 398 -398zM338 263h120c0 -77 41 -89 99 -89c51 0 82 10 82 57c0 45 -33 50 -71 50h-48v99
h48c38 0 64 5 64 44c0 35 -24 45 -75 45c-58 0 -93 -13 -93 -64h-120c0 104 79 164 213 164c136 0 196 -58 196 -127c0 -71 -55 -88 -117 -98v-30c62 -12 123 -24 123 -100c0 -85 -66 -140 -202 -140c-134 0 -219 59 -219 189z" />
    <glyph glyph-name="uni2463" unicode="&#x2463;" 
d="M548 -177c-308 0 -498 223 -498 498s190 498 498 498s498 -223 498 -498s-190 -498 -498 -498zM548 -77c246 0 398 183 398 398s-152 398 -398 398s-398 -183 -398 -398s152 -398 398 -398zM344 148v246c101 19 166 72 182 169h120c-12 -120 -90 -249 -282 -285v-30
l70 20h130v79h120v-79h65v-120h-65v-60h-120v60h-220z" />
    <glyph glyph-name="uni2464" unicode="&#x2464;" 
d="M548 -177c-308 0 -498 223 -498 498s190 498 498 498s498 -223 498 -498s-190 -498 -498 -498zM548 -77c246 0 398 183 398 398s-152 398 -398 398s-398 -183 -398 -398s152 -398 398 -398zM352 217h120c0 -44 39 -63 85 -63c53 0 90 16 90 70c0 62 -31 77 -63 77
c-40 0 -66 -25 -85 -55l-134 46v247h373v-100h-253v-86l-16 -44l20 -11c16 56 60 103 141 103c98 0 137 -77 137 -166c0 -97 -62 -181 -206 -181c-133 0 -209 57 -209 163z" />
    <glyph glyph-name="uni2465" unicode="&#x2465;" 
d="M548 -177c-308 0 -498 223 -498 498s190 498 498 498s498 -223 498 -498s-190 -498 -498 -498zM548 -77c246 0 398 183 398 398s-152 398 -398 398s-398 -183 -398 -398s152 -398 398 -398zM336 301c0 155 55 292 268 267l85 -10v-100l-95 10c-136 14 -175 -42 -175 -121
l-31 -70h30c13 58 60 129 164 129c81 0 158 -43 158 -164c0 -124 -92 -169 -192 -169c-136 0 -212 67 -212 228zM456 240c0 -47 25 -67 82 -67c56 0 82 20 82 67c0 45 -26 66 -82 66c-57 0 -82 -21 -82 -66z" />
    <glyph glyph-name="uni2466" unicode="&#x2466;" 
d="M548 -177c-308 0 -498 223 -498 498s190 498 498 498s498 -223 498 -498s-190 -498 -498 -498zM548 -77c246 0 398 183 398 398s-152 398 -398 398s-398 -183 -398 -398s152 -398 398 -398zM430 62c0 210 91 300 273 345v30h-329v100h369v-203
c-148 -45 -193 -123 -193 -272h-120z" />
    <glyph glyph-name="uni2467" unicode="&#x2467;" 
d="M548 -177c-308 0 -498 223 -498 498s190 498 498 498s498 -223 498 -498s-190 -498 -498 -498zM548 -77c246 0 398 183 398 398s-152 398 -398 398s-398 -183 -398 -398s152 -398 398 -398zM344 206c0 81 72 109 135 118v20c-47 6 -112 31 -112 105c0 73 59 120 181 120
c121 0 180 -47 180 -120c0 -74 -65 -99 -111 -105v-20c63 -9 135 -37 135 -118c0 -80 -74 -132 -204 -132s-204 52 -204 132zM487 429c0 -22 9 -45 61 -45s60 23 60 45c0 21 -8 40 -60 40s-61 -19 -61 -40zM464 228c0 -37 28 -54 84 -54c55 0 84 17 84 54s-29 56 -84 56
c-56 0 -84 -19 -84 -56z" />
    <glyph glyph-name="uni2468" unicode="&#x2468;" 
d="M548 -177c-308 0 -498 223 -498 498s190 498 498 498s498 -223 498 -498s-190 -498 -498 -498zM548 -77c246 0 398 183 398 398s-152 398 -398 398s-398 -183 -398 -398s152 -398 398 -398zM763 343c0 -155 -55 -292 -268 -267l-85 10v100l95 -10c136 -14 175 42 175 121
l31 70h-30c-13 -58 -60 -129 -164 -129c-81 0 -158 43 -158 164c0 124 92 169 192 169c136 0 212 -67 212 -228zM643 404c0 47 -25 67 -82 67c-56 0 -82 -20 -82 -67c0 -45 26 -66 82 -66c57 0 82 21 82 66z" />
    <glyph glyph-name="zero.dnom" horiz-adv-x="493" 
d="M247 485c142 0 216 -106 216 -247c0 -143 -74 -248 -216 -248c-143 0 -217 105 -217 248c0 141 74 247 217 247zM247 365c-60 0 -97 -52 -97 -127c0 -21 3 -40 8 -56l147 165c-14 11 -33 18 -58 18zM247 110c69 0 96 52 96 128c0 21 -2 40 -6 56l-148 -163
c16 -13 35 -21 58 -21z" />
    <glyph glyph-name="one.dnom" horiz-adv-x="369" 
d="M30 306c61 51 72 67 83 169h226v-475h-120v365l20 70h-30c-6 -89 -29 -197 -128 -239z" />
    <glyph glyph-name="two.dnom" horiz-adv-x="460" 
d="M30 273c0 111 68 212 215 212c136 0 185 -83 185 -164c0 -143 -147 -186 -334 -206v-30l70 15h264v-100h-374v185c43 6 254 22 254 136c0 32 -18 64 -74 64c-67 0 -86 -40 -86 -112h-120z" />
    <glyph glyph-name="three.dnom" horiz-adv-x="481" 
d="M30 179h120c0 -77 41 -89 99 -89c51 0 82 10 82 57c0 45 -33 50 -71 50h-48v99h48c38 0 64 5 64 44c0 35 -24 45 -75 45c-58 0 -93 -13 -93 -64h-120c0 104 79 164 213 164c136 0 196 -58 196 -127c0 -71 -55 -88 -117 -98v-30c62 -12 123 -24 123 -100
c0 -85 -66 -140 -202 -140c-134 0 -219 59 -219 189z" />
    <glyph glyph-name="four.dnom" horiz-adv-x="465" 
d="M30 60v246c101 19 166 72 182 169h120c-12 -120 -90 -249 -282 -285v-30l70 20h130v79h120v-79h65v-120h-65v-60h-120v60h-220z" />
    <glyph glyph-name="five.dnom" horiz-adv-x="475" 
d="M30 153h120c0 -44 39 -63 85 -63c53 0 90 16 90 70c0 62 -31 77 -63 77c-40 0 -66 -25 -85 -55l-134 46v247h373v-100h-253v-86l-16 -44l20 -11c16 56 60 103 141 103c98 0 137 -77 137 -166c0 -97 -62 -181 -206 -181c-133 0 -209 57 -209 163z" />
    <glyph glyph-name="six.dnom" horiz-adv-x="464" 
d="M30 218c0 155 55 292 268 267l85 -10v-100l-95 10c-136 14 -175 -42 -175 -121l-31 -70h30c13 58 60 129 164 129c81 0 158 -43 158 -164c0 -124 -92 -169 -192 -169c-136 0 -212 67 -212 228zM150 157c0 -47 25 -67 82 -67c56 0 82 20 82 67c0 45 -26 66 -82 66
c-57 0 -82 -21 -82 -66z" />
    <glyph glyph-name="seven.dnom" horiz-adv-x="429" 
d="M86 0c0 210 91 300 273 345v30h-329v100h369v-203c-148 -45 -193 -123 -193 -272h-120z" />
    <glyph glyph-name="eight.dnom" horiz-adv-x="468" 
d="M30 122c0 81 72 109 135 118v20c-47 6 -112 31 -112 105c0 73 59 120 181 120c121 0 180 -47 180 -120c0 -74 -65 -99 -111 -105v-20c63 -9 135 -37 135 -118c0 -80 -74 -132 -204 -132s-204 52 -204 132zM173 345c0 -22 9 -45 61 -45s60 23 60 45c0 21 -8 40 -60 40
s-61 -19 -61 -40zM150 144c0 -37 28 -54 84 -54c55 0 84 17 84 54s-29 56 -84 56c-56 0 -84 -19 -84 -56z" />
    <glyph glyph-name="nine.dnom" horiz-adv-x="464" 
d="M434 260c0 -155 -55 -292 -268 -267l-85 10v100l95 -10c136 -14 175 42 175 121l31 70h-30c-13 -58 -60 -129 -164 -129c-81 0 -158 43 -158 164c0 124 92 169 192 169c136 0 212 -67 212 -228zM314 321c0 47 -25 67 -82 67c-56 0 -82 -20 -82 -67c0 -45 26 -66 82 -66
c57 0 82 21 82 66z" />
    <glyph glyph-name="zero.numr" horiz-adv-x="493" 
d="M247 783c142 0 216 -106 216 -247c0 -143 -74 -248 -216 -248c-143 0 -217 105 -217 248c0 141 74 247 217 247zM247 663c-60 0 -97 -52 -97 -127c0 -21 3 -40 8 -56l147 165c-14 11 -33 18 -58 18zM247 408c69 0 96 52 96 128c0 21 -2 40 -6 56l-148 -163
c16 -13 35 -21 58 -21z" />
    <glyph glyph-name="one.numr" horiz-adv-x="369" 
d="M30 596c61 51 72 67 83 169h226v-475h-120v365l20 70h-30c-6 -89 -29 -197 -128 -239z" />
    <glyph glyph-name="two.numr" horiz-adv-x="460" 
d="M30 567c0 111 68 212 215 212c136 0 185 -83 185 -164c0 -143 -147 -186 -334 -206v-30l70 15h264v-100h-374v185c43 6 254 22 254 136c0 32 -18 64 -74 64c-67 0 -86 -40 -86 -112h-120z" />
    <glyph glyph-name="three.numr" horiz-adv-x="481" 
d="M30 473h120c0 -77 41 -89 99 -89c51 0 82 10 82 57c0 45 -33 50 -71 50h-48v99h48c38 0 64 5 64 44c0 35 -24 45 -75 45c-58 0 -93 -13 -93 -64h-120c0 104 79 164 213 164c136 0 196 -58 196 -127c0 -71 -55 -88 -117 -98v-30c62 -12 123 -24 123 -100
c0 -85 -66 -140 -202 -140c-134 0 -219 59 -219 189z" />
    <glyph glyph-name="four.numr" horiz-adv-x="465" 
d="M30 350v246c101 19 166 72 182 169h120c-12 -120 -90 -249 -282 -285v-30l70 20h130v79h120v-79h65v-120h-65v-60h-120v60h-220z" />
    <glyph glyph-name="five.numr" horiz-adv-x="475" 
d="M30 447h120c0 -44 39 -63 85 -63c53 0 90 16 90 70c0 62 -31 77 -63 77c-40 0 -66 -25 -85 -55l-134 46v247h373v-100h-253v-86l-16 -44l20 -11c16 56 60 103 141 103c98 0 137 -77 137 -166c0 -97 -62 -181 -206 -181c-133 0 -209 57 -209 163z" />
    <glyph glyph-name="six.numr" horiz-adv-x="464" 
d="M30 517c0 155 55 292 268 267l85 -10v-100l-95 10c-136 14 -175 -42 -175 -121l-31 -70h30c13 58 60 129 164 129c81 0 158 -43 158 -164c0 -124 -92 -169 -192 -169c-136 0 -212 67 -212 228zM150 456c0 -47 25 -67 82 -67c56 0 82 20 82 67c0 45 -26 66 -82 66
c-57 0 -82 -21 -82 -66z" />
    <glyph glyph-name="seven.numr" horiz-adv-x="429" 
d="M86 290c0 210 91 300 273 345v30h-329v100h369v-203c-148 -45 -193 -123 -193 -272h-120z" />
    <glyph glyph-name="eight.numr" horiz-adv-x="468" 
d="M30 420c0 81 72 109 135 118v20c-47 6 -112 31 -112 105c0 73 59 120 181 120c121 0 180 -47 180 -120c0 -74 -65 -99 -111 -105v-20c63 -9 135 -37 135 -118c0 -80 -74 -132 -204 -132s-204 52 -204 132zM173 643c0 -22 9 -45 61 -45s60 23 60 45c0 21 -8 40 -60 40
s-61 -19 -61 -40zM150 442c0 -37 28 -54 84 -54c55 0 84 17 84 54s-29 56 -84 56c-56 0 -84 -19 -84 -56z" />
    <glyph glyph-name="nine.numr" horiz-adv-x="464" 
d="M434 559c0 -155 -55 -292 -268 -267l-85 10v100l95 -10c136 -14 175 42 175 121l31 70h-30c-13 -58 -60 -129 -164 -129c-81 0 -158 43 -158 164c0 124 92 169 192 169c136 0 212 -67 212 -228zM314 620c0 47 -25 67 -82 67c-56 0 -82 -20 -82 -67c0 -45 26 -66 82 -66
c57 0 82 21 82 66z" />
    <glyph glyph-name="fraction" unicode="&#x2044;" horiz-adv-x="431" 
d="M328 814l113 -44l-338 -879l-113 44z" />
    <glyph glyph-name="onehalf" unicode="&#xbd;" horiz-adv-x="1180" 
d="M677 814l113 -44l-338 -879l-113 44zM30 596c61 51 72 67 83 169h226v-475h-120v365l20 70h-30c-6 -89 -29 -197 -128 -239zM750 273c0 111 68 212 215 212c136 0 185 -83 185 -164c0 -143 -147 -186 -334 -206v-30l70 15h264v-100h-374v185c43 6 254 22 254 136
c0 32 -18 64 -74 64c-67 0 -86 -40 -86 -112h-120z" />
    <glyph glyph-name="onequarter" unicode="&#xbc;" horiz-adv-x="1195" 
d="M677 814l113 -44l-338 -879l-113 44zM30 596c61 51 72 67 83 169h226v-475h-120v365l20 70h-30c-6 -89 -29 -197 -128 -239zM760 60v246c101 19 166 72 182 169h120c-12 -120 -90 -249 -282 -285v-30l70 20h130v79h120v-79h65v-120h-65v-60h-120v60h-220z" />
    <glyph glyph-name="threequarters" unicode="&#xbe;" horiz-adv-x="1268" 
d="M750 814l113 -44l-338 -879l-113 44zM30 473h120c0 -77 41 -89 99 -89c51 0 82 10 82 57c0 45 -33 50 -71 50h-48v99h48c38 0 64 5 64 44c0 35 -24 45 -75 45c-58 0 -93 -13 -93 -64h-120c0 104 79 164 213 164c136 0 196 -58 196 -127c0 -71 -55 -88 -117 -98v-30
c62 -12 123 -24 123 -100c0 -85 -66 -140 -202 -140c-134 0 -219 59 -219 189zM833 60v246c101 19 166 72 182 169h120c-12 -120 -90 -249 -282 -285v-30l70 20h130v79h120v-79h65v-120h-65v-60h-120v60h-220z" />
    <glyph glyph-name="oneeighth" unicode="&#x215b;" horiz-adv-x="1187" 
d="M676 814l113 -44l-338 -879l-113 44zM30 596c61 51 72 67 83 169h226v-475h-120v365l20 70h-30c-6 -89 -29 -197 -128 -239zM749 122c0 81 72 109 135 118v20c-47 6 -112 31 -112 105c0 73 59 120 181 120c121 0 180 -47 180 -120c0 -74 -65 -99 -111 -105v-20
c63 -9 135 -37 135 -118c0 -80 -74 -132 -204 -132s-204 52 -204 132zM892 345c0 -22 9 -45 61 -45s60 23 60 45c0 21 -8 40 -60 40s-61 -19 -61 -40zM869 144c0 -37 28 -54 84 -54c55 0 84 17 84 54s-29 56 -84 56c-56 0 -84 -19 -84 -56z" />
    <glyph glyph-name="threeeighths" unicode="&#x215c;" horiz-adv-x="1240" 
d="M730 814l113 -44l-338 -879l-113 44zM30 473h120c0 -77 41 -89 99 -89c51 0 82 10 82 57c0 45 -33 50 -71 50h-48v99h48c38 0 64 5 64 44c0 35 -24 45 -75 45c-58 0 -93 -13 -93 -64h-120c0 104 79 164 213 164c136 0 196 -58 196 -127c0 -71 -55 -88 -117 -98v-30
c62 -12 123 -24 123 -100c0 -85 -66 -140 -202 -140c-134 0 -219 59 -219 189zM802 122c0 81 72 109 135 118v20c-47 6 -112 31 -112 105c0 73 59 120 181 120c121 0 180 -47 180 -120c0 -74 -65 -99 -111 -105v-20c63 -9 135 -37 135 -118c0 -80 -74 -132 -204 -132
s-204 52 -204 132zM945 345c0 -22 9 -45 61 -45s60 23 60 45c0 21 -8 40 -60 40s-61 -19 -61 -40zM922 144c0 -37 28 -54 84 -54c55 0 84 17 84 54s-29 56 -84 56c-56 0 -84 -19 -84 -56z" />
    <glyph glyph-name="fiveeighths" unicode="&#x215d;" horiz-adv-x="1233" 
d="M723 814l113 -44l-338 -879l-113 44zM30 447h120c0 -44 39 -63 85 -63c53 0 90 16 90 70c0 62 -31 77 -63 77c-40 0 -66 -25 -85 -55l-134 46v247h373v-100h-253v-86l-16 -44l20 -11c16 56 60 103 141 103c98 0 137 -77 137 -166c0 -97 -62 -181 -206 -181
c-133 0 -209 57 -209 163zM795 122c0 81 72 109 135 118v20c-47 6 -112 31 -112 105c0 73 59 120 181 120c121 0 180 -47 180 -120c0 -74 -65 -99 -111 -105v-20c63 -9 135 -37 135 -118c0 -80 -74 -132 -204 -132s-204 52 -204 132zM938 345c0 -22 9 -45 61 -45
s60 23 60 45c0 21 -8 40 -60 40s-61 -19 -61 -40zM915 144c0 -37 28 -54 84 -54c55 0 84 17 84 54s-29 56 -84 56c-56 0 -84 -19 -84 -56z" />
    <glyph glyph-name="seveneighths" unicode="&#x215e;" horiz-adv-x="1168" 
d="M657 814l113 -44l-338 -879l-113 44zM86 290c0 210 91 300 273 345v30h-329v100h369v-203c-148 -45 -193 -123 -193 -272h-120zM730 122c0 81 72 109 135 118v20c-47 6 -112 31 -112 105c0 73 59 120 181 120c121 0 180 -47 180 -120c0 -74 -65 -99 -111 -105v-20
c63 -9 135 -37 135 -118c0 -80 -74 -132 -204 -132s-204 52 -204 132zM873 345c0 -22 9 -45 61 -45s60 23 60 45c0 21 -8 40 -60 40s-61 -19 -61 -40zM850 144c0 -37 28 -54 84 -54c55 0 84 17 84 54s-29 56 -84 56c-56 0 -84 -19 -84 -56z" />
    <glyph glyph-name="period" unicode="." horiz-adv-x="360" 
d="M179 -10c-68 0 -109 48 -109 111c0 61 41 109 109 109c66 0 111 -48 111 -109c0 -63 -45 -111 -111 -111z" />
    <glyph glyph-name="comma" unicode="," horiz-adv-x="314" 
d="M128 182l116 -31l-98 -354l-116 31z" />
    <glyph glyph-name="colon" unicode=":" horiz-adv-x="360" 
d="M179 295c-68 0 -109 48 -109 111c0 61 41 109 109 109c66 0 111 -48 111 -109c0 -63 -45 -111 -111 -111zM179 -10c-68 0 -109 48 -109 111c0 61 41 109 109 109c66 0 111 -48 111 -109c0 -63 -45 -111 -111 -111z" />
    <glyph glyph-name="semicolon" unicode=";" horiz-adv-x="390" 
d="M209 295c-68 0 -109 48 -109 111c0 61 41 109 109 109c66 0 111 -48 111 -109c0 -63 -45 -111 -111 -111zM128 182l116 -31l-98 -354l-116 31z" />
    <glyph glyph-name="ellipsis" unicode="&#x2026;" horiz-adv-x="910" 
d="M179 -10c-68 0 -109 48 -109 111c0 61 41 109 109 109c66 0 111 -48 111 -109c0 -63 -45 -111 -111 -111zM454 -10c-68 0 -109 48 -109 111c0 61 41 109 109 109c66 0 111 -48 111 -109c0 -63 -45 -111 -111 -111zM729 -10c-68 0 -109 48 -109 111c0 61 41 109 109 109
c66 0 111 -48 111 -109c0 -63 -45 -111 -111 -111z" />
    <glyph glyph-name="exclam" unicode="!" horiz-adv-x="360" 
d="M100 705h160l-30 -446h-100zM179 -10c-68 0 -109 48 -109 111c0 61 41 109 109 109c66 0 111 -48 111 -109c0 -63 -45 -111 -111 -111z" />
    <glyph glyph-name="exclamdown" unicode="&#xa1;" horiz-adv-x="361" 
d="M180 515c66 0 111 -48 111 -111c0 -61 -45 -109 -111 -109c-68 0 -109 48 -109 109c0 63 41 111 109 111zM101 -200l30 446h100l30 -446h-160z" />
    <glyph glyph-name="question" unicode="?" horiz-adv-x="545" 
d="M50 540c0 112 68 205 237 205c156 0 208 -86 208 -161c0 -160 -192 -201 -351 -218v-34l76 27h228v-100h-344v198c142 3 271 35 271 123c0 46 -38 65 -90 65c-83 0 -115 -38 -115 -105h-120zM275 -10c-68 0 -109 48 -109 111c0 61 41 109 109 109c66 0 111 -48 111 -109
c0 -63 -45 -111 -111 -111z" />
    <glyph glyph-name="questiondown" unicode="&#xbf;" horiz-adv-x="555" 
d="M280 515c68 0 109 -48 109 -111c0 -61 -41 -109 -109 -109c-66 0 -111 48 -111 109c0 63 45 111 111 111zM505 -35c0 -112 -68 -205 -237 -205c-156 0 -208 86 -208 161c0 160 192 201 351 218v34l-76 -27h-228v100h344v-198c-142 -3 -271 -35 -271 -123
c0 -46 38 -65 90 -65c83 0 115 38 115 105h120z" />
    <glyph glyph-name="periodcentered" unicode="&#xb7;" horiz-adv-x="360" 
d="M179 143c-68 0 -109 48 -109 111c0 61 41 109 109 109c66 0 111 -48 111 -109c0 -63 -45 -111 -111 -111z" />
    <glyph glyph-name="bullet" unicode="&#x2022;" horiz-adv-x="783" 
d="M389 -69c-199 0 -319 140 -319 324c0 179 120 319 319 319c193 0 324 -140 324 -319c0 -184 -131 -324 -324 -324z" />
    <glyph glyph-name="asterisk" unicode="*" horiz-adv-x="518" 
d="M50 548l31 95l97 -31l51 -39l-19 60v102h100v-102l-20 -61l50 37l97 31l31 -95l-97 -32h-64l50 -36l60 -82l-81 -59l-59 82l-20 61l-19 -59l-60 -82l-81 59l60 82l52 37l-62 1z" />
    <glyph glyph-name="numbersign" unicode="#" horiz-adv-x="1115" 
d="M1045 405h-219l-77 -200h189v-100h-227l-98 -254l-113 44l81 210h-200l-98 -254l-113 44l81 210h-181v100h219l77 200h-189v100h228l103 269l113 -44l-87 -225h201l103 269l113 -44l-87 -225h181v-100zM619 205l77 200h-200l-77 -200h200z" />
    <glyph glyph-name="slash" unicode="/" horiz-adv-x="551" 
d="M388 814l113 -44l-338 -879l-113 44z" />
    <glyph glyph-name="backslash" unicode="\" horiz-adv-x="551" 
d="M163 814l338 -879l-113 -44l-338 879z" />
    <glyph glyph-name="colon.case" horiz-adv-x="360" 
d="M179 417c-68 0 -109 48 -109 111c0 61 41 109 109 109c66 0 111 -48 111 -109c0 -63 -45 -111 -111 -111zM179 67c-68 0 -109 48 -109 111c0 61 41 109 109 109c66 0 111 -48 111 -109c0 -63 -45 -111 -111 -111z" />
    <glyph glyph-name="bullet.case" horiz-adv-x="783" 
d="M389 31c-199 0 -319 140 -319 324c0 179 120 319 319 319c193 0 324 -140 324 -319c0 -184 -131 -324 -324 -324z" />
    <glyph glyph-name="parenleft" unicode="(" horiz-adv-x="451" 
d="M381 -50v-100c-216 40 -311 208 -311 428s95 387 311 427v-100c-160 -50 -191 -167 -191 -327s31 -278 191 -328z" />
    <glyph glyph-name="parenright" unicode=")" horiz-adv-x="451" 
d="M70 -50c160 50 191 168 191 328s-31 277 -191 327v100c216 -40 311 -207 311 -427s-95 -388 -311 -428v100z" />
    <glyph glyph-name="braceleft" unicode="{" horiz-adv-x="664" 
d="M362 605l-90 30v-40c157 -38 228 -73 228 -198c0 -35 -13 -77 -34 -117c21 -40 34 -82 34 -117c0 -125 -71 -160 -228 -198v-40l90 30h222v-100h-352v171c104 32 168 68 168 165c-43 -43 -96 -73 -151 -73c-99 0 -169 59 -169 162s60 162 169 162c55 0 108 -30 151 -73
c0 97 -64 133 -168 165v171h352v-100h-222zM268 208c33 0 72 33 99 72c-27 39 -66 72 -99 72c-37 0 -68 -24 -68 -72s31 -72 68 -72z" />
    <glyph glyph-name="braceright" unicode="}" horiz-adv-x="644" 
d="M574 280c0 -103 -70 -162 -169 -162c-55 0 -108 30 -151 73c0 -97 64 -133 168 -165v-171h-352v100h222l90 -30v40c-157 38 -228 73 -228 198c0 35 13 77 34 117c-21 40 -34 82 -34 117c0 125 71 160 228 198v40l-90 -30h-222v100h352v-171c-104 -32 -168 -68 -168 -165
c43 43 96 73 151 73c109 0 169 -59 169 -162zM287 280c27 -39 66 -72 99 -72c37 0 68 24 68 72s-31 72 -68 72c-33 0 -72 -33 -99 -72z" />
    <glyph glyph-name="bracketleft" unicode="[" horiz-adv-x="461" 
d="M70 705h321v-100h-200v-655h200v-100h-321v855z" />
    <glyph glyph-name="bracketright" unicode="]" horiz-adv-x="461" 
d="M391 705v-855h-321v100h200v655h-200v100h321z" />
    <glyph glyph-name="parenleft.case" horiz-adv-x="451" 
d="M381 25v-100c-216 40 -311 208 -311 428s95 387 311 427v-100c-160 -50 -191 -167 -191 -327s31 -278 191 -328z" />
    <glyph glyph-name="parenright.case" horiz-adv-x="451" 
d="M70 25c160 50 191 168 191 328s-31 277 -191 327v100c216 -40 311 -207 311 -427s-95 -388 -311 -428v100z" />
    <glyph glyph-name="braceleft.case" horiz-adv-x="644" 
d="M352 675l-90 30v-40c157 -38 228 -73 228 -198c0 -35 -13 -77 -34 -117c21 -40 34 -82 34 -117c0 -125 -71 -160 -228 -198v-40l90 30h222v-100h-352v171c104 32 168 68 168 165c-43 -43 -96 -73 -151 -73c-99 0 -169 59 -169 162s60 162 169 162c55 0 108 -30 151 -73
c0 97 -64 133 -168 165v171h352v-100h-222zM258 278c33 0 72 33 99 72c-27 39 -66 72 -99 72c-37 0 -68 -24 -68 -72s31 -72 68 -72z" />
    <glyph glyph-name="braceright.case" horiz-adv-x="644" 
d="M574 350c0 -103 -70 -162 -169 -162c-55 0 -108 30 -151 73c0 -97 64 -133 168 -165v-171h-352v100h222l90 -30v40c-157 38 -228 73 -228 198c0 35 13 77 34 117c-21 40 -34 82 -34 117c0 125 71 160 228 198v40l-90 -30h-222v100h352v-171c-104 -32 -168 -68 -168 -165
c43 43 96 73 151 73c109 0 169 -59 169 -162zM287 350c27 -39 66 -72 99 -72c37 0 68 24 68 72s-31 72 -68 72c-33 0 -72 -33 -99 -72z" />
    <glyph glyph-name="bracketleft.case" horiz-adv-x="461" 
d="M70 780h321v-100h-200v-655h200v-100h-321v855z" />
    <glyph glyph-name="bracketright.case" horiz-adv-x="461" 
d="M391 780v-855h-321v100h200v655h-200v100h321z" />
    <glyph glyph-name="braceleft.ss01" horiz-adv-x="465" 
d="M70 339c142 0 144 64 144 97c0 42 -29 85 -93 95v174h274v-100h-184l-50 30v-40c103 -33 173 -73 173 -169c0 -91 -69 -129 -165 -129v-40c96 0 165 -39 165 -130c0 -96 -70 -134 -173 -167v-40l50 30h184v-100h-274v174c64 10 93 51 93 93c0 33 -2 98 -144 98v124z" />
    <glyph glyph-name="braceright.ss01" horiz-adv-x="465" 
d="M395 339v-124c-142 0 -144 -65 -144 -98c0 -42 29 -83 93 -93v-174h-274v100h184l50 -30v40c-103 33 -173 71 -173 167c0 91 69 130 165 130v40c-96 0 -165 38 -165 129c0 96 70 136 173 169v40l-50 -30h-184v100h274v-174c-64 -10 -93 -53 -93 -95c0 -33 2 -97 144 -97z
" />
    <glyph glyph-name="braceleft.case.ss01" horiz-adv-x="465" 
d="M70 414c142 0 144 64 144 97c0 42 -29 85 -93 95v174h274v-100h-184l-50 30v-40c103 -33 173 -73 173 -169c0 -91 -69 -129 -165 -129v-40c96 0 165 -39 165 -130c0 -96 -70 -134 -173 -167v-40l50 30h184v-100h-274v174c64 10 93 51 93 93c0 33 -2 98 -144 98v124z" />
    <glyph glyph-name="braceright.case.ss01" horiz-adv-x="465" 
d="M395 414v-124c-142 0 -144 -65 -144 -98c0 -42 29 -83 93 -93v-174h-274v100h184l50 -30v40c-103 33 -173 71 -173 167c0 91 69 130 165 130v40c-96 0 -165 38 -165 129c0 96 70 136 173 169v40l-50 -30h-184v100h274v-174c-64 -10 -93 -53 -93 -95c0 -33 2 -97 144 -97z
" />
    <glyph glyph-name="hyphen" unicode="-" horiz-adv-x="680" 
d="M70 330h540v-120h-540v120z" />
    <glyph glyph-name="endash" unicode="&#x2013;" horiz-adv-x="890" 
d="M70 330h750v-120h-750v120z" />
    <glyph glyph-name="emdash" unicode="&#x2014;" horiz-adv-x="1090" 
d="M70 330h950v-120h-950v120z" />
    <glyph glyph-name="underscore" unicode="_" horiz-adv-x="640" 
d="M50 -20h540v-120h-540v120z" />
    <glyph glyph-name="hyphen.case" horiz-adv-x="680" 
d="M70 413h540v-120h-540v120z" />
    <glyph glyph-name="endash.case" horiz-adv-x="890" 
d="M70 413h750v-120h-750v120z" />
    <glyph glyph-name="emdash.case" horiz-adv-x="1090" 
d="M70 413h950v-120h-950v120z" />
    <glyph glyph-name="quotesinglbase" unicode="&#x201a;" horiz-adv-x="354" 
d="M168 182l116 -31l-98 -354l-116 31z" />
    <glyph glyph-name="quotedblbase" unicode="&#x201e;" horiz-adv-x="549" 
d="M168 182l116 -31l-98 -354l-116 31zM363 182l116 -31l-98 -354l-116 31z" />
    <glyph glyph-name="quotedblleft" unicode="&#x201c;" horiz-adv-x="533" 
d="M186 778l83 -309l-116 -31l-83 309zM380 778l83 -309l-116 -31l-83 309z" />
    <glyph glyph-name="quotedblright" unicode="&#x201d;" horiz-adv-x="533" 
d="M153 778l116 -31l-83 -309l-116 31zM347 778l116 -31l-83 -309l-116 31z" />
    <glyph glyph-name="quoteleft" unicode="&#x2018;" horiz-adv-x="339" 
d="M186 778l83 -309l-116 -31l-83 309z" />
    <glyph glyph-name="quoteright" unicode="&#x2019;" horiz-adv-x="339" 
d="M153 778l116 -31l-83 -309l-116 31z" />
    <glyph glyph-name="guillemotleft" unicode="&#xab;" horiz-adv-x="847" 
d="M477 10l-88 -80l-319 318l319 317l88 -80l-237 -237zM777 10l-88 -80l-319 318l319 317l88 -80l-237 -237z" />
    <glyph glyph-name="guillemotright" unicode="&#xbb;" horiz-adv-x="847" 
d="M70 10l237 238l-237 237l88 80l319 -317l-319 -318zM370 10l237 238l-237 237l88 80l319 -317l-319 -318z" />
    <glyph glyph-name="guilsinglleft" unicode="&#x2039;" horiz-adv-x="547" 
d="M477 10l-88 -80l-319 318l319 317l88 -80l-237 -237z" />
    <glyph glyph-name="guilsinglright" unicode="&#x203a;" horiz-adv-x="547" 
d="M70 10l237 238l-237 237l88 80l319 -317l-319 -318z" />
    <glyph glyph-name="quotedbl" unicode="&#x22;" horiz-adv-x="450" 
d="M70 775h120v-320h-120v320zM260 775h120v-320h-120v320z" />
    <glyph glyph-name="quotesingle" unicode="'" horiz-adv-x="260" 
d="M70 775h120v-320h-120v320z" />
    <glyph glyph-name="guillemotleft.case" horiz-adv-x="847" 
d="M477 115l-88 -80l-319 318l319 317l88 -80l-237 -237zM777 115l-88 -80l-319 318l319 317l88 -80l-237 -237z" />
    <glyph glyph-name="guillemotright.case" horiz-adv-x="867" 
d="M90 115l237 238l-237 237l88 80l319 -317l-319 -318zM390 115l237 238l-237 237l88 80l319 -317l-319 -318z" />
    <glyph glyph-name="guilsinglleft.case" horiz-adv-x="547" 
d="M477 115l-88 -80l-319 318l319 317l88 -80l-237 -237z" />
    <glyph glyph-name="guilsinglright.case" horiz-adv-x="567" 
d="M90 115l237 238l-237 237l88 80l319 -317l-319 -318z" />
    <glyph glyph-name="cent" unicode="&#xa2;" horiz-adv-x="687" 
d="M393 242c37 12 60 39 64 72h160c-6 -128 -106 -201 -224 -216v-246l-98 1v245c-134 19 -225 110 -225 260c0 149 91 240 223 258v237l99 -1v-235c119 -15 219 -88 225 -216h-160c-4 33 -27 60 -65 72zM230 358c0 -58 22 -97 64 -114v227c-42 -17 -64 -56 -64 -113z" />
    <glyph glyph-name="currency" unicode="&#xa4;" horiz-adv-x="776" 
d="M623 352c0 -47 -13 -92 -36 -129l119 -119l-70 -70l-120 120c-35 -22 -77 -34 -125 -34c-49 0 -93 13 -129 36l-122 -122l-70 70l123 123c-22 36 -34 79 -34 125s12 89 34 125l-123 123l70 70l122 -122c36 23 80 36 129 36c48 0 90 -12 125 -34l120 120l70 -70l-119 -119
c23 -37 36 -82 36 -129zM391 240c66 0 112 51 112 112s-46 112 -112 112s-112 -51 -112 -112s46 -112 112 -112z" />
    <glyph glyph-name="dollar" unicode="$" horiz-adv-x="791" 
d="M721 194c0 -116 -78 -197 -276 -204v-138h-100v141c-199 19 -275 119 -275 279h160c0 -85 33 -124 115 -137v175c-136 46 -243 89 -243 219c0 112 83 177 243 185v139h100v-142c170 -20 247 -121 247 -246h-160c0 62 -35 92 -87 104v-146c125 -42 276 -101 276 -229z
M262 523c0 -27 12 -40 83 -66v117c-52 -5 -83 -21 -83 -51zM445 130c87 3 116 27 116 62c0 38 -48 61 -116 84v-146z" />
    <glyph glyph-name="Euro" unicode="&#x20ac;" horiz-adv-x="867" 
d="M497 130c68 0 127 25 142 109h158c-22 -156 -132 -249 -300 -249c-173 0 -279 94 -318 232h-109v100h93c-1 10 -1 21 -1 31s0 19 1 29h-93v100h109c38 138 144 233 318 233c168 0 278 -92 300 -248h-160c-14 84 -72 108 -140 108c-71 0 -127 -22 -155 -93h196v-100h-215
c-1 -9 -1 -19 -1 -29c0 -11 0 -21 1 -31h215v-100h-196c29 -70 85 -92 155 -92z" />
    <glyph glyph-name="sterling" unicode="&#xa3;" horiz-adv-x="678" 
d="M368 565c-66 3 -112 -4 -112 -49c0 -37 27 -64 55 -95h257v-100h-202c1 -8 2 -17 2 -27c0 -110 -127 -126 -258 -144v-40l90 30h408v-140h-538v209c97 24 137 39 138 112h-138v100h83c-28 30 -57 64 -57 130c0 123 160 159 282 154l230 -10v-140z" />
    <glyph glyph-name="yen" unicode="&#xa5;" horiz-adv-x="823" 
d="M753 705l-210 -384h138v-100h-190v-40h190v-100h-190v-81h-160v81h-190v100h190v40h-190v100h139l-210 384h171l150 -294v-90h40v90l151 294h171z" />
    <glyph glyph-name="plus" unicode="+" horiz-adv-x="680" 
d="M610 330v-120h-210v-210h-120v210h-210v120h210v210h120v-210h210z" />
    <glyph glyph-name="minus" unicode="&#x2212;" horiz-adv-x="680" 
d="M70 330h540v-120h-540v120z" />
    <glyph glyph-name="multiply" unicode="&#xd7;" horiz-adv-x="607" 
d="M537 408l-148 -148l148 -149l-85 -85l-148 149l-149 -149l-85 85l149 149l-149 148l85 85l149 -148l148 148z" />
    <glyph glyph-name="divide" unicode="&#xf7;" horiz-adv-x="680" 
d="M339 370c-68 0 -109 48 -109 111c0 61 41 109 109 109c66 0 111 -48 111 -109c0 -63 -45 -111 -111 -111zM70 329h540v-120h-540v120zM339 -50c-68 0 -109 48 -109 111c0 61 41 109 109 109c66 0 111 -48 111 -109c0 -63 -45 -111 -111 -111z" />
    <glyph glyph-name="equal" unicode="=" horiz-adv-x="680" 
d="M70 440h540v-120h-540v120zM70 220h540v-120h-540v120z" />
    <glyph glyph-name="notequal" unicode="&#x2260;" horiz-adv-x="680" 
d="M610 320h-184l-57 -100h241v-120h-311l-91 -158l-86 50l62 108h-114v120h184l57 100h-241v120h311l91 158l86 -50l-62 -108h114v-120z" />
    <glyph glyph-name="greater" unicode="&#x3e;" horiz-adv-x="687" 
d="M617 187l-509 -187l-38 114l407 133l-407 144l38 114l509 -198v-120z" />
    <glyph glyph-name="less" unicode="&#x3c;" horiz-adv-x="687" 
d="M70 187v120l509 198l38 -114l-407 -144l407 -133l-38 -114z" />
    <glyph glyph-name="greaterequal" unicode="&#x2265;" horiz-adv-x="687" 
d="M617 347l-509 -187l-38 114l407 133l-407 144l38 114l509 -198v-120zM70 120h540v-120h-540v120z" />
    <glyph glyph-name="lessequal" unicode="&#x2264;" horiz-adv-x="687" 
d="M70 347v120l509 198l38 -114l-407 -144l407 -133l-38 -114zM617 120v-120h-540v120h540z" />
    <glyph glyph-name="plusminus" unicode="&#xb1;" horiz-adv-x="680" 
d="M400 440h210v-120h-210v-140h-120v140h-210v120h210v139h120v-139zM70 0v120h540v-120h-540z" />
    <glyph glyph-name="approxequal" unicode="&#x2248;" horiz-adv-x="668" 
d="M70 280c0 126 55 200 142 200c97 0 165 -80 219 -80c32 0 47 20 47 80h120c0 -126 -55 -200 -142 -200c-97 0 -165 80 -219 80c-32 0 -47 -20 -47 -80h-120zM70 40c0 126 55 200 142 200c97 0 165 -80 219 -80c32 0 47 20 47 80h120c0 -126 -55 -200 -142 -200
c-97 0 -165 80 -219 80c-32 0 -47 -20 -47 -80h-120z" />
    <glyph glyph-name="asciitilde" unicode="~" horiz-adv-x="668" 
d="M70 170c0 126 55 200 142 200c97 0 165 -80 219 -80c32 0 47 20 47 80h120c0 -126 -55 -200 -142 -200c-97 0 -165 80 -219 80c-32 0 -47 -20 -47 -80h-120z" />
    <glyph glyph-name="logicalnot" unicode="&#xac;" horiz-adv-x="680" 
d="M610 415v-269h-120v149h-420v120h540z" />
    <glyph glyph-name="asciicircum" unicode="^" horiz-adv-x="571" 
d="M373 366l-67 299h-40l-68 -299h-128l96 339h240l95 -339h-128z" />
    <glyph glyph-name="emptyset" unicode="&#x2205;" horiz-adv-x="988" 
d="M759 619c100 -78 159 -200 159 -338c0 -234 -170 -424 -424 -424c-58 0 -111 10 -159 28l-53 -92l-105 60l52 90c-100 78 -159 200 -159 338c0 234 170 424 424 424c58 0 111 -10 159 -28l53 92l105 -60zM190 281c0 -90 38 -173 101 -230l300 519c-30 10 -62 15 -97 15
c-180 0 -304 -140 -304 -304zM494 -23c180 0 304 140 304 304c0 90 -38 173 -101 230l-300 -519c30 -10 62 -15 97 -15z" />
    <glyph glyph-name="infinity" unicode="&#x221e;" horiz-adv-x="1080" 
d="M70 300c0 147 104 245 219 245c137 0 199 -108 251 -174c52 66 114 174 251 174c115 0 219 -98 219 -245s-104 -245 -219 -245c-137 0 -199 108 -251 174c-52 -66 -114 -174 -251 -174c-115 0 -219 98 -219 245zM190 300c0 -76 50 -125 129 -125c81 0 109 56 162 125
c-53 69 -81 125 -162 125c-79 0 -129 -49 -129 -125zM599 300c53 -69 81 -125 162 -125c79 0 129 49 129 125s-50 125 -129 125c-81 0 -109 -56 -162 -125z" />
    <glyph glyph-name="integral" unicode="&#x222b;" horiz-adv-x="740" 
d="M70 -180v120h177l175 693c12 48 45 72 95 72h153v-120h-137l-175 -693c-12 -48 -45 -72 -95 -72h-193z" />
    <glyph glyph-name="product" unicode="&#x220f;" horiz-adv-x="820" 
d="M750 705v-120h-147v-765h-120v765h-145v-765h-120v765h-148v120h680z" />
    <glyph glyph-name="summation" unicode="&#x2211;" horiz-adv-x="653" 
d="M70 -179v236l298 186v40l-298 186v236h513v-120h-383l-90 30v-40l381 -240v-144l-381 -240v-40l90 30h383v-120h-513z" />
    <glyph glyph-name="radical" unicode="&#x221a;" horiz-adv-x="833" 
d="M474 630c11 51 43 75 94 75h195v-120h-184l-169 -765h-254l-86 385h120l73 -345h40z" />
    <glyph glyph-name="partialdiff" unicode="&#x2202;" horiz-adv-x="763" 
d="M693 319c0 -206 -121 -329 -315 -329c-190 0 -308 110 -308 262c0 146 104 263 279 263c152 0 229 -100 241 -237h40l-30 90c-20 171 -166 239 -402 269v140c288 -30 495 -160 495 -458zM533 252c0 88 -50 123 -151 123s-152 -35 -152 -123c0 -76 51 -122 152 -122
s151 46 151 122z" />
    <glyph glyph-name="percent" unicode="%" horiz-adv-x="1238" 
d="M733 804l113 -44l-338 -879l-113 44zM302 281c-139 0 -232 105 -232 232s93 232 232 232s232 -105 232 -232s-93 -232 -232 -232zM302 401c66 0 112 51 112 112s-46 112 -112 112s-112 -51 -112 -112s46 -112 112 -112zM936 -70c-139 0 -232 105 -232 232s93 232 232 232
s232 -105 232 -232s-93 -232 -232 -232zM936 50c66 0 112 51 112 112s-46 112 -112 112s-112 -51 -112 -112s46 -112 112 -112z" />
    <glyph glyph-name="perthousand" unicode="&#x2030;" horiz-adv-x="1751" 
d="M733 804l113 -44l-338 -879l-113 44zM302 281c-139 0 -232 105 -232 232s93 232 232 232s232 -105 232 -232s-93 -232 -232 -232zM302 401c66 0 112 51 112 112s-46 112 -112 112s-112 -51 -112 -112s46 -112 112 -112zM936 -70c-139 0 -232 105 -232 232s93 232 232 232
s232 -105 232 -232s-93 -232 -232 -232zM1449 -70c-139 0 -232 105 -232 232s93 232 232 232s232 -105 232 -232s-93 -232 -232 -232zM936 50c66 0 112 51 112 112s-46 112 -112 112s-112 -51 -112 -112s46 -112 112 -112zM1449 50c66 0 112 51 112 112s-46 112 -112 112
s-112 -51 -112 -112s46 -112 112 -112z" />
    <glyph glyph-name="arrowup" unicode="&#x2191;" horiz-adv-x="775" 
d="M705 291l-80 -88l-178 177v-500h-120v500l-177 -177l-80 88l317 319z" />
    <glyph glyph-name="uni2197" unicode="&#x2197;" horiz-adv-x="698" 
d="M178 533l450 2l-1 -451l-118 -5l-1 251l-354 -354l-84 85l354 354h-251z" />
    <glyph glyph-name="arrowright" unicode="&#x2192;" horiz-adv-x="870" 
d="M481 565l319 -317l-319 -318l-88 80l177 178h-500v120h500l-177 177z" />
    <glyph glyph-name="uni2198" unicode="&#x2198;" horiz-adv-x="698" 
d="M627 398l1 -451l-450 2l-5 118h251l-354 354l84 85l354 -354l1 251z" />
    <glyph glyph-name="arrowdown" unicode="&#x2193;" horiz-adv-x="775" 
d="M625 283l80 -88l-318 -319l-317 319l80 88l177 -177v500h120v-500z" />
    <glyph glyph-name="uni2199" unicode="&#x2199;" horiz-adv-x="698" 
d="M628 421l-354 -354h251l-5 -118l-450 -2l1 451l118 5l1 -251l354 354z" />
    <glyph glyph-name="arrowleft" unicode="&#x2190;" horiz-adv-x="870" 
d="M800 308v-120h-500l177 -178l-88 -80l-319 318l319 317l88 -80l-177 -177h500z" />
    <glyph glyph-name="uni2196" unicode="&#x2196;" horiz-adv-x="698" 
d="M628 61l-84 -85l-354 354l-1 -251l-118 5l-1 451l450 -2l5 -118h-251z" />
    <glyph glyph-name="arrowboth" unicode="&#x2194;" horiz-adv-x="1362" 
d="M973 655l319 -317l-319 -318l-88 80l177 178h-500v120h500l-177 177zM477 395l-177 -177h500v-120h-500l177 -178l-88 -80l-319 318l319 317z" />
    <glyph glyph-name="arrowupdn" unicode="&#x2195;" horiz-adv-x="955" 
d="M317 117v500l-177 -177l-80 88l317 319l318 -319l-80 -88l-178 177v-500h-120zM815 41l80 -88l-318 -319l-317 319l80 88l177 -177v500h120v-500z" />
    <glyph glyph-name="lozenge" unicode="&#x25ca;" horiz-adv-x="571" 
d="M406 705l95 -339l-95 -339h-240l-96 339l96 339h240zM306 67l67 299l-67 299h-40l-68 -299l68 -299h40z" />
    <glyph glyph-name="at" unicode="@" horiz-adv-x="1106" 
d="M180 281c0 -224 155 -392 388 -368l386 40v-100l-386 -40c-269 -28 -498 168 -498 468c0 310 228 478 498 478s468 -158 468 -428c0 -175 -80 -311 -241 -311h-54c-35 0 -55 20 -55 65v10l30 80h-40c-20 -90 -90 -151 -191 -151c-134 0 -221 99 -221 258
c0 158 87 257 221 257c101 0 171 -61 191 -151h40l-30 90v51h120v-409h23c67 0 97 76 97 211c0 214 -124 328 -358 328s-388 -164 -388 -378zM508 124c86 0 124 56 124 158c0 101 -38 157 -124 157s-124 -56 -124 -157c0 -102 38 -158 124 -158z" />
    <glyph glyph-name="ampersand" unicode="&#x26;" horiz-adv-x="1011" 
d="M941 -14l-126 -86l-122 156c-71 -43 -159 -66 -260 -66c-219 0 -363 92 -363 270c0 136 101 193 190 193c64 0 106 -27 138 -62v40l-160 205v69h546v-140h-326l243 -292c30 55 46 123 46 202h160c0 -130 -37 -241 -104 -324zM433 130c67 0 124 14 170 41l-60 77
c-61 78 -114 109 -187 109c-70 0 -126 -35 -126 -103c0 -85 70 -124 203 -124z" />
    <glyph glyph-name="paragraph" unicode="&#xb6;" horiz-adv-x="744" 
d="M373 853h120v-1001h-120v503c-239 0 -303 110 -303 249s64 249 303 249zM554 853h120v-1001h-120v1001z" />
    <glyph glyph-name="section" unicode="&#xa7;" horiz-adv-x="618" 
d="M70 356c0 40 24 86 97 103c-78 33 -97 66 -97 114c0 90 81 142 220 142c171 0 241 -85 241 -183h-160c0 36 -27 63 -82 63c-38 0 -59 -11 -59 -28c0 -29 50 -38 130 -64c98 -32 188 -59 188 -154c0 -40 -24 -86 -97 -103c78 -33 97 -66 97 -114c0 -90 -81 -142 -220 -142
c-171 0 -241 85 -241 183h160c0 -36 27 -63 82 -63c38 0 59 11 59 28c0 29 -50 38 -130 64c-98 32 -188 59 -188 154zM220 373c0 -32 34 -52 85 -68c56 -18 93 -12 93 26c0 33 -35 49 -86 67c-55 20 -92 14 -92 -25z" />
    <glyph glyph-name="copyright" unicode="&#xa9;" horiz-adv-x="1136" 
d="M568 -217c-308 0 -498 223 -498 498s190 498 498 498s498 -223 498 -498s-190 -498 -498 -498zM568 -117c246 0 398 183 398 398s-152 398 -398 398s-398 -183 -398 -398s152 -398 398 -398zM295 282c0 168 115 262 276 262c138 0 264 -75 271 -219h-160
c-6 45 -47 79 -111 79c-76 0 -116 -45 -116 -122c0 -78 40 -123 116 -123c64 0 105 34 111 79h160c-7 -144 -133 -219 -271 -219c-161 0 -276 94 -276 263z" />
    <glyph glyph-name="registered" unicode="&#xae;" horiz-adv-x="732" 
d="M366 217c-187 0 -296 133 -296 296s109 296 296 296s296 -133 296 -296s-109 -296 -296 -296zM366 297c139 0 216 100 216 216s-77 216 -216 216s-216 -100 -216 -216s77 -216 216 -216zM237 375v281h124c57 0 144 -13 144 -82c0 -52 -43 -62 -85 -66v-20h60
c16 0 25 -9 25 -25v-88h-76v78h-116v-78h-76zM313 529h48c42 0 68 0 68 26c0 25 -26 25 -68 25h-48v-51z" />
    <glyph glyph-name="trademark" unicode="&#x2122;" horiz-adv-x="968" 
d="M370 705v-90h-99v-244h-100v244h-101v90h300zM697 705h201v-334h-100v220l25 74h-30l-44 -294h-204l-45 294h-29l24 -74v-220h-100v334h202l40 -294h20z" />
    <glyph glyph-name="degree" unicode="&#xb0;" horiz-adv-x="604" 
d="M302 281c-139 0 -232 105 -232 232s93 232 232 232s232 -105 232 -232s-93 -232 -232 -232zM302 401c66 0 112 51 112 112s-46 112 -112 112s-112 -51 -112 -112s46 -112 112 -112z" />
    <glyph glyph-name="bar" unicode="|" horiz-adv-x="260" 
d="M70 853h120v-1001h-120v1001z" />
    <glyph glyph-name="brokenbar" unicode="&#xa6;" horiz-adv-x="260" 
d="M70 483v370h120v-370h-120zM190 222v-370h-120v370h120z" />
    <glyph glyph-name="dagger" unicode="&#x2020;" horiz-adv-x="580" 
d="M510 686v-120h-160v-415h-120v415h-160v120h160v167h120v-167h160z" />
    <glyph glyph-name="daggerdbl" unicode="&#x2021;" horiz-adv-x="580" 
d="M510 566h-160v-128h160v-120h-160v-167h-120v167h-160v120h160v128h-160v120h160v167h120v-167h160v-120z" />
    <glyph glyph-name="ampersand.ss01" horiz-adv-x="972" 
d="M902 505c0 -149 -60 -270 -150 -357c49 -30 100 -60 150 -89l-86 -118c-66 39 -130 77 -191 115c-83 -43 -176 -66 -267 -66c-178 0 -288 69 -288 200c0 108 74 157 161 190c-30 45 -46 89 -46 133c0 136 104 202 261 202c144 0 237 -83 237 -177
c0 -101 -46 -144 -202 -204c42 -34 91 -70 146 -106c68 61 115 152 115 277h160zM438 575c-62 0 -93 -19 -93 -62c0 -25 14 -53 38 -84c117 39 140 56 140 93c0 34 -37 53 -85 53zM358 130c41 0 84 6 126 19c-61 42 -115 84 -161 126c-69 -29 -93 -50 -93 -80
c0 -47 55 -65 128 -65z" />
    <glyph glyph-name="uni0308" unicode="&#x308;" horiz-adv-x="0" 
d="M-431 555c-64 0 -99 28 -99 80c0 51 35 80 99 80s101 -29 101 -80c0 -52 -37 -80 -101 -80zM-171 555c-64 0 -99 28 -99 80c0 51 35 80 99 80s101 -29 101 -80c0 -52 -37 -80 -101 -80z" />
    <glyph glyph-name="uni0307" unicode="&#x307;" horiz-adv-x="0" 
d="M-171 555c-64 0 -99 28 -99 80c0 51 35 80 99 80s101 -29 101 -80c0 -52 -37 -80 -101 -80z" />
    <glyph glyph-name="gravecomb" unicode="&#x300;" horiz-adv-x="0" 
d="M-70 669l-27 -114l-390 86l27 114z" />
    <glyph glyph-name="acutecomb" unicode="&#x301;" horiz-adv-x="0" 
d="M-487 669l390 86l27 -114l-390 -86z" />
    <glyph glyph-name="uni030B" unicode="&#x30b;" horiz-adv-x="0" 
d="M-604 633l200 169l84 -78l-200 -169zM-354 633l200 169l84 -78l-200 -169z" />
    <glyph glyph-name="uni0302" unicode="&#x302;" horiz-adv-x="0" 
d="M-70 624l-85 -80l-131 91l-131 -91l-85 80l216 151z" />
    <glyph glyph-name="uni030C" unicode="&#x30c;" horiz-adv-x="0" 
d="M-70 701l-216 -151l-216 151l85 80l131 -91l131 91z" />
    <glyph glyph-name="uni0306" unicode="&#x306;" horiz-adv-x="0" 
d="M-70 754c0 -102 -48 -199 -183 -199s-183 97 -183 199h120c0 -70 24 -89 63 -89s63 19 63 89h120z" />
    <glyph glyph-name="uni030A" unicode="&#x30a;" horiz-adv-x="0" 
d="M-228 555c-97 0 -157 40 -157 123c0 82 60 123 157 123s158 -41 158 -123s-61 -123 -158 -123zM-228 645c22 0 38 8 38 33c0 24 -17 32 -38 32s-37 -8 -37 -32c0 -25 16 -33 37 -33z" />
    <glyph glyph-name="tildecomb" unicode="&#x303;" horiz-adv-x="0" 
d="M-538 590c0 116 55 190 147 190s120 -80 164 -80c22 0 37 10 37 70h120c0 -116 -55 -190 -147 -190s-120 80 -164 80c-22 0 -37 -10 -37 -70h-120z" />
    <glyph glyph-name="uni0304" unicode="&#x304;" horiz-adv-x="0" 
d="M-500 720h430v-118l-430 -2v120z" />
    <glyph glyph-name="uni0312" unicode="&#x312;" horiz-adv-x="0" 
d="M-186 803l116 -31l-73 -217l-116 31z" />
    <glyph glyph-name="uni0326" unicode="&#x326;" horiz-adv-x="0" 
d="M-189 -49l114 -37l-62 -171l-114 37z" />
    <glyph glyph-name="uni0327" unicode="&#x327;" horiz-adv-x="0" 
d="M-156 -40c41 0 86 -12 86 -62c0 -98 -137 -108 -279 -108v90c107 0 159 -4 159 23c0 10 -9 17 -23 17c-18 0 -38 -4 -78 -18l-51 39l27 59h120l-54 -60c24 11 60 20 93 20z" />
    <glyph glyph-name="uni0328" unicode="&#x328;" horiz-adv-x="0" 
d="M-70 -65v-120l-185 -15c-71 -6 -118 56 -85 106l62 95h110l-38 -80z" />
    <glyph glyph-name="acute" unicode="&#xb4;" horiz-adv-x="557" 
d="M70 669l390 86l27 -114l-390 -86z" />
    <glyph glyph-name="breve" unicode="&#x2d8;" horiz-adv-x="506" 
d="M436 754c0 -102 -48 -199 -183 -199s-183 97 -183 199h120c0 -70 24 -89 63 -89s63 19 63 89h120z" />
    <glyph glyph-name="caron" unicode="&#x2c7;" horiz-adv-x="572" 
d="M502 701l-216 -151l-216 151l85 80l131 -91l131 91z" />
    <glyph glyph-name="cedilla" unicode="&#xb8;" horiz-adv-x="419" 
d="M263 -40c41 0 86 -12 86 -62c0 -98 -137 -108 -279 -108v90c107 0 159 -4 159 23c0 10 -9 17 -23 17c-18 0 -38 -4 -78 -18l-51 39l27 59h120l-54 -60c24 11 60 20 93 20z" />
    <glyph glyph-name="circumflex" unicode="&#x2c6;" horiz-adv-x="572" 
d="M502 624l-85 -80l-131 91l-131 -91l-85 80l216 151z" />
    <glyph glyph-name="dieresis" unicode="&#xa8;" horiz-adv-x="600" 
d="M169 555c-64 0 -99 28 -99 80c0 51 35 80 99 80s101 -29 101 -80c0 -52 -37 -80 -101 -80zM429 555c-64 0 -99 28 -99 80c0 51 35 80 99 80s101 -29 101 -80c0 -52 -37 -80 -101 -80z" />
    <glyph glyph-name="dotaccent" unicode="&#x2d9;" horiz-adv-x="340" 
d="M169 555c-64 0 -99 28 -99 80c0 51 35 80 99 80s101 -29 101 -80c0 -52 -37 -80 -101 -80z" />
    <glyph glyph-name="grave" unicode="`" horiz-adv-x="557" 
d="M487 669l-27 -114l-390 86l27 114z" />
    <glyph glyph-name="hungarumlaut" unicode="&#x2dd;" horiz-adv-x="674" 
d="M70 633l200 169l84 -78l-200 -169zM320 633l200 169l84 -78l-200 -169z" />
    <glyph glyph-name="macron" unicode="&#xaf;" horiz-adv-x="570" 
d="M70 720h430v-118l-430 -2v120z" />
    <glyph glyph-name="ogonek" unicode="&#x2db;" horiz-adv-x="421" 
d="M351 -65v-120l-185 -15c-71 -6 -118 56 -85 106l62 95h110l-38 -80z" />
    <glyph glyph-name="ring" unicode="&#x2da;" horiz-adv-x="435" 
d="M227 555c-97 0 -157 40 -157 123c0 82 60 123 157 123s158 -41 158 -123s-61 -123 -158 -123zM227 645c22 0 38 8 38 33c0 24 -17 32 -38 32s-37 -8 -37 -32c0 -25 16 -33 37 -33z" />
    <glyph glyph-name="tilde" unicode="&#x2dc;" horiz-adv-x="608" 
d="M70 590c0 116 55 190 147 190s120 -80 164 -80c22 0 37 10 37 70h120c0 -116 -55 -190 -147 -190s-120 80 -164 80c-22 0 -37 -10 -37 -70h-120z" />
    <glyph glyph-name="brevecombcy" horiz-adv-x="0" 
d="M-70 754c0 -102 -48 -199 -183 -199s-183 97 -183 199h120c0 -70 24 -89 63 -89s63 19 63 89h120z" />
    </font>
</defs>
</svg>
