<?xml version="1.0" standalone="no"?>
<!DOCTYPE svg PUBLIC "-//W3C//DTD SVG 1.1//EN" "http://www.w3.org/Graphics/SVG/1.1/DTD/svg11.dtd" >
<svg xmlns="http://www.w3.org/2000/svg" xmlns:xlink="http://www.w3.org/1999/xlink" version="1.1">
<metadata>
Created by FontForge 20191125 at Mon Apr  1 13:47:44 2019
 By convertio
Copyright \(c\) 2019 by Mathieu Desjardins. All rights reserved.
</metadata>
<defs>
<font id="NeueMachina-Light" horiz-adv-x="650" >
  <font-face 
    font-family="Neue Machina Light"
    font-weight="300"
    font-stretch="normal"
    units-per-em="1000"
    panose-1="0 0 4 0 0 0 0 0 0 0"
    ascent="800"
    descent="-200"
    x-height="495"
    cap-height="705"
    bbox="-426 -230 1555 981"
    underline-thickness="50"
    underline-position="-75"
    stemh="56"
    stemv="66"
    unicode-range="U+0020-277E"
  />
<missing-glyph horiz-adv-x="483" 
d="M396 735v-965h-306v965h306zM321 670h-159v-31h63v-36h-64v-32h160v32h-63v36h63v31zM258 546h-97v-100h160v32h-63v68zM225 513v-35h-32v35h32zM321 419h-160v-31h64v-36h-64v-32h97v68h63v31zM321 362h-31v-64h-129v-33h160v97zM321 244h-96v-54h33v22h32v-45h-97v77
h-32v-109h160v109zM321 77h-160v-109h160v109zM290 45v-45h-97v45h97zM321 -54h-160v-32h68l-68 -46v-31h160v31h-98l67 46h31v32z" />
    <glyph glyph-name="f_f" unicode="ff" horiz-adv-x="724" 
d="M612 679c-67 0 -86 -31 -86 -97v-87h144v-56h-144v-383h144v-56h-624v56h112v383h-112v56h112v38c0 96 43 152 152 152h178c24 32 64 50 124 50h86v-56h-86zM460 495v88c0 16 1 32 4 46h-154c-67 0 -86 -31 -86 -97v-37h236zM460 56v383h-236v-383h236z" />
    <glyph glyph-name="f_f_i" unicode="ffi" horiz-adv-x="1022" 
d="M849 56h137v-56h-940v56h112v383h-112v56h112v38c0 96 43 152 152 152h174c23 39 64 63 128 60l198 -10v-56l-198 10c-67 3 -86 -41 -86 -107v-83l262 6c45 1 61 -20 61 -65v-384zM224 532v-37h124l113 3v85c0 16 1 32 4 46h-155c-67 0 -86 -31 -86 -97zM783 56v393
l-257 -6v-387h257zM461 56v386l-93 -3h-144v-383h237z" />
    <glyph glyph-name="f_i" unicode="fi" horiz-adv-x="720" 
d="M547 56h137v-56h-638v56h113v386l-113 -3v56l113 3v85c0 96 42 167 151 162l198 -10v-56l-198 10c-67 3 -86 -41 -86 -107v-83l262 6c45 1 61 -20 61 -65v-384zM481 56v393l-257 -6v-387h257z" />
    <glyph glyph-name=".notdef" horiz-adv-x="483" 
d="M396 735v-965h-306v965h306zM321 670h-159v-31h63v-36h-64v-32h160v32h-63v36h63v31zM258 546h-97v-100h160v32h-63v68zM225 513v-35h-32v35h32zM321 419h-160v-31h64v-36h-64v-32h97v68h63v31zM321 362h-31v-64h-129v-33h160v97zM321 244h-96v-54h33v22h32v-45h-97v77
h-32v-109h160v109zM321 77h-160v-109h160v109zM290 45v-45h-97v45h97zM321 -54h-160v-32h68l-68 -46v-31h160v31h-98l67 46h31v32z" />
    <glyph glyph-name="space" unicode=" " horiz-adv-x="342" 
 />
    <glyph glyph-name="A" unicode="A" horiz-adv-x="672" 
d="M571 0l-94 286h-282l-94 -286h-65l232 705h136l232 -705h-65zM213 342h246l-113 343h-20z" />
    <glyph glyph-name="Aacute" unicode="&#xc1;" horiz-adv-x="672" 
d="M488 870l-290 -78l-14 54l290 78zM571 0l-94 286h-282l-94 -286h-65l232 705h136l232 -705h-65zM213 342h246l-113 343h-20z" />
    <glyph glyph-name="Abreve" unicode="&#x102;" horiz-adv-x="672" 
d="M336 774c-90 0 -151 65 -151 167h56c0 -74 26 -111 95 -111s95 37 95 111h56c0 -102 -61 -167 -151 -167zM571 0l-94 286h-282l-94 -286h-65l232 705h136l232 -705h-65zM213 342h246l-113 343h-20z" />
    <glyph glyph-name="Acircumflex" unicode="&#xc2;" horiz-adv-x="672" 
d="M336 869l-111 -95l-40 40l151 127l151 -127l-40 -40zM571 0l-94 286h-282l-94 -286h-65l232 705h136l232 -705h-65zM213 342h246l-113 343h-20z" />
    <glyph glyph-name="Adieresis" unicode="&#xc4;" horiz-adv-x="672" 
d="M238 790c-37 0 -67 31 -67 68c0 36 30 67 67 67s68 -31 68 -67c0 -37 -31 -68 -68 -68zM433 790c-37 0 -67 31 -67 68c0 36 30 67 67 67s68 -31 68 -67c0 -37 -31 -68 -68 -68zM571 0l-94 286h-282l-94 -286h-65l232 705h136l232 -705h-65zM213 342h246l-113 343h-20z
" />
    <glyph glyph-name="Agrave" unicode="&#xc0;" horiz-adv-x="672" 
d="M488 846l-14 -54l-290 78l14 54zM571 0l-94 286h-282l-94 -286h-65l232 705h136l232 -705h-65zM213 342h246l-113 343h-20z" />
    <glyph glyph-name="Amacron" unicode="&#x100;" horiz-adv-x="672" 
d="M487 886v-55l-301 -1v56h301zM571 0l-94 286h-282l-94 -286h-65l232 705h136l232 -705h-65zM213 342h246l-113 343h-20z" />
    <glyph glyph-name="Aogonek" unicode="&#x104;" horiz-adv-x="672" 
d="M565 -134l196 20v-56l-200 -19c-48 -4 -69 34 -49 73l60 116h-1l-94 286h-282l-94 -286h-65l232 705h136l232 -704v-1h-1zM213 342h246l-113 343h-20z" />
    <glyph glyph-name="Aring" unicode="&#xc5;" horiz-adv-x="672" 
d="M335 770c-72 0 -110 53 -110 106c0 52 38 105 110 105s111 -53 111 -105s-39 -106 -111 -106zM335 925c-36 0 -54 -20 -54 -49c0 -30 18 -50 54 -50c37 0 55 20 55 50c0 29 -19 49 -55 49zM571 0l-94 286h-282l-94 -286h-65l232 705h136l232 -705h-65zM213 342h246
l-113 343h-20z" />
    <glyph glyph-name="Atilde" unicode="&#xc3;" horiz-adv-x="672" 
d="M264 870c-22 0 -42 -10 -42 -70h-56c0 96 41 126 93 126c82 0 105 -80 149 -80c22 0 42 10 42 70h56c0 -96 -41 -126 -93 -126c-82 0 -105 80 -149 80zM571 0l-94 286h-282l-94 -286h-65l232 705h136l232 -705h-65zM213 342h246l-113 343h-20z" />
    <glyph glyph-name="AE" unicode="&#xc6;" horiz-adv-x="981" 
d="M925 649h-357v-268h307v-56h-307v-269h357v-56h-423v286h-235l-161 -286h-70l398 705h491v-56zM299 342h203v343h-10z" />
    <glyph glyph-name="B" unicode="B" horiz-adv-x="635" 
d="M76 0v705h174c168 0 267 -34 267 -173c0 -96 -63 -146 -135 -151v-20c108 -2 187 -53 187 -174c0 -138 -99 -187 -267 -187h-226zM142 395h108c125 0 201 20 201 127c0 118 -76 127 -201 127h-108v-254zM142 56h160c125 0 201 24 201 141c0 108 -76 142 -201 142h-160
v-283z" />
    <glyph glyph-name="C" unicode="C" horiz-adv-x="768" 
d="M66 353c0 205 119 362 323 362c177 0 292 -108 313 -282h-66c-16 143 -101 226 -247 226c-173 0 -257 -131 -257 -306c0 -176 84 -307 257 -307c146 0 231 84 247 227h66c-21 -175 -136 -283 -313 -283c-204 0 -323 157 -323 363z" />
    <glyph glyph-name="Cacute" unicode="&#x106;" horiz-adv-x="768" 
d="M237 846l290 78l14 -54l-290 -78zM66 353c0 205 119 362 323 362c177 0 292 -108 313 -282h-66c-16 143 -101 226 -247 226c-173 0 -257 -131 -257 -306c0 -176 84 -307 257 -307c146 0 231 84 247 227h66c-21 -175 -136 -283 -313 -283c-204 0 -323 157 -323 363z" />
    <glyph glyph-name="Ccaron" unicode="&#x10c;" horiz-adv-x="768" 
d="M540 901l-151 -127l-151 127l40 40l111 -95l111 95zM66 353c0 205 119 362 323 362c177 0 292 -108 313 -282h-66c-16 143 -101 226 -247 226c-173 0 -257 -131 -257 -306c0 -176 84 -307 257 -307c146 0 231 84 247 227h66c-21 -175 -136 -283 -313 -283
c-204 0 -323 157 -323 363z" />
    <glyph glyph-name="Ccedilla" unicode="&#xc7;" horiz-adv-x="768" 
d="M389 46c146 0 231 84 247 227h66c-20 -169 -128 -275 -294 -283l-47 -46c17 8 36 14 61 14c32 0 61 -17 61 -55c0 -73 -73 -83 -195 -83v56c87 0 139 0 139 33c0 14 -9 21 -23 21c-18 0 -33 -4 -68 -28l-32 47l40 44c-176 21 -278 170 -278 360c0 205 119 362 323 362
c177 0 292 -108 313 -282h-66c-16 143 -101 226 -247 226c-173 0 -257 -131 -257 -306c0 -176 84 -307 257 -307z" />
    <glyph glyph-name="Cdotaccent" unicode="&#x10a;" horiz-adv-x="768" 
d="M388 790c-37 0 -67 31 -67 68c0 36 30 67 67 67s68 -31 68 -67c0 -37 -31 -68 -68 -68zM66 353c0 205 119 362 323 362c177 0 292 -108 313 -282h-66c-16 143 -101 226 -247 226c-173 0 -257 -131 -257 -306c0 -176 84 -307 257 -307c146 0 231 84 247 227h66
c-21 -175 -136 -283 -313 -283c-204 0 -323 157 -323 363z" />
    <glyph glyph-name="D" unicode="D" horiz-adv-x="705" 
d="M292 705c168 0 347 -49 347 -352c0 -304 -179 -353 -347 -353h-216v705h216zM292 56c125 0 281 24 281 297c0 272 -156 296 -281 296h-150v-593h150z" />
    <glyph glyph-name="Eth" unicode="&#xd0;" horiz-adv-x="765" 
d="M352 705c168 0 347 -49 347 -352c0 -304 -179 -353 -347 -353h-216v337h-70v56h70v312h216zM352 56c125 0 281 24 281 297c0 272 -156 296 -281 296h-150v-256h202v-56h-202v-281h150z" />
    <glyph glyph-name="Dcaron" unicode="&#x10e;" horiz-adv-x="705" 
d="M446 901l-151 -127l-151 127l40 40l111 -95l111 95zM292 705c168 0 347 -49 347 -352c0 -304 -179 -353 -347 -353h-216v705h216zM292 56c125 0 281 24 281 297c0 272 -156 296 -281 296h-150v-593h150z" />
    <glyph glyph-name="Dcroat" unicode="&#x110;" horiz-adv-x="765" 
d="M352 705c168 0 347 -49 347 -352c0 -304 -179 -353 -347 -353h-216v337h-70v56h70v312h216zM352 56c125 0 281 24 281 297c0 272 -156 296 -281 296h-150v-256h202v-56h-202v-281h150z" />
    <glyph glyph-name="E" unicode="E" horiz-adv-x="555" 
d="M76 0v705h423v-56h-357v-268h307v-56h-307v-269h357v-56h-423z" />
    <glyph glyph-name="Eacute" unicode="&#xc9;" horiz-adv-x="555" 
d="M136 846l290 78l14 -54l-290 -78zM76 0v705h423v-56h-357v-268h307v-56h-307v-269h357v-56h-423z" />
    <glyph glyph-name="Ecaron" unicode="&#x11a;" horiz-adv-x="555" 
d="M439 901l-151 -127l-151 127l40 40l111 -95l111 95zM76 0v705h423v-56h-357v-268h307v-56h-307v-269h357v-56h-423z" />
    <glyph glyph-name="Ecircumflex" unicode="&#xca;" horiz-adv-x="555" 
d="M439 814l-40 -40l-111 95l-111 -95l-40 40l151 127zM76 0v705h423v-56h-357v-268h307v-56h-307v-269h357v-56h-423z" />
    <glyph glyph-name="Edieresis" unicode="&#xcb;" horiz-adv-x="555" 
d="M190 790c-37 0 -67 31 -67 68c0 36 30 67 67 67s68 -31 68 -67c0 -37 -31 -68 -68 -68zM385 790c-37 0 -67 31 -67 68c0 36 30 67 67 67s68 -31 68 -67c0 -37 -31 -68 -68 -68zM76 0v705h423v-56h-357v-268h307v-56h-307v-269h357v-56h-423z" />
    <glyph glyph-name="Edotaccent" unicode="&#x116;" horiz-adv-x="555" 
d="M287 790c-37 0 -67 31 -67 68c0 36 30 67 67 67s68 -31 68 -67c0 -37 -31 -68 -68 -68zM76 0v705h423v-56h-357v-268h307v-56h-307v-269h357v-56h-423z" />
    <glyph glyph-name="Egrave" unicode="&#xc8;" horiz-adv-x="555" 
d="M440 846l-14 -54l-290 78l14 54zM76 0v705h423v-56h-357v-268h307v-56h-307v-269h357v-56h-423z" />
    <glyph glyph-name="Emacron" unicode="&#x112;" horiz-adv-x="555" 
d="M138 886h301v-55l-301 -1v56zM76 0v705h423v-56h-357v-268h307v-56h-307v-269h357v-56h-423z" />
    <glyph glyph-name="Eogonek" unicode="&#x118;" horiz-adv-x="555" 
d="M499 649h-357v-268h307v-56h-307v-269h357v-56h-134l-70 -134l196 20v-56l-200 -19c-48 -4 -69 34 -49 73l60 116h-226v705h423v-56z" />
    <glyph glyph-name="F" unicode="F" horiz-adv-x="585" 
d="M76 0v705h453v-56h-387v-297l336 20v-57l-336 -20v-295h-66z" />
    <glyph glyph-name="G" unicode="G" horiz-adv-x="800" 
d="M66 353c0 205 124 362 328 362c177 0 267 -108 288 -262h-66c-16 123 -76 206 -222 206c-173 0 -262 -131 -262 -306c0 -176 64 -307 239 -307c148 0 215 88 211 271h-257v56h344c39 0 55 -16 55 -49v-324h-66v267l10 86h-20c-1 -251 -98 -363 -277 -363
c-206 0 -305 157 -305 363z" />
    <glyph glyph-name="Gbreve" unicode="&#x11e;" horiz-adv-x="800" 
d="M539 941c0 -102 -61 -167 -151 -167s-151 65 -151 167h56c0 -74 26 -111 95 -111s95 37 95 111h56zM66 353c0 205 124 362 328 362c177 0 267 -108 288 -262h-66c-16 123 -76 206 -222 206c-173 0 -262 -131 -262 -306c0 -176 64 -307 239 -307c148 0 215 88 211 271
h-257v56h344c39 0 55 -16 55 -49v-324h-66v267l10 86h-20c-1 -251 -98 -363 -277 -363c-206 0 -305 157 -305 363z" />
    <glyph glyph-name="uni0122" unicode="&#x122;" horiz-adv-x="800" 
d="M66 353c0 205 124 362 328 362c177 0 267 -108 288 -262h-66c-16 123 -76 206 -222 206c-173 0 -262 -131 -262 -306c0 -176 64 -307 239 -307c148 0 215 88 211 271h-257v56h344c39 0 55 -16 55 -49v-324h-66v267l10 86h-20c-1 -251 -98 -363 -277 -363
c-206 0 -305 157 -305 363zM331 -49l64 -17l-51 -164l-64 17z" />
    <glyph glyph-name="Gdotaccent" unicode="&#x120;" horiz-adv-x="800" 
d="M387 790c-37 0 -67 31 -67 68c0 36 30 67 67 67s68 -31 68 -67c0 -37 -31 -68 -68 -68zM66 353c0 205 124 362 328 362c177 0 267 -108 288 -262h-66c-16 123 -76 206 -222 206c-173 0 -262 -131 -262 -306c0 -176 64 -307 239 -307c148 0 215 88 211 271h-257v56h344
c39 0 55 -16 55 -49v-324h-66v267l10 86h-20c-1 -251 -98 -363 -277 -363c-206 0 -305 157 -305 363z" />
    <glyph glyph-name="H" unicode="H" horiz-adv-x="712" 
d="M570 705h66v-705h-66v321h-428v-321h-66v705h66v-328h428v328z" />
    <glyph glyph-name="Hbar" unicode="&#x126;" horiz-adv-x="772" 
d="M726 602v-56h-60v-546h-66v321h-428v-321h-66v546h-60v56h60v103h66v-103h428v103h66v-103h60zM600 377v169h-428v-169h428z" />
    <glyph glyph-name="I" unicode="I" horiz-adv-x="512" 
d="M446 649h-157v-593h157v-56h-380v56h157v593h-157v56h380v-56z" />
    <glyph glyph-name="Iacute" unicode="&#xcd;" horiz-adv-x="512" 
d="M408 870l-290 -78l-14 54l290 78zM446 649h-157v-593h157v-56h-380v56h157v593h-157v56h380v-56z" />
    <glyph glyph-name="Icircumflex" unicode="&#xce;" horiz-adv-x="512" 
d="M256 869l-111 -95l-40 40l151 127l151 -127l-40 -40zM446 649h-157v-593h157v-56h-380v56h157v593h-157v56h380v-56z" />
    <glyph glyph-name="Idieresis" unicode="&#xcf;" horiz-adv-x="512" 
d="M158 790c-37 0 -67 31 -67 68c0 36 30 67 67 67s68 -31 68 -67c0 -37 -31 -68 -68 -68zM353 790c-37 0 -67 31 -67 68c0 36 30 67 67 67s68 -31 68 -67c0 -37 -31 -68 -68 -68zM446 649h-157v-593h157v-56h-380v56h157v593h-157v56h380v-56z" />
    <glyph glyph-name="Idotaccent" unicode="&#x130;" horiz-adv-x="512" 
d="M255 790c-37 0 -67 31 -67 68c0 36 30 67 67 67s68 -31 68 -67c0 -37 -31 -68 -68 -68zM446 649h-157v-593h157v-56h-380v56h157v593h-157v56h380v-56z" />
    <glyph glyph-name="Igrave" unicode="&#xcc;" horiz-adv-x="512" 
d="M408 846l-14 -54l-290 78l14 54zM446 649h-157v-593h157v-56h-380v56h157v593h-157v56h380v-56z" />
    <glyph glyph-name="Imacron" unicode="&#x12a;" horiz-adv-x="512" 
d="M407 886v-55l-301 -1v56h301zM446 649h-157v-593h157v-56h-380v56h157v593h-157v56h380v-56z" />
    <glyph glyph-name="Iogonek" unicode="&#x12e;" horiz-adv-x="512" 
d="M268 -134l196 20v-56l-200 -19c-48 -4 -69 34 -49 73l60 116h-209v56h157v593h-157v56h380v-56h-157v-593h157v-56h-108z" />
    <glyph glyph-name="J" unicode="J" horiz-adv-x="460" 
d="M195 -10l-159 10v56l159 -10c117 -7 133 64 133 278v335l-179 -10v56l190 10c35 2 55 -20 55 -55v-336c0 -203 -13 -346 -199 -334z" />
    <glyph glyph-name="K" unicode="K" horiz-adv-x="651" 
d="M615 705l-431 -352l431 -353h-95l-378 310v-310h-66v705h66v-310l378 310h95z" />
    <glyph glyph-name="uni0136" unicode="&#x136;" horiz-adv-x="651" 
d="M615 705l-431 -352l431 -353h-95l-378 310v-310h-66v705h66v-310l378 310h95zM229 -213l51 164l64 -17l-51 -164z" />
    <glyph glyph-name="L" unicode="L" horiz-adv-x="535" 
d="M131 -10c-35 -1 -55 20 -55 55v660h66v-659l357 10v-56z" />
    <glyph glyph-name="Lacute" unicode="&#x139;" horiz-adv-x="535" 
d="M77 846l290 78l14 -54l-290 -78zM131 -10c-35 -1 -55 20 -55 55v660h66v-659l357 10v-56z" />
    <glyph glyph-name="Lcaron" unicode="&#x13d;" horiz-adv-x="545" 
d="M246 735h66v-240h-66v240zM131 -10c-35 -1 -55 20 -55 55v660h66v-659l357 10v-56z" />
    <glyph glyph-name="uni013B" unicode="&#x13b;" horiz-adv-x="535" 
d="M131 -10c-35 -1 -55 20 -55 55v660h66v-659l357 10v-56zM275 -49l64 -17l-51 -164l-64 17z" />
    <glyph glyph-name="Lslash" unicode="&#x141;" horiz-adv-x="595" 
d="M192 46l357 10v-56l-368 -10c-35 -1 -55 20 -55 55v264l-56 -15l-14 54l70 19v338h66v-320l190 51l14 -54l-204 -55v-281z" />
    <glyph glyph-name="M" unicode="M" horiz-adv-x="880" 
d="M76 0v705h134l220 -685h20l220 685h134v-705h-66v635l10 50h-20l-220 -685h-136l-220 685h-20l10 -50v-635h-66z" />
    <glyph glyph-name="N" unicode="N" horiz-adv-x="742" 
d="M76 0v705h135l379 -685h20l-10 50v635h66v-705h-135l-379 685h-20l10 -50v-635h-66z" />
    <glyph glyph-name="Nacute" unicode="&#x143;" horiz-adv-x="742" 
d="M239 846l290 78l14 -54l-290 -78zM76 0v705h135l379 -685h20l-10 50v635h66v-705h-135l-379 685h-20l10 -50v-635h-66z" />
    <glyph glyph-name="Ncaron" unicode="&#x147;" horiz-adv-x="742" 
d="M542 901l-151 -127l-151 127l40 40l111 -95l111 95zM76 0v705h135l379 -685h20l-10 50v635h66v-705h-135l-379 685h-20l10 -50v-635h-66z" />
    <glyph glyph-name="uni0145" unicode="&#x145;" horiz-adv-x="742" 
d="M76 0v705h135l379 -685h20l-10 50v635h66v-705h-135l-379 685h-20l10 -50v-635h-66zM333 -49l64 -17l-51 -164l-64 17z" />
    <glyph glyph-name="Eng" unicode="&#x14a;" horiz-adv-x="742" 
d="M600 705h66v-840c0 -35 -20 -57 -65 -55l-181 10v56l180 -10v134h-69l-379 685h-20l10 -50v-635h-66v705h135l379 -685h20l-10 50v635z" />
    <glyph glyph-name="Ntilde" unicode="&#xd1;" horiz-adv-x="742" 
d="M221 800c0 96 41 126 93 126c82 0 105 -80 149 -80c22 0 42 10 42 70h56c0 -96 -41 -126 -93 -126c-82 0 -105 80 -149 80c-22 0 -42 -10 -42 -70h-56zM76 0v705h135l379 -685h20l-10 50v635h66v-705h-135l-379 685h-20l10 -50v-635h-66z" />
    <glyph glyph-name="O" unicode="O" horiz-adv-x="777" 
d="M66 353c0 205 119 362 323 362c203 0 322 -157 322 -362c0 -206 -119 -363 -322 -363c-204 0 -323 157 -323 363zM132 353c0 -176 84 -307 257 -307s256 131 256 307c0 175 -83 306 -256 306s-257 -131 -257 -306z" />
    <glyph glyph-name="Oacute" unicode="&#xd3;" horiz-adv-x="777" 
d="M237 846l290 78l14 -54l-290 -78zM66 353c0 205 119 362 323 362c203 0 322 -157 322 -362c0 -206 -119 -363 -322 -363c-204 0 -323 157 -323 363zM132 353c0 -176 84 -307 257 -307s256 131 256 307c0 175 -83 306 -256 306s-257 -131 -257 -306z" />
    <glyph glyph-name="Ocircumflex" unicode="&#xd4;" horiz-adv-x="777" 
d="M540 814l-40 -40l-111 95l-111 -95l-40 40l151 127zM66 353c0 205 119 362 323 362c203 0 322 -157 322 -362c0 -206 -119 -363 -322 -363c-204 0 -323 157 -323 363zM132 353c0 -176 84 -307 257 -307s256 131 256 307c0 175 -83 306 -256 306s-257 -131 -257 -306z" />
    <glyph glyph-name="Odieresis" unicode="&#xd6;" horiz-adv-x="777" 
d="M291 790c-37 0 -67 31 -67 68c0 36 30 67 67 67s68 -31 68 -67c0 -37 -31 -68 -68 -68zM486 790c-37 0 -67 31 -67 68c0 36 30 67 67 67s68 -31 68 -67c0 -37 -31 -68 -68 -68zM66 353c0 205 119 362 323 362c203 0 322 -157 322 -362c0 -206 -119 -363 -322 -363
c-204 0 -323 157 -323 363zM132 353c0 -176 84 -307 257 -307s256 131 256 307c0 175 -83 306 -256 306s-257 -131 -257 -306z" />
    <glyph glyph-name="Ograve" unicode="&#xd2;" horiz-adv-x="777" 
d="M541 846l-14 -54l-290 78l14 54zM66 353c0 205 119 362 323 362c203 0 322 -157 322 -362c0 -206 -119 -363 -322 -363c-204 0 -323 157 -323 363zM132 353c0 -176 84 -307 257 -307s256 131 256 307c0 175 -83 306 -256 306s-257 -131 -257 -306z" />
    <glyph glyph-name="Ohungarumlaut" unicode="&#x150;" horiz-adv-x="777" 
d="M270 813l131 132l39 -40l-131 -131zM418 813l131 132l39 -40l-131 -131zM66 353c0 205 119 362 323 362c203 0 322 -157 322 -362c0 -206 -119 -363 -322 -363c-204 0 -323 157 -323 363zM132 353c0 -176 84 -307 257 -307s256 131 256 307c0 175 -83 306 -256 306
s-257 -131 -257 -306z" />
    <glyph glyph-name="Omacron" unicode="&#x14c;" horiz-adv-x="777" 
d="M239 886h301v-55l-301 -1v56zM66 353c0 205 119 362 323 362c203 0 322 -157 322 -362c0 -206 -119 -363 -322 -363c-204 0 -323 157 -323 363zM132 353c0 -176 84 -307 257 -307s256 131 256 307c0 175 -83 306 -256 306s-257 -131 -257 -306z" />
    <glyph glyph-name="Oslash" unicode="&#xd8;" horiz-adv-x="777" 
d="M591 645c77 -65 120 -170 120 -293c0 -206 -119 -363 -322 -363c-60 0 -112 13 -156 38l-50 -86l-48 28l51 89c-77 65 -120 171 -120 294c0 205 119 362 323 362c59 0 111 -13 155 -37l50 86l49 -28zM132 352c0 -101 28 -187 84 -243l300 519c-35 19 -77 30 -127 30
c-173 0 -257 -131 -257 -306zM389 45c173 0 256 131 256 307c0 101 -27 187 -84 242l-300 -518c35 -20 78 -31 128 -31z" />
    <glyph glyph-name="Otilde" unicode="&#xd5;" horiz-adv-x="777" 
d="M219 800c0 96 41 126 93 126c82 0 105 -80 149 -80c22 0 42 10 42 70h56c0 -96 -41 -126 -93 -126c-82 0 -105 80 -149 80c-22 0 -42 -10 -42 -70h-56zM66 353c0 205 119 362 323 362c203 0 322 -157 322 -362c0 -206 -119 -363 -322 -363c-204 0 -323 157 -323 363z
M132 353c0 -176 84 -307 257 -307s256 131 256 307c0 175 -83 306 -256 306s-257 -131 -257 -306z" />
    <glyph glyph-name="OE" unicode="&#x152;" horiz-adv-x="1134" 
d="M1078 649h-357v-268h307v-56h-307v-269h357v-56h-423v134c-54 -88 -145 -144 -266 -144c-204 0 -323 157 -323 363c0 205 119 362 323 362c121 0 212 -56 266 -144v134h423v-56zM389 46c173 0 256 131 256 307c0 175 -83 306 -256 306s-257 -131 -257 -306
c0 -176 84 -307 257 -307z" />
    <glyph glyph-name="P" unicode="P" horiz-adv-x="605" 
d="M262 705c178 0 287 -49 287 -227c0 -179 -109 -228 -287 -228h-120v-250h-66v705h186zM262 306c125 0 221 24 221 172c0 147 -96 171 -221 171h-120v-343h120z" />
    <glyph glyph-name="Thorn" unicode="&#xde;" horiz-adv-x="605" 
d="M262 580c178 0 287 -49 287 -227c0 -179 -109 -228 -287 -228h-120v-125h-66v705h66v-125h120zM262 181c125 0 221 24 221 172c0 147 -96 171 -221 171h-120v-343h120z" />
    <glyph glyph-name="Q" unicode="Q" horiz-adv-x="760" 
d="M440 -54c122 4 240 -11 384 -40v-56c-202 39 -398 58 -635 28l-9 54c101 15 242 30 320 81l-7 10c-18 -10 -67 -23 -124 -23c-174 0 -303 152 -303 358c0 205 119 357 323 357c203 0 322 -157 322 -362c0 -244 -150 -362 -271 -407zM389 56c163 0 256 121 256 297
c0 175 -93 306 -256 306s-257 -126 -257 -301c0 -176 94 -302 257 -302z" />
    <glyph glyph-name="R" unicode="R" horiz-adv-x="654" 
d="M76 0v705h226c168 0 267 -39 267 -197c0 -104 -47 -154 -122 -168v-20h81c37 0 50 -14 50 -47v-273h-66v290h-370v-290h-66zM142 346h160c125 0 201 14 201 152s-76 151 -201 151h-160v-303z" />
    <glyph glyph-name="Racute" unicode="&#x154;" horiz-adv-x="654" 
d="M160 846l290 78l14 -54l-290 -78zM76 0v705h226c168 0 267 -39 267 -197c0 -104 -47 -154 -122 -168v-20h81c37 0 50 -14 50 -47v-273h-66v290h-370v-290h-66zM142 346h160c125 0 201 14 201 152s-76 151 -201 151h-160v-303z" />
    <glyph glyph-name="Rcaron" unicode="&#x158;" horiz-adv-x="654" 
d="M463 901l-151 -127l-151 127l40 40l111 -95l111 95zM76 0v705h226c168 0 267 -39 267 -197c0 -104 -47 -154 -122 -168v-20h81c37 0 50 -14 50 -47v-273h-66v290h-370v-290h-66zM142 346h160c125 0 201 14 201 152s-76 151 -201 151h-160v-303z" />
    <glyph glyph-name="uni0156" unicode="&#x156;" horiz-adv-x="654" 
d="M76 0v705h226c168 0 267 -39 267 -197c0 -104 -47 -154 -122 -168v-20h81c37 0 50 -14 50 -47v-273h-66v290h-370v-290h-66zM142 346h160c125 0 201 14 201 152s-76 151 -201 151h-160v-303zM304 -49l64 -17l-51 -164l-64 17z" />
    <glyph glyph-name="S" unicode="S" horiz-adv-x="669" 
d="M623 175c0 -102 -58 -185 -265 -185c-244 0 -312 110 -312 272h66c0 -178 96 -216 246 -216c123 0 199 30 199 124c0 118 -132 140 -246 173c-137 40 -233 78 -233 200c0 106 72 172 244 172c206 0 272 -130 272 -240h-66c0 126 -94 184 -206 184
c-102 0 -178 -26 -178 -112c0 -83 71 -112 187 -148c140 -43 292 -77 292 -224z" />
    <glyph glyph-name="Sacute" unicode="&#x15a;" horiz-adv-x="669" 
d="M183 846l290 78l14 -54l-290 -78zM623 175c0 -102 -58 -185 -265 -185c-244 0 -312 110 -312 272h66c0 -178 96 -216 246 -216c123 0 199 30 199 124c0 118 -132 140 -246 173c-137 40 -233 78 -233 200c0 106 72 172 244 172c206 0 272 -130 272 -240h-66
c0 126 -94 184 -206 184c-102 0 -178 -26 -178 -112c0 -83 71 -112 187 -148c140 -43 292 -77 292 -224z" />
    <glyph glyph-name="Scaron" unicode="&#x160;" horiz-adv-x="669" 
d="M486 901l-151 -127l-151 127l40 40l111 -95l111 95zM623 175c0 -102 -58 -185 -265 -185c-244 0 -312 110 -312 272h66c0 -178 96 -216 246 -216c123 0 199 30 199 124c0 118 -132 140 -246 173c-137 40 -233 78 -233 200c0 106 72 172 244 172c206 0 272 -130 272 -240
h-66c0 126 -94 184 -206 184c-102 0 -178 -26 -178 -112c0 -83 71 -112 187 -148c140 -43 292 -77 292 -224z" />
    <glyph glyph-name="Scedilla" unicode="&#x15e;" horiz-adv-x="669" 
d="M623 175c0 -102 -58 -185 -265 -185l-46 -46c17 8 36 14 61 14c32 0 61 -17 61 -55c0 -73 -73 -83 -195 -83v56c87 0 139 0 139 33c0 14 -9 21 -23 21c-18 0 -33 -4 -68 -28l-32 47l40 44c-193 18 -249 122 -249 269h66c0 -178 96 -216 246 -216c123 0 199 30 199 124
c0 118 -132 140 -246 173c-137 40 -233 78 -233 200c0 106 72 172 244 172c206 0 272 -130 272 -240h-66c0 126 -94 184 -206 184c-102 0 -178 -26 -178 -112c0 -83 71 -112 187 -148c140 -43 292 -77 292 -224z" />
    <glyph glyph-name="uni0218" unicode="&#x218;" horiz-adv-x="669" 
d="M623 175c0 -102 -58 -185 -265 -185c-244 0 -312 110 -312 272h66c0 -178 96 -216 246 -216c123 0 199 30 199 124c0 118 -132 140 -246 173c-137 40 -233 78 -233 200c0 106 72 172 244 172c206 0 272 -130 272 -240h-66c0 126 -94 184 -206 184
c-102 0 -178 -26 -178 -112c0 -83 71 -112 187 -148c140 -43 292 -77 292 -224zM297 -49l64 -17l-51 -164l-64 17z" />
    <glyph glyph-name="uni1E9E" unicode="&#x1e9e;" horiz-adv-x="605" 
d="M198 0v56l164 -9c85 -5 131 43 131 146c0 156 -123 156 -199 126l-31 122l138 119c0 60 -26 99 -114 99c-96 0 -145 -30 -145 -156v-503h-66v513c0 150 93 202 211 202c131 0 180 -74 180 -179l-169 -146l4 -20c132 40 257 -1 257 -177c0 -154 -89 -210 -197 -203z" />
    <glyph glyph-name="T" unicode="T" horiz-adv-x="653" 
d="M607 705v-56h-247v-649h-66v649h-248v56h561z" />
    <glyph glyph-name="Tbar" unicode="&#x166;" horiz-adv-x="653" 
d="M607 649h-247v-256h156v-56h-156v-337h-66v337h-156v56h156v256h-248v56h561v-56z" />
    <glyph glyph-name="Tcaron" unicode="&#x164;" horiz-adv-x="653" 
d="M478 901l-151 -127l-151 127l40 40l111 -95l111 95zM607 705v-56h-247v-649h-66v649h-248v56h561z" />
    <glyph glyph-name="uni0162" unicode="&#x162;" horiz-adv-x="653" 
d="M360 649v-649l-56 -56c17 8 36 14 61 14c32 0 61 -17 61 -55c0 -73 -73 -83 -195 -83v56c87 0 139 0 139 33c0 14 -9 21 -23 21c-18 0 -33 -4 -68 -28l-32 47l47 51v649h-248v56h561v-56h-247z" />
    <glyph glyph-name="uni021A" unicode="&#x21a;" horiz-adv-x="653" 
d="M607 705v-56h-247v-649h-66v649h-248v56h561zM238 -213l51 164l64 -17l-51 -164z" />
    <glyph glyph-name="U" unicode="U" horiz-adv-x="655" 
d="M56 262v443h66v-442c0 -146 58 -217 205 -217s206 71 206 217v442h66v-443c0 -176 -83 -272 -272 -272s-271 96 -271 272z" />
    <glyph glyph-name="Uacute" unicode="&#xda;" horiz-adv-x="655" 
d="M175 846l290 78l14 -54l-290 -78zM56 262v443h66v-442c0 -146 58 -217 205 -217s206 71 206 217v442h66v-443c0 -176 -83 -272 -272 -272s-271 96 -271 272z" />
    <glyph glyph-name="Ucircumflex" unicode="&#xdb;" horiz-adv-x="655" 
d="M478 814l-40 -40l-111 95l-111 -95l-40 40l151 127zM56 262v443h66v-442c0 -146 58 -217 205 -217s206 71 206 217v442h66v-443c0 -176 -83 -272 -272 -272s-271 96 -271 272z" />
    <glyph glyph-name="Udieresis" unicode="&#xdc;" horiz-adv-x="655" 
d="M229 790c-37 0 -67 31 -67 68c0 36 30 67 67 67s68 -31 68 -67c0 -37 -31 -68 -68 -68zM424 790c-37 0 -67 31 -67 68c0 36 30 67 67 67s68 -31 68 -67c0 -37 -31 -68 -68 -68zM56 262v443h66v-442c0 -146 58 -217 205 -217s206 71 206 217v442h66v-443
c0 -176 -83 -272 -272 -272s-271 96 -271 272z" />
    <glyph glyph-name="Ugrave" unicode="&#xd9;" horiz-adv-x="655" 
d="M479 846l-14 -54l-290 78l14 54zM56 262v443h66v-442c0 -146 58 -217 205 -217s206 71 206 217v442h66v-443c0 -176 -83 -272 -272 -272s-271 96 -271 272z" />
    <glyph glyph-name="Uhungarumlaut" unicode="&#x170;" horiz-adv-x="655" 
d="M208 813l131 132l39 -40l-131 -131zM356 813l131 132l39 -40l-131 -131zM56 262v443h66v-442c0 -146 58 -217 205 -217s206 71 206 217v442h66v-443c0 -176 -83 -272 -272 -272s-271 96 -271 272z" />
    <glyph glyph-name="Umacron" unicode="&#x16a;" horiz-adv-x="655" 
d="M177 886h301v-55l-301 -1v56zM56 262v443h66v-442c0 -146 58 -217 205 -217s206 71 206 217v442h66v-443c0 -176 -83 -272 -272 -272s-271 96 -271 272z" />
    <glyph glyph-name="Uogonek" unicode="&#x172;" horiz-adv-x="655" 
d="M599 262c0 -143 -55 -233 -176 -262l-71 -134l196 20v-56l-200 -19c-48 -4 -69 34 -49 73l56 107c-9 -1 -19 -1 -28 -1c-189 0 -271 96 -271 272v443h66v-442c0 -146 58 -217 205 -217s206 71 206 217v442h66v-443z" />
    <glyph glyph-name="Uring" unicode="&#x16e;" horiz-adv-x="655" 
d="M326 770c-72 0 -110 53 -110 106c0 52 38 105 110 105s111 -53 111 -105s-39 -106 -111 -106zM326 826c37 0 55 20 55 50c0 29 -19 49 -55 49s-54 -20 -54 -49c0 -30 18 -50 54 -50zM56 262v443h66v-442c0 -146 58 -217 205 -217s206 71 206 217v442h66v-443
c0 -176 -83 -272 -272 -272s-271 96 -271 272z" />
    <glyph glyph-name="V" unicode="V" horiz-adv-x="672" 
d="M36 705h65l225 -685h20l225 685h65l-232 -705h-136z" />
    <glyph glyph-name="W" unicode="W" horiz-adv-x="982" 
d="M36 705h62l151 -685h20l155 685h134l155 -685h20l151 685h62l-156 -705h-134l-155 685h-20l-155 -685h-134z" />
    <glyph glyph-name="Wacute" unicode="&#x1e82;" horiz-adv-x="982" 
d="M339 846l290 78l14 -54l-290 -78zM36 705h62l151 -685h20l155 685h134l155 -685h20l151 685h62l-156 -705h-134l-155 685h-20l-155 -685h-134z" />
    <glyph glyph-name="Wcircumflex" unicode="&#x174;" horiz-adv-x="982" 
d="M642 814l-40 -40l-111 95l-111 -95l-40 40l151 127zM36 705h62l151 -685h20l155 685h134l155 -685h20l151 685h62l-156 -705h-134l-155 685h-20l-155 -685h-134z" />
    <glyph glyph-name="Wdieresis" unicode="&#x1e84;" horiz-adv-x="982" 
d="M393 790c-37 0 -67 31 -67 68c0 36 30 67 67 67s68 -31 68 -67c0 -37 -31 -68 -68 -68zM588 790c-37 0 -67 31 -67 68c0 36 30 67 67 67s68 -31 68 -67c0 -37 -31 -68 -68 -68zM36 705h62l151 -685h20l155 685h134l155 -685h20l151 685h62l-156 -705h-134l-155 685h-20
l-155 -685h-134z" />
    <glyph glyph-name="Wgrave" unicode="&#x1e80;" horiz-adv-x="982" 
d="M643 846l-14 -54l-290 78l14 54zM36 705h62l151 -685h20l155 685h134l155 -685h20l151 685h62l-156 -705h-134l-155 685h-20l-155 -685h-134z" />
    <glyph glyph-name="X" unicode="X" horiz-adv-x="666" 
d="M36 0l246 339v28l-246 338h75l222 -310l222 310h75l-246 -338v-28l246 -339h-75l-222 311l-222 -311h-75z" />
    <glyph glyph-name="Y" unicode="Y" horiz-adv-x="646" 
d="M539 705h71l-254 -435v-270h-66v270l-254 435h71l206 -354v-50h20v50z" />
    <glyph glyph-name="Yacute" unicode="&#xdd;" horiz-adv-x="646" 
d="M171 846l290 78l14 -54l-290 -78zM539 705h71l-254 -435v-270h-66v270l-254 435h71l206 -354v-50h20v50z" />
    <glyph glyph-name="Ycircumflex" unicode="&#x176;" horiz-adv-x="646" 
d="M474 814l-40 -40l-111 95l-111 -95l-40 40l151 127zM539 705h71l-254 -435v-270h-66v270l-254 435h71l206 -354v-50h20v50z" />
    <glyph glyph-name="Ydieresis" unicode="&#x178;" horiz-adv-x="646" 
d="M225 790c-37 0 -67 31 -67 68c0 36 30 67 67 67s68 -31 68 -67c0 -37 -31 -68 -68 -68zM420 790c-37 0 -67 31 -67 68c0 36 30 67 67 67s68 -31 68 -67c0 -37 -31 -68 -68 -68zM539 705h71l-254 -435v-270h-66v270l-254 435h71l206 -354v-50h20v50z" />
    <glyph glyph-name="Ygrave" unicode="&#x1ef2;" horiz-adv-x="646" 
d="M475 846l-14 -54l-290 78l14 54zM539 705h71l-254 -435v-270h-66v270l-254 435h71l206 -354v-50h20v50z" />
    <glyph glyph-name="Z" unicode="Z" horiz-adv-x="649" 
d="M56 0v131l517 508v20l-50 -10h-467v56h537v-131l-517 -508v-20l50 10h467v-56h-537z" />
    <glyph glyph-name="Zacute" unicode="&#x179;" horiz-adv-x="649" 
d="M173 846l290 78l14 -54l-290 -78zM56 0v131l517 508v20l-50 -10h-467v56h537v-131l-517 -508v-20l50 10h467v-56h-537z" />
    <glyph glyph-name="Zcaron" unicode="&#x17d;" horiz-adv-x="649" 
d="M476 901l-151 -127l-151 127l40 40l111 -95l111 95zM56 0v131l517 508v20l-50 -10h-467v56h537v-131l-517 -508v-20l50 10h467v-56h-537z" />
    <glyph glyph-name="Zdotaccent" unicode="&#x17b;" horiz-adv-x="649" 
d="M324 790c-37 0 -67 31 -67 68c0 36 30 67 67 67s68 -31 68 -67c0 -37 -31 -68 -68 -68zM56 0v131l517 508v20l-50 -10h-467v56h537v-131l-517 -508v-20l50 10h467v-56h-537z" />
    <glyph glyph-name="G.ss01" horiz-adv-x="764" 
d="M66 353c0 205 117 362 321 362c177 0 274 -108 285 -262h-66c-6 123 -83 206 -219 206c-173 0 -255 -131 -255 -306c0 -176 64 -307 239 -307c178 0 251 81 251 271h-297v56h308c39 0 55 -16 55 -49v-324h-66v103l10 50h-20c-21 -91 -102 -163 -241 -163
c-206 0 -305 157 -305 363z" />
    <glyph glyph-name="Gbreve.ss01" horiz-adv-x="764" 
d="M539 941c0 -102 -61 -167 -151 -167s-151 65 -151 167h56c0 -74 26 -111 95 -111s95 37 95 111h56zM66 353c0 205 117 362 321 362c177 0 274 -108 285 -262h-66c-6 123 -83 206 -219 206c-173 0 -255 -131 -255 -306c0 -176 64 -307 239 -307c178 0 251 81 251 271h-297
v56h308c39 0 55 -16 55 -49v-324h-66v103l10 50h-20c-21 -91 -102 -163 -241 -163c-206 0 -305 157 -305 363z" />
    <glyph glyph-name="uni0122.ss01" horiz-adv-x="764" 
d="M66 353c0 205 117 362 321 362c177 0 274 -108 285 -262h-66c-6 123 -83 206 -219 206c-173 0 -255 -131 -255 -306c0 -176 64 -307 239 -307c178 0 251 81 251 271h-297v56h308c39 0 55 -16 55 -49v-324h-66v103l10 50h-20c-21 -91 -102 -163 -241 -163
c-206 0 -305 157 -305 363zM331 -49l64 -17l-51 -164l-64 17z" />
    <glyph glyph-name="Gdotaccent.ss01" horiz-adv-x="764" 
d="M387 790c-37 0 -67 31 -67 68c0 36 30 67 67 67s68 -31 68 -67c0 -37 -31 -68 -68 -68zM66 353c0 205 117 362 321 362c177 0 274 -108 285 -262h-66c-6 123 -83 206 -219 206c-173 0 -255 -131 -255 -306c0 -176 64 -307 239 -307c178 0 251 81 251 271h-297v56h308
c39 0 55 -16 55 -49v-324h-66v103l10 50h-20c-21 -91 -102 -163 -241 -163c-206 0 -305 157 -305 363z" />
    <glyph glyph-name="a" unicode="a" horiz-adv-x="582" 
d="M56 138c0 77 46 132 155 142l206 19c-6 101 -59 150 -148 150c-74 0 -147 -34 -147 -137h-66c0 98 72 193 213 193c139 0 214 -97 214 -223v-226h73v-56h-84c-35 0 -55 20 -55 55v30l10 50h-20c-19 -74 -73 -145 -189 -145c-142 0 -162 96 -162 148zM122 144
c0 -63 38 -98 102 -98c118 0 193 86 193 197l-196 -19c-66 -6 -99 -27 -99 -80z" />
    <glyph glyph-name="aacute" unicode="&#xe1;" horiz-adv-x="582" 
d="M127 636l290 78l14 -54l-290 -78zM56 138c0 77 46 132 155 142l206 19c-6 101 -59 150 -148 150c-74 0 -147 -34 -147 -137h-66c0 98 72 193 213 193c139 0 214 -97 214 -223v-226h73v-56h-84c-35 0 -55 20 -55 55v30l10 50h-20c-19 -74 -73 -145 -189 -145
c-142 0 -162 96 -162 148zM122 144c0 -63 38 -98 102 -98c118 0 193 86 193 197l-196 -19c-66 -6 -99 -27 -99 -80z" />
    <glyph glyph-name="abreve" unicode="&#x103;" horiz-adv-x="582" 
d="M430 731c0 -102 -61 -167 -151 -167s-151 65 -151 167h56c0 -74 26 -111 95 -111s95 37 95 111h56zM56 138c0 77 46 132 155 142l206 19c-6 101 -59 150 -148 150c-74 0 -147 -34 -147 -137h-66c0 98 72 193 213 193c139 0 214 -97 214 -223v-226h73v-56h-84
c-35 0 -55 20 -55 55v30l10 50h-20c-19 -74 -73 -145 -189 -145c-142 0 -162 96 -162 148zM122 144c0 -63 38 -98 102 -98c118 0 193 86 193 197l-196 -19c-66 -6 -99 -27 -99 -80z" />
    <glyph glyph-name="acircumflex" unicode="&#xe2;" horiz-adv-x="582" 
d="M430 604l-40 -40l-111 95l-111 -95l-40 40l151 127zM56 138c0 77 46 132 155 142l206 19c-6 101 -59 150 -148 150c-74 0 -147 -34 -147 -137h-66c0 98 72 193 213 193c139 0 214 -97 214 -223v-226h73v-56h-84c-35 0 -55 20 -55 55v30l10 50h-20
c-19 -74 -73 -145 -189 -145c-142 0 -162 96 -162 148zM122 144c0 -63 38 -98 102 -98c118 0 193 86 193 197l-196 -19c-66 -6 -99 -27 -99 -80z" />
    <glyph glyph-name="adieresis" unicode="&#xe4;" horiz-adv-x="582" 
d="M181 580c-37 0 -67 31 -67 68c0 36 30 67 67 67s68 -31 68 -67c0 -37 -31 -68 -68 -68zM376 580c-37 0 -67 31 -67 68c0 36 30 67 67 67s68 -31 68 -67c0 -37 -31 -68 -68 -68zM56 138c0 77 46 132 155 142l206 19c-6 101 -59 150 -148 150c-74 0 -147 -34 -147 -137h-66
c0 98 72 193 213 193c139 0 214 -97 214 -223v-226h73v-56h-84c-35 0 -55 20 -55 55v30l10 50h-20c-19 -74 -73 -145 -189 -145c-142 0 -162 96 -162 148zM122 144c0 -63 38 -98 102 -98c118 0 193 86 193 197l-196 -19c-66 -6 -99 -27 -99 -80z" />
    <glyph glyph-name="agrave" unicode="&#xe0;" horiz-adv-x="582" 
d="M431 636l-14 -54l-290 78l14 54zM56 138c0 77 46 132 155 142l206 19c-6 101 -59 150 -148 150c-74 0 -147 -34 -147 -137h-66c0 98 72 193 213 193c139 0 214 -97 214 -223v-226h73v-56h-84c-35 0 -55 20 -55 55v30l10 50h-20c-19 -74 -73 -145 -189 -145
c-142 0 -162 96 -162 148zM122 144c0 -63 38 -98 102 -98c118 0 193 86 193 197l-196 -19c-66 -6 -99 -27 -99 -80z" />
    <glyph glyph-name="amacron" unicode="&#x101;" horiz-adv-x="582" 
d="M129 676h301v-55l-301 -1v56zM56 138c0 77 46 132 155 142l206 19c-6 101 -59 150 -148 150c-74 0 -147 -34 -147 -137h-66c0 98 72 193 213 193c139 0 214 -97 214 -223v-226h73v-56h-84c-35 0 -55 20 -55 55v30l10 50h-20c-19 -74 -73 -145 -189 -145
c-142 0 -162 96 -162 148zM122 144c0 -63 38 -98 102 -98c118 0 193 86 193 197l-196 -19c-66 -6 -99 -27 -99 -80z" />
    <glyph glyph-name="aogonek" unicode="&#x105;" horiz-adv-x="582" 
d="M485 -134l196 20v-56l-200 -19c-48 -4 -69 34 -49 73l60 116h-20c-35 0 -55 20 -55 55v30l10 50h-20c-19 -74 -73 -145 -189 -145c-142 0 -162 96 -162 148c0 77 46 132 155 142l206 19c-6 101 -59 150 -148 150c-74 0 -147 -34 -147 -137h-66c0 98 72 193 213 193
c139 0 214 -97 214 -223v-226h73v-56h-1zM224 46c118 0 193 86 193 197l-196 -19c-66 -6 -99 -27 -99 -80c0 -63 38 -98 102 -98z" />
    <glyph glyph-name="aring" unicode="&#xe5;" horiz-adv-x="582" 
d="M278 560c-72 0 -110 53 -110 106c0 52 38 105 110 105s111 -53 111 -105s-39 -106 -111 -106zM278 616c37 0 55 20 55 50c0 29 -19 49 -55 49s-54 -20 -54 -49c0 -30 18 -50 54 -50zM56 138c0 77 46 132 155 142l206 19c-6 101 -59 150 -148 150
c-74 0 -147 -34 -147 -137h-66c0 98 72 193 213 193c139 0 214 -97 214 -223v-226h73v-56h-84c-35 0 -55 20 -55 55v30l10 50h-20c-19 -74 -73 -145 -189 -145c-142 0 -162 96 -162 148zM122 144c0 -63 38 -98 102 -98c118 0 193 86 193 197l-196 -19
c-66 -6 -99 -27 -99 -80z" />
    <glyph glyph-name="atilde" unicode="&#xe3;" horiz-adv-x="582" 
d="M109 590c0 96 41 126 93 126c82 0 105 -80 149 -80c22 0 42 10 42 70h56c0 -96 -41 -126 -93 -126c-82 0 -105 80 -149 80c-22 0 -42 -10 -42 -70h-56zM56 138c0 77 46 132 155 142l206 19c-6 101 -59 150 -148 150c-74 0 -147 -34 -147 -137h-66c0 98 72 193 213 193
c139 0 214 -97 214 -223v-226h73v-56h-84c-35 0 -55 20 -55 55v30l10 50h-20c-19 -74 -73 -145 -189 -145c-142 0 -162 96 -162 148zM122 144c0 -63 38 -98 102 -98c118 0 193 86 193 197l-196 -19c-66 -6 -99 -27 -99 -80z" />
    <glyph glyph-name="ae" unicode="&#xe6;" horiz-adv-x="960" 
d="M838 173h66c-20 -78 -76 -183 -231 -183c-122 0 -194 60 -226 145h-10c-29 -74 -103 -145 -219 -145c-142 0 -162 96 -162 148c0 77 46 132 155 142l206 19c-6 101 -59 150 -148 150c-74 0 -147 -34 -147 -137h-66c0 98 72 193 213 193c94 0 158 -44 190 -111
c40 72 113 111 203 111c137 0 225 -88 225 -241v-28h-394c6 -101 51 -190 180 -190c88 0 145 44 165 127zM662 449c-99 0 -169 -69 -169 -157h328c0 88 -57 157 -159 157zM224 46c118 0 193 86 193 197l-196 -19c-66 -6 -99 -27 -99 -80c0 -63 38 -98 102 -98z" />
    <glyph glyph-name="b" unicode="b" 
d="M76 0v735h66v-321l-10 -50h20c20 80 91 141 202 141c144 0 240 -109 240 -257c0 -149 -96 -258 -240 -258c-111 0 -182 61 -202 141h-20l10 -50v-81h-66zM142 248c0 -142 92 -202 198 -202s188 60 188 202c0 141 -82 201 -188 201s-198 -60 -198 -201z" />
    <glyph glyph-name="c" unicode="c" horiz-adv-x="585" 
d="M56 248c0 138 88 257 249 257c88 0 210 -50 224 -194h-67c-16 105 -83 138 -157 138c-126 0 -183 -94 -183 -201c0 -108 57 -202 183 -202c74 0 141 33 157 138h67c-14 -144 -136 -194 -224 -194c-161 0 -249 119 -249 258z" />
    <glyph glyph-name="cacute" unicode="&#x107;" horiz-adv-x="585" 
d="M153 636l290 78l14 -54l-290 -78zM56 248c0 138 88 257 249 257c88 0 210 -50 224 -194h-67c-16 105 -83 138 -157 138c-126 0 -183 -94 -183 -201c0 -108 57 -202 183 -202c74 0 141 33 157 138h67c-14 -144 -136 -194 -224 -194c-161 0 -249 119 -249 258z" />
    <glyph glyph-name="ccaron" unicode="&#x10d;" horiz-adv-x="585" 
d="M456 691l-151 -127l-151 127l40 40l111 -95l111 95zM56 248c0 138 88 257 249 257c88 0 210 -50 224 -194h-67c-16 105 -83 138 -157 138c-126 0 -183 -94 -183 -201c0 -108 57 -202 183 -202c74 0 141 33 157 138h67c-14 -144 -136 -194 -224 -194
c-161 0 -249 119 -249 258z" />
    <glyph glyph-name="ccedilla" unicode="&#xe7;" horiz-adv-x="585" 
d="M305 46c74 0 141 33 157 138h67c-13 -138 -126 -190 -213 -194l-46 -46c17 8 36 14 61 14c32 0 61 -17 61 -55c0 -73 -73 -83 -195 -83v56c87 0 139 0 139 33c0 14 -9 21 -23 21c-18 0 -33 -4 -68 -28l-32 47l42 45c-129 22 -199 130 -199 254c0 138 88 257 249 257
c88 0 210 -50 224 -194h-67c-16 105 -83 138 -157 138c-126 0 -183 -94 -183 -201c0 -108 57 -202 183 -202z" />
    <glyph glyph-name="cdotaccent" unicode="&#x10b;" horiz-adv-x="585" 
d="M304 580c-37 0 -67 31 -67 68c0 36 30 67 67 67s68 -31 68 -67c0 -37 -31 -68 -68 -68zM56 248c0 138 88 257 249 257c88 0 210 -50 224 -194h-67c-16 105 -83 138 -157 138c-126 0 -183 -94 -183 -201c0 -108 57 -202 183 -202c74 0 141 33 157 138h67
c-14 -144 -136 -194 -224 -194c-161 0 -249 119 -249 258z" />
    <glyph glyph-name="d" unicode="d" 
d="M574 0h-66v81l10 50h-20c-20 -80 -91 -141 -202 -141c-144 0 -240 109 -240 258c0 148 96 257 240 257c111 0 182 -61 202 -141h20l-10 50v321h66v-735zM508 248c0 141 -92 201 -198 201s-188 -60 -188 -201c0 -142 82 -202 188 -202s198 60 198 202z" />
    <glyph glyph-name="eth" unicode="&#xf0;" horiz-adv-x="641" 
d="M413 641c106 -72 172 -181 172 -322c0 -206 -104 -329 -268 -329c-170 0 -261 110 -261 262c0 146 97 253 252 253c112 0 199 -70 221 -187h20l-10 50c-12 107 -82 190 -183 244l-136 -68l-36 48l103 52c-43 16 -90 28 -140 35v56c75 -9 144 -29 205 -59l117 59l36 -48z
M317 46c132 0 202 100 202 206c0 118 -84 197 -211 197c-118 0 -186 -80 -186 -197c0 -129 65 -206 195 -206z" />
    <glyph glyph-name="dcaron" unicode="&#x10f;" horiz-adv-x="746" 
d="M574 0h-66v81l10 50h-20c-20 -80 -91 -141 -202 -141c-144 0 -240 109 -240 258c0 148 96 257 240 257c111 0 182 -61 202 -141h20l-10 50v321h66v-735zM634 735h66v-240h-66v240zM508 248c0 141 -92 201 -198 201s-188 -60 -188 -201c0 -142 82 -202 188 -202
s198 60 198 202z" />
    <glyph glyph-name="dcroat" unicode="&#x111;" horiz-adv-x="680" 
d="M634 675v-56h-60v-619h-66v81l10 50h-20c-20 -80 -91 -141 -202 -141c-144 0 -240 109 -240 258c0 148 96 257 240 257c111 0 182 -61 202 -141h20l-10 50v205h-139v56h139v60h66v-60h60zM310 46c106 0 198 60 198 202c0 141 -92 201 -198 201s-188 -60 -188 -201
c0 -142 82 -202 188 -202z" />
    <glyph glyph-name="e" unicode="e" horiz-adv-x="589" 
d="M56 254c0 160 98 251 235 251s225 -88 225 -241v-28h-394c6 -101 51 -190 180 -190c88 0 145 44 165 127h66c-20 -78 -76 -183 -231 -183c-174 0 -246 121 -246 264zM122 292h328c0 88 -57 157 -159 157c-99 0 -169 -69 -169 -157z" />
    <glyph glyph-name="eacute" unicode="&#xe9;" horiz-adv-x="589" 
d="M143 636l290 78l14 -54l-290 -78zM56 254c0 160 98 251 235 251s225 -88 225 -241v-28h-394c6 -101 51 -190 180 -190c88 0 145 44 165 127h66c-20 -78 -76 -183 -231 -183c-174 0 -246 121 -246 264zM122 292h328c0 88 -57 157 -159 157c-99 0 -169 -69 -169 -157z" />
    <glyph glyph-name="ecaron" unicode="&#x11b;" horiz-adv-x="589" 
d="M446 691l-151 -127l-151 127l40 40l111 -95l111 95zM56 254c0 160 98 251 235 251s225 -88 225 -241v-28h-394c6 -101 51 -190 180 -190c88 0 145 44 165 127h66c-20 -78 -76 -183 -231 -183c-174 0 -246 121 -246 264zM122 292h328c0 88 -57 157 -159 157
c-99 0 -169 -69 -169 -157z" />
    <glyph glyph-name="ecircumflex" unicode="&#xea;" horiz-adv-x="589" 
d="M446 604l-40 -40l-111 95l-111 -95l-40 40l151 127zM56 254c0 160 98 251 235 251s225 -88 225 -241v-28h-394c6 -101 51 -190 180 -190c88 0 145 44 165 127h66c-20 -78 -76 -183 -231 -183c-174 0 -246 121 -246 264zM122 292h328c0 88 -57 157 -159 157
c-99 0 -169 -69 -169 -157z" />
    <glyph glyph-name="edieresis" unicode="&#xeb;" horiz-adv-x="589" 
d="M197 580c-37 0 -67 31 -67 68c0 36 30 67 67 67s68 -31 68 -67c0 -37 -31 -68 -68 -68zM392 580c-37 0 -67 31 -67 68c0 36 30 67 67 67s68 -31 68 -67c0 -37 -31 -68 -68 -68zM56 254c0 160 98 251 235 251s225 -88 225 -241v-28h-394c6 -101 51 -190 180 -190
c88 0 145 44 165 127h66c-20 -78 -76 -183 -231 -183c-174 0 -246 121 -246 264zM122 292h328c0 88 -57 157 -159 157c-99 0 -169 -69 -169 -157z" />
    <glyph glyph-name="edotaccent" unicode="&#x117;" horiz-adv-x="589" 
d="M294 580c-37 0 -67 31 -67 68c0 36 30 67 67 67s68 -31 68 -67c0 -37 -31 -68 -68 -68zM56 254c0 160 98 251 235 251s225 -88 225 -241v-28h-394c6 -101 51 -190 180 -190c88 0 145 44 165 127h66c-20 -78 -76 -183 -231 -183c-174 0 -246 121 -246 264zM122 292h328
c0 88 -57 157 -159 157c-99 0 -169 -69 -169 -157z" />
    <glyph glyph-name="egrave" unicode="&#xe8;" horiz-adv-x="589" 
d="M447 636l-14 -54l-290 78l14 54zM56 254c0 160 98 251 235 251s225 -88 225 -241v-28h-394c6 -101 51 -190 180 -190c88 0 145 44 165 127h66c-20 -78 -76 -183 -231 -183c-174 0 -246 121 -246 264zM122 292h328c0 88 -57 157 -159 157c-99 0 -169 -69 -169 -157z" />
    <glyph glyph-name="emacron" unicode="&#x113;" horiz-adv-x="589" 
d="M145 676h301v-55l-301 -1v56zM56 254c0 160 98 251 235 251s225 -88 225 -241v-28h-394c6 -101 51 -190 180 -190c88 0 145 44 165 127h66c-20 -78 -76 -183 -231 -183c-174 0 -246 121 -246 264zM122 292h328c0 88 -57 157 -159 157c-99 0 -169 -69 -169 -157z" />
    <glyph glyph-name="eogonek" unicode="&#x119;" horiz-adv-x="589" 
d="M370 -2l-69 -132l196 20v-56l-200 -19c-48 -4 -69 34 -49 73l55 106h-1c-174 0 -246 121 -246 264c0 160 98 251 235 251s225 -88 225 -241v-28h-394c6 -101 51 -190 180 -190c88 0 145 44 165 127h66c-17 -65 -59 -149 -163 -175zM291 449c-99 0 -169 -69 -169 -157h328
c0 88 -57 157 -159 157z" />
    <glyph glyph-name="f" unicode="f" horiz-adv-x="422" 
d="M310 679c-67 0 -86 -31 -86 -97v-87h144v-56h-144v-383h144v-56h-322v56h112v383h-112v56h112v88c0 91 43 152 152 152h86v-56h-86z" />
    <glyph glyph-name="g" unicode="g" horiz-adv-x="651" 
d="M581 495h44v-56h-44c-30 0 -48 -7 -68 -22c24 -30 38 -68 38 -114c0 -110 -83 -179 -235 -235c116 21 229 9 229 -102c0 -129 -128 -146 -453 -146v56c277 0 387 8 387 90c0 118 -227 61 -344 22l-17 50c74 24 147 49 221 73v20c-155 -36 -283 21 -283 172
c0 138 109 202 248 202c57 0 117 -15 163 -46c57 31 69 36 114 36zM304 156c106 0 181 39 181 147c0 107 -75 146 -181 146s-182 -39 -182 -146c0 -108 76 -147 182 -147z" />
    <glyph glyph-name="gbreve" unicode="&#x11f;" horiz-adv-x="651" 
d="M304 564c-90 0 -151 65 -151 167h56c0 -74 26 -111 95 -111s95 37 95 111h56c0 -102 -61 -167 -151 -167zM581 495h44v-56h-44c-30 0 -48 -7 -68 -22c24 -30 38 -68 38 -114c0 -110 -83 -179 -235 -235c116 21 229 9 229 -102c0 -129 -128 -146 -453 -146v56
c277 0 387 8 387 90c0 118 -227 61 -344 22l-17 50c74 24 147 49 221 73v20c-155 -36 -283 21 -283 172c0 138 109 202 248 202c57 0 117 -15 163 -46c57 31 69 36 114 36zM304 156c106 0 181 39 181 147c0 107 -75 146 -181 146s-182 -39 -182 -146
c0 -108 76 -147 182 -147z" />
    <glyph glyph-name="uni0123" unicode="&#x123;" horiz-adv-x="651" 
d="M389 754l-47 -174l-64 17l47 174zM581 495h44v-56h-44c-30 0 -48 -7 -68 -22c24 -30 38 -68 38 -114c0 -110 -83 -179 -235 -235c116 21 229 9 229 -102c0 -129 -128 -146 -453 -146v56c277 0 387 8 387 90c0 118 -227 61 -344 22l-17 50c74 24 147 49 221 73v20
c-155 -36 -283 21 -283 172c0 138 109 202 248 202c57 0 117 -15 163 -46c57 31 69 36 114 36zM304 156c106 0 181 39 181 147c0 107 -75 146 -181 146s-182 -39 -182 -146c0 -108 76 -147 182 -147z" />
    <glyph glyph-name="gdotaccent" unicode="&#x121;" horiz-adv-x="651" 
d="M303 580c-37 0 -67 31 -67 68c0 36 30 67 67 67s68 -31 68 -67c0 -37 -31 -68 -68 -68zM581 495h44v-56h-44c-30 0 -48 -7 -68 -22c24 -30 38 -68 38 -114c0 -110 -83 -179 -235 -235c116 21 229 9 229 -102c0 -129 -128 -146 -453 -146v56c277 0 387 8 387 90
c0 118 -227 61 -344 22l-17 50c74 24 147 49 221 73v20c-155 -36 -283 21 -283 172c0 138 109 202 248 202c57 0 117 -15 163 -46c57 31 69 36 114 36zM304 156c106 0 181 39 181 147c0 107 -75 146 -181 146s-182 -39 -182 -146c0 -108 76 -147 182 -147z" />
    <glyph glyph-name="h" unicode="h" horiz-adv-x="590" 
d="M343 505c109 0 181 -61 181 -195v-310h-66v302c0 106 -43 147 -130 147c-109 0 -186 -90 -186 -222v-227h-66v735h66v-331l-10 -50h20c20 90 83 151 191 151z" />
    <glyph glyph-name="hbar" unicode="&#x127;" horiz-adv-x="620" 
d="M373 505c109 0 181 -61 181 -195v-310h-66v302c0 106 -43 147 -130 147c-109 0 -186 -90 -186 -222v-227h-66v619h-50v56h50v60h66v-60h149v-56h-149v-215l-10 -50h20c20 90 83 151 191 151z" />
    <glyph glyph-name="i" unicode="i" horiz-adv-x="432" 
d="M213 580c-37 0 -67 31 -67 68c0 36 30 67 67 67s68 -31 68 -67c0 -37 -31 -68 -68 -68zM56 0v56h139v393l-99 -10v56l100 10c45 4 61 -20 61 -55v-394h139v-56h-340z" />
    <glyph glyph-name="dotlessi" unicode="&#x131;" horiz-adv-x="432" 
d="M56 0v56h141v393l-101 -10v56l98 10c45 5 61 -20 61 -65v-384h141v-56h-340z" />
    <glyph glyph-name="iacute" unicode="&#xed;" horiz-adv-x="432" 
d="M38 636l290 78l14 -54l-290 -78zM56 0v56h141v393l-101 -10v56l98 10c45 5 61 -20 61 -65v-384h141v-56h-340z" />
    <glyph glyph-name="icircumflex" unicode="&#xee;" horiz-adv-x="432" 
d="M341 604l-40 -40l-111 95l-111 -95l-40 40l151 127zM56 0v56h141v393l-101 -10v56l98 10c45 5 61 -20 61 -65v-384h141v-56h-340z" />
    <glyph glyph-name="idieresis" unicode="&#xef;" horiz-adv-x="432" 
d="M92 580c-37 0 -67 31 -67 68c0 36 30 67 67 67s68 -31 68 -67c0 -37 -31 -68 -68 -68zM287 580c-37 0 -67 31 -67 68c0 36 30 67 67 67s68 -31 68 -67c0 -37 -31 -68 -68 -68zM56 0v56h141v393l-101 -10v56l98 10c45 5 61 -20 61 -65v-384h141v-56h-340z" />
    <glyph glyph-name="i.loclTRK" horiz-adv-x="432" 
d="M189 580c-37 0 -67 31 -67 68c0 36 30 67 67 67s68 -31 68 -67c0 -37 -31 -68 -68 -68zM56 0v56h141v393l-101 -10v56l98 10c45 5 61 -20 61 -65v-384h141v-56h-340z" />
    <glyph glyph-name="igrave" unicode="&#xec;" horiz-adv-x="432" 
d="M342 636l-14 -54l-290 78l14 54zM56 0v56h141v393l-101 -10v56l98 10c45 5 61 -20 61 -65v-384h141v-56h-340z" />
    <glyph glyph-name="imacron" unicode="&#x12b;" horiz-adv-x="432" 
d="M40 676h301v-55l-301 -1v56zM56 0v56h141v393l-101 -10v56l98 10c45 5 61 -20 61 -65v-384h141v-56h-340z" />
    <glyph glyph-name="iogonek" unicode="&#x12f;" horiz-adv-x="432" 
d="M189 580c-37 0 -67 31 -67 68c0 36 30 67 67 67s68 -31 68 -67c0 -37 -31 -68 -68 -68zM396 0h-136l-70 -134l196 20v-56l-200 -19c-48 -4 -69 34 -49 73l60 116h-141v56h141v393l-101 -10v56l98 10c45 5 61 -20 61 -65v-384h141v-56z" />
    <glyph glyph-name="j" unicode="j" horiz-adv-x="273" 
d="M147 580c-37 0 -67 31 -67 68c0 36 30 67 67 67s68 -31 68 -67c0 -37 -31 -68 -68 -68zM26 -180l86 154c13 23 17 42 17 68v407l-103 -10v56l104 10c45 4 65 -20 65 -55v-420c0 -26 -4 -45 -17 -68l-81 -142h-71z" />
    <glyph glyph-name="k" unicode="k" horiz-adv-x="540" 
d="M419 0l-174 238l-103 -58v-180h-66v735h66v-485l257 145l-11 100h66l10 -87c3 -30 -11 -52 -36 -66l-130 -74l196 -268h-75z" />
    <glyph glyph-name="uni0137" unicode="&#x137;" horiz-adv-x="540" 
d="M298 268l196 -268h-75l-174 238l-103 -58v-180h-66v735h66v-485l257 145l-11 100h66l10 -87c3 -30 -11 -52 -36 -66zM194 -213l51 164l64 -17l-51 -164z" />
    <glyph glyph-name="l" unicode="l" horiz-adv-x="426" 
d="M46 0v56h139v633l-99 -10v56l100 10c45 5 65 -20 65 -65v-624h139v-56h-344z" />
    <glyph glyph-name="lacute" unicode="&#x13a;" horiz-adv-x="426" 
d="M44 876l290 78l14 -54l-290 -78zM46 0v56h139v633l-99 -10v56l100 10c45 5 65 -20 65 -65v-624h139v-56h-344z" />
    <glyph glyph-name="lcaron" unicode="&#x13e;" horiz-adv-x="433" 
d="M46 0v56h139v633l-99 -10v56l100 10c45 5 65 -20 65 -65v-624h139v-56h-344zM331 735h66v-240h-66v240z" />
    <glyph glyph-name="uni013C" unicode="&#x13c;" horiz-adv-x="426" 
d="M46 0v56h139v633l-99 -10v56l100 10c45 5 65 -20 65 -65v-624h139v-56h-344zM180 -49l64 -17l-51 -164l-64 17z" />
    <glyph glyph-name="lslash" unicode="&#x142;" horiz-adv-x="426" 
d="M251 56h139v-56h-344v56h139v271l-123 -33l-14 54l137 37v304l-99 -10v56l100 10c45 5 65 -20 65 -65v-277l123 33l14 -54l-137 -37v-289z" />
    <glyph glyph-name="m" unicode="m" horiz-adv-x="892" 
d="M675 505c99 0 151 -76 151 -182v-323h-66v302c0 96 -23 147 -108 147c-101 0 -168 -90 -168 -222v-227h-66v302c0 96 -23 147 -108 147c-101 0 -168 -90 -168 -222v-227h-66v495h66v-91l-10 -50h20c20 90 73 151 181 151c89 0 140 -61 149 -151h12c20 90 73 151 181 151z
" />
    <glyph glyph-name="n" unicode="n" horiz-adv-x="590" 
d="M328 449c-109 0 -186 -90 -186 -222v-227h-66v495h66v-91l-10 -50h20c20 90 83 151 191 151c109 0 181 -61 181 -195v-310h-66v302c0 106 -43 147 -130 147z" />
    <glyph glyph-name="nacute" unicode="&#x144;" horiz-adv-x="590" 
d="M168 636l290 78l14 -54l-290 -78zM328 449c-109 0 -186 -90 -186 -222v-227h-66v495h66v-91l-10 -50h20c20 90 83 151 191 151c109 0 181 -61 181 -195v-310h-66v302c0 106 -43 147 -130 147z" />
    <glyph glyph-name="ncaron" unicode="&#x148;" horiz-adv-x="590" 
d="M471 691l-151 -127l-151 127l40 40l111 -95l111 95zM328 449c-109 0 -186 -90 -186 -222v-227h-66v495h66v-91l-10 -50h20c20 90 83 151 191 151c109 0 181 -61 181 -195v-310h-66v302c0 106 -43 147 -130 147z" />
    <glyph glyph-name="uni0146" unicode="&#x146;" horiz-adv-x="590" 
d="M328 449c-109 0 -186 -90 -186 -222v-227h-66v495h66v-91l-10 -50h20c20 90 83 151 191 151c109 0 181 -61 181 -195v-310h-66v302c0 106 -43 147 -130 147zM262 -49l64 -17l-51 -164l-64 17z" />
    <glyph glyph-name="eng" unicode="&#x14b;" horiz-adv-x="590" 
d="M343 505c109 0 181 -61 181 -195v-445c0 -35 -20 -57 -65 -55l-181 10v56l180 -10v436c0 106 -43 147 -130 147c-109 0 -186 -90 -186 -222v-227h-66v495h66v-91l-10 -50h20c20 90 83 151 191 151z" />
    <glyph glyph-name="ntilde" unicode="&#xf1;" horiz-adv-x="590" 
d="M150 590c0 96 41 126 93 126c82 0 105 -80 149 -80c22 0 42 10 42 70h56c0 -96 -41 -126 -93 -126c-82 0 -105 80 -149 80c-22 0 -42 -10 -42 -70h-56zM328 449c-109 0 -186 -90 -186 -222v-227h-66v495h66v-91l-10 -50h20c20 90 83 151 191 151c109 0 181 -61 181 -195
v-310h-66v302c0 106 -43 147 -130 147z" />
    <glyph glyph-name="o" unicode="o" horiz-adv-x="627" 
d="M56 248c0 138 99 257 258 257c158 0 257 -119 257 -257c0 -139 -99 -258 -257 -258c-159 0 -258 119 -258 258zM122 248c0 -108 66 -202 192 -202c125 0 191 94 191 202c0 107 -66 201 -191 201c-126 0 -192 -94 -192 -201z" />
    <glyph glyph-name="oacute" unicode="&#xf3;" horiz-adv-x="627" 
d="M162 636l290 78l14 -54l-290 -78zM56 248c0 138 99 257 258 257c158 0 257 -119 257 -257c0 -139 -99 -258 -257 -258c-159 0 -258 119 -258 258zM122 248c0 -108 66 -202 192 -202c125 0 191 94 191 202c0 107 -66 201 -191 201c-126 0 -192 -94 -192 -201z" />
    <glyph glyph-name="ocircumflex" unicode="&#xf4;" horiz-adv-x="627" 
d="M465 604l-40 -40l-111 95l-111 -95l-40 40l151 127zM56 248c0 138 99 257 258 257c158 0 257 -119 257 -257c0 -139 -99 -258 -257 -258c-159 0 -258 119 -258 258zM122 248c0 -108 66 -202 192 -202c125 0 191 94 191 202c0 107 -66 201 -191 201
c-126 0 -192 -94 -192 -201z" />
    <glyph glyph-name="odieresis" unicode="&#xf6;" horiz-adv-x="627" 
d="M216 580c-37 0 -67 31 -67 68c0 36 30 67 67 67s68 -31 68 -67c0 -37 -31 -68 -68 -68zM411 580c-37 0 -67 31 -67 68c0 36 30 67 67 67s68 -31 68 -67c0 -37 -31 -68 -68 -68zM56 248c0 138 99 257 258 257c158 0 257 -119 257 -257c0 -139 -99 -258 -257 -258
c-159 0 -258 119 -258 258zM122 248c0 -108 66 -202 192 -202c125 0 191 94 191 202c0 107 -66 201 -191 201c-126 0 -192 -94 -192 -201z" />
    <glyph glyph-name="ograve" unicode="&#xf2;" horiz-adv-x="627" 
d="M466 636l-14 -54l-290 78l14 54zM56 248c0 138 99 257 258 257c158 0 257 -119 257 -257c0 -139 -99 -258 -257 -258c-159 0 -258 119 -258 258zM122 248c0 -108 66 -202 192 -202c125 0 191 94 191 202c0 107 -66 201 -191 201c-126 0 -192 -94 -192 -201z" />
    <glyph glyph-name="ohungarumlaut" unicode="&#x151;" horiz-adv-x="627" 
d="M195 603l131 132l39 -40l-131 -131zM343 603l131 132l39 -40l-131 -131zM56 248c0 138 99 257 258 257c158 0 257 -119 257 -257c0 -139 -99 -258 -257 -258c-159 0 -258 119 -258 258zM122 248c0 -108 66 -202 192 -202c125 0 191 94 191 202c0 107 -66 201 -191 201
c-126 0 -192 -94 -192 -201z" />
    <glyph glyph-name="omacron" unicode="&#x14d;" horiz-adv-x="627" 
d="M164 676h301v-55l-301 -1v56zM56 248c0 138 99 257 258 257c158 0 257 -119 257 -257c0 -139 -99 -258 -257 -258c-159 0 -258 119 -258 258zM122 248c0 -108 66 -202 192 -202c125 0 191 94 191 202c0 107 -66 201 -191 201c-126 0 -192 -94 -192 -201z" />
    <glyph glyph-name="oslash" unicode="&#xf8;" horiz-adv-x="627" 
d="M468 458c66 -48 103 -125 103 -210c0 -139 -99 -258 -257 -258c-39 0 -74 7 -106 20l-35 -61l-48 27l35 61c-66 47 -104 125 -104 211c0 138 99 257 258 257c39 0 74 -7 105 -20l35 60l49 -27zM122 248c0 -64 23 -123 68 -160l201 347c-23 9 -48 14 -77 14
c-126 0 -192 -94 -192 -201zM314 46c125 0 191 94 191 202c0 63 -23 121 -67 158l-201 -346c23 -9 48 -14 77 -14z" />
    <glyph glyph-name="otilde" unicode="&#xf5;" horiz-adv-x="627" 
d="M144 590c0 96 41 126 93 126c82 0 105 -80 149 -80c22 0 42 10 42 70h56c0 -96 -41 -126 -93 -126c-82 0 -105 80 -149 80c-22 0 -42 -10 -42 -70h-56zM56 248c0 138 99 257 258 257c158 0 257 -119 257 -257c0 -139 -99 -258 -257 -258c-159 0 -258 119 -258 258z
M122 248c0 -108 66 -202 192 -202c125 0 191 94 191 202c0 107 -66 201 -191 201c-126 0 -192 -94 -192 -201z" />
    <glyph glyph-name="oe" unicode="&#x153;" horiz-adv-x="1048" 
d="M926 173h66c-20 -78 -76 -183 -231 -183c-116 0 -186 53 -221 131c-40 -77 -120 -131 -226 -131c-159 0 -258 119 -258 258c0 138 99 257 258 257c105 0 184 -52 225 -128c37 83 114 128 211 128c137 0 225 -88 225 -241v-28h-394c6 -101 51 -190 180 -190
c88 0 145 44 165 127zM314 46c125 0 191 94 191 202c0 107 -66 201 -191 201c-126 0 -192 -94 -192 -201c0 -108 66 -202 192 -202zM750 449c-99 0 -169 -69 -169 -157h328c0 88 -57 157 -159 157z" />
    <glyph glyph-name="p" unicode="p" 
d="M76 495h66v-81l-10 -50h20c20 80 90 141 201 141c144 0 241 -109 241 -258c0 -148 -97 -257 -241 -257c-111 0 -181 61 -201 141h-20l10 -50v-261h-66v675zM142 247c0 -141 92 -201 198 -201s188 62 188 201c0 140 -82 202 -188 202s-198 -60 -198 -202z" />
    <glyph glyph-name="thorn" unicode="&#xfe;" 
d="M353 505c144 0 241 -109 241 -258c0 -148 -97 -257 -241 -257c-111 0 -181 61 -201 141h-20l10 -50v-261h-66v915h66v-321l-10 -50h20c20 80 90 141 201 141zM340 46c106 0 188 62 188 201c0 140 -82 202 -188 202s-198 -60 -198 -202c0 -141 92 -201 198 -201z" />
    <glyph glyph-name="q" unicode="q" 
d="M574 495v-675h-66v261l10 50h-20c-20 -80 -90 -141 -201 -141c-144 0 -241 109 -241 257c0 149 97 258 241 258c111 0 181 -61 201 -141h20l-10 50v81h66zM508 247c0 142 -92 202 -198 202s-188 -62 -188 -202c0 -139 82 -201 188 -201s198 60 198 201z" />
    <glyph glyph-name="r" unicode="r" horiz-adv-x="432" 
d="M76 0v440c0 45 20 67 65 65l265 -10v-56l-264 10v-449h-66z" />
    <glyph glyph-name="racute" unicode="&#x155;" horiz-adv-x="432" 
d="M99 636l290 78l14 -54l-290 -78zM76 0v440c0 45 20 67 65 65l265 -10v-56l-264 10v-449h-66z" />
    <glyph glyph-name="rcaron" unicode="&#x159;" horiz-adv-x="432" 
d="M402 691l-151 -127l-151 127l40 40l111 -95l111 95zM76 0v440c0 45 20 67 65 65l265 -10v-56l-264 10v-449h-66z" />
    <glyph glyph-name="uni0157" unicode="&#x157;" horiz-adv-x="432" 
d="M76 0v440c0 45 20 67 65 65l265 -10v-56l-264 10v-449h-66zM72 -49l64 -17l-51 -164l-64 17z" />
    <glyph glyph-name="s" unicode="s" horiz-adv-x="489" 
d="M453 127c0 -73 -44 -137 -188 -137c-156 0 -219 75 -219 193h66c0 -96 54 -137 153 -137c84 0 122 20 122 76c0 73 -75 85 -156 110c-94 29 -162 59 -162 145c0 76 64 128 173 128c151 0 194 -85 194 -163h-66c0 73 -44 107 -128 107c-59 0 -107 -18 -107 -68
c0 -52 31 -67 111 -93c98 -32 207 -54 207 -161z" />
    <glyph glyph-name="sacute" unicode="&#x15b;" horiz-adv-x="489" 
d="M98 636l290 78l14 -54l-290 -78zM453 127c0 -73 -44 -137 -188 -137c-156 0 -219 75 -219 193h66c0 -96 54 -137 153 -137c84 0 122 20 122 76c0 73 -75 85 -156 110c-94 29 -162 59 -162 145c0 76 64 128 173 128c151 0 194 -85 194 -163h-66c0 73 -44 107 -128 107
c-59 0 -107 -18 -107 -68c0 -52 31 -67 111 -93c98 -32 207 -54 207 -161z" />
    <glyph glyph-name="scaron" unicode="&#x161;" horiz-adv-x="489" 
d="M401 691l-151 -127l-151 127l40 40l111 -95l111 95zM453 127c0 -73 -44 -137 -188 -137c-156 0 -219 75 -219 193h66c0 -96 54 -137 153 -137c84 0 122 20 122 76c0 73 -75 85 -156 110c-94 29 -162 59 -162 145c0 76 64 128 173 128c151 0 194 -85 194 -163h-66
c0 73 -44 107 -128 107c-59 0 -107 -18 -107 -68c0 -52 31 -67 111 -93c98 -32 207 -54 207 -161z" />
    <glyph glyph-name="scedilla" unicode="&#x15f;" horiz-adv-x="489" 
d="M453 127c0 -72 -42 -135 -180 -137l-46 -46c17 8 36 14 61 14c32 0 61 -17 61 -55c0 -73 -73 -83 -195 -83v56c87 0 139 0 139 33c0 14 -9 21 -23 21c-18 0 -33 -4 -68 -28l-32 47l41 44c-117 16 -165 87 -165 190h66c0 -96 54 -137 153 -137c84 0 122 20 122 76
c0 73 -75 85 -156 110c-94 29 -162 59 -162 145c0 76 64 128 173 128c151 0 194 -85 194 -163h-66c0 73 -44 107 -128 107c-59 0 -107 -18 -107 -68c0 -52 31 -67 111 -93c98 -32 207 -54 207 -161z" />
    <glyph glyph-name="uni0219" unicode="&#x219;" horiz-adv-x="489" 
d="M453 127c0 -73 -44 -137 -188 -137c-156 0 -219 75 -219 193h66c0 -96 54 -137 153 -137c84 0 122 20 122 76c0 73 -75 85 -156 110c-94 29 -162 59 -162 145c0 76 64 128 173 128c151 0 194 -85 194 -163h-66c0 73 -44 107 -128 107c-59 0 -107 -18 -107 -68
c0 -52 31 -67 111 -93c98 -32 207 -54 207 -161zM212 -49l64 -17l-51 -164l-64 17z" />
    <glyph glyph-name="germandbls" unicode="&#xdf;" horiz-adv-x="525" 
d="M198 0v56l104 -9c85 -7 121 43 121 109c0 159 -201 98 -201 234c0 113 119 106 119 192c0 48 -26 77 -84 77c-66 0 -115 -20 -115 -151v-508h-66v518c0 155 93 197 181 197c101 0 150 -64 150 -133c0 -115 -119 -111 -119 -182c0 -87 201 -48 201 -244
c0 -117 -79 -176 -187 -166z" />
    <glyph glyph-name="t" unicode="t" horiz-adv-x="418" 
d="M199 45l173 11v-56l-174 -10c-45 -3 -65 20 -65 65v384h-107v56h107v135l66 20v-155h153v-56h-153v-394z" />
    <glyph glyph-name="tbar" unicode="&#x167;" horiz-adv-x="418" 
d="M199 45l173 11v-56l-174 -10c-45 -3 -65 20 -65 65v211h-87v56h87v117h-107v56h107v135l66 20v-155h153v-56h-153v-117h122v-56h-122v-221z" />
    <glyph glyph-name="tcaron" unicode="&#x165;" horiz-adv-x="418" 
d="M325 735v-180h-66v180h66zM199 45l173 11v-56l-174 -10c-45 -3 -65 20 -65 65v384h-107v56h107v135l66 20v-155h153v-56h-153v-394z" />
    <glyph glyph-name="uni0163" unicode="&#x163;" horiz-adv-x="418" 
d="M372 0l-85 -5l-51 -51c17 8 36 14 61 14c32 0 61 -17 61 -55c0 -73 -73 -83 -195 -83v56c87 0 139 0 139 33c0 14 -9 21 -23 21c-18 0 -33 -4 -68 -28l-32 47l39 42l-20 -1c-45 -3 -65 20 -65 65v384h-107v56h107v135l66 20v-155h153v-56h-153v-394l173 11v-56z" />
    <glyph glyph-name="uni021B" unicode="&#x21b;" horiz-adv-x="418" 
d="M199 45l173 11v-56l-174 -10c-45 -3 -65 20 -65 65v384h-107v56h107v135l66 20v-155h153v-56h-153v-394zM170 -213l51 164l64 -17l-51 -164z" />
    <glyph glyph-name="u" unicode="u" horiz-adv-x="580" 
d="M262 46c109 0 186 90 186 222v227h66v-495h-66v91l10 50h-20c-20 -90 -83 -151 -191 -151c-109 0 -181 61 -181 195v310h66v-302c0 -106 43 -147 130 -147z" />
    <glyph glyph-name="uacute" unicode="&#xfa;" horiz-adv-x="580" 
d="M148 636l290 78l14 -54l-290 -78zM262 46c109 0 186 90 186 222v227h66v-495h-66v91l10 50h-20c-20 -90 -83 -151 -191 -151c-109 0 -181 61 -181 195v310h66v-302c0 -106 43 -147 130 -147z" />
    <glyph glyph-name="ucircumflex" unicode="&#xfb;" horiz-adv-x="580" 
d="M451 604l-40 -40l-111 95l-111 -95l-40 40l151 127zM262 46c109 0 186 90 186 222v227h66v-495h-66v91l10 50h-20c-20 -90 -83 -151 -191 -151c-109 0 -181 61 -181 195v310h66v-302c0 -106 43 -147 130 -147z" />
    <glyph glyph-name="udieresis" unicode="&#xfc;" horiz-adv-x="580" 
d="M202 580c-37 0 -67 31 -67 68c0 36 30 67 67 67s68 -31 68 -67c0 -37 -31 -68 -68 -68zM397 580c-37 0 -67 31 -67 68c0 36 30 67 67 67s68 -31 68 -67c0 -37 -31 -68 -68 -68zM262 46c109 0 186 90 186 222v227h66v-495h-66v91l10 50h-20c-20 -90 -83 -151 -191 -151
c-109 0 -181 61 -181 195v310h66v-302c0 -106 43 -147 130 -147z" />
    <glyph glyph-name="ugrave" unicode="&#xf9;" horiz-adv-x="580" 
d="M452 636l-14 -54l-290 78l14 54zM262 46c109 0 186 90 186 222v227h66v-495h-66v91l10 50h-20c-20 -90 -83 -151 -191 -151c-109 0 -181 61 -181 195v310h66v-302c0 -106 43 -147 130 -147z" />
    <glyph glyph-name="uhungarumlaut" unicode="&#x171;" horiz-adv-x="580" 
d="M181 603l131 132l39 -40l-131 -131zM329 603l131 132l39 -40l-131 -131zM262 46c109 0 186 90 186 222v227h66v-495h-66v91l10 50h-20c-20 -90 -83 -151 -191 -151c-109 0 -181 61 -181 195v310h66v-302c0 -106 43 -147 130 -147z" />
    <glyph glyph-name="umacron" unicode="&#x16b;" horiz-adv-x="580" 
d="M150 676h301v-55l-301 -1v56zM262 46c109 0 186 90 186 222v227h66v-495h-66v91l10 50h-20c-20 -90 -83 -151 -191 -151c-109 0 -181 61 -181 195v310h66v-302c0 -106 43 -147 130 -147z" />
    <glyph glyph-name="uogonek" unicode="&#x173;" horiz-adv-x="580" 
d="M443 -134l196 20v-56l-200 -19c-48 -4 -69 34 -49 73l60 116h-2v91l10 50h-20c-20 -90 -83 -151 -191 -151c-109 0 -181 61 -181 195v310h66v-302c0 -106 43 -147 130 -147c109 0 186 90 186 222v227h66v-495h-1z" />
    <glyph glyph-name="uring" unicode="&#x16f;" horiz-adv-x="580" 
d="M299 560c-72 0 -110 53 -110 106c0 52 38 105 110 105s111 -53 111 -105s-39 -106 -111 -106zM299 616c37 0 55 20 55 50c0 29 -19 49 -55 49s-54 -20 -54 -49c0 -30 18 -50 54 -50zM262 46c109 0 186 90 186 222v227h66v-495h-66v91l10 50h-20
c-20 -90 -83 -151 -191 -151c-109 0 -181 61 -181 195v310h66v-302c0 -106 43 -147 130 -147z" />
    <glyph glyph-name="v" unicode="v" horiz-adv-x="525" 
d="M435 495h64l-169 -495h-134l-170 495h64l163 -475h20z" />
    <glyph glyph-name="w" unicode="w" horiz-adv-x="842" 
d="M26 495h63l131 -475h20l113 475h136l113 -475h20l131 475h63l-137 -495h-134l-114 475h-20l-114 -475h-134z" />
    <glyph glyph-name="wacute" unicode="&#x1e83;" horiz-adv-x="842" 
d="M269 636l290 78l14 -54l-290 -78zM26 495h63l131 -475h20l113 475h136l113 -475h20l131 475h63l-137 -495h-134l-114 475h-20l-114 -475h-134z" />
    <glyph glyph-name="wcircumflex" unicode="&#x175;" horiz-adv-x="842" 
d="M572 604l-40 -40l-111 95l-111 -95l-40 40l151 127zM26 495h63l131 -475h20l113 475h136l113 -475h20l131 475h63l-137 -495h-134l-114 475h-20l-114 -475h-134z" />
    <glyph glyph-name="wdieresis" unicode="&#x1e85;" horiz-adv-x="842" 
d="M323 580c-37 0 -67 31 -67 68c0 36 30 67 67 67s68 -31 68 -67c0 -37 -31 -68 -68 -68zM518 580c-37 0 -67 31 -67 68c0 36 30 67 67 67s68 -31 68 -67c0 -37 -31 -68 -68 -68zM26 495h63l131 -475h20l113 475h136l113 -475h20l131 475h63l-137 -495h-134l-114 475h-20
l-114 -475h-134z" />
    <glyph glyph-name="wgrave" unicode="&#x1e81;" horiz-adv-x="842" 
d="M573 636l-14 -54l-290 78l14 54zM26 495h63l131 -475h20l113 475h136l113 -475h20l131 475h63l-137 -495h-134l-114 475h-20l-114 -475h-134z" />
    <glyph glyph-name="x" unicode="x" horiz-adv-x="564" 
d="M46 0l186 238v20l-186 237h78l158 -207l158 207h78l-186 -237v-20l186 -238h-78l-158 208l-158 -208h-78z" />
    <glyph glyph-name="y" unicode="y" horiz-adv-x="575" 
d="M468 495h71l-213 -495v-135c0 -35 -20 -57 -65 -55l-181 10v56l180 -10v134l-214 495h71l166 -408v-30h20v30z" />
    <glyph glyph-name="yacute" unicode="&#xfd;" horiz-adv-x="575" 
d="M445 660l-290 -78l-14 54l290 78zM468 495h71l-213 -495v-135c0 -35 -20 -57 -65 -55l-181 10v56l180 -10v134l-214 495h71l166 -408v-30h20v30z" />
    <glyph glyph-name="ycircumflex" unicode="&#x177;" horiz-adv-x="575" 
d="M293 659l-111 -95l-40 40l151 127l151 -127l-40 -40zM468 495h71l-213 -495v-135c0 -35 -20 -57 -65 -55l-181 10v56l180 -10v134l-214 495h71l166 -408v-30h20v30z" />
    <glyph glyph-name="ydieresis" unicode="&#xff;" horiz-adv-x="575" 
d="M195 580c-37 0 -67 31 -67 68c0 36 30 67 67 67s68 -31 68 -67c0 -37 -31 -68 -68 -68zM390 580c-37 0 -67 31 -67 68c0 36 30 67 67 67s68 -31 68 -67c0 -37 -31 -68 -68 -68zM468 495h71l-213 -495v-135c0 -35 -20 -57 -65 -55l-181 10v56l180 -10v134l-214 495h71
l166 -408v-30h20v30z" />
    <glyph glyph-name="ygrave" unicode="&#x1ef3;" horiz-adv-x="575" 
d="M445 636l-14 -54l-290 78l14 54zM468 495h71l-213 -495v-135c0 -35 -20 -57 -65 -55l-181 10v56l180 -10v134l-214 495h71l166 -408v-30h20v30z" />
    <glyph glyph-name="z" unicode="z" horiz-adv-x="559" 
d="M56 0v126l427 303v20l-50 -10h-377v56h447v-126l-427 -303v-20l50 10h377v-56h-447z" />
    <glyph glyph-name="zacute" unicode="&#x17a;" horiz-adv-x="559" 
d="M128 636l290 78l14 -54l-290 -78zM56 0v126l427 303v20l-50 -10h-377v56h447v-126l-427 -303v-20l50 10h377v-56h-447z" />
    <glyph glyph-name="zcaron" unicode="&#x17e;" horiz-adv-x="559" 
d="M431 691l-151 -127l-151 127l40 40l111 -95l111 95zM56 0v126l427 303v20l-50 -10h-377v56h447v-126l-427 -303v-20l50 10h377v-56h-447z" />
    <glyph glyph-name="zdotaccent" unicode="&#x17c;" horiz-adv-x="559" 
d="M279 580c-37 0 -67 31 -67 68c0 36 30 67 67 67s68 -31 68 -67c0 -37 -31 -68 -68 -68zM56 0v126l427 303v20l-50 -10h-377v56h447v-126l-427 -303v-20l50 10h377v-56h-447z" />
    <glyph glyph-name="a.ss01" 
d="M574 0h-66v81l10 50h-20c-20 -80 -90 -141 -201 -141c-144 0 -241 109 -241 258c0 148 97 257 241 257c111 0 181 -61 201 -141h20l-10 50v81h66v-495zM508 248c0 141 -92 201 -198 201s-188 -60 -188 -201c0 -142 82 -202 188 -202s198 60 198 202z" />
    <glyph glyph-name="aacute.ss01" 
d="M173 636l290 78l14 -54l-290 -78zM574 0h-66v81l10 50h-20c-20 -80 -90 -141 -201 -141c-144 0 -241 109 -241 258c0 148 97 257 241 257c111 0 181 -61 201 -141h20l-10 50v81h66v-495zM508 248c0 141 -92 201 -198 201s-188 -60 -188 -201c0 -142 82 -202 188 -202
s198 60 198 202z" />
    <glyph glyph-name="abreve.ss01" 
d="M476 731c0 -102 -61 -167 -151 -167s-151 65 -151 167h56c0 -74 26 -111 95 -111s95 37 95 111h56zM574 0h-66v81l10 50h-20c-20 -80 -90 -141 -201 -141c-144 0 -241 109 -241 258c0 148 97 257 241 257c111 0 181 -61 201 -141h20l-10 50v81h66v-495zM508 248
c0 141 -92 201 -198 201s-188 -60 -188 -201c0 -142 82 -202 188 -202s198 60 198 202z" />
    <glyph glyph-name="acircumflex.ss01" 
d="M476 604l-40 -40l-111 95l-111 -95l-40 40l151 127zM574 0h-66v81l10 50h-20c-20 -80 -90 -141 -201 -141c-144 0 -241 109 -241 258c0 148 97 257 241 257c111 0 181 -61 201 -141h20l-10 50v81h66v-495zM508 248c0 141 -92 201 -198 201s-188 -60 -188 -201
c0 -142 82 -202 188 -202s198 60 198 202z" />
    <glyph glyph-name="adieresis.ss01" 
d="M227 580c-37 0 -67 31 -67 68c0 36 30 67 67 67s68 -31 68 -67c0 -37 -31 -68 -68 -68zM422 580c-37 0 -67 31 -67 68c0 36 30 67 67 67s68 -31 68 -67c0 -37 -31 -68 -68 -68zM574 0h-66v81l10 50h-20c-20 -80 -90 -141 -201 -141c-144 0 -241 109 -241 258
c0 148 97 257 241 257c111 0 181 -61 201 -141h20l-10 50v81h66v-495zM508 248c0 141 -92 201 -198 201s-188 -60 -188 -201c0 -142 82 -202 188 -202s198 60 198 202z" />
    <glyph glyph-name="agrave.ss01" 
d="M477 636l-14 -54l-290 78l14 54zM574 0h-66v81l10 50h-20c-20 -80 -90 -141 -201 -141c-144 0 -241 109 -241 258c0 148 97 257 241 257c111 0 181 -61 201 -141h20l-10 50v81h66v-495zM508 248c0 141 -92 201 -198 201s-188 -60 -188 -201c0 -142 82 -202 188 -202
s198 60 198 202z" />
    <glyph glyph-name="amacron.ss01" 
d="M175 676h301v-55l-301 -1v56zM574 0h-66v81l10 50h-20c-20 -80 -90 -141 -201 -141c-144 0 -241 109 -241 258c0 148 97 257 241 257c111 0 181 -61 201 -141h20l-10 50v81h66v-495zM508 248c0 141 -92 201 -198 201s-188 -60 -188 -201c0 -142 82 -202 188 -202
s198 60 198 202z" />
    <glyph glyph-name="aogonek.ss01" 
d="M503 -134l196 20v-56l-200 -19c-48 -4 -69 34 -49 73l60 116h-2v81l10 50h-20c-20 -80 -90 -141 -201 -141c-144 0 -241 109 -241 258c0 148 97 257 241 257c111 0 181 -61 201 -141h20l-10 50v81h66v-495h-1zM310 46c106 0 198 60 198 202c0 141 -92 201 -198 201
s-188 -60 -188 -201c0 -142 82 -202 188 -202z" />
    <glyph glyph-name="aring.ss01" 
d="M324 560c-72 0 -110 53 -110 106c0 52 38 105 110 105s111 -53 111 -105s-39 -106 -111 -106zM324 616c37 0 55 20 55 50c0 29 -19 49 -55 49s-54 -20 -54 -49c0 -30 18 -50 54 -50zM574 0h-66v81l10 50h-20c-20 -80 -90 -141 -201 -141c-144 0 -241 109 -241 258
c0 148 97 257 241 257c111 0 181 -61 201 -141h20l-10 50v81h66v-495zM508 248c0 141 -92 201 -198 201s-188 -60 -188 -201c0 -142 82 -202 188 -202s198 60 198 202z" />
    <glyph glyph-name="atilde.ss01" 
d="M155 590c0 96 41 126 93 126c82 0 105 -80 149 -80c22 0 42 10 42 70h56c0 -96 -41 -126 -93 -126c-82 0 -105 80 -149 80c-22 0 -42 -10 -42 -70h-56zM574 0h-66v81l10 50h-20c-20 -80 -90 -141 -201 -141c-144 0 -241 109 -241 258c0 148 97 257 241 257
c111 0 181 -61 201 -141h20l-10 50v81h66v-495zM508 248c0 141 -92 201 -198 201s-188 -60 -188 -201c0 -142 82 -202 188 -202s198 60 198 202z" />
    <glyph glyph-name="g.ss01" 
d="M508 495h66v-630c0 -35 -20 -56 -65 -55l-364 10v56l363 -10v215l10 50h-20c-20 -80 -90 -141 -201 -141c-144 0 -241 109 -241 258c0 148 97 257 241 257c111 0 181 -61 201 -141h20l-10 50v81zM310 46c106 0 198 60 198 202c0 141 -92 201 -198 201s-188 -60 -188 -201
c0 -142 82 -202 188 -202z" />
    <glyph glyph-name="gbreve.ss01" 
d="M324 564c-90 0 -151 65 -151 167h56c0 -74 26 -111 95 -111s95 37 95 111h56c0 -102 -61 -167 -151 -167zM508 495h66v-630c0 -35 -20 -56 -65 -55l-364 10v56l363 -10v215l10 50h-20c-20 -80 -90 -141 -201 -141c-144 0 -241 109 -241 258c0 148 97 257 241 257
c111 0 181 -61 201 -141h20l-10 50v81zM310 46c106 0 198 60 198 202c0 141 -92 201 -198 201s-188 -60 -188 -201c0 -142 82 -202 188 -202z" />
    <glyph glyph-name="uni0123.ss01" 
d="M409 754l-47 -174l-64 17l47 174zM508 495h66v-630c0 -35 -20 -56 -65 -55l-364 10v56l363 -10v215l10 50h-20c-20 -80 -90 -141 -201 -141c-144 0 -241 109 -241 258c0 148 97 257 241 257c111 0 181 -61 201 -141h20l-10 50v81zM310 46c106 0 198 60 198 202
c0 141 -92 201 -198 201s-188 -60 -188 -201c0 -142 82 -202 188 -202z" />
    <glyph glyph-name="gdotaccent.ss01" 
d="M323 580c-37 0 -67 31 -67 68c0 36 30 67 67 67s68 -31 68 -67c0 -37 -31 -68 -68 -68zM508 495h66v-630c0 -35 -20 -56 -65 -55l-364 10v56l363 -10v215l10 50h-20c-20 -80 -90 -141 -201 -141c-144 0 -241 109 -241 258c0 148 97 257 241 257c111 0 181 -61 201 -141
h20l-10 50v81zM310 46c106 0 198 60 198 202c0 141 -92 201 -198 201s-188 -60 -188 -201c0 -142 82 -202 188 -202z" />
    <glyph glyph-name="k.ss01" horiz-adv-x="544" 
d="M498 495l-220 -194l220 -301h-75l-190 260l-91 -80v-180h-66v735h66v-475l263 235h93z" />
    <glyph glyph-name="uni0137.ss01" horiz-adv-x="544" 
d="M498 495l-220 -194l220 -301h-75l-190 260l-91 -80v-180h-66v735h66v-475l263 235h93zM194 -213l51 164l64 -17l-51 -164z" />
    <glyph glyph-name="uni0410" unicode="&#x410;" horiz-adv-x="672" 
d="M571 0l-94 286h-282l-94 -286h-65l232 705h136l232 -705h-65zM213 342h246l-113 343h-20z" />
    <glyph glyph-name="uni0411" unicode="&#x411;" horiz-adv-x="615" 
d="M282 435c168 0 267 -50 267 -218s-99 -217 -267 -217h-206v705h401v-56h-335v-214h140zM282 56c125 0 201 24 201 161s-76 162 -201 162h-140v-323h140z" />
    <glyph glyph-name="uni0412" unicode="&#x412;" horiz-adv-x="635" 
d="M76 0v705h174c168 0 267 -34 267 -173c0 -96 -63 -146 -135 -151v-20c108 -2 187 -53 187 -174c0 -138 -99 -187 -267 -187h-226zM142 395h108c125 0 201 20 201 127c0 118 -76 127 -201 127h-108v-254zM142 56h160c125 0 201 24 201 141c0 108 -76 142 -201 142h-160
v-283z" />
    <glyph glyph-name="uni0413" unicode="&#x413;" horiz-adv-x="532" 
d="M76 0v705h410v-56h-344v-649h-66z" />
    <glyph glyph-name="uni0403" unicode="&#x403;" horiz-adv-x="532" 
d="M139 846l290 78l14 -54l-290 -78zM76 0v705h410v-56h-344v-649h-66z" />
    <glyph glyph-name="uni0490" unicode="&#x490;" horiz-adv-x="512" 
d="M420 795h66v-146h-344v-649h-66v705h344v90z" />
    <glyph glyph-name="uni0414" unicode="&#x414;" horiz-adv-x="712" 
d="M610 56h66v-186h-66v130h-508v-130h-66v186h66c64 176 84 353 84 649h424v-649zM168 56h376v593h-292c-3 -263 -24 -428 -84 -593z" />
    <glyph glyph-name="uni0415" unicode="&#x415;" horiz-adv-x="555" 
d="M76 0v705h423v-56h-357v-268h307v-56h-307v-269h357v-56h-423z" />
    <glyph glyph-name="uni0400" unicode="&#x400;" horiz-adv-x="555" 
d="M440 846l-14 -54l-290 78l14 54zM76 0v705h423v-56h-357v-268h307v-56h-307v-269h357v-56h-423z" />
    <glyph glyph-name="uni0401" unicode="&#x401;" horiz-adv-x="555" 
d="M190 790c-37 0 -67 31 -67 68c0 36 30 67 67 67s68 -31 68 -67c0 -37 -31 -68 -68 -68zM385 790c-37 0 -67 31 -67 68c0 36 30 67 67 67s68 -31 68 -67c0 -37 -31 -68 -68 -68zM76 0v705h423v-56h-357v-268h307v-56h-307v-269h357v-56h-423z" />
    <glyph glyph-name="uni0416" unicode="&#x416;" horiz-adv-x="1004" 
d="M847 649l-214 -280s0 -1 -1 -1l336 -368h-81l-306 334c-4 -1 -9 -1 -14 -1h-32v-333h-66v333h-32c-5 0 -10 0 -14 1l-306 -334h-81l336 368c-1 0 -1 1 -1 1l-214 280h-121v56h116c30 0 49 -13 66 -36l211 -277h40v313h66v-313h40l211 277c17 23 36 36 66 36h116v-56h-121
z" />
    <glyph glyph-name="uni0417" unicode="&#x417;" horiz-adv-x="670" 
d="M66 269h66c0 -161 71 -223 216 -223c133 0 190 58 190 160c0 101 -54 139 -144 139h-98v56h98c90 0 134 37 134 118c0 82 -47 140 -180 140c-145 0 -206 -62 -206 -183h-66c0 152 91 239 272 239c169 0 246 -82 246 -186c0 -82 -40 -132 -130 -146v-20
c90 -19 140 -63 140 -167c0 -124 -87 -206 -256 -206c-181 0 -282 87 -282 279z" />
    <glyph glyph-name="uni0418" unicode="&#x418;" horiz-adv-x="742" 
d="M666 0h-66v635l10 50h-20l-379 -685h-135v705h66v-635l-10 -50h20l379 685h135v-705z" />
    <glyph glyph-name="uni0419" unicode="&#x419;" horiz-adv-x="742" 
d="M506 941c0 -102 -61 -167 -151 -167s-151 65 -151 167h56c0 -74 26 -111 95 -111s95 37 95 111h56zM666 0h-66v635l10 50h-20l-379 -685h-135v705h66v-635l-10 -50h20l379 685h135v-705z" />
    <glyph glyph-name="uni040D" unicode="&#x40d;" horiz-adv-x="742" 
d="M507 846l-14 -54l-290 78l14 54zM666 0h-66v635l10 50h-20l-379 -685h-135v705h66v-635l-10 -50h20l379 685h135v-705z" />
    <glyph glyph-name="uni041A" unicode="&#x41a;" horiz-adv-x="611" 
d="M454 649l-214 -280s0 -1 -1 -1l336 -368h-81l-306 334c-4 -1 -9 -1 -14 -1h-32v-333h-66v705h66v-313h40l211 277c17 23 36 36 66 36h116v-56h-121z" />
    <glyph glyph-name="uni040C" unicode="&#x40c;" horiz-adv-x="611" 
d="M458 870l-290 -78l-14 54l290 78zM454 649l-214 -280s0 -1 -1 -1l336 -368h-81l-306 334c-4 -1 -9 -1 -14 -1h-32v-333h-66v705h66v-313h40l211 277c17 23 36 36 66 36h116v-56h-121z" />
    <glyph glyph-name="uni041B" unicode="&#x41b;" horiz-adv-x="681" 
d="M605 705v-705h-66v649h-282c-1 -344 -11 -649 -221 -649v56c158 0 155 317 155 649h414z" />
    <glyph glyph-name="uni041C" unicode="&#x41c;" horiz-adv-x="880" 
d="M76 0v705h134l220 -685h20l220 685h134v-705h-66v635l10 50h-20l-220 -685h-136l-220 685h-20l10 -50v-635h-66z" />
    <glyph glyph-name="uni041D" unicode="&#x41d;" horiz-adv-x="712" 
d="M570 705h66v-705h-66v321h-428v-321h-66v705h66v-328h428v328z" />
    <glyph glyph-name="uni041E" unicode="&#x41e;" horiz-adv-x="777" 
d="M66 353c0 205 119 362 323 362c203 0 322 -157 322 -362c0 -206 -119 -363 -322 -363c-204 0 -323 157 -323 363zM132 353c0 -176 84 -307 257 -307s256 131 256 307c0 175 -83 306 -256 306s-257 -131 -257 -306z" />
    <glyph glyph-name="uni041F" unicode="&#x41f;" horiz-adv-x="672" 
d="M596 705v-705h-66v649h-388v-649h-66v705h520z" />
    <glyph glyph-name="uni0420" unicode="&#x420;" horiz-adv-x="605" 
d="M262 705c178 0 287 -49 287 -227c0 -179 -109 -228 -287 -228h-120v-250h-66v705h186zM262 306c125 0 221 24 221 172c0 147 -96 171 -221 171h-120v-343h120z" />
    <glyph glyph-name="uni0421" unicode="&#x421;" horiz-adv-x="768" 
d="M66 353c0 205 119 362 323 362c177 0 292 -108 313 -282h-66c-16 143 -101 226 -247 226c-173 0 -257 -131 -257 -306c0 -176 84 -307 257 -307c146 0 231 84 247 227h66c-21 -175 -136 -283 -313 -283c-204 0 -323 157 -323 363z" />
    <glyph glyph-name="uni0422" unicode="&#x422;" horiz-adv-x="653" 
d="M607 705v-56h-247v-649h-66v649h-248v56h561z" />
    <glyph glyph-name="uni0423" unicode="&#x423;" horiz-adv-x="635" 
d="M530 705h69l-243 -495v-165c0 -35 -20 -57 -65 -55l-211 10v56l210 -10v164l-244 495h69l198 -408v-30h20v30z" />
    <glyph glyph-name="uni0424" unicode="&#x424;" horiz-adv-x="807" 
d="M761 351c0 -133 -91 -248 -324 -257v-94h-66v94c-234 9 -325 124 -325 257c0 132 91 247 325 256v98h66v-98c233 -9 324 -124 324 -256zM112 351c0 -103 60 -192 259 -201v401c-199 -9 -259 -98 -259 -200zM437 150c199 9 258 98 258 201c0 102 -59 191 -258 200v-401z
" />
    <glyph glyph-name="uni0425" unicode="&#x425;" horiz-adv-x="666" 
d="M36 0l246 339v28l-246 338h75l222 -310l222 310h75l-246 -338v-28l246 -339h-75l-222 311l-222 -311h-75z" />
    <glyph glyph-name="uni0427" unicode="&#x427;" horiz-adv-x="688" 
d="M546 705h66v-705h-66v270l-405 -20c-45 -2 -65 20 -65 65v390h66v-399l404 20v379z" />
    <glyph glyph-name="uni0426" unicode="&#x426;" horiz-adv-x="768" 
d="M667 56c35 0 55 -20 55 -55v-131h-66v130h-580v705h66v-649h388v649h66v-649h71z" />
    <glyph glyph-name="uni0428" unicode="&#x428;" horiz-adv-x="936" 
d="M794 705h66v-705h-784v705h66v-649h293v649h66v-649h293v649z" />
    <glyph glyph-name="uni0429" unicode="&#x429;" horiz-adv-x="1032" 
d="M931 56c35 0 55 -20 55 -55v-131h-66v130h-844v705h66v-649h293v649h66v-649h293v649h66v-649h71z" />
    <glyph glyph-name="uni040F" unicode="&#x40f;" horiz-adv-x="672" 
d="M530 705h66v-705h-227v-130h-66v130h-227v705h66v-649h388v649z" />
    <glyph glyph-name="uni042C" unicode="&#x42c;" horiz-adv-x="605" 
d="M142 705v-270h140c168 0 267 -50 267 -218s-99 -217 -267 -217h-206v705h66zM142 56h140c125 0 201 24 201 161s-76 162 -201 162h-140v-323z" />
    <glyph glyph-name="uni042A" unicode="&#x42a;" horiz-adv-x="705" 
d="M382 435c168 0 267 -50 267 -218s-99 -217 -267 -217h-206v649h-140v56h206v-270h140zM382 56c125 0 201 24 201 161s-76 162 -201 162h-140v-323h140z" />
    <glyph glyph-name="uni042B" unicode="&#x42b;" horiz-adv-x="791" 
d="M142 705v-270h140c168 0 267 -50 267 -218s-99 -217 -267 -217h-206v705h66zM649 705h66v-705h-66v705zM142 56h140c125 0 201 24 201 161s-76 162 -201 162h-140v-323z" />
    <glyph glyph-name="uni0409" unicode="&#x409;" horiz-adv-x="1068" 
d="M745 435c168 0 267 -50 267 -218s-99 -217 -267 -217h-206v649h-282c-1 -344 -11 -649 -221 -649v56c158 0 155 317 155 649h414v-270h140zM745 56c125 0 201 24 201 161s-76 162 -201 162h-140v-323h140z" />
    <glyph glyph-name="uni040A" unicode="&#x40a;" horiz-adv-x="1099" 
d="M776 435c168 0 267 -50 267 -218s-99 -217 -267 -217h-206v321h-428v-321h-66v705h66v-328h428v328h66v-270h140zM776 56c125 0 201 24 201 161s-76 162 -201 162h-140v-323h140z" />
    <glyph glyph-name="uni0405" unicode="&#x405;" horiz-adv-x="669" 
d="M623 175c0 -102 -58 -185 -265 -185c-244 0 -312 110 -312 272h66c0 -178 96 -216 246 -216c123 0 199 30 199 124c0 118 -132 140 -246 173c-137 40 -233 78 -233 200c0 106 72 172 244 172c206 0 272 -130 272 -240h-66c0 126 -94 184 -206 184
c-102 0 -178 -26 -178 -112c0 -83 71 -112 187 -148c140 -43 292 -77 292 -224z" />
    <glyph glyph-name="uni0404" unicode="&#x404;" horiz-adv-x="768" 
d="M389 46c146 0 231 84 247 227h66c-21 -175 -136 -283 -313 -283c-204 0 -323 157 -323 363c0 205 119 362 323 362c177 0 292 -108 313 -282h-66c-16 143 -101 226 -247 226c-164 0 -248 -117 -256 -278h305v-56h-305c8 -162 92 -279 256 -279z" />
    <glyph glyph-name="uni042D" unicode="&#x42d;" horiz-adv-x="768" 
d="M379 715c204 0 323 -157 323 -362c0 -206 -119 -363 -323 -363c-177 0 -292 108 -313 283h66c16 -143 101 -227 247 -227c164 0 248 117 256 279h-305v56h305c-8 161 -92 278 -256 278c-146 0 -231 -83 -247 -226h-66c21 174 136 282 313 282z" />
    <glyph glyph-name="uni0406" unicode="&#x406;" horiz-adv-x="512" 
d="M446 649h-157v-593h157v-56h-380v56h157v593h-157v56h380v-56z" />
    <glyph glyph-name="uni0407" unicode="&#x407;" horiz-adv-x="512" 
d="M158 790c-37 0 -67 31 -67 68c0 36 30 67 67 67s68 -31 68 -67c0 -37 -31 -68 -68 -68zM353 790c-37 0 -67 31 -67 68c0 36 30 67 67 67s68 -31 68 -67c0 -37 -31 -68 -68 -68zM446 649h-157v-593h157v-56h-380v56h157v593h-157v56h380v-56z" />
    <glyph glyph-name="uni0408" unicode="&#x408;" horiz-adv-x="460" 
d="M195 -10l-159 10v56l159 -10c117 -7 133 64 133 278v335l-179 -10v56l190 10c35 2 55 -20 55 -55v-336c0 -203 -13 -346 -199 -334z" />
    <glyph glyph-name="uni040B" unicode="&#x40b;" horiz-adv-x="815" 
d="M674 455c45 2 65 -20 65 -65v-390h-66v399l-404 -20v-379h-66v649h-167v56h560v-56h-327v-214z" />
    <glyph glyph-name="uni042E" unicode="&#x42e;" horiz-adv-x="914" 
d="M556 715c193 0 292 -157 292 -362c0 -206 -99 -363 -292 -363c-185 0 -284 143 -292 335h-122v-325h-66v705h66v-324h122c8 191 107 334 292 334zM556 46c159 0 226 135 226 307s-67 306 -226 306s-227 -134 -227 -306s68 -307 227 -307z" />
    <glyph glyph-name="uni042F" unicode="&#x42f;" horiz-adv-x="625" 
d="M549 705v-705h-66v330h-140h-28l-100 -294c-9 -25 -36 -36 -66 -36h-113v56h121l94 279c-111 15 -175 64 -175 183c0 148 99 187 267 187h206zM483 386v263h-140c-125 0 -201 -14 -201 -131c0 -118 76 -132 201 -132h140z" />
    <glyph glyph-name="uni0402" unicode="&#x402;" horiz-adv-x="795" 
d="M489 433c182 23 250 -71 250 -200c0 -187 -118 -233 -258 -233v56c157 0 192 71 192 177c0 119 -60 165 -187 146l-137 -20v-359h-66v649h-247v56h560v-56h-247v-234z" />
    <glyph glyph-name="uni0430" unicode="&#x430;" horiz-adv-x="582" 
d="M56 138c0 77 46 132 155 142l206 19c-6 101 -59 150 -148 150c-74 0 -147 -34 -147 -137h-66c0 98 72 193 213 193c139 0 214 -97 214 -223v-226h73v-56h-84c-35 0 -55 20 -55 55v30l10 50h-20c-19 -74 -73 -145 -189 -145c-142 0 -162 96 -162 148zM122 144
c0 -63 38 -98 102 -98c118 0 193 86 193 197l-196 -19c-66 -6 -99 -27 -99 -80z" />
    <glyph glyph-name="uni0431" unicode="&#x431;" horiz-adv-x="631" 
d="M66 327c0 197 84 279 262 329c111 31 132 41 141 79h82c-18 -88 -91 -100 -223 -135c-133 -35 -196 -92 -206 -213l-20 -50h20c22 98 109 168 221 168c155 0 232 -105 232 -251c0 -152 -84 -264 -254 -264c-164 0 -255 113 -255 337zM132 242c0 -96 57 -196 189 -196
c130 0 188 79 188 208c0 117 -48 195 -166 195c-127 0 -211 -79 -211 -207z" />
    <glyph glyph-name="uni0432" unicode="&#x432;" horiz-adv-x="524" 
d="M76 0v495h168c118 0 197 -24 197 -119c0 -80 -54 -102 -94 -105v-20c66 -1 131 -25 131 -120c0 -97 -79 -131 -197 -131h-205zM142 286h102c88 0 131 5 131 81c0 62 -43 72 -131 72h-102v-153zM142 56h139c87 0 131 10 131 82c0 76 -44 92 -131 92h-139v-174z" />
    <glyph glyph-name="uni0433" unicode="&#x433;" horiz-adv-x="432" 
d="M76 0v495h330v-56h-264v-439h-66z" />
    <glyph glyph-name="uni0453" unicode="&#x453;" horiz-adv-x="432" 
d="M79 636l290 78l14 -54l-290 -78zM76 0v495h330v-56h-264v-439h-66z" />
    <glyph glyph-name="uni0491" unicode="&#x491;" horiz-adv-x="432" 
d="M340 634h66v-195h-264v-439h-66v495h264v139z" />
    <glyph glyph-name="uni0434" unicode="&#x434;" horiz-adv-x="652" 
d="M586 56v-186h-66v130h-398v-130h-66v186h66c54 116 74 243 74 439h324v-439h66zM188 56h266v383h-193c-3 -165 -24 -278 -73 -383z" />
    <glyph glyph-name="uni0435" unicode="&#x435;" horiz-adv-x="589" 
d="M56 254c0 160 98 251 235 251s225 -88 225 -241v-28h-394c6 -101 51 -190 180 -190c88 0 145 44 165 127h66c-20 -78 -76 -183 -231 -183c-174 0 -246 121 -246 264zM122 292h328c0 88 -57 157 -159 157c-99 0 -169 -69 -169 -157z" />
    <glyph glyph-name="uni0450" unicode="&#x450;" horiz-adv-x="589" 
d="M447 636l-14 -54l-290 78l14 54zM56 254c0 160 98 251 235 251s225 -88 225 -241v-28h-394c6 -101 51 -190 180 -190c88 0 145 44 165 127h66c-20 -78 -76 -183 -231 -183c-174 0 -246 121 -246 264zM122 292h328c0 88 -57 157 -159 157c-99 0 -169 -69 -169 -157z" />
    <glyph glyph-name="uni0451" unicode="&#x451;" horiz-adv-x="589" 
d="M197 580c-37 0 -67 31 -67 68c0 36 30 67 67 67s68 -31 68 -67c0 -37 -31 -68 -68 -68zM392 580c-37 0 -67 31 -67 68c0 36 30 67 67 67s68 -31 68 -67c0 -37 -31 -68 -68 -68zM56 254c0 160 98 251 235 251s225 -88 225 -241v-28h-394c6 -101 51 -190 180 -190
c88 0 145 44 165 127h66c-20 -78 -76 -183 -231 -183c-174 0 -246 121 -246 264zM122 292h328c0 88 -57 157 -159 157c-99 0 -169 -69 -169 -157z" />
    <glyph glyph-name="uni0436" unicode="&#x436;" horiz-adv-x="772" 
d="M655 439l-138 -185l-1 -1l220 -253h-80l-191 219c-4 -1 -9 -1 -14 -1h-32v-218h-66v218h-32c-5 0 -10 0 -14 1l-191 -219h-80l220 253l-1 1l-138 185h-81v56h76c30 0 49 -13 66 -36l135 -182h40v218h66v-218h40l135 182c17 23 36 36 66 36h76v-56h-81z" />
    <glyph glyph-name="uni0437" unicode="&#x437;" horiz-adv-x="524" 
d="M66 194h66c0 -110 36 -148 139 -148c94 0 121 35 121 101c0 59 -28 88 -92 88h-70v57h70c64 0 82 28 82 78c0 45 -21 79 -115 79c-103 0 -125 -37 -125 -107h-66c0 102 62 163 191 163c120 0 181 -57 181 -128c0 -60 -35 -93 -99 -103v-20c64 -10 109 -45 109 -114
c0 -92 -67 -150 -187 -150c-129 0 -205 62 -205 204z" />
    <glyph glyph-name="uni0438" unicode="&#x438;" horiz-adv-x="586" 
d="M530 0h-66v435l10 40h-20l-243 -475h-135v495h66v-435l-10 -40h20l243 475h135v-495z" />
    <glyph glyph-name="uni0439" unicode="&#x439;" horiz-adv-x="586" 
d="M454 731c0 -102 -61 -167 -151 -167s-151 65 -151 167h56c0 -74 26 -111 95 -111s95 37 95 111h56zM530 0h-66v435l10 40h-20l-243 -475h-135v495h66v-435l-10 -40h20l243 475h135v-495z" />
    <glyph glyph-name="uni043A" unicode="&#x43a;" horiz-adv-x="505" 
d="M469 0h-80l-192 221c-7 -2 -15 -3 -23 -3h-32v-218h-66v495h66v-218h40l135 182c17 23 36 36 66 36h76v-56h-81l-134 -180z" />
    <glyph glyph-name="uni045C" unicode="&#x45c;" horiz-adv-x="505" 
d="M400 660l-290 -78l-14 54l290 78zM469 0h-80l-192 221c-7 -2 -15 -3 -23 -3h-32v-218h-66v495h66v-218h40l135 182c17 23 36 36 66 36h76v-56h-81l-134 -180z" />
    <glyph glyph-name="uni043B" unicode="&#x43b;" horiz-adv-x="571" 
d="M495 495v-495h-66v439h-212c-1 -281 -10 -439 -161 -439v56c98 0 95 157 95 439h344z" />
    <glyph glyph-name="uni043C" unicode="&#x43c;" horiz-adv-x="703" 
d="M76 0v495h133l132 -475h20l132 475h134v-495h-66v435l10 40h-20l-133 -475h-134l-132 475h-20l10 -40v-435h-66z" />
    <glyph glyph-name="uni043D" unicode="&#x43d;" horiz-adv-x="572" 
d="M430 495h66v-495h-66v220h-288v-220h-66v495h66v-219h288v219z" />
    <glyph glyph-name="uni043E" unicode="&#x43e;" horiz-adv-x="627" 
d="M56 248c0 138 99 257 258 257c158 0 257 -119 257 -257c0 -139 -99 -258 -257 -258c-159 0 -258 119 -258 258zM122 248c0 -108 66 -202 192 -202c125 0 191 94 191 202c0 107 -66 201 -191 201c-126 0 -192 -94 -192 -201z" />
    <glyph glyph-name="uni043F" unicode="&#x43f;" horiz-adv-x="542" 
d="M466 495v-495h-66v439h-258v-439h-66v495h390z" />
    <glyph glyph-name="uni0440" unicode="&#x440;" 
d="M76 495h66v-81l-10 -50h20c20 80 90 141 201 141c144 0 241 -109 241 -258c0 -148 -97 -257 -241 -257c-111 0 -181 61 -201 141h-20l10 -50v-261h-66v675zM142 247c0 -141 92 -201 198 -201s188 62 188 201c0 140 -82 202 -188 202s-198 -60 -198 -202z" />
    <glyph glyph-name="uni0441" unicode="&#x441;" horiz-adv-x="585" 
d="M56 248c0 138 88 257 249 257c88 0 210 -50 224 -194h-67c-16 105 -83 138 -157 138c-126 0 -183 -94 -183 -201c0 -108 57 -202 183 -202c74 0 141 33 157 138h67c-14 -144 -136 -194 -224 -194c-161 0 -249 119 -249 258z" />
    <glyph glyph-name="uni0442" unicode="&#x442;" horiz-adv-x="532" 
d="M486 495v-56h-187v-439h-66v439h-187v56h440z" />
    <glyph glyph-name="uni0443" unicode="&#x443;" horiz-adv-x="575" 
d="M468 495h71l-213 -495v-135c0 -35 -20 -57 -65 -55l-181 10v56l180 -10v134l-214 495h71l166 -408v-30h20v30z" />
    <glyph glyph-name="uni0444" unicode="&#x444;" horiz-adv-x="727" 
d="M671 248c0 -131 -89 -245 -274 -257v-171h-66v171c-186 12 -275 126 -275 257s89 244 275 256v171h66v-171c185 -12 274 -126 274 -256zM122 248c0 -101 58 -190 209 -201v401c-151 -11 -209 -100 -209 -200zM397 47c150 11 208 100 208 201c0 100 -58 189 -208 200v-401
z" />
    <glyph glyph-name="uni0445" unicode="&#x445;" horiz-adv-x="564" 
d="M46 0l186 238v20l-186 237h78l158 -207l158 207h78l-186 -237v-20l186 -238h-78l-158 208l-158 -208h-78z" />
    <glyph glyph-name="uni0447" unicode="&#x447;" horiz-adv-x="598" 
d="M456 495h66v-495h-66v180l-315 -20c-45 -3 -65 20 -65 65v270h66v-279l314 20v259z" />
    <glyph glyph-name="uni0446" unicode="&#x446;" horiz-adv-x="628" 
d="M537 56c35 0 55 -20 55 -55v-131h-66v130h-450v495h66v-439h258v439h66v-439h71z" />
    <glyph glyph-name="uni0448" unicode="&#x448;" horiz-adv-x="756" 
d="M614 495h66v-495h-604v495h66v-439h203v439h66v-439h203v439z" />
    <glyph glyph-name="uni0449" unicode="&#x449;" horiz-adv-x="842" 
d="M751 56c35 0 55 -20 55 -55v-131h-66v130h-664v495h66v-439h203v439h66v-439h203v439h66v-439h71z" />
    <glyph glyph-name="uni045F" unicode="&#x45f;" horiz-adv-x="572" 
d="M430 495h66v-495h-177v-130h-66v130h-177v495h66v-439h288v439z" />
    <glyph glyph-name="uni044C" unicode="&#x44c;" horiz-adv-x="514" 
d="M251 346c118 0 207 -39 207 -173s-89 -173 -207 -173h-175v495h66v-149h109zM142 56h99c87 0 151 11 151 117s-64 117 -151 117h-99v-234z" />
    <glyph glyph-name="uni044A" unicode="&#x44a;" horiz-adv-x="596" 
d="M333 346c118 0 207 -39 207 -173s-89 -173 -207 -173h-175v439h-122v56h188v-149h109zM323 56c87 0 151 11 151 117s-64 117 -151 117h-99v-234h99z" />
    <glyph glyph-name="uni044B" unicode="&#x44b;" horiz-adv-x="668" 
d="M251 346c118 0 207 -39 207 -173s-89 -173 -207 -173h-175v495h66v-149h109zM526 0v495h66v-495h-66zM142 56h99c87 0 151 11 151 117s-64 117 -151 117h-99v-234z" />
    <glyph glyph-name="uni0459" unicode="&#x459;" horiz-adv-x="867" 
d="M604 346c118 0 207 -39 207 -173s-89 -173 -207 -173h-175v439h-212c-1 -281 -10 -439 -161 -439v56c98 0 95 157 95 439h344v-149h109zM594 56c87 0 151 11 151 117s-64 117 -151 117h-99v-234h99z" />
    <glyph glyph-name="uni045A" unicode="&#x45a;" horiz-adv-x="868" 
d="M605 346c118 0 207 -39 207 -173s-89 -173 -207 -173h-175v220h-288v-220h-66v495h66v-219h288v219h66v-149h109zM595 56c87 0 151 11 151 117s-64 117 -151 117h-99v-234h99z" />
    <glyph glyph-name="uni0455" unicode="&#x455;" horiz-adv-x="489" 
d="M453 127c0 -73 -44 -137 -188 -137c-156 0 -219 75 -219 193h66c0 -96 54 -137 153 -137c84 0 122 20 122 76c0 73 -75 85 -156 110c-94 29 -162 59 -162 145c0 76 64 128 173 128c151 0 194 -85 194 -163h-66c0 73 -44 107 -128 107c-59 0 -107 -18 -107 -68
c0 -52 31 -67 111 -93c98 -32 207 -54 207 -161z" />
    <glyph glyph-name="uni0454" unicode="&#x454;" horiz-adv-x="585" 
d="M305 46c74 0 141 33 157 138h67c-14 -144 -136 -194 -224 -194c-161 0 -249 119 -249 258c0 138 88 257 249 257c88 0 210 -50 224 -194h-67c-16 105 -83 138 -157 138c-115 0 -172 -78 -182 -173h230v-56h-230c10 -96 67 -174 182 -174z" />
    <glyph glyph-name="uni044D" unicode="&#x44d;" horiz-adv-x="585" 
d="M280 505c161 0 249 -119 249 -257c0 -139 -88 -258 -249 -258c-88 0 -210 50 -224 194h67c16 -105 83 -138 157 -138c115 0 172 78 182 174h-230v56h230c-10 95 -67 173 -182 173c-74 0 -141 -33 -157 -138h-67c14 144 136 194 224 194z" />
    <glyph glyph-name="uni0456" unicode="&#x456;" horiz-adv-x="432" 
d="M213 580c-37 0 -67 31 -67 68c0 36 30 67 67 67s68 -31 68 -67c0 -37 -31 -68 -68 -68zM56 0v56h139v393l-99 -10v56l100 10c45 4 61 -20 61 -55v-394h139v-56h-340z" />
    <glyph glyph-name="uni0457" unicode="&#x457;" horiz-adv-x="432" 
d="M92 580c-37 0 -67 31 -67 68c0 36 30 67 67 67s68 -31 68 -67c0 -37 -31 -68 -68 -68zM287 580c-37 0 -67 31 -67 68c0 36 30 67 67 67s68 -31 68 -67c0 -37 -31 -68 -68 -68zM56 0v56h141v393l-101 -10v56l98 10c45 5 61 -20 61 -65v-384h141v-56h-340z" />
    <glyph glyph-name="uni0458" unicode="&#x458;" horiz-adv-x="273" 
d="M147 580c-37 0 -67 31 -67 68c0 36 30 67 67 67s68 -31 68 -67c0 -37 -31 -68 -68 -68zM26 -180l86 154c13 23 17 42 17 68v407l-103 -10v56l104 10c45 4 65 -20 65 -55v-420c0 -26 -4 -45 -17 -68l-81 -142h-71z" />
    <glyph glyph-name="uni045B" unicode="&#x45b;" horiz-adv-x="620" 
d="M373 505c109 0 181 -61 181 -195v-310h-66v302c0 106 -43 147 -130 147c-109 0 -186 -90 -186 -222v-227h-66v619h-50v56h50v60h66v-60h149v-56h-149v-215l-10 -50h20c20 90 83 151 191 151z" />
    <glyph glyph-name="uni044E" unicode="&#x44e;" horiz-adv-x="797" 
d="M504 505c158 0 237 -119 237 -257c0 -139 -79 -258 -237 -258c-148 0 -227 103 -237 230h-125v-220h-66v495h66v-219h125c10 126 89 229 237 229zM504 46c125 0 171 94 171 202c0 107 -46 201 -171 201c-126 0 -172 -94 -172 -201c0 -108 46 -202 172 -202z" />
    <glyph glyph-name="uni044F" unicode="&#x44f;" horiz-adv-x="474" 
d="M398 495v-495h-66v220h-66l-101 -184c-13 -23 -36 -36 -66 -36h-73v56h81l93 168c-88 12 -134 53 -134 134c0 98 69 137 197 137h135zM332 276v163h-69c-85 0 -131 -16 -131 -81c0 -66 46 -82 131 -82h69z" />
    <glyph glyph-name="uni0452" unicode="&#x452;" horiz-adv-x="620" 
d="M373 505c109 0 181 -61 181 -195v-445c0 -35 -20 -57 -65 -55l-181 10v56l180 -10v436c0 106 -43 147 -130 147c-109 0 -186 -90 -186 -222v-227h-66v619h-50v56h50v60h66v-60h149v-56h-149v-215l-10 -50h20c20 90 83 151 191 151z" />
    <glyph glyph-name="uni0438.loclBGR" horiz-adv-x="586" 
d="M530 0h-66v435l10 40h-20l-243 -475h-135v495h66v-435l-10 -40h20l243 475h135v-495z" />
    <glyph glyph-name="uni0439.loclBGR" horiz-adv-x="586" 
d="M454 731c0 -102 -61 -167 -151 -167s-151 65 -151 167h56c0 -74 26 -111 95 -111s95 37 95 111h56zM530 0h-66v435l10 40h-20l-243 -475h-135v495h66v-435l-10 -40h20l243 475h135v-495z" />
    <glyph glyph-name="uni045D.loclBGR" horiz-adv-x="586" 
d="M455 636l-14 -54l-290 78l14 54zM530 0h-66v435l10 40h-20l-243 -475h-135v495h66v-435l-10 -40h20l243 475h135v-495z" />
    <glyph glyph-name="zero" unicode="0" horiz-adv-x="717" 
d="M359 715c193 0 292 -157 292 -362c0 -206 -99 -363 -292 -363c-194 0 -293 157 -293 363c0 205 99 362 293 362zM359 659c-153 0 -227 -131 -227 -306c0 -72 12 -136 37 -187l342 429c-37 41 -87 64 -152 64zM359 46c153 0 226 131 226 307c0 72 -12 136 -37 187
l-342 -429c37 -41 88 -65 153 -65z" />
    <glyph glyph-name="one" unicode="1" horiz-adv-x="462" 
d="M56 385c135 55 180 185 183 320h137v-705h-66v635l10 50h-20c-10 -151 -57 -300 -224 -355z" />
    <glyph glyph-name="two" unicode="2" horiz-adv-x="664" 
d="M56 362c0 257 131 353 296 353c147 0 246 -83 246 -237c0 -227 -229 -369 -512 -412v-20l50 10h462v-56h-532v116c72 10 466 83 466 362c0 122 -67 181 -178 181c-131 0 -232 -72 -232 -297h-66z" />
    <glyph glyph-name="three" unicode="3" horiz-adv-x="670" 
d="M66 269h66c0 -161 71 -223 216 -223c133 0 190 58 190 160c0 101 -54 139 -144 139h-98v56h98c90 0 134 37 134 118c0 82 -47 140 -180 140c-145 0 -206 -62 -206 -183h-66c0 152 91 239 272 239c169 0 246 -82 246 -186c0 -82 -40 -132 -130 -146v-20
c90 -19 140 -63 140 -167c0 -124 -87 -206 -256 -206c-181 0 -282 87 -282 279z" />
    <glyph glyph-name="four" unicode="4" horiz-adv-x="657" 
d="M601 219v-56h-94v-163h-66v163h-375v117c158 77 297 225 320 425h66c-29 -190 -130 -359 -366 -476v-20l50 10h305v276h66v-276h94z" />
    <glyph glyph-name="five" unicode="5" horiz-adv-x="700" 
d="M66 249h66c0 -131 75 -203 220 -203c133 0 216 78 216 216c0 115 -54 187 -169 187c-96 0 -153 -48 -186 -99l-90 44v311h462v-56h-396v-185l-10 -50l17 -10c38 51 112 101 213 101c142 0 225 -97 225 -249c0 -164 -113 -266 -282 -266c-181 0 -286 97 -286 259z" />
    <glyph glyph-name="six" unicode="6" horiz-adv-x="681" 
d="M66 327c0 230 80 411 302 388l197 -20v-56l-197 20c-178 18 -229 -130 -246 -272l-20 -50h20c22 98 122 168 246 168c155 0 247 -107 247 -253c0 -152 -104 -262 -274 -262c-164 0 -275 113 -275 337zM132 242c0 -96 77 -196 209 -196c130 0 208 77 208 206
c0 117 -68 197 -186 197c-127 0 -231 -79 -231 -207z" />
    <glyph glyph-name="seven" unicode="7" horiz-adv-x="581" 
d="M165 0c0 305 112 505 360 639v20l-50 -10h-439v56h509v-120c-209 -110 -314 -295 -314 -585h-66z" />
    <glyph glyph-name="eight" unicode="8" horiz-adv-x="667" 
d="M56 193c0 98 53 153 160 185v20c-79 27 -120 67 -120 149c0 113 99 168 238 168c138 0 237 -55 237 -168c0 -82 -41 -122 -120 -149v-20c107 -32 160 -87 160 -185c0 -114 -99 -203 -277 -203c-179 0 -278 89 -278 203zM162 537c0 -93 66 -122 172 -122
c105 0 171 29 171 122c0 92 -66 122 -171 122c-106 0 -172 -30 -172 -122zM122 203c0 -93 66 -157 212 -157c145 0 211 64 211 157c0 92 -66 156 -211 156c-146 0 -212 -64 -212 -156z" />
    <glyph glyph-name="nine" unicode="9" horiz-adv-x="681" 
d="M615 378c0 -230 -80 -411 -302 -388l-197 20v56l197 -20c178 -18 229 130 246 272l20 50h-20c-22 -98 -122 -168 -246 -168c-155 0 -247 107 -247 253c0 152 104 262 274 262c164 0 275 -113 275 -337zM549 463c0 96 -77 196 -209 196c-130 0 -208 -77 -208 -206
c0 -117 68 -197 186 -197c127 0 231 79 231 207z" />
    <glyph glyph-name="uni24FF" unicode="&#x24ff;" horiz-adv-x="1000" 
d="M500 -133c-260 0 -434 194 -434 434s174 434 434 434s434 -194 434 -434s-174 -434 -434 -434zM328 302c0 -126 59 -218 173 -218c113 0 172 92 172 218c0 124 -59 217 -172 217c-114 0 -173 -93 -173 -217zM394 302c0 107 41 161 107 161c34 0 59 -11 76 -32l-169 -220
c-9 24 -14 54 -14 91zM426 176l170 218c7 -24 11 -55 11 -92c0 -108 -30 -162 -106 -162c-31 0 -56 12 -75 36z" />
    <glyph glyph-name="uni2776" unicode="&#x2776;" horiz-adv-x="1000" 
d="M500 -133c260 0 434 194 434 434s-174 434 -434 434s-434 -194 -434 -434s174 -434 434 -434zM353 347c61 39 83 78 83 162h132v-415h-66v366l6 29h-12c-6 -89 -33 -155 -120 -197z" />
    <glyph glyph-name="uni2777" unicode="&#x2777;" horiz-adv-x="1000" 
d="M500 -133c260 0 434 194 434 434s-174 434 -434 434s-434 -194 -434 -434s174 -434 434 -434zM327 316c0 151 91 208 188 208c96 0 158 -49 158 -140c0 -133 -140 -193 -307 -223v-12l30 6h263v-56h-313v111c43 6 261 50 261 174c0 52 -26 84 -91 84
c-77 0 -123 -40 -123 -152h-66z" />
    <glyph glyph-name="uni2778" unicode="&#x2778;" horiz-adv-x="1000" 
d="M500 -133c260 0 434 194 434 434s-174 434 -434 434s-434 -194 -434 -434s174 -434 434 -434zM326 251h66c0 -86 39 -111 116 -111c69 0 101 23 101 73c0 62 -50 72 -83 72h-50v57h50c33 0 77 11 77 59c0 39 -26 62 -95 62c-77 0 -111 -26 -111 -88h-66
c0 91 68 144 177 144c102 0 161 -51 161 -112c0 -49 -38 -79 -92 -88v-12c54 -11 97 -38 97 -100c0 -74 -64 -123 -166 -123c-109 0 -182 52 -182 167z" />
    <glyph glyph-name="uni2779" unicode="&#x2779;" horiz-adv-x="1000" 
d="M500 -133c260 0 434 194 434 434s-174 434 -434 434s-434 -194 -434 -434s174 -434 434 -434zM324 182v117c93 45 150 112 169 214h66c-13 -106 -76 -210 -215 -269v-12l30 6h167v151h66v-151h52v-56h-52v-84h-66v84h-217z" />
    <glyph glyph-name="uni277A" unicode="&#x277a;" horiz-adv-x="1000" 
d="M500 -133c260 0 434 194 434 434s-174 434 -434 434s-434 -194 -434 -434s174 -434 434 -434zM323 225h66c0 -67 40 -96 116 -96c58 0 113 23 113 104c0 68 -38 87 -86 87c-56 0 -90 -25 -109 -55l-80 46v183h299v-56h-233v-86l-6 -29l10 -6c22 30 66 59 125 59
c94 0 146 -57 146 -146c0 -97 -70 -157 -179 -157c-117 0 -182 57 -182 152z" />
    <glyph glyph-name="uni277B" unicode="&#x277b;" horiz-adv-x="1000" 
d="M500 -133c260 0 434 194 434 434s-174 434 -434 434s-434 -194 -434 -434s174 -434 434 -434zM324 281c0 146 70 251 211 237l100 -10v-56l-110 10c-105 10 -155 -66 -155 -145l-12 -30h12c13 58 69 109 153 109c101 0 151 -68 151 -154c0 -89 -65 -159 -175 -159
c-106 0 -175 67 -175 198zM390 241c0 -56 32 -102 109 -102s109 37 109 103c0 59 -26 98 -96 98c-75 0 -122 -43 -122 -99z" />
    <glyph glyph-name="uni277C" unicode="&#x277c;" horiz-adv-x="1000" 
d="M500 -133c260 0 434 194 434 434s-174 434 -434 434s-434 -194 -434 -434s174 -434 434 -434zM424 74c0 179 71 273 216 346v13h-279v56h299v-119c-124 -56 -170 -143 -170 -296h-66z" />
    <glyph glyph-name="uni277D" unicode="&#x277d;" horiz-adv-x="1000" 
d="M500 -133c260 0 434 194 434 434s-174 434 -434 434s-434 -194 -434 -434s174 -434 434 -434zM323 206c0 71 45 103 108 112v12c-47 6 -85 35 -85 89c0 63 62 100 154 100c91 0 153 -37 153 -100c0 -54 -38 -83 -84 -89v-12c63 -9 108 -41 108 -112
c0 -70 -62 -122 -177 -122s-177 52 -177 122zM412 409c0 -32 26 -57 88 -57s87 25 87 57c0 31 -25 54 -87 54s-88 -23 -88 -54zM389 218c0 -37 25 -78 111 -78c85 0 111 41 111 78s-26 78 -111 78c-86 0 -111 -41 -111 -78z" />
    <glyph glyph-name="uni277E" unicode="&#x277e;" horiz-adv-x="1000" 
d="M500 -133c260 0 434 194 434 434s-174 434 -434 434s-434 -194 -434 -434s174 -434 434 -434zM690 319c0 -146 -70 -251 -211 -237l-100 10v56l110 -10c105 -10 155 66 155 145l12 30h-12c-13 -58 -69 -109 -153 -109c-101 0 -151 68 -151 154c0 89 65 159 175 159
c106 0 175 -67 175 -198zM624 359c0 56 -32 102 -109 102s-109 -37 -109 -103c0 -59 26 -98 96 -98c75 0 122 43 122 99z" />
    <glyph glyph-name="uni24EA" unicode="&#x24ea;" horiz-adv-x="1000" 
d="M500 735c260 0 434 -194 434 -434s-174 -434 -434 -434s-434 194 -434 434s174 434 434 434zM500 -77c224 0 378 174 378 378s-154 378 -378 378s-378 -174 -378 -378s154 -378 378 -378zM501 519c113 0 172 -93 172 -217c0 -126 -59 -218 -172 -218
c-114 0 -173 92 -173 218c0 124 59 217 173 217zM501 463c-66 0 -107 -54 -107 -161c0 -37 5 -67 14 -91l167 217c-18 23 -43 35 -74 35zM501 140c66 0 106 54 106 162c0 36 -5 66 -13 90l-168 -216c19 -24 44 -36 75 -36z" />
    <glyph glyph-name="uni2460" unicode="&#x2460;" horiz-adv-x="1000" 
d="M500 -133c-260 0 -434 194 -434 434s174 434 434 434s434 -194 434 -434s-174 -434 -434 -434zM500 -77c224 0 378 174 378 378s-154 378 -378 378s-378 -174 -378 -378s154 -378 378 -378zM353 347c61 39 83 78 83 162h132v-415h-66v366l6 29h-12
c-6 -89 -33 -155 -120 -197z" />
    <glyph glyph-name="uni2461" unicode="&#x2461;" horiz-adv-x="1000" 
d="M500 -133c-260 0 -434 194 -434 434s174 434 434 434s434 -194 434 -434s-174 -434 -434 -434zM500 -77c224 0 378 174 378 378s-154 378 -378 378s-378 -174 -378 -378s154 -378 378 -378zM327 316c0 151 91 208 188 208c96 0 158 -49 158 -140
c0 -133 -140 -193 -307 -223v-12l30 6h263v-56h-313v111c43 6 261 50 261 174c0 52 -26 84 -91 84c-77 0 -123 -40 -123 -152h-66z" />
    <glyph glyph-name="uni2462" unicode="&#x2462;" horiz-adv-x="1000" 
d="M500 -133c-260 0 -434 194 -434 434s174 434 434 434s434 -194 434 -434s-174 -434 -434 -434zM500 -77c224 0 378 174 378 378s-154 378 -378 378s-378 -174 -378 -378s154 -378 378 -378zM326 251h66c0 -86 39 -111 116 -111c69 0 101 23 101 73c0 62 -50 72 -83 72
h-50v57h50c33 0 77 11 77 59c0 39 -26 62 -95 62c-77 0 -111 -26 -111 -88h-66c0 91 68 144 177 144c102 0 161 -51 161 -112c0 -49 -38 -79 -92 -88v-12c54 -11 97 -38 97 -100c0 -74 -64 -123 -166 -123c-109 0 -182 52 -182 167z" />
    <glyph glyph-name="uni2463" unicode="&#x2463;" horiz-adv-x="1000" 
d="M500 -133c-260 0 -434 194 -434 434s174 434 434 434s434 -194 434 -434s-174 -434 -434 -434zM500 -77c224 0 378 174 378 378s-154 378 -378 378s-378 -174 -378 -378s154 -378 378 -378zM329 184v117c93 45 150 112 169 214h66c-13 -106 -76 -210 -215 -269v-12l30 6
h167v151h66v-151h52v-56h-52v-84h-66v84h-217z" />
    <glyph glyph-name="uni2464" unicode="&#x2464;" horiz-adv-x="1000" 
d="M500 -133c-260 0 -434 194 -434 434s174 434 434 434s434 -194 434 -434s-174 -434 -434 -434zM500 -77c224 0 378 174 378 378s-154 378 -378 378s-378 -174 -378 -378s154 -378 378 -378zM323 225h66c0 -67 40 -96 116 -96c58 0 113 23 113 104c0 68 -38 87 -86 87
c-56 0 -90 -25 -109 -55l-80 46v183h299v-56h-233v-86l-6 -29l10 -6c22 30 66 59 125 59c94 0 146 -57 146 -146c0 -97 -70 -157 -179 -157c-117 0 -182 57 -182 152z" />
    <glyph glyph-name="uni2465" unicode="&#x2465;" horiz-adv-x="1000" 
d="M500 -133c-260 0 -434 194 -434 434s174 434 434 434s434 -194 434 -434s-174 -434 -434 -434zM500 -77c224 0 378 174 378 378s-154 378 -378 378s-378 -174 -378 -378s154 -378 378 -378zM324 281c0 146 70 251 211 237l100 -10v-56l-110 10
c-105 10 -155 -66 -155 -145l-12 -30h12c13 58 69 109 153 109c101 0 151 -68 151 -154c0 -89 -65 -159 -175 -159c-106 0 -175 67 -175 198zM390 241c0 -56 32 -102 109 -102s109 37 109 103c0 59 -26 98 -96 98c-75 0 -122 -43 -122 -99z" />
    <glyph glyph-name="uni2466" unicode="&#x2466;" horiz-adv-x="1000" 
d="M500 -133c-260 0 -434 194 -434 434s174 434 434 434s434 -194 434 -434s-174 -434 -434 -434zM500 -77c224 0 378 174 378 378s-154 378 -378 378s-378 -174 -378 -378s154 -378 378 -378zM424 74c0 179 71 273 216 346v13h-279v56h299v-119
c-124 -56 -170 -143 -170 -296h-66z" />
    <glyph glyph-name="uni2467" unicode="&#x2467;" horiz-adv-x="1000" 
d="M500 -133c-260 0 -434 194 -434 434s174 434 434 434s434 -194 434 -434s-174 -434 -434 -434zM500 -77c224 0 378 174 378 378s-154 378 -378 378s-378 -174 -378 -378s154 -378 378 -378zM323 206c0 71 45 103 108 112v12c-47 6 -85 35 -85 89c0 63 62 100 154 100
c91 0 153 -37 153 -100c0 -54 -38 -83 -84 -89v-12c63 -9 108 -41 108 -112c0 -70 -62 -122 -177 -122s-177 52 -177 122zM412 409c0 -32 26 -57 88 -57s87 25 87 57c0 31 -25 54 -87 54s-88 -23 -88 -54zM389 218c0 -37 25 -78 111 -78c85 0 111 41 111 78s-26 78 -111 78
c-86 0 -111 -41 -111 -78z" />
    <glyph glyph-name="uni2468" unicode="&#x2468;" horiz-adv-x="1000" 
d="M500 -133c-260 0 -434 194 -434 434s174 434 434 434s434 -194 434 -434s-174 -434 -434 -434zM500 -77c224 0 378 174 378 378s-154 378 -378 378s-378 -174 -378 -378s154 -378 378 -378zM690 319c0 -146 -70 -251 -211 -237l-100 10v56l110 -10
c105 -10 155 66 155 145l12 30h-12c-13 -58 -69 -109 -153 -109c-101 0 -151 68 -151 154c0 89 65 159 175 159c106 0 175 -67 175 -198zM624 359c0 56 -32 102 -109 102s-109 -37 -109 -103c0 -59 26 -98 96 -98c75 0 122 43 122 99z" />
    <glyph glyph-name="zero.dnom" horiz-adv-x="437" 
d="M219 425c113 0 172 -93 172 -217c0 -126 -59 -218 -172 -218c-114 0 -173 92 -173 218c0 124 59 217 173 217zM219 369c-66 0 -107 -54 -107 -161c0 -37 5 -67 14 -91l167 217c-18 23 -43 35 -74 35zM219 46c66 0 106 54 106 162c0 36 -5 66 -13 90l-168 -216
c19 -24 44 -36 75 -36z" />
    <glyph glyph-name="one.dnom" horiz-adv-x="307" 
d="M46 253c61 39 83 78 83 162h132v-415h-66v366l6 29h-12c-6 -89 -33 -155 -120 -197z" />
    <glyph glyph-name="two.dnom" horiz-adv-x="438" 
d="M46 217c0 151 91 208 188 208c96 0 158 -49 158 -140c0 -133 -140 -193 -307 -223v-12l30 6h263v-56h-313v111c43 6 261 50 261 174c0 52 -26 84 -91 84c-77 0 -123 -40 -123 -152h-66z" />
    <glyph glyph-name="three.dnom" horiz-adv-x="440" 
d="M46 157h66c0 -86 39 -111 116 -111c69 0 101 23 101 73c0 62 -50 72 -83 72h-50v57h50c33 0 77 11 77 59c0 39 -26 62 -95 62c-77 0 -111 -26 -111 -88h-66c0 91 68 144 177 144c102 0 161 -51 161 -112c0 -49 -38 -79 -92 -88v-12c54 -11 97 -38 97 -100
c0 -74 -64 -123 -166 -123c-109 0 -182 52 -182 167z" />
    <glyph glyph-name="four.dnom" horiz-adv-x="427" 
d="M46 84v117c93 45 150 112 169 214h66c-13 -106 -76 -210 -215 -269v-12l30 6h167v151h66v-151h52v-56h-52v-84h-66v84h-217z" />
    <glyph glyph-name="five.dnom" horiz-adv-x="453" 
d="M46 142h66c0 -67 40 -96 116 -96c58 0 113 23 113 104c0 68 -38 87 -86 87c-56 0 -90 -25 -109 -55l-80 46v183h299v-56h-233v-86l-6 -29l10 -6c22 30 66 59 125 59c94 0 146 -57 146 -146c0 -97 -70 -157 -179 -157c-117 0 -182 57 -182 152z" />
    <glyph glyph-name="six.dnom" horiz-adv-x="442" 
d="M46 188c0 146 70 251 211 237l100 -10v-56l-110 10c-105 10 -155 -66 -155 -145l-12 -30h12c13 58 69 109 153 109c101 0 151 -68 151 -154c0 -89 -65 -159 -175 -159c-106 0 -175 67 -175 198zM112 148c0 -56 32 -102 109 -102s109 37 109 103c0 59 -26 98 -96 98
c-75 0 -122 -43 -122 -99z" />
    <glyph glyph-name="seven.dnom" horiz-adv-x="391" 
d="M109 0c0 179 71 273 216 346v13h-279v56h299v-119c-124 -56 -170 -143 -170 -296h-66z" />
    <glyph glyph-name="eight.dnom" horiz-adv-x="446" 
d="M46 112c0 71 45 103 108 112v12c-47 6 -85 35 -85 89c0 63 62 100 154 100c91 0 153 -37 153 -100c0 -54 -38 -83 -84 -89v-12c63 -9 108 -41 108 -112c0 -70 -62 -122 -177 -122s-177 52 -177 122zM135 315c0 -32 26 -57 88 -57s87 25 87 57c0 31 -25 54 -87 54
s-88 -23 -88 -54zM112 124c0 -37 25 -78 111 -78c85 0 111 41 111 78s-26 78 -111 78c-86 0 -111 -41 -111 -78z" />
    <glyph glyph-name="nine.dnom" horiz-adv-x="442" 
d="M396 228c0 -146 -70 -251 -211 -237l-100 10v56l110 -10c105 -10 155 66 155 145l12 30h-12c-13 -58 -69 -109 -153 -109c-101 0 -151 68 -151 154c0 89 65 159 175 159c106 0 175 -67 175 -198zM330 268c0 56 -32 102 -109 102s-109 -37 -109 -103c0 -59 26 -98 96 -98
c75 0 122 43 122 99z" />
    <glyph glyph-name="zero.numr" horiz-adv-x="437" 
d="M219 723c113 0 172 -93 172 -217c0 -126 -59 -218 -172 -218c-114 0 -173 92 -173 218c0 124 59 217 173 217zM219 667c-66 0 -107 -54 -107 -161c0 -37 5 -67 14 -91l167 217c-18 23 -43 35 -74 35zM219 344c66 0 106 54 106 162c0 36 -5 66 -13 90l-168 -216
c19 -24 44 -36 75 -36z" />
    <glyph glyph-name="one.numr" horiz-adv-x="307" 
d="M46 543c61 39 83 78 83 162h132v-415h-66v366l6 29h-12c-6 -89 -33 -155 -120 -197z" />
    <glyph glyph-name="two.numr" horiz-adv-x="438" 
d="M46 511c0 151 91 208 188 208c96 0 158 -49 158 -140c0 -133 -140 -193 -307 -223v-12l30 6h263v-56h-313v111c43 6 261 50 261 174c0 52 -26 84 -91 84c-77 0 -123 -40 -123 -152h-66z" />
    <glyph glyph-name="three.numr" horiz-adv-x="440" 
d="M46 451h66c0 -86 39 -111 116 -111c69 0 101 23 101 73c0 62 -50 72 -83 72h-50v57h50c33 0 77 11 77 59c0 39 -26 62 -95 62c-77 0 -111 -26 -111 -88h-66c0 91 68 144 177 144c102 0 161 -51 161 -112c0 -49 -38 -79 -92 -88v-12c54 -11 97 -38 97 -100
c0 -74 -64 -123 -166 -123c-109 0 -182 52 -182 167z" />
    <glyph glyph-name="four.numr" horiz-adv-x="427" 
d="M46 374v117c93 45 150 112 169 214h66c-13 -106 -76 -210 -215 -269v-12l30 6h167v151h66v-151h52v-56h-52v-84h-66v84h-217z" />
    <glyph glyph-name="five.numr" horiz-adv-x="453" 
d="M46 436h66c0 -67 40 -96 116 -96c58 0 113 23 113 104c0 68 -38 87 -86 87c-56 0 -90 -25 -109 -55l-80 46v183h299v-56h-233v-86l-6 -29l10 -6c22 30 66 59 125 59c94 0 146 -57 146 -146c0 -97 -70 -157 -179 -157c-117 0 -182 57 -182 152z" />
    <glyph glyph-name="six.numr" horiz-adv-x="442" 
d="M46 487c0 146 70 251 211 237l100 -10v-56l-110 10c-105 10 -155 -66 -155 -145l-12 -30h12c13 58 69 109 153 109c101 0 151 -68 151 -154c0 -89 -65 -159 -175 -159c-106 0 -175 67 -175 198zM112 447c0 -56 32 -102 109 -102s109 37 109 103c0 59 -26 98 -96 98
c-75 0 -122 -43 -122 -99z" />
    <glyph glyph-name="seven.numr" horiz-adv-x="391" 
d="M109 290c0 179 71 273 216 346v13h-279v56h299v-119c-124 -56 -170 -143 -170 -296h-66z" />
    <glyph glyph-name="eight.numr" horiz-adv-x="446" 
d="M46 410c0 71 45 103 108 112v12c-47 6 -85 35 -85 89c0 63 62 100 154 100c91 0 153 -37 153 -100c0 -54 -38 -83 -84 -89v-12c63 -9 108 -41 108 -112c0 -70 -62 -122 -177 -122s-177 52 -177 122zM135 613c0 -32 26 -57 88 -57s87 25 87 57c0 31 -25 54 -87 54
s-88 -23 -88 -54zM112 422c0 -37 25 -78 111 -78c85 0 111 41 111 78s-26 78 -111 78c-86 0 -111 -41 -111 -78z" />
    <glyph glyph-name="nine.numr" horiz-adv-x="442" 
d="M396 527c0 -146 -70 -251 -211 -237l-100 10v56l110 -10c105 -10 155 66 155 145l12 30h-12c-13 -58 -69 -109 -153 -109c-101 0 -151 68 -151 154c0 89 65 159 175 159c106 0 175 -67 175 -198zM330 567c0 56 -32 102 -109 102s-109 -37 -109 -103c0 -59 26 -98 96 -98
c75 0 122 43 122 99z" />
    <glyph glyph-name="fraction" unicode="&#x2044;" horiz-adv-x="363" 
d="M304 814l53 -18l-298 -905l-53 18z" />
    <glyph glyph-name="onehalf" unicode="&#xbd;" horiz-adv-x="984" 
d="M581 814l53 -18l-298 -905l-53 18zM46 543c61 39 83 78 83 162h132v-415h-66v366l6 29h-12c-6 -89 -33 -155 -120 -197zM592 217c0 151 91 208 188 208c96 0 158 -49 158 -140c0 -133 -140 -193 -307 -223v-12l30 6h263v-56h-313v111c43 6 261 50 261 174
c0 52 -26 84 -91 84c-77 0 -123 -40 -123 -152h-66z" />
    <glyph glyph-name="onequarter" unicode="&#xbc;" horiz-adv-x="943" 
d="M581 814l53 -18l-298 -905l-53 18zM46 543c61 39 83 78 83 162h132v-415h-66v366l6 29h-12c-6 -89 -33 -155 -120 -197zM562 84v117c93 45 150 112 169 214h66c-13 -106 -76 -210 -215 -269v-12l30 6h167v151h66v-151h52v-56h-52v-84h-66v84h-217z" />
    <glyph glyph-name="threequarters" unicode="&#xbe;" horiz-adv-x="1046" 
d="M662 814l53 -18l-298 -905l-53 18zM46 451h66c0 -86 39 -111 116 -111c69 0 101 23 101 73c0 62 -50 72 -83 72h-50v57h50c33 0 77 11 77 59c0 39 -26 62 -95 62c-77 0 -111 -26 -111 -88h-66c0 91 68 144 177 144c102 0 161 -51 161 -112c0 -49 -38 -79 -92 -88v-12
c54 -11 97 -38 97 -100c0 -74 -64 -123 -166 -123c-109 0 -182 52 -182 167zM665 84v117c93 45 150 112 169 214h66c-13 -106 -76 -210 -215 -269v-12l30 6h167v151h66v-151h52v-56h-52v-84h-66v84h-217z" />
    <glyph glyph-name="oneeighth" unicode="&#x215b;" horiz-adv-x="982" 
d="M581 814l53 -18l-298 -905l-53 18zM46 543c61 39 83 78 83 162h132v-415h-66v366l6 29h-12c-6 -89 -33 -155 -120 -197zM582 112c0 71 45 103 108 112v12c-47 6 -85 35 -85 89c0 63 62 100 154 100c91 0 153 -37 153 -100c0 -54 -38 -83 -84 -89v-12
c63 -9 108 -41 108 -112c0 -70 -62 -122 -177 -122s-177 52 -177 122zM671 315c0 -32 26 -57 88 -57s87 25 87 57c0 31 -25 54 -87 54s-88 -23 -88 -54zM648 124c0 -37 25 -78 111 -78c85 0 111 41 111 78s-26 78 -111 78c-86 0 -111 -41 -111 -78z" />
    <glyph glyph-name="threeeighths" unicode="&#x215c;" horiz-adv-x="1115" 
d="M682 814l53 -18l-298 -905l-53 18zM46 451h66c0 -86 39 -111 116 -111c69 0 101 23 101 73c0 62 -50 72 -83 72h-50v57h50c33 0 77 11 77 59c0 39 -26 62 -95 62c-77 0 -111 -26 -111 -88h-66c0 91 68 144 177 144c102 0 161 -51 161 -112c0 -49 -38 -79 -92 -88v-12
c54 -11 97 -38 97 -100c0 -74 -64 -123 -166 -123c-109 0 -182 52 -182 167zM715 112c0 71 45 103 108 112v12c-47 6 -85 35 -85 89c0 63 62 100 154 100c91 0 153 -37 153 -100c0 -54 -38 -83 -84 -89v-12c63 -9 108 -41 108 -112c0 -70 -62 -122 -177 -122
s-177 52 -177 122zM804 315c0 -32 26 -57 88 -57s87 25 87 57c0 31 -25 54 -87 54s-88 -23 -88 -54zM781 124c0 -37 25 -78 111 -78c85 0 111 41 111 78s-26 78 -111 78c-86 0 -111 -41 -111 -78z" />
    <glyph glyph-name="fiveeighths" unicode="&#x215d;" horiz-adv-x="1108" 
d="M675 814l53 -18l-298 -905l-53 18zM46 436h66c0 -67 40 -96 116 -96c58 0 113 23 113 104c0 68 -38 87 -86 87c-56 0 -90 -25 -109 -55l-80 46v183h299v-56h-233v-86l-6 -29l10 -6c22 30 66 59 125 59c94 0 146 -57 146 -146c0 -97 -70 -157 -179 -157
c-117 0 -182 57 -182 152zM708 112c0 71 45 103 108 112v12c-47 6 -85 35 -85 89c0 63 62 100 154 100c91 0 153 -37 153 -100c0 -54 -38 -83 -84 -89v-12c63 -9 108 -41 108 -112c0 -70 -62 -122 -177 -122s-177 52 -177 122zM797 315c0 -32 26 -57 88 -57s87 25 87 57
c0 31 -25 54 -87 54s-88 -23 -88 -54zM774 124c0 -37 25 -78 111 -78c85 0 111 41 111 78s-26 78 -111 78c-86 0 -111 -41 -111 -78z" />
    <glyph glyph-name="seveneighths" unicode="&#x215e;" horiz-adv-x="1066" 
d="M613 814l53 -18l-298 -905l-53 18zM109 290c0 179 71 273 216 346v13h-279v56h299v-119c-124 -56 -170 -143 -170 -296h-66zM666 112c0 71 45 103 108 112v12c-47 6 -85 35 -85 89c0 63 62 100 154 100c91 0 153 -37 153 -100c0 -54 -38 -83 -84 -89v-12
c63 -9 108 -41 108 -112c0 -70 -62 -122 -177 -122s-177 52 -177 122zM755 315c0 -32 26 -57 88 -57s87 25 87 57c0 31 -25 54 -87 54s-88 -23 -88 -54zM732 124c0 -37 25 -78 111 -78c85 0 111 41 111 78s-26 78 -111 78c-86 0 -111 -41 -111 -78z" />
    <glyph glyph-name="period" unicode="." horiz-adv-x="327" 
d="M163 -10c-43 0 -77 34 -77 78c0 43 34 77 77 77c42 0 78 -34 78 -77c0 -44 -36 -78 -78 -78z" />
    <glyph glyph-name="comma" unicode="," horiz-adv-x="270" 
d="M120 159l64 -17l-74 -276l-64 17z" />
    <glyph glyph-name="colon" unicode=":" horiz-adv-x="327" 
d="M163 350c-43 0 -77 34 -77 78c0 43 34 77 77 77c42 0 78 -34 78 -77c0 -44 -36 -78 -78 -78zM163 -10c-43 0 -77 34 -77 78c0 43 34 77 77 77c42 0 78 -34 78 -77c0 -44 -36 -78 -78 -78z" />
    <glyph glyph-name="semicolon" unicode=";" horiz-adv-x="327" 
d="M163 350c-43 0 -77 34 -77 78c0 43 34 77 77 77c42 0 78 -34 78 -77c0 -44 -36 -78 -78 -78zM120 159l64 -17l-74 -276l-64 17z" />
    <glyph glyph-name="ellipsis" unicode="&#x2026;" horiz-adv-x="797" 
d="M163 -10c-43 0 -77 34 -77 78c0 43 34 77 77 77c42 0 78 -34 78 -77c0 -44 -36 -78 -78 -78zM398 -10c-43 0 -77 34 -77 78c0 43 34 77 77 77c42 0 78 -34 78 -77c0 -44 -36 -78 -78 -78zM633 -10c-43 0 -77 34 -77 78c0 43 34 77 77 77c42 0 78 -34 78 -77
c0 -44 -36 -78 -78 -78z" />
    <glyph glyph-name="exclam" unicode="!" horiz-adv-x="327" 
d="M131 705h66l-5 -466h-56zM163 -10c-43 0 -77 34 -77 78c0 43 34 77 77 77c42 0 78 -34 78 -77c0 -44 -36 -78 -78 -78z" />
    <glyph glyph-name="exclamdown" unicode="&#xa1;" horiz-adv-x="327" 
d="M163 505c42 0 78 -34 78 -78c0 -43 -36 -77 -78 -77c-43 0 -77 34 -77 77c0 44 34 78 77 78zM131 -210l5 466h56l5 -466h-66z" />
    <glyph glyph-name="question" unicode="?" horiz-adv-x="513" 
d="M66 500c0 132 73 215 202 215c116 0 179 -66 179 -171c0 -145 -145 -215 -304 -242v-14l36 7h208v-56h-264v113c52 8 258 39 258 202c0 62 -32 105 -112 105c-94 0 -137 -52 -137 -159h-66zM251 -10c-43 0 -77 34 -77 78c0 43 34 77 77 77c42 0 78 -34 78 -77
c0 -44 -36 -78 -78 -78z" />
    <glyph glyph-name="questiondown" unicode="&#xbf;" horiz-adv-x="523" 
d="M272 505c43 0 77 -34 77 -78c0 -43 -34 -77 -77 -77c-42 0 -78 34 -78 77c0 44 36 78 78 78zM457 -5c0 -132 -73 -215 -202 -215c-116 0 -179 66 -179 171c0 145 145 215 304 242v14l-36 -7h-208v56h264v-113c-52 -8 -258 -39 -258 -202c0 -62 32 -105 112 -105
c94 0 137 52 137 159h66z" />
    <glyph glyph-name="periodcentered" unicode="&#xb7;" horiz-adv-x="327" 
d="M163 170c-43 0 -77 34 -77 78c0 43 34 77 77 77c42 0 78 -34 78 -77c0 -44 -36 -78 -78 -78z" />
    <glyph glyph-name="bullet" unicode="&#x2022;" horiz-adv-x="625" 
d="M311 21c-126 0 -225 99 -225 228c0 126 99 225 225 225c123 0 228 -99 228 -225c0 -129 -105 -228 -228 -228z" />
    <glyph glyph-name="asterisk" unicode="*" horiz-adv-x="505" 
d="M66 579l17 54l120 -39l33 -23l-11 38v126h56v-126l-11 -39l32 23l120 38l17 -53l-120 -39l-38 -2l30 -22l74 -102l-46 -33l-74 102l-13 36l-14 -36l-74 -102l-45 33l74 102l31 23l-38 2z" />
    <glyph glyph-name="numbersign" unicode="#" horiz-adv-x="1075" 
d="M989 439h-216l-81 -244h202v-56h-220l-95 -288l-53 18l89 270h-271l-95 -288l-53 18l89 270h-199v56h217l81 244h-203v56h221l92 279l53 -18l-86 -261h271l92 279l53 -18l-86 -261h198v-56zM633 195l81 244h-271l-81 -244h271z" />
    <glyph glyph-name="slash" unicode="/" horiz-adv-x="483" 
d="M364 814l53 -18l-298 -905l-53 18z" />
    <glyph glyph-name="backslash" unicode="\" horiz-adv-x="483" 
d="M119 814l298 -905l-53 -18l-298 905z" />
    <glyph glyph-name="colon.case" horiz-adv-x="327" 
d="M163 450c-43 0 -77 34 -77 78c0 43 34 77 77 77c42 0 78 -34 78 -77c0 -44 -36 -78 -78 -78zM163 100c-43 0 -77 34 -77 78c0 43 34 77 77 77c42 0 78 -34 78 -77c0 -44 -36 -78 -78 -78z" />
    <glyph glyph-name="bullet.case" horiz-adv-x="625" 
d="M311 126c-126 0 -225 99 -225 228c0 126 99 225 225 225c123 0 228 -99 228 -225c0 -129 -105 -228 -228 -228z" />
    <glyph glyph-name="parenleft" unicode="(" horiz-adv-x="426" 
d="M340 -87v-63c-186 40 -254 208 -254 428s68 387 254 427v-63c-130 -30 -188 -164 -188 -364s58 -335 188 -365z" />
    <glyph glyph-name="parenright" unicode=")" horiz-adv-x="426" 
d="M86 -87c130 30 188 165 188 365s-58 334 -188 364v63c186 -40 254 -207 254 -427s-68 -388 -254 -428v63z" />
    <glyph glyph-name="braceleft" unicode="{" horiz-adv-x="579" 
d="M271 649l-50 10v-20c147 -48 194 -149 194 -238c0 -34 -13 -79 -35 -121c22 -42 35 -87 35 -121c0 -89 -47 -190 -194 -238v-20l50 10h222v-56h-292v97c124 55 148 129 148 217c0 19 -2 37 -6 54c-34 -42 -77 -73 -125 -73c-69 0 -132 47 -132 130s63 130 132 130
c48 0 91 -31 125 -73c4 17 6 35 6 54c0 88 -24 162 -148 217v97h292v-56h-222zM223 206c38 0 76 28 100 74c-24 46 -62 74 -100 74c-41 0 -71 -31 -71 -74s30 -74 71 -74z" />
    <glyph glyph-name="braceright" unicode="}" horiz-adv-x="579" 
d="M361 150c-48 0 -91 31 -125 73c-4 -17 -6 -35 -6 -54c0 -88 24 -162 148 -217v-97h-292v56h222l50 -10v20c-147 48 -194 149 -194 238c0 34 13 79 35 121c-22 42 -35 87 -35 121c0 89 47 190 194 238v20l-50 -10h-222v56h292v-97c-124 -55 -148 -129 -148 -217
c0 -19 2 -37 6 -54c34 42 77 73 125 73c69 0 132 -47 132 -130s-63 -130 -132 -130zM356 354c-38 0 -76 -28 -100 -74c24 -46 62 -74 100 -74c41 0 71 31 71 74s-30 74 -71 74z" />
    <glyph glyph-name="bracketleft" unicode="[" horiz-adv-x="425" 
d="M86 705h253v-56h-188v-743h188v-56h-253v855z" />
    <glyph glyph-name="bracketright" unicode="]" horiz-adv-x="425" 
d="M339 705v-855h-253v56h188v743h-188v56h253z" />
    <glyph glyph-name="parenleft.case" horiz-adv-x="426" 
d="M340 -12v-63c-186 40 -254 208 -254 428s68 387 254 427v-63c-130 -30 -188 -164 -188 -364s58 -335 188 -365z" />
    <glyph glyph-name="parenright.case" horiz-adv-x="426" 
d="M86 -12c130 30 188 165 188 365s-58 334 -188 364v63c186 -40 254 -207 254 -427s-68 -388 -254 -428v63z" />
    <glyph glyph-name="braceleft.case" horiz-adv-x="579" 
d="M271 719l-50 10v-20c147 -48 194 -149 194 -238c0 -34 -13 -79 -35 -121c22 -42 35 -87 35 -121c0 -89 -47 -190 -194 -238v-20l50 10h222v-56h-292v97c124 55 148 129 148 217c0 19 -2 37 -6 54c-34 -42 -77 -73 -125 -73c-69 0 -132 47 -132 130s63 130 132 130
c48 0 91 -31 125 -73c4 17 6 35 6 54c0 88 -24 162 -148 217v97h292v-56h-222zM223 276c38 0 76 28 100 74c-24 46 -62 74 -100 74c-41 0 -71 -31 -71 -74s30 -74 71 -74z" />
    <glyph glyph-name="braceright.case" horiz-adv-x="540" 
d="M322 220c-48 0 -91 31 -125 73c-4 -17 -6 -35 -6 -54c0 -88 24 -162 148 -217v-97h-292v56h222l50 -10v20c-147 48 -194 149 -194 238c0 34 13 79 35 121c-22 42 -35 87 -35 121c0 89 47 190 194 238v20l-50 -10h-222v56h292v-97c-124 -55 -148 -129 -148 -217
c0 -19 2 -37 6 -54c34 42 77 73 125 73c69 0 132 -47 132 -130s-63 -130 -132 -130zM317 424c-38 0 -76 -28 -100 -74c24 -46 62 -74 100 -74c41 0 71 31 71 74s-30 74 -71 74z" />
    <glyph glyph-name="bracketleft.case" horiz-adv-x="425" 
d="M86 780h253v-56h-188v-743h188v-56h-253v855z" />
    <glyph glyph-name="bracketright.case" horiz-adv-x="425" 
d="M339 780v-855h-253v56h188v743h-188v56h253z" />
    <glyph glyph-name="braceleft.ss01" horiz-adv-x="477" 
d="M86 310c132 17 164 83 164 146c0 92 -49 139 -123 149v100h264v-56h-194l-50 10v-20c133 -23 169 -93 169 -180c0 -80 -52 -152 -151 -172v-20c99 -20 151 -93 151 -173c0 -86 -36 -154 -169 -178v-20l50 10h194v-56h-264v100c75 11 123 56 123 147
c0 63 -32 130 -164 147v66z" />
    <glyph glyph-name="braceright.ss01" horiz-adv-x="477" 
d="M391 310v-66c-132 -17 -164 -84 -164 -147c0 -91 48 -136 123 -147v-100h-264v56h194l50 -10v20c-133 24 -169 92 -169 178c0 80 52 153 151 173v20c-99 20 -151 92 -151 172c0 87 36 157 169 180v20l-50 -10h-194v56h264v-100c-74 -10 -123 -57 -123 -149
c0 -63 32 -129 164 -146z" />
    <glyph glyph-name="braceleft.case.ss01" horiz-adv-x="477" 
d="M86 385c132 17 164 83 164 146c0 92 -49 139 -123 149v100h264v-56h-194l-50 10v-20c133 -23 169 -93 169 -180c0 -80 -52 -152 -151 -172v-20c99 -20 151 -93 151 -173c0 -86 -36 -154 -169 -178v-20l50 10h194v-56h-264v100c75 11 123 56 123 147
c0 63 -32 130 -164 147v66z" />
    <glyph glyph-name="braceright.case.ss01" horiz-adv-x="477" 
d="M391 385v-66c-132 -17 -164 -84 -164 -147c0 -91 48 -136 123 -147v-100h-264v56h194l50 -10v20c-133 24 -169 92 -169 178c0 80 52 153 151 173v20c-99 20 -151 92 -151 172c0 87 36 157 169 180v20l-50 -10h-194v56h264v-100c-74 -10 -123 -57 -123 -149
c0 -63 32 -129 164 -146z" />
    <glyph glyph-name="hyphen" unicode="-" horiz-adv-x="636" 
d="M86 276h464v-56h-464v56z" />
    <glyph glyph-name="endash" unicode="&#x2013;" horiz-adv-x="836" 
d="M86 276h664v-56h-664v56z" />
    <glyph glyph-name="emdash" unicode="&#x2014;" horiz-adv-x="1036" 
d="M86 276h864v-56h-864v56z" />
    <glyph glyph-name="underscore" unicode="_" horiz-adv-x="596" 
d="M66 -50h464v-56h-464v56z" />
    <glyph glyph-name="hyphen.case" horiz-adv-x="636" 
d="M86 381h464v-56h-464v56z" />
    <glyph glyph-name="endash.case" horiz-adv-x="836" 
d="M86 381h664v-56h-664v56z" />
    <glyph glyph-name="emdash.case" horiz-adv-x="1036" 
d="M86 381h864v-56h-864v56z" />
    <glyph glyph-name="quotesinglbase" unicode="&#x201a;" horiz-adv-x="310" 
d="M160 159l64 -17l-74 -276l-64 17z" />
    <glyph glyph-name="quotedblbase" unicode="&#x201e;" horiz-adv-x="439" 
d="M160 159l64 -17l-74 -276l-64 17zM289 159l64 -17l-74 -276l-64 17z" />
    <glyph glyph-name="quotedblleft" unicode="&#x201c;" horiz-adv-x="426" 
d="M150 740l62 -232l-64 -17l-62 232zM278 740l62 -232l-64 -17l-62 232z" />
    <glyph glyph-name="quotedblright" unicode="&#x201d;" horiz-adv-x="426" 
d="M148 740l64 -17l-62 -232l-64 17zM276 740l64 -17l-62 -232l-64 17z" />
    <glyph glyph-name="quoteleft" unicode="&#x2018;" horiz-adv-x="298" 
d="M150 740l62 -232l-64 -17l-62 232z" />
    <glyph glyph-name="quoteright" unicode="&#x2019;" horiz-adv-x="298" 
d="M148 740l64 -17l-62 -232l-64 17z" />
    <glyph glyph-name="guillemotleft" unicode="&#xab;" horiz-adv-x="673" 
d="M401 20l-46 -40l-269 268l269 267l46 -40l-229 -227zM587 20l-46 -40l-269 268l269 267l46 -40l-229 -227z" />
    <glyph glyph-name="guillemotright" unicode="&#xbb;" horiz-adv-x="673" 
d="M86 20l229 228l-229 227l46 40l269 -267l-269 -268zM272 20l229 228l-229 227l46 40l269 -267l-269 -268z" />
    <glyph glyph-name="guilsinglleft" unicode="&#x2039;" horiz-adv-x="487" 
d="M401 20l-46 -40l-269 268l269 267l46 -40l-229 -227z" />
    <glyph glyph-name="guilsinglright" unicode="&#x203a;" horiz-adv-x="487" 
d="M86 20l229 228l-229 227l46 40l269 -267l-269 -268z" />
    <glyph glyph-name="quotedbl" unicode="&#x22;" horiz-adv-x="364" 
d="M86 735h66v-240h-66v240zM212 735h66v-240h-66v240z" />
    <glyph glyph-name="quotesingle" unicode="'" horiz-adv-x="238" 
d="M86 735h66v-240h-66v240z" />
    <glyph glyph-name="guillemotleft.case" horiz-adv-x="673" 
d="M401 125l-46 -40l-269 268l269 267l46 -40l-229 -227zM587 125l-46 -40l-269 268l269 267l46 -40l-229 -227z" />
    <glyph glyph-name="guillemotright.case" horiz-adv-x="673" 
d="M86 125l229 228l-229 227l46 40l269 -267l-269 -268zM272 125l229 228l-229 227l46 40l269 -267l-269 -268z" />
    <glyph glyph-name="guilsinglleft.case" horiz-adv-x="487" 
d="M401 125l-46 -40l-269 268l269 267l46 -40l-229 -227z" />
    <glyph glyph-name="guilsinglright.case" horiz-adv-x="487" 
d="M86 125l229 228l-229 227l46 40l269 -267l-269 -268z" />
    <glyph glyph-name="cent" unicode="&#xa2;" horiz-adv-x="645" 
d="M351 152c67 4 126 39 141 137h67c-13 -136 -122 -188 -208 -193v-244l-56 1v245c-136 18 -209 128 -209 255c0 126 73 236 208 254v246l56 -1v-242c86 -6 196 -58 209 -194h-67c-15 98 -74 133 -142 138zM152 353c0 -96 45 -180 143 -198l-1 395
c-97 -18 -142 -102 -142 -197z" />
    <glyph glyph-name="currency" unicode="&#xa4;" horiz-adv-x="778" 
d="M591 335c0 -46 -14 -89 -39 -123l140 -140l-40 -40l-140 140c-33 -25 -75 -39 -123 -39s-90 14 -123 39l-140 -140l-40 40l140 140c-25 34 -39 77 -39 123s14 89 39 123l-140 140l40 40l140 -140c33 25 75 39 123 39s90 -14 123 -39l140 140l40 -40l-140 -140
c25 -34 39 -77 39 -123zM389 189c86 0 146 67 146 146s-60 146 -146 146s-146 -67 -146 -146s60 -146 146 -146z" />
    <glyph glyph-name="dollar" unicode="$" horiz-adv-x="749" 
d="M663 175c0 -101 -57 -184 -260 -185v-138h-56v140c-203 14 -261 120 -261 270h66c0 -157 75 -205 195 -214v296c-135 40 -229 78 -229 199c0 103 68 168 229 172v138h56v-140c174 -16 231 -136 231 -238h-66c0 110 -72 168 -165 181v-267c130 -39 260 -78 260 -214z
M184 547c0 -77 61 -108 163 -140v252c-94 -3 -163 -30 -163 -112zM403 46c120 1 194 31 194 124c0 100 -95 131 -194 159v-283z" />
    <glyph glyph-name="Euro" unicode="&#x20ac;" horiz-adv-x="801" 
d="M458 46c118 0 178 69 193 173h64c-22 -136 -109 -229 -257 -229c-166 0 -255 114 -277 276h-95v56h90c-1 10 -1 21 -1 31s0 19 1 29h-90v56h95c22 162 111 277 277 277c148 0 235 -92 257 -228h-65c-14 104 -74 172 -192 172c-135 0 -195 -90 -212 -221h238v-56h-242
c-1 -10 -1 -19 -1 -29s0 -21 1 -31h242v-56h-238c17 -130 77 -220 212 -220z" />
    <glyph glyph-name="sterling" unicode="&#xa3;" horiz-adv-x="610" 
d="M394 649c-113 9 -169 -11 -169 -97c0 -63 34 -117 55 -181h204v-56h-190c2 -13 3 -27 3 -41c0 -100 -60 -160 -191 -208v-20l50 10h368v-56h-438v115c98 34 145 83 145 159c0 14 -2 27 -5 41h-140v56h124c-22 58 -51 116 -51 181c0 142 115 162 235 153l130 -10v-56z" />
    <glyph glyph-name="yen" unicode="&#xa5;" horiz-adv-x="746" 
d="M660 705l-236 -404h148v-56h-166v-50h166v-56h-166v-139h-66v139h-166v56h166v50h-166v56h148l-236 404h71l206 -354v-50h20v50l206 354h71z" />
    <glyph glyph-name="plus" unicode="+" horiz-adv-x="636" 
d="M550 276v-56h-204v-204h-56v204h-204v56h204v204h56v-204h204z" />
    <glyph glyph-name="minus" unicode="&#x2212;" horiz-adv-x="636" 
d="M86 276h464v-56h-464v56z" />
    <glyph glyph-name="multiply" unicode="&#xd7;" horiz-adv-x="540" 
d="M454 393l-144 -144l144 -145l-40 -39l-144 144l-144 -144l-40 39l145 145l-145 144l40 39l144 -144l144 144z" />
    <glyph glyph-name="divide" unicode="&#xf7;" horiz-adv-x="636" 
d="M318 351c-43 0 -77 34 -77 78c0 43 34 77 77 77c42 0 78 -34 78 -77c0 -44 -36 -78 -78 -78zM86 276h464v-56h-464v56zM318 -10c-43 0 -77 34 -77 78c0 43 34 77 77 77c42 0 78 -34 78 -77c0 -44 -36 -78 -78 -78z" />
    <glyph glyph-name="equal" unicode="=" horiz-adv-x="636" 
d="M86 376h464v-56h-464v56zM86 176h464v-56h-464v56z" />
    <glyph glyph-name="notequal" unicode="&#x2260;" horiz-adv-x="636" 
d="M550 320h-158l-83 -144h241v-56h-274l-84 -146l-48 28l68 118h-126v56h158l83 144h-241v56h274l84 146l48 -28l-68 -118h126v-56z" />
    <glyph glyph-name="greater" unicode="&#x3e;" horiz-adv-x="636" 
d="M550 212l-440 -150l-24 54l392 131l-392 133l24 54l440 -152v-70z" />
    <glyph glyph-name="less" unicode="&#x3c;" horiz-adv-x="636" 
d="M86 212v70l440 152l24 -54l-392 -133l392 -131l-24 -54z" />
    <glyph glyph-name="greaterequal" unicode="&#x2265;" horiz-adv-x="636" 
d="M550 292l-440 -150l-24 54l392 131l-392 133l24 54l440 -152v-70zM86 86h464v-56h-464v56z" />
    <glyph glyph-name="lessequal" unicode="&#x2264;" horiz-adv-x="636" 
d="M86 292v70l440 152l24 -54l-392 -133l392 -131l-24 -54zM550 86v-56h-464v56h464z" />
    <glyph glyph-name="plusminus" unicode="&#xb1;" horiz-adv-x="636" 
d="M346 351h204v-56h-204v-143h-56v143h-204v56h204v144h56v-144zM86 30v56h464v-56h-464z" />
    <glyph glyph-name="approxequal" unicode="&#x2248;" horiz-adv-x="636" 
d="M86 290c0 96 64 126 113 126c96 0 162 -80 238 -80c26 0 57 10 57 70h56c0 -96 -64 -126 -113 -126c-96 0 -162 80 -238 80c-26 0 -57 -10 -57 -70h-56zM86 90c0 96 64 126 113 126c96 0 162 -80 238 -80c26 0 57 10 57 70h56c0 -96 -64 -126 -113 -126
c-96 0 -162 80 -238 80c-26 0 -57 -10 -57 -70h-56z" />
    <glyph glyph-name="asciitilde" unicode="~" horiz-adv-x="636" 
d="M86 190c0 96 64 126 113 126c96 0 162 -80 238 -80c26 0 57 10 57 70h56c0 -96 -64 -126 -113 -126c-96 0 -162 80 -238 80c-26 0 -57 -10 -57 -70h-56z" />
    <glyph glyph-name="logicalnot" unicode="&#xac;" horiz-adv-x="636" 
d="M550 351v-231h-56v175h-408v56h464z" />
    <glyph glyph-name="asciicircum" unicode="^" horiz-adv-x="539" 
d="M387 386l-107 299h-20l-108 -299h-66l117 319h134l116 -319h-66z" />
    <glyph glyph-name="emptyset" unicode="&#x2205;" horiz-adv-x="980" 
d="M718 620c110 -72 176 -197 176 -339c0 -223 -162 -404 -404 -404c-66 0 -126 14 -179 38l-61 -106l-49 28l61 105c-110 72 -176 197 -176 339c0 223 162 404 404 404c66 0 126 -14 179 -38l61 106l49 -28zM142 281c0 -118 56 -225 149 -288l349 604
c-44 21 -95 32 -150 32c-206 0 -348 -160 -348 -348zM490 -67c206 0 348 160 348 348c0 118 -56 225 -149 288l-349 -604c44 -21 95 -32 150 -32z" />
    <glyph glyph-name="infinity" unicode="&#x221e;" horiz-adv-x="1004" 
d="M86 300c0 107 80 181 195 181c107 0 169 -69 221 -135c52 66 114 135 221 135c115 0 195 -74 195 -181s-80 -181 -195 -181c-107 0 -169 69 -221 135c-52 -66 -114 -135 -221 -135c-115 0 -195 74 -195 181zM152 300c0 -76 50 -125 129 -125c81 0 134 56 187 125
c-53 69 -106 125 -187 125c-79 0 -129 -49 -129 -125zM536 300c53 -69 106 -125 187 -125c79 0 129 49 129 125s-50 125 -129 125c-81 0 -134 -56 -187 -125z" />
    <glyph glyph-name="integral" unicode="&#x222b;" horiz-adv-x="672" 
d="M86 -180v56h137l165 780c7 32 27 49 60 49h138v-56h-137l-165 -780c-7 -32 -27 -49 -60 -49h-138z" />
    <glyph glyph-name="product" unicode="&#x220f;" horiz-adv-x="749" 
d="M663 705v-56h-130v-829h-66v829h-185v-829h-66v829h-130v56h577z" />
    <glyph glyph-name="summation" unicode="&#x2211;" horiz-adv-x="585" 
d="M86 -180v86l298 347v20l-298 346v86h413v-56h-302l-50 10v-20l300 -346v-60l-300 -347v-20l50 10h302v-56h-413z" />
    <glyph glyph-name="radical" unicode="&#x221a;" horiz-adv-x="797" 
d="M468 657c7 33 27 48 60 48h183v-56h-184l-189 -829h-134l-118 385h63l112 -365h20z" />
    <glyph glyph-name="partialdiff" unicode="&#x2202;" horiz-adv-x="701" 
d="M615 319c0 -206 -104 -329 -268 -329c-170 0 -261 110 -261 262c0 146 97 253 252 253c112 0 199 -70 221 -187h20l-10 50c-20 171 -186 281 -392 311v56c248 -30 438 -178 438 -416zM549 252c0 118 -84 197 -211 197c-118 0 -186 -80 -186 -197c0 -129 65 -206 195 -206
c132 0 202 100 202 206z" />
    <glyph glyph-name="percent" unicode="%" horiz-adv-x="1158" 
d="M698 814l53 -18l-298 -905l-53 18zM288 341c-121 0 -202 91 -202 202s81 202 202 202s202 -91 202 -202s-81 -202 -202 -202zM288 397c86 0 146 67 146 146s-60 146 -146 146s-146 -67 -146 -146s60 -146 146 -146zM870 -10c-121 0 -202 91 -202 202s81 202 202 202
s202 -91 202 -202s-81 -202 -202 -202zM870 46c86 0 146 67 146 146s-60 146 -146 146s-146 -67 -146 -146s60 -146 146 -146z" />
    <glyph glyph-name="perthousand" unicode="&#x2030;" horiz-adv-x="1641" 
d="M698 814l53 -18l-298 -905l-53 18zM288 341c-121 0 -202 91 -202 202s81 202 202 202s202 -91 202 -202s-81 -202 -202 -202zM288 397c86 0 146 67 146 146s-60 146 -146 146s-146 -67 -146 -146s60 -146 146 -146zM870 -10c-121 0 -202 91 -202 202s81 202 202 202
s202 -91 202 -202s-81 -202 -202 -202zM1353 -10c-121 0 -202 91 -202 202s81 202 202 202s202 -91 202 -202s-81 -202 -202 -202zM870 46c86 0 146 67 146 146s-60 146 -146 146s-146 -67 -146 -146s60 -146 146 -146zM1353 46c86 0 146 67 146 146s-60 146 -146 146
s-146 -67 -146 -146s60 -146 146 -146z" />
    <glyph glyph-name="arrowup" unicode="&#x2191;" horiz-adv-x="707" 
d="M621 256l-40 -46l-198 199v-432h-61v431l-196 -198l-40 46l267 269z" />
    <glyph glyph-name="uni2197" unicode="&#x2197;" horiz-adv-x="579" 
d="M114 443l379 2l-1 -380l-61 -4l1 281l-305 -306l-44 43l305 305l-278 -2z" />
    <glyph glyph-name="arrowright" unicode="&#x2192;" horiz-adv-x="720" 
d="M365 515l269 -267l-269 -268l-46 40l199 198h-432v61h431l-198 196z" />
    <glyph glyph-name="uni2198" unicode="&#x2198;" horiz-adv-x="579" 
d="M492 417l1 -380l-379 2l-4 61l278 -2l-305 305l44 43l305 -306l-1 281z" />
    <glyph glyph-name="arrowdown" unicode="&#x2193;" horiz-adv-x="707" 
d="M581 292l40 -46l-268 -269l-267 269l40 46l196 -198v431h61v-432z" />
    <glyph glyph-name="uni2199" unicode="&#x2199;" horiz-adv-x="579" 
d="M496 403l-305 -305l278 2l-4 -61l-379 -2l1 380l61 4l-1 -281l305 306z" />
    <glyph glyph-name="arrowleft" unicode="&#x2190;" horiz-adv-x="720" 
d="M634 279v-61h-432l199 -198l-46 -40l-269 268l269 267l46 -40l-198 -196h431z" />
    <glyph glyph-name="uni2196" unicode="&#x2196;" horiz-adv-x="579" 
d="M496 79l-44 -43l-305 306l1 -281l-61 4l-1 380l379 -2l4 -61l-278 2z" />
    <glyph glyph-name="arrowboth" unicode="&#x2194;" horiz-adv-x="1100" 
d="M745 595l269 -267l-269 -268l-46 40l199 198h-432v61h431l-198 196zM401 395l-198 -196h431v-61h-432l199 -198l-46 -40l-269 268l269 267z" />
    <glyph glyph-name="arrowupdn" unicode="&#x2195;" horiz-adv-x="847" 
d="M312 157v431l-196 -198l-40 46l267 269l268 -269l-40 -46l-198 199v-432h-61zM731 91l40 -46l-268 -269l-267 269l40 46l196 -198v431h61v-432z" />
    <glyph glyph-name="lozenge" unicode="&#x25ca;" horiz-adv-x="539" 
d="M337 705l116 -319l-116 -319h-134l-117 319l117 319h134zM280 87l107 299l-107 299h-20l-108 -299l108 -299h20z" />
    <glyph glyph-name="at" unicode="@" horiz-adv-x="1050" 
d="M698 96v34l10 50h-20c-20 -80 -90 -141 -201 -141c-144 0 -241 109 -241 258c0 148 97 257 241 257c111 0 181 -61 201 -141h20l-10 50v52h66v-419h23c101 0 121 106 121 195c0 204 -154 368 -378 368s-388 -164 -388 -368c0 -214 154 -374 408 -358l326 20v-56l-326 -20
c-290 -18 -464 164 -464 414c0 240 184 424 444 424s434 -184 434 -424c0 -105 -36 -251 -177 -251h-34c-35 0 -55 20 -55 56zM500 95c106 0 198 60 198 202c0 141 -92 201 -198 201s-188 -60 -188 -201c0 -142 82 -202 188 -202z" />
    <glyph glyph-name="ampersand" unicode="&#x26;" horiz-adv-x="942" 
d="M856 -17l-52 -34l-108 137c-73 -73 -172 -114 -294 -114c-183 0 -316 103 -316 265c0 147 100 238 218 238c57 0 95 -29 111 -49v20l-169 215l-1 44h522v-56h-433l363 -464c50 80 76 185 76 310h66c0 -146 -35 -270 -101 -361zM402 28c108 0 195 38 257 106l-148 188
c-57 72 -103 97 -181 97c-107 0 -178 -66 -178 -182c0 -131 102 -209 250 -209z" />
    <glyph glyph-name="paragraph" unicode="&#xb6;" horiz-adv-x="638" 
d="M86 624c0 124 54 229 294 229h56v-1001h-56v543c-240 0 -294 105 -294 229zM496 853h56v-1001h-56v1001z" />
    <glyph glyph-name="section" unicode="&#xa7;" horiz-adv-x="582" 
d="M86 361c0 52 22 99 96 122c-47 23 -70 54 -70 104c0 76 64 128 173 128c151 0 194 -85 194 -163h-66c0 73 -44 107 -128 107c-59 0 -107 -18 -107 -68c0 -52 31 -67 111 -93c98 -32 207 -54 207 -161c0 -52 -22 -99 -96 -122c47 -23 70 -54 70 -104
c0 -76 -64 -128 -173 -128c-151 0 -194 85 -194 163h66c0 -73 44 -107 128 -107c59 0 107 18 107 68c0 52 -31 67 -111 93c-98 32 -207 54 -207 161zM152 376c0 -73 76 -91 147 -117c79 -29 131 7 131 63c0 73 -76 93 -147 117c-80 27 -131 -7 -131 -63z" />
    <glyph glyph-name="copyright" unicode="&#xa9;" horiz-adv-x="1040" 
d="M520 -153c-260 0 -434 194 -434 434s174 434 434 434s434 -194 434 -434s-174 -434 -434 -434zM520 -97c224 0 378 174 378 378s-154 378 -378 378s-378 -174 -378 -378s154 -378 378 -378zM278 282c0 138 88 257 249 257c88 0 210 -50 224 -194h-67
c-16 105 -83 138 -157 138c-126 0 -183 -94 -183 -201c0 -108 57 -202 183 -202c74 0 141 33 157 138h67c-14 -144 -136 -194 -224 -194c-161 0 -249 119 -249 258z" />
    <glyph glyph-name="registered" unicode="&#xae;" horiz-adv-x="636" 
d="M318 281c-139 0 -232 104 -232 232s93 232 232 232s232 -104 232 -232s-93 -232 -232 -232zM318 327c110 0 186 86 186 186s-76 186 -186 186s-186 -86 -186 -186s76 -186 186 -186zM219 399v231h94c57 0 114 -13 114 -67c0 -37 -23 -47 -65 -51v-20h40
c16 0 25 -9 25 -25v-68h-46v78h-116v-78h-46zM265 523h48c42 0 68 0 68 31c0 30 -26 30 -68 30h-48v-61z" />
    <glyph glyph-name="trademark" unicode="&#x2122;" horiz-adv-x="875" 
d="M352 705v-46h-105v-288h-55v288h-106v46h266zM677 705h112v-334h-56v290l5 24h-10l-79 -314h-114l-80 314h-9l4 -24v-290h-56v334h113l80 -314h9z" />
    <glyph glyph-name="degree" unicode="&#xb0;" horiz-adv-x="576" 
d="M288 341c-121 0 -202 91 -202 202s81 202 202 202s202 -91 202 -202s-81 -202 -202 -202zM288 397c86 0 146 67 146 146s-60 146 -146 146s-146 -67 -146 -146s60 -146 146 -146z" />
    <glyph glyph-name="bar" unicode="|" horiz-adv-x="228" 
d="M86 853h56v-1001h-56v1001z" />
    <glyph glyph-name="brokenbar" unicode="&#xa6;" horiz-adv-x="228" 
d="M86 483v370h56v-370h-56zM142 222v-370h-56v370h56z" />
    <glyph glyph-name="dagger" unicode="&#x2020;" horiz-adv-x="552" 
d="M466 654v-56h-162v-447h-56v447h-162v56h162v199h56v-199h162z" />
    <glyph glyph-name="daggerdbl" unicode="&#x2021;" horiz-adv-x="552" 
d="M466 598h-162v-192h162v-56h-162v-199h-56v199h-162v56h162v192h-162v56h162v199h56v-199h162v-56z" />
    <glyph glyph-name="ampersand.ss01" horiz-adv-x="821" 
d="M735 28l-29 -51c-47 29 -93 60 -137 92c-65 -50 -148 -79 -247 -79c-130 0 -236 63 -236 180c0 116 77 167 169 204c-34 54 -54 106 -54 154c0 116 80 187 209 187c107 0 175 -55 175 -155c0 -113 -118 -169 -232 -209c-1 0 -2 -1 -4 -1c55 -68 131 -139 219 -206
c66 71 100 177 100 309h66c0 -139 -42 -260 -120 -343c39 -29 80 -56 121 -82zM267 528c0 -40 18 -84 48 -132c7 3 13 5 19 7c114 40 185 76 185 157c0 63 -33 99 -109 99c-98 0 -143 -53 -143 -131zM322 46c80 0 148 20 201 58c-94 72 -177 148 -234 222
c-86 -35 -137 -76 -137 -156c0 -78 70 -124 170 -124z" />
    <glyph glyph-name="uni0308" unicode="&#x308;" horiz-adv-x="0" 
d="M-349 580c-37 0 -67 31 -67 68c0 36 30 67 67 67s68 -31 68 -67c0 -37 -31 -68 -68 -68zM-154 580c-37 0 -67 31 -67 68c0 36 30 67 67 67s68 -31 68 -67c0 -37 -31 -68 -68 -68z" />
    <glyph glyph-name="uni0307" unicode="&#x307;" horiz-adv-x="0" 
d="M-154 580c-37 0 -67 31 -67 68c0 36 30 67 67 67s68 -31 68 -67c0 -37 -31 -68 -68 -68z" />
    <glyph glyph-name="gravecomb" unicode="&#x300;" horiz-adv-x="0" 
d="M-86 636l-14 -54l-290 78l14 54z" />
    <glyph glyph-name="acutecomb" unicode="&#x301;" horiz-adv-x="0" 
d="M-390 636l290 78l14 -54l-290 -78z" />
    <glyph glyph-name="uni030B" unicode="&#x30b;" horiz-adv-x="0" 
d="M-404 603l131 132l39 -40l-131 -131zM-256 603l131 132l39 -40l-131 -131z" />
    <glyph glyph-name="uni0302" unicode="&#x302;" horiz-adv-x="0" 
d="M-86 604l-40 -40l-111 95l-111 -95l-40 40l151 127z" />
    <glyph glyph-name="uni030C" unicode="&#x30c;" horiz-adv-x="0" 
d="M-86 691l-151 -127l-151 127l40 40l111 -95l111 95z" />
    <glyph glyph-name="uni0306" unicode="&#x306;" horiz-adv-x="0" 
d="M-86 731c0 -102 -61 -167 -151 -167s-151 65 -151 167h56c0 -74 26 -111 95 -111s95 37 95 111h56z" />
    <glyph glyph-name="uni030A" unicode="&#x30a;" horiz-adv-x="0" 
d="M-197 560c-72 0 -110 53 -110 106c0 52 38 105 110 105s111 -53 111 -105s-39 -106 -111 -106zM-197 616c37 0 55 20 55 50c0 29 -19 49 -55 49s-54 -20 -54 -49c0 -30 18 -50 54 -50z" />
    <glyph glyph-name="tildecomb" unicode="&#x303;" horiz-adv-x="0" 
d="M-426 590c0 96 41 126 93 126c82 0 105 -80 149 -80c22 0 42 10 42 70h56c0 -96 -41 -126 -93 -126c-82 0 -105 80 -149 80c-22 0 -42 -10 -42 -70h-56z" />
    <glyph glyph-name="uni0304" unicode="&#x304;" horiz-adv-x="0" 
d="M-387 676h301v-55l-301 -1v56z" />
    <glyph glyph-name="uni0312" unicode="&#x312;" horiz-adv-x="0" 
d="M-150 771l64 -17l-47 -174l-64 17z" />
    <glyph glyph-name="uni0326" unicode="&#x326;" horiz-adv-x="0" 
d="M-155 -49l64 -17l-51 -164l-64 17z" />
    <glyph glyph-name="uni0327" unicode="&#x327;" horiz-adv-x="0" 
d="M-147 -42c32 0 61 -17 61 -55c0 -73 -73 -83 -195 -83v56c87 0 139 0 139 33c0 14 -9 21 -23 21c-18 0 -33 -4 -68 -28l-32 47l47 51h66l-56 -56c17 8 36 14 61 14z" />
    <glyph glyph-name="uni0328" unicode="&#x328;" horiz-adv-x="0" 
d="M-86 -114v-56l-200 -19c-48 -4 -69 34 -49 73l61 117h63l-71 -135z" />
    <glyph glyph-name="acute" unicode="&#xb4;" horiz-adv-x="476" 
d="M86 636l290 78l14 -54l-290 -78z" />
    <glyph glyph-name="breve" unicode="&#x2d8;" horiz-adv-x="474" 
d="M388 731c0 -102 -61 -167 -151 -167s-151 65 -151 167h56c0 -74 26 -111 95 -111s95 37 95 111h56z" />
    <glyph glyph-name="caron" unicode="&#x2c7;" horiz-adv-x="474" 
d="M388 691l-151 -127l-151 127l40 40l111 -95l111 95z" />
    <glyph glyph-name="cedilla" unicode="&#xb8;" horiz-adv-x="367" 
d="M220 -42c32 0 61 -17 61 -55c0 -73 -73 -83 -195 -83v56c87 0 139 0 139 33c0 14 -9 21 -23 21c-18 0 -33 -4 -68 -28l-32 47l47 51h66l-56 -56c17 8 36 14 61 14z" />
    <glyph glyph-name="circumflex" unicode="&#x2c6;" horiz-adv-x="474" 
d="M388 604l-40 -40l-111 95l-111 -95l-40 40l151 127z" />
    <glyph glyph-name="dieresis" unicode="&#xa8;" horiz-adv-x="502" 
d="M153 580c-37 0 -67 31 -67 68c0 36 30 67 67 67s68 -31 68 -67c0 -37 -31 -68 -68 -68zM348 580c-37 0 -67 31 -67 68c0 36 30 67 67 67s68 -31 68 -67c0 -37 -31 -68 -68 -68z" />
    <glyph glyph-name="dotaccent" unicode="&#x2d9;" horiz-adv-x="307" 
d="M153 580c-37 0 -67 31 -67 68c0 36 30 67 67 67s68 -31 68 -67c0 -37 -31 -68 -68 -68z" />
    <glyph glyph-name="grave" unicode="`" horiz-adv-x="476" 
d="M390 636l-14 -54l-290 78l14 54z" />
    <glyph glyph-name="hungarumlaut" unicode="&#x2dd;" horiz-adv-x="490" 
d="M86 603l131 132l39 -40l-131 -131zM234 603l131 132l39 -40l-131 -131z" />
    <glyph glyph-name="macron" unicode="&#xaf;" horiz-adv-x="473" 
d="M86 676h301v-55l-301 -1v56z" />
    <glyph glyph-name="ogonek" unicode="&#x2db;" horiz-adv-x="429" 
d="M343 -114v-56l-200 -19c-48 -4 -69 34 -49 73l61 117h63l-71 -135z" />
    <glyph glyph-name="ring" unicode="&#x2da;" horiz-adv-x="363" 
d="M196 560c-72 0 -110 53 -110 106c0 52 38 105 110 105s111 -53 111 -105s-39 -106 -111 -106zM196 616c37 0 55 20 55 50c0 29 -19 49 -55 49s-54 -20 -54 -49c0 -30 18 -50 54 -50z" />
    <glyph glyph-name="tilde" unicode="&#x2dc;" horiz-adv-x="512" 
d="M86 590c0 96 41 126 93 126c82 0 105 -80 149 -80c22 0 42 10 42 70h56c0 -96 -41 -126 -93 -126c-82 0 -105 80 -149 80c-22 0 -42 -10 -42 -70h-56z" />
    <glyph glyph-name="brevecombcy" horiz-adv-x="0" 
d="M-86 731c0 -102 -61 -167 -151 -167s-151 65 -151 167h56c0 -74 26 -111 95 -111s95 37 95 111h56z" />
    </font>
</defs>
</svg>
