<?xml version="1.0" standalone="no"?>
<!DOCTYPE svg PUBLIC "-//W3C//DTD SVG 1.1//EN" "http://www.w3.org/Graphics/SVG/1.1/DTD/svg11.dtd" >
<svg xmlns="http://www.w3.org/2000/svg" xmlns:xlink="http://www.w3.org/1999/xlink" version="1.1">
<metadata>
Created by FontForge 20191125 at Mon Apr  1 13:47:44 2019
 By convertio
Copyright \(c\) 2019 by Mathieu Desjardins. All rights reserved.
</metadata>
<defs>
<font id="NeueMachina-Regular" horiz-adv-x="1016" >
  <font-face 
    font-family="Neue Machina"
    font-weight="400"
    font-stretch="normal"
    units-per-em="1000"
    panose-1="0 0 5 0 0 0 0 0 0 0"
    ascent="800"
    descent="-200"
    x-height="497"
    cap-height="705"
    bbox="-445 -248 1576 984"
    underline-thickness="50"
    underline-position="-75"
    stemh="70"
    stemv="82"
    unicode-range="U+0020-277E"
  />
<missing-glyph horiz-adv-x="483" 
d="M396 735v-965h-306v965h306zM321 670h-159v-31h63v-36h-64v-32h160v32h-63v36h63v31zM258 546h-97v-100h160v32h-63v68zM225 513v-35h-32v35h32zM321 419h-160v-31h64v-36h-64v-32h97v68h63v31zM321 362h-31v-64h-129v-33h160v97zM321 244h-96v-54h33v22h32v-45h-97v77
h-32v-109h160v109zM321 77h-160v-109h160v109zM290 45v-45h-97v45h97zM321 -54h-160v-32h68l-68 -46v-31h160v31h-98l67 46h31v32z" />
    <glyph glyph-name="f_f" unicode="ff" horiz-adv-x="743" 
d="M630 665c-64 0 -83 -29 -83 -94v-74h144v-70h-144v-357h144v-70h-648v70h114v357h-114v70h114v26c0 106 52 165 168 165h176c27 30 70 47 132 47h86v-70h-89zM465 497v76c0 16 1 31 4 45h-144c-67 0 -86 -31 -86 -97v-24h226zM465 70v357h-226v-357h226z" />
    <glyph glyph-name="f_f_i" unicode="ffi" horiz-adv-x="1055" 
d="M884 70h137v-70h-978v70h114v357h-114v70h114v26c0 106 52 165 168 165h174c27 38 71 60 138 57l194 -10v-70l-198 10c-63 3 -83 -39 -83 -104v-70l268 6c47 1 66 -22 66 -68v-369zM239 521v-24h120l110 2v74c0 16 1 31 3 45h-147c-67 0 -86 -31 -86 -97zM802 70v366
l-252 -5v-361h252zM469 70v359l-90 -2h-140v-357h230z" />
    <glyph glyph-name="f_i" unicode="fi" horiz-adv-x="739" 
d="M568 70h137v-70h-662v70h111v359l-111 -2v70l111 2v74c0 103 48 178 167 172l194 -10v-70l-198 10c-63 3 -83 -39 -83 -104v-70l269 6c46 1 65 -22 65 -68v-369zM486 70v366l-252 -5v-361h252z" />
    <glyph glyph-name=".notdef" horiz-adv-x="483" 
d="M396 735v-965h-306v965h306zM321 670h-159v-31h63v-36h-64v-32h160v32h-63v36h63v31zM258 546h-97v-100h160v32h-63v68zM225 513v-35h-32v35h32zM321 419h-160v-31h64v-36h-64v-32h97v68h63v31zM321 362h-31v-64h-129v-33h160v97zM321 244h-96v-54h33v22h32v-45h-97v77
h-32v-109h160v109zM321 77h-160v-109h160v109zM290 45v-45h-97v45h97zM321 -54h-160v-32h68l-68 -46v-31h160v31h-98l67 46h31v32z" />
    <glyph glyph-name="space" unicode=" " horiz-adv-x="332" 
 />
    <glyph glyph-name="A" unicode="A" horiz-adv-x="690" 
d="M575 0l-89 276h-283l-88 -276h-82l228 705h168l227 -705h-81zM226 346h238l-108 336h-23z" />
    <glyph glyph-name="Aacute" unicode="&#xc1;" horiz-adv-x="690" 
d="M504 865l-306 -79l-17 64l307 79zM575 0l-89 276h-283l-88 -276h-82l228 705h168l227 -705h-81zM226 346h238l-108 336h-23z" />
    <glyph glyph-name="Abreve" unicode="&#x102;" horiz-adv-x="690" 
d="M345 771c-98 0 -157 70 -157 172h67c0 -73 26 -107 90 -107s89 34 89 107h67c0 -102 -59 -172 -156 -172zM575 0l-89 276h-283l-88 -276h-82l228 705h168l227 -705h-81zM226 346h238l-108 336h-23z" />
    <glyph glyph-name="Acircumflex" unicode="&#xc2;" horiz-adv-x="690" 
d="M345 863l-114 -94l-48 46l162 131l162 -131l-47 -46zM575 0l-89 276h-283l-88 -276h-82l228 705h168l227 -705h-81zM226 346h238l-108 336h-23z" />
    <glyph glyph-name="Adieresis" unicode="&#xc4;" horiz-adv-x="690" 
d="M242 784c-42 0 -73 30 -73 70c0 38 31 69 73 69c41 0 73 -31 73 -69c0 -40 -32 -70 -73 -70zM448 784c-42 0 -73 30 -73 70c0 38 31 69 73 69c41 0 73 -31 73 -69c0 -40 -32 -70 -73 -70zM575 0l-89 276h-283l-88 -276h-82l228 705h168l227 -705h-81zM226 346h238
l-108 336h-23z" />
    <glyph glyph-name="Agrave" unicode="&#xc0;" horiz-adv-x="690" 
d="M508 850l-16 -64l-307 79l17 64zM575 0l-89 276h-283l-88 -276h-82l228 705h168l227 -705h-81zM226 346h238l-108 336h-23z" />
    <glyph glyph-name="Amacron" unicode="&#x100;" horiz-adv-x="690" 
d="M507 891v-65l-323 -1v66h323zM575 0l-89 276h-283l-88 -276h-82l228 705h168l227 -705h-81zM226 346h238l-108 336h-23z" />
    <glyph glyph-name="Aogonek" unicode="&#x104;" horiz-adv-x="690" 
d="M590 -125l186 19v-67l-197 -18c-52 -4 -77 38 -55 79l60 112h-9l-89 276h-283l-88 -276h-82l228 705h168l227 -704v-1h-1zM226 346h238l-108 336h-23z" />
    <glyph glyph-name="Aring" unicode="&#xc5;" horiz-adv-x="690" 
d="M344 767c-76 0 -118 51 -118 109c0 57 42 108 118 108s119 -51 119 -108s-43 -109 -119 -109zM344 922c-33 0 -51 -18 -51 -46c0 -29 18 -47 51 -47c35 0 52 18 52 47c0 28 -18 46 -52 46zM575 0l-89 276h-283l-88 -276h-82l228 705h168l227 -705h-81zM226 346h238
l-108 336h-23z" />
    <glyph glyph-name="Atilde" unicode="&#xc3;" horiz-adv-x="690" 
d="M272 870c-22 0 -41 -10 -41 -70h-67c0 99 44 137 102 137c84 0 108 -80 152 -80c22 0 41 10 41 70h67c0 -100 -44 -137 -102 -137c-84 0 -108 80 -152 80zM575 0l-89 276h-283l-88 -276h-82l228 705h168l227 -705h-81zM226 346h238l-108 336h-23z" />
    <glyph glyph-name="AE" unicode="&#xc6;" horiz-adv-x="1002" 
d="M948 635h-354v-247h304v-70h-304v-248h354v-70h-436v277h-238l-154 -277h-87l393 705h522v-70zM313 347h199v335h-13z" />
    <glyph glyph-name="B" unicode="B" horiz-adv-x="646" 
d="M73 0v705h187c172 0 271 -34 271 -173c0 -102 -68 -144 -141 -149v-24c108 -2 193 -46 193 -172c0 -142 -107 -187 -278 -187h-232zM155 402h108c115 0 186 17 186 117c0 109 -71 116 -186 116h-108v-233zM155 70h153c120 0 193 20 193 131c0 103 -73 131 -193 131h-153
v-262z" />
    <glyph glyph-name="C" unicode="C" horiz-adv-x="775" 
d="M63 353c0 205 123 362 330 362c180 0 298 -108 319 -282h-82c-16 135 -99 212 -237 212c-164 0 -248 -122 -248 -292c0 -171 84 -293 248 -293c138 0 221 78 237 213h82c-21 -175 -139 -283 -319 -283c-207 0 -330 157 -330 363z" />
    <glyph glyph-name="Cacute" unicode="&#x106;" horiz-adv-x="775" 
d="M229 850l307 79l16 -64l-306 -79zM63 353c0 205 123 362 330 362c180 0 298 -108 319 -282h-82c-16 135 -99 212 -237 212c-164 0 -248 -122 -248 -292c0 -171 84 -293 248 -293c138 0 221 78 237 213h82c-21 -175 -139 -283 -319 -283c-207 0 -330 157 -330 363z" />
    <glyph glyph-name="Ccaron" unicode="&#x10c;" horiz-adv-x="775" 
d="M554 901l-162 -131l-162 131l48 46l114 -94l115 94zM63 353c0 205 123 362 330 362c180 0 298 -108 319 -282h-82c-16 135 -99 212 -237 212c-164 0 -248 -122 -248 -292c0 -171 84 -293 248 -293c138 0 221 78 237 213h82c-21 -175 -139 -283 -319 -283
c-207 0 -330 157 -330 363z" />
    <glyph glyph-name="Ccedilla" unicode="&#xc7;" horiz-adv-x="775" 
d="M393 60c138 0 221 78 237 213h82c-20 -167 -129 -274 -296 -282l-46 -48c18 9 39 15 65 15c34 0 65 -16 65 -56c0 -77 -83 -87 -209 -87v62c91 0 143 -1 143 31c0 13 -9 20 -23 20c-18 0 -34 -4 -70 -26l-35 46l38 45c-177 23 -281 171 -281 360c0 205 123 362 330 362
c180 0 298 -108 319 -282h-82c-16 135 -99 212 -237 212c-164 0 -248 -122 -248 -292c0 -171 84 -293 248 -293z" />
    <glyph glyph-name="Cdotaccent" unicode="&#x10a;" horiz-adv-x="775" 
d="M392 784c-42 0 -73 30 -73 70c0 38 31 69 73 69c41 0 73 -31 73 -69c0 -40 -32 -70 -73 -70zM63 353c0 205 123 362 330 362c180 0 298 -108 319 -282h-82c-16 135 -99 212 -237 212c-164 0 -248 -122 -248 -292c0 -171 84 -293 248 -293c138 0 221 78 237 213h82
c-21 -175 -139 -283 -319 -283c-207 0 -330 157 -330 363z" />
    <glyph glyph-name="D" unicode="D" horiz-adv-x="713" 
d="M297 705c171 0 353 -49 353 -352c0 -304 -182 -353 -353 -353h-224v705h224zM297 70c125 0 271 22 271 283c0 260 -146 282 -271 282h-142v-565h142z" />
    <glyph glyph-name="Eth" unicode="&#xd0;" horiz-adv-x="777" 
d="M360 705c171 0 353 -49 353 -352c0 -304 -182 -353 -353 -353h-223v332h-74v66h74v307h223zM360 70c125 0 272 22 272 283c0 260 -147 282 -272 282h-142v-237h193v-66h-193v-262h142z" />
    <glyph glyph-name="Dcaron" unicode="&#x10e;" horiz-adv-x="713" 
d="M460 901l-162 -131l-162 131l48 46l114 -94l115 94zM297 705c171 0 353 -49 353 -352c0 -304 -182 -353 -353 -353h-224v705h224zM297 70c125 0 271 22 271 283c0 260 -146 282 -271 282h-142v-565h142z" />
    <glyph glyph-name="Dcroat" unicode="&#x110;" horiz-adv-x="777" 
d="M360 705c171 0 353 -49 353 -352c0 -304 -182 -353 -353 -353h-223v332h-74v66h74v307h223zM360 70c125 0 272 22 272 283c0 260 -147 282 -272 282h-142v-237h193v-66h-193v-262h142z" />
    <glyph glyph-name="E" unicode="E" horiz-adv-x="563" 
d="M73 0v705h437v-70h-355v-247h305v-70h-305v-248h355v-70h-437z" />
    <glyph glyph-name="Eacute" unicode="&#xc9;" horiz-adv-x="563" 
d="M129 850l307 79l16 -64l-306 -79zM73 0v705h437v-70h-355v-247h305v-70h-305v-248h355v-70h-437z" />
    <glyph glyph-name="Ecaron" unicode="&#x11a;" horiz-adv-x="563" 
d="M454 901l-162 -131l-162 131l48 46l114 -94l115 94zM73 0v705h437v-70h-355v-247h305v-70h-305v-248h355v-70h-437z" />
    <glyph glyph-name="Ecircumflex" unicode="&#xca;" horiz-adv-x="563" 
d="M454 815l-47 -46l-115 94l-114 -94l-48 46l162 131zM73 0v705h437v-70h-355v-247h305v-70h-305v-248h355v-70h-437z" />
    <glyph glyph-name="Edieresis" unicode="&#xcb;" horiz-adv-x="563" 
d="M189 784c-42 0 -73 30 -73 70c0 38 31 69 73 69c41 0 73 -31 73 -69c0 -40 -32 -70 -73 -70zM395 784c-42 0 -73 30 -73 70c0 38 31 69 73 69c41 0 73 -31 73 -69c0 -40 -32 -70 -73 -70zM73 0v705h437v-70h-355v-247h305v-70h-305v-248h355v-70h-437z" />
    <glyph glyph-name="Edotaccent" unicode="&#x116;" horiz-adv-x="563" 
d="M291 784c-42 0 -73 30 -73 70c0 38 31 69 73 69c41 0 73 -31 73 -69c0 -40 -32 -70 -73 -70zM73 0v705h437v-70h-355v-247h305v-70h-305v-248h355v-70h-437z" />
    <glyph glyph-name="Egrave" unicode="&#xc8;" horiz-adv-x="563" 
d="M455 850l-16 -64l-307 79l17 64zM73 0v705h437v-70h-355v-247h305v-70h-305v-248h355v-70h-437z" />
    <glyph glyph-name="Emacron" unicode="&#x112;" horiz-adv-x="563" 
d="M131 891h323v-65l-323 -1v66zM73 0v705h437v-70h-355v-247h305v-70h-305v-248h355v-70h-437z" />
    <glyph glyph-name="Eogonek" unicode="&#x118;" horiz-adv-x="563" 
d="M510 635h-355v-247h305v-70h-305v-248h355v-70h-130l-65 -125l186 19v-67l-197 -18c-52 -4 -77 38 -55 79l60 112h-236v705h437v-70z" />
    <glyph glyph-name="F" unicode="F" horiz-adv-x="588" 
d="M73 0v705h462v-70h-380v-281l333 20v-71l-333 -20v-283h-82z" />
    <glyph glyph-name="G" unicode="G" horiz-adv-x="815" 
d="M63 353c0 207 129 362 333 362c177 0 275 -108 296 -262h-82c-16 116 -75 192 -214 192c-165 0 -251 -120 -251 -292c0 -173 63 -293 228 -293c139 0 205 81 202 250h-241v66h348c41 0 60 -18 60 -55v-321h-82v263l13 90h-23c-1 -246 -96 -363 -278 -363
c-207 0 -309 155 -309 363z" />
    <glyph glyph-name="Gbreve" unicode="&#x11e;" horiz-adv-x="815" 
d="M547 943c0 -102 -59 -172 -156 -172c-98 0 -157 70 -157 172h67c0 -73 26 -107 90 -107s89 34 89 107h67zM63 353c0 207 129 362 333 362c177 0 275 -108 296 -262h-82c-16 116 -75 192 -214 192c-165 0 -251 -120 -251 -292c0 -173 63 -293 228 -293
c139 0 205 81 202 250h-241v66h348c41 0 60 -18 60 -55v-321h-82v263l13 90h-23c-1 -246 -96 -363 -278 -363c-207 0 -309 155 -309 363z" />
    <glyph glyph-name="uni0122" unicode="&#x122;" horiz-adv-x="815" 
d="M63 353c0 207 129 362 333 362c177 0 275 -108 296 -262h-82c-16 116 -75 192 -214 192c-165 0 -251 -120 -251 -292c0 -173 63 -293 228 -293c139 0 205 81 202 250h-241v66h348c41 0 60 -18 60 -55v-321h-82v263l13 90h-23c-1 -246 -96 -363 -278 -363
c-207 0 -309 155 -309 363zM328 -49l73 -20l-53 -166l-73 21z" />
    <glyph glyph-name="Gdotaccent" unicode="&#x120;" horiz-adv-x="815" 
d="M390 784c-42 0 -73 30 -73 70c0 38 31 69 73 69c41 0 73 -31 73 -69c0 -40 -32 -70 -73 -70zM63 353c0 207 129 362 333 362c177 0 275 -108 296 -262h-82c-16 116 -75 192 -214 192c-165 0 -251 -120 -251 -292c0 -173 63 -293 228 -293c139 0 205 81 202 250h-241v66
h348c41 0 60 -18 60 -55v-321h-82v263l13 90h-23c-1 -246 -96 -363 -278 -363c-207 0 -309 155 -309 363z" />
    <glyph glyph-name="H" unicode="H" horiz-adv-x="726" 
d="M571 705h81v-705h-81v313h-416v-313h-82v705h82v-322h416v322z" />
    <glyph glyph-name="Hbar" unicode="&#x126;" horiz-adv-x="786" 
d="M742 606v-67h-60v-539h-81v313h-416v-313h-82v539h-60v67h60v99h82v-99h416v99h81v-99h60zM601 383v156h-416v-156h416z" />
    <glyph glyph-name="I" unicode="I" horiz-adv-x="523" 
d="M460 635h-157v-565h157v-70h-397v70h158v565h-158v70h397v-70z" />
    <glyph glyph-name="Iacute" unicode="&#xcd;" horiz-adv-x="523" 
d="M421 865l-306 -79l-17 64l307 79zM460 635h-157v-565h157v-70h-397v70h158v565h-158v70h397v-70z" />
    <glyph glyph-name="Icircumflex" unicode="&#xce;" horiz-adv-x="523" 
d="M262 863l-114 -94l-48 46l162 131l162 -131l-47 -46zM460 635h-157v-565h157v-70h-397v70h158v565h-158v70h397v-70z" />
    <glyph glyph-name="Idieresis" unicode="&#xcf;" horiz-adv-x="523" 
d="M159 784c-42 0 -73 30 -73 70c0 38 31 69 73 69c41 0 73 -31 73 -69c0 -40 -32 -70 -73 -70zM365 784c-42 0 -73 30 -73 70c0 38 31 69 73 69c41 0 73 -31 73 -69c0 -40 -32 -70 -73 -70zM460 635h-157v-565h157v-70h-397v70h158v565h-158v70h397v-70z" />
    <glyph glyph-name="Idotaccent" unicode="&#x130;" horiz-adv-x="523" 
d="M261 784c-42 0 -73 30 -73 70c0 38 31 69 73 69c41 0 73 -31 73 -69c0 -40 -32 -70 -73 -70zM460 635h-157v-565h157v-70h-397v70h158v565h-158v70h397v-70z" />
    <glyph glyph-name="Igrave" unicode="&#xcc;" horiz-adv-x="523" 
d="M425 850l-16 -64l-307 79l17 64zM460 635h-157v-565h157v-70h-397v70h158v565h-158v70h397v-70z" />
    <glyph glyph-name="Imacron" unicode="&#x12a;" horiz-adv-x="523" 
d="M424 891v-65l-323 -1v66h323zM460 635h-157v-565h157v-70h-397v70h158v565h-158v70h397v-70z" />
    <glyph glyph-name="Iogonek" unicode="&#x12e;" horiz-adv-x="523" 
d="M288 -125l186 19v-67l-197 -18c-52 -4 -77 38 -55 79l60 112h-219v70h158v565h-158v70h397v-70h-157v-565h157v-70h-107z" />
    <glyph glyph-name="J" unicode="J" horiz-adv-x="473" 
d="M196 -10l-163 10v70l163 -10c117 -7 132 66 132 264v321l-185 -10v70l206 10c39 2 60 -22 60 -60v-340c0 -202 -21 -337 -213 -325z" />
    <glyph glyph-name="K" unicode="K" horiz-adv-x="671" 
d="M637 705l-430 -352l430 -353h-118l-364 300v-300h-82v705h82v-300l364 300h118z" />
    <glyph glyph-name="uni0136" unicode="&#x136;" horiz-adv-x="671" 
d="M637 705l-430 -352l430 -353h-118l-364 300v-300h-82v705h82v-300l364 300h118zM231 -214l53 165l73 -20l-53 -166z" />
    <glyph glyph-name="L" unicode="L" horiz-adv-x="543" 
d="M134 -10c-39 -1 -61 22 -61 60v655h82v-645l355 10v-70z" />
    <glyph glyph-name="Lacute" unicode="&#x139;" horiz-adv-x="544" 
d="M74 850l307 79l16 -64l-307 -79zM135 -10c-39 -1 -60 22 -60 60v655h81v-645l355 10v-70z" />
    <glyph glyph-name="Lcaron" unicode="&#x13d;" horiz-adv-x="553" 
d="M261 742h75v-254h-75v254zM134 -10c-39 -1 -61 22 -61 60v655h82v-645l355 10v-70z" />
    <glyph glyph-name="uni013B" unicode="&#x13b;" horiz-adv-x="543" 
d="M134 -10c-39 -1 -61 22 -61 60v655h82v-645l355 10v-70zM274 -49l73 -20l-53 -166l-73 21z" />
    <glyph glyph-name="Lslash" unicode="&#x141;" horiz-adv-x="609" 
d="M211 60l354 10v-70l-376 -10c-38 -1 -60 22 -60 60v258l-59 -16l-17 64l76 20v329h82v-306l187 50l16 -64l-203 -55v-270z" />
    <glyph glyph-name="M" unicode="M" horiz-adv-x="899" 
d="M73 0v705h165l200 -682h23l201 682h164v-705h-82v623l14 59h-24l-202 -682h-165l-202 682h-23l13 -59v-623h-82z" />
    <glyph glyph-name="N" unicode="N" horiz-adv-x="755" 
d="M73 0v705h165l352 -682h23l-13 59v623h81v-705h-165l-351 682h-23l13 -59v-623h-82z" />
    <glyph glyph-name="Nacute" unicode="&#x143;" horiz-adv-x="755" 
d="M234 850l307 79l16 -64l-306 -79zM73 0v705h165l352 -682h23l-13 59v623h81v-705h-165l-351 682h-23l13 -59v-623h-82z" />
    <glyph glyph-name="Ncaron" unicode="&#x147;" horiz-adv-x="755" 
d="M559 901l-162 -131l-162 131l48 46l114 -94l115 94zM73 0v705h165l352 -682h23l-13 59v623h81v-705h-165l-351 682h-23l13 -59v-623h-82z" />
    <glyph glyph-name="uni0145" unicode="&#x145;" horiz-adv-x="755" 
d="M73 0v705h165l352 -682h23l-13 59v623h81v-705h-165l-351 682h-23l13 -59v-623h-82zM335 -49l73 -20l-53 -166l-73 21z" />
    <glyph glyph-name="Eng" unicode="&#x14a;" horiz-adv-x="755" 
d="M600 705h81v-837c0 -38 -21 -62 -68 -60l-192 10v70l179 -10v122h-84l-351 682h-23l13 -59v-623h-82v705h165l352 -682h23l-13 59v623z" />
    <glyph glyph-name="Ntilde" unicode="&#xd1;" horiz-adv-x="755" 
d="M216 800c0 99 44 137 102 137c84 0 108 -80 152 -80c22 0 41 10 41 70h67c0 -100 -44 -137 -102 -137c-84 0 -108 80 -152 80c-22 0 -41 -10 -41 -70h-67zM73 0v705h165l352 -682h23l-13 59v623h81v-705h-165l-351 682h-23l13 -59v-623h-82z" />
    <glyph glyph-name="O" unicode="O" horiz-adv-x="784" 
d="M63 353c0 205 122 362 330 362c206 0 328 -157 328 -362c0 -206 -122 -363 -328 -363c-208 0 -330 157 -330 363zM145 353c0 -169 81 -293 248 -293c166 0 246 124 246 293c0 168 -80 292 -246 292c-167 0 -248 -124 -248 -292z" />
    <glyph glyph-name="Oacute" unicode="&#xd3;" horiz-adv-x="784" 
d="M229 850l307 79l16 -64l-306 -79zM63 353c0 205 122 362 330 362c206 0 328 -157 328 -362c0 -206 -122 -363 -328 -363c-208 0 -330 157 -330 363zM145 353c0 -169 81 -293 248 -293c166 0 246 124 246 293c0 168 -80 292 -246 292c-167 0 -248 -124 -248 -292z" />
    <glyph glyph-name="Ocircumflex" unicode="&#xd4;" horiz-adv-x="784" 
d="M554 815l-47 -46l-115 94l-114 -94l-48 46l162 131zM63 353c0 205 122 362 330 362c206 0 328 -157 328 -362c0 -206 -122 -363 -328 -363c-208 0 -330 157 -330 363zM145 353c0 -169 81 -293 248 -293c166 0 246 124 246 293c0 168 -80 292 -246 292
c-167 0 -248 -124 -248 -292z" />
    <glyph glyph-name="Odieresis" unicode="&#xd6;" horiz-adv-x="784" 
d="M289 784c-42 0 -73 30 -73 70c0 38 31 69 73 69c41 0 73 -31 73 -69c0 -40 -32 -70 -73 -70zM495 784c-42 0 -73 30 -73 70c0 38 31 69 73 69c41 0 73 -31 73 -69c0 -40 -32 -70 -73 -70zM63 353c0 205 122 362 330 362c206 0 328 -157 328 -362
c0 -206 -122 -363 -328 -363c-208 0 -330 157 -330 363zM145 353c0 -169 81 -293 248 -293c166 0 246 124 246 293c0 168 -80 292 -246 292c-167 0 -248 -124 -248 -292z" />
    <glyph glyph-name="Ograve" unicode="&#xd2;" horiz-adv-x="784" 
d="M555 850l-16 -64l-307 79l17 64zM63 353c0 205 122 362 330 362c206 0 328 -157 328 -362c0 -206 -122 -363 -328 -363c-208 0 -330 157 -330 363zM145 353c0 -169 81 -293 248 -293c166 0 246 124 246 293c0 168 -80 292 -246 292c-167 0 -248 -124 -248 -292z" />
    <glyph glyph-name="Ohungarumlaut" unicode="&#x150;" horiz-adv-x="784" 
d="M254 816l143 138l46 -46l-142 -137zM419 816l143 138l46 -46l-142 -137zM63 353c0 205 122 362 330 362c206 0 328 -157 328 -362c0 -206 -122 -363 -328 -363c-208 0 -330 157 -330 363zM145 353c0 -169 81 -293 248 -293c166 0 246 124 246 293c0 168 -80 292 -246 292
c-167 0 -248 -124 -248 -292z" />
    <glyph glyph-name="Omacron" unicode="&#x14c;" horiz-adv-x="784" 
d="M231 891h323v-65l-323 -1v66zM63 353c0 205 122 362 330 362c206 0 328 -157 328 -362c0 -206 -122 -363 -328 -363c-208 0 -330 157 -330 363zM145 353c0 -169 81 -293 248 -293c166 0 246 124 246 293c0 168 -80 292 -246 292c-167 0 -248 -124 -248 -292z" />
    <glyph glyph-name="Oslash" unicode="&#xd8;" horiz-adv-x="784" 
d="M599 645c79 -65 122 -171 122 -293c0 -206 -122 -363 -328 -363c-59 0 -110 12 -155 35l-49 -85l-54 32l51 88c-80 65 -123 170 -123 293c0 205 122 362 330 362c57 0 108 -12 152 -34l49 85l56 -32zM145 352c0 -95 26 -176 78 -229l286 495c-32 17 -71 26 -116 26
c-167 0 -248 -123 -248 -292zM393 59c166 0 246 124 246 293c0 95 -26 176 -78 228l-287 -494c33 -18 73 -27 119 -27z" />
    <glyph glyph-name="Otilde" unicode="&#xd5;" horiz-adv-x="784" 
d="M212 800c0 99 44 137 102 137c84 0 108 -80 152 -80c22 0 41 10 41 70h67c0 -100 -44 -137 -102 -137c-84 0 -108 80 -152 80c-22 0 -41 -10 -41 -70h-67zM63 353c0 205 122 362 330 362c206 0 328 -157 328 -362c0 -206 -122 -363 -328 -363c-208 0 -330 157 -330 363z
M145 353c0 -169 81 -293 248 -293c166 0 246 124 246 293c0 168 -80 292 -246 292c-167 0 -248 -124 -248 -292z" />
    <glyph glyph-name="OE" unicode="&#x152;" horiz-adv-x="1139" 
d="M1085 635h-354v-247h304v-70h-304v-248h354v-70h-436v113c-56 -76 -144 -123 -256 -123c-208 0 -330 157 -330 363c0 205 122 362 330 362c112 0 200 -47 256 -123v113h436v-70zM393 60c166 0 246 124 246 293c0 168 -80 292 -246 292c-167 0 -248 -124 -248 -292
c0 -169 81 -293 248 -293z" />
    <glyph glyph-name="P" unicode="P" horiz-adv-x="615" 
d="M271 705c178 0 291 -46 291 -230c0 -185 -113 -232 -291 -232h-116v-243h-82v705h198zM272 313c120 0 208 22 208 162c0 138 -88 160 -208 160h-117v-322h117z" />
    <glyph glyph-name="Thorn" unicode="&#xde;" horiz-adv-x="615" 
d="M271 583c178 0 291 -46 291 -230c0 -185 -113 -231 -291 -231h-116v-122h-82v705h82v-122h116zM272 192c120 0 208 20 208 161c0 140 -88 160 -208 160h-117v-321h117z" />
    <glyph glyph-name="Q" unicode="Q" horiz-adv-x="773" 
d="M461 -51c118 5 231 -8 378 -36v-70c-214 39 -406 54 -645 23l-9 66c101 15 242 29 325 81l-9 15c-21 -14 -70 -28 -133 -28c-173 0 -305 150 -305 357c0 205 124 358 331 358s330 -155 330 -362c0 -236 -142 -354 -263 -404zM394 68c158 0 248 116 248 285
c0 168 -90 292 -248 292s-249 -119 -249 -288s91 -289 249 -289z" />
    <glyph glyph-name="R" unicode="R" horiz-adv-x="664" 
d="M73 0v705h234c168 0 275 -39 275 -197c0 -106 -55 -153 -131 -166v-24h84c40 0 56 -16 56 -53v-265h-82v283h-354v-283h-82zM155 353h152c120 0 193 12 193 141c0 130 -73 141 -193 141h-152v-282z" />
    <glyph glyph-name="Racute" unicode="&#x154;" horiz-adv-x="664" 
d="M154 850l307 79l16 -64l-306 -79zM73 0v705h234c168 0 275 -39 275 -197c0 -106 -55 -153 -131 -166v-24h84c40 0 56 -16 56 -53v-265h-82v283h-354v-283h-82zM155 353h152c120 0 193 12 193 141c0 130 -73 141 -193 141h-152v-282z" />
    <glyph glyph-name="Rcaron" unicode="&#x158;" horiz-adv-x="664" 
d="M479 901l-162 -131l-162 131l48 46l114 -94l115 94zM73 0v705h234c168 0 275 -39 275 -197c0 -106 -55 -153 -131 -166v-24h84c40 0 56 -16 56 -53v-265h-82v283h-354v-283h-82zM155 353h152c120 0 193 12 193 141c0 130 -73 141 -193 141h-152v-282z" />
    <glyph glyph-name="uni0156" unicode="&#x156;" horiz-adv-x="664" 
d="M73 0v705h234c168 0 275 -39 275 -197c0 -106 -55 -153 -131 -166v-24h84c40 0 56 -16 56 -53v-265h-82v283h-354v-283h-82zM155 353h152c120 0 193 12 193 141c0 130 -73 141 -193 141h-152v-282zM305 -49l73 -20l-53 -166l-73 21z" />
    <glyph glyph-name="S" unicode="S" horiz-adv-x="676" 
d="M633 178c0 -105 -63 -188 -271 -188c-246 0 -319 109 -319 274h82c0 -167 89 -204 237 -204c120 0 189 29 189 114c0 107 -124 129 -236 162c-139 42 -240 80 -240 205c0 108 76 174 250 174c208 0 279 -127 279 -242h-82c0 120 -89 172 -197 172
c-97 0 -168 -24 -168 -102c0 -74 62 -101 178 -137c138 -43 298 -81 298 -228z" />
    <glyph glyph-name="Sacute" unicode="&#x15a;" horiz-adv-x="676" 
d="M175 850l307 79l16 -64l-306 -79zM633 178c0 -105 -63 -188 -271 -188c-246 0 -319 109 -319 274h82c0 -167 89 -204 237 -204c120 0 189 29 189 114c0 107 -124 129 -236 162c-139 42 -240 80 -240 205c0 108 76 174 250 174c208 0 279 -127 279 -242h-82
c0 120 -89 172 -197 172c-97 0 -168 -24 -168 -102c0 -74 62 -101 178 -137c138 -43 298 -81 298 -228z" />
    <glyph glyph-name="Scaron" unicode="&#x160;" horiz-adv-x="676" 
d="M500 901l-162 -131l-162 131l48 46l114 -94l115 94zM633 178c0 -105 -63 -188 -271 -188c-246 0 -319 109 -319 274h82c0 -167 89 -204 237 -204c120 0 189 29 189 114c0 107 -124 129 -236 162c-139 42 -240 80 -240 205c0 108 76 174 250 174c208 0 279 -127 279 -242
h-82c0 120 -89 172 -197 172c-97 0 -168 -24 -168 -102c0 -74 62 -101 178 -137c138 -43 298 -81 298 -228z" />
    <glyph glyph-name="Scedilla" unicode="&#x15e;" horiz-adv-x="676" 
d="M633 178c0 -104 -62 -187 -267 -188l-45 -47c18 9 39 15 65 15c34 0 65 -16 65 -56c0 -77 -83 -87 -209 -87v62c91 0 143 -1 143 31c0 13 -9 20 -23 20c-18 0 -34 -4 -70 -26l-35 46l38 45c-192 19 -252 122 -252 271h82c0 -167 89 -204 237 -204c120 0 189 29 189 114
c0 107 -124 129 -236 162c-139 42 -240 80 -240 205c0 108 76 174 250 174c208 0 279 -127 279 -242h-82c0 120 -89 172 -197 172c-97 0 -168 -24 -168 -102c0 -74 62 -101 178 -137c138 -43 298 -81 298 -228z" />
    <glyph glyph-name="uni0218" unicode="&#x218;" horiz-adv-x="676" 
d="M633 178c0 -105 -63 -188 -271 -188c-246 0 -319 109 -319 274h82c0 -167 89 -204 237 -204c120 0 189 29 189 114c0 107 -124 129 -236 162c-139 42 -240 80 -240 205c0 108 76 174 250 174c208 0 279 -127 279 -242h-82c0 120 -89 172 -197 172
c-97 0 -168 -24 -168 -102c0 -74 62 -101 178 -137c138 -43 298 -81 298 -228zM296 -49l73 -20l-53 -166l-73 21z" />
    <glyph glyph-name="uni1E9E" unicode="&#x1e9e;" horiz-adv-x="623" 
d="M211 0v70l157 -9c85 -5 130 39 130 134c0 147 -120 148 -196 112l-34 135l139 108c0 58 -26 95 -110 95c-93 0 -142 -30 -142 -151v-494h-82v506c0 150 99 209 224 209c127 0 192 -74 192 -191l-182 -138l5 -23c132 48 267 5 267 -172c0 -152 -88 -210 -211 -201z" />
    <glyph glyph-name="T" unicode="T" horiz-adv-x="658" 
d="M614 705v-70h-244v-635h-81v635h-246v70h571z" />
    <glyph glyph-name="Tbar" unicode="&#x166;" horiz-adv-x="658" 
d="M614 635h-244v-242h155v-66h-155v-327h-81v327h-156v66h156v242h-246v70h571v-70z" />
    <glyph glyph-name="Tcaron" unicode="&#x164;" horiz-adv-x="658" 
d="M491 901l-162 -131l-162 131l48 46l114 -94l115 94zM614 705v-70h-244v-635h-81v635h-246v70h571z" />
    <glyph glyph-name="uni0162" unicode="&#x162;" horiz-adv-x="658" 
d="M370 0h-3l-55 -57c18 9 39 15 65 15c34 0 65 -16 65 -56c0 -77 -83 -87 -209 -87v62c91 0 143 -1 143 31c0 13 -9 20 -23 20c-18 0 -34 -4 -70 -26l-35 46l44 52h-3v635h-246v70h571v-70h-244v-635z" />
    <glyph glyph-name="uni021A" unicode="&#x21a;" horiz-adv-x="658" 
d="M614 705v-70h-244v-635h-81v635h-246v70h571zM234 -214l53 165l73 -20l-53 -166z" />
    <glyph glyph-name="U" unicode="U" horiz-adv-x="665" 
d="M53 262v443h82v-430c0 -143 50 -215 197 -215s198 72 198 215v430h82v-443c0 -176 -87 -272 -280 -272c-192 0 -279 96 -279 272z" />
    <glyph glyph-name="Uacute" unicode="&#xda;" horiz-adv-x="665" 
d="M169 850l307 79l16 -64l-306 -79zM53 262v443h82v-430c0 -143 50 -215 197 -215s198 72 198 215v430h82v-443c0 -176 -87 -272 -280 -272c-192 0 -279 96 -279 272z" />
    <glyph glyph-name="Ucircumflex" unicode="&#xdb;" horiz-adv-x="665" 
d="M494 815l-47 -46l-115 94l-114 -94l-48 46l162 131zM53 262v443h82v-430c0 -143 50 -215 197 -215s198 72 198 215v430h82v-443c0 -176 -87 -272 -280 -272c-192 0 -279 96 -279 272z" />
    <glyph glyph-name="Udieresis" unicode="&#xdc;" horiz-adv-x="665" 
d="M229 784c-42 0 -73 30 -73 70c0 38 31 69 73 69c41 0 73 -31 73 -69c0 -40 -32 -70 -73 -70zM435 784c-42 0 -73 30 -73 70c0 38 31 69 73 69c41 0 73 -31 73 -69c0 -40 -32 -70 -73 -70zM53 262v443h82v-430c0 -143 50 -215 197 -215s198 72 198 215v430h82v-443
c0 -176 -87 -272 -280 -272c-192 0 -279 96 -279 272z" />
    <glyph glyph-name="Ugrave" unicode="&#xd9;" horiz-adv-x="665" 
d="M495 850l-16 -64l-307 79l17 64zM53 262v443h82v-430c0 -143 50 -215 197 -215s198 72 198 215v430h82v-443c0 -176 -87 -272 -280 -272c-192 0 -279 96 -279 272z" />
    <glyph glyph-name="Uhungarumlaut" unicode="&#x170;" horiz-adv-x="665" 
d="M194 816l143 138l46 -46l-142 -137zM359 816l143 138l46 -46l-142 -137zM53 262v443h82v-430c0 -143 50 -215 197 -215s198 72 198 215v430h82v-443c0 -176 -87 -272 -280 -272c-192 0 -279 96 -279 272z" />
    <glyph glyph-name="Umacron" unicode="&#x16a;" horiz-adv-x="665" 
d="M171 891h323v-65l-323 -1v66zM53 262v443h82v-430c0 -143 50 -215 197 -215s198 72 198 215v430h82v-443c0 -176 -87 -272 -280 -272c-192 0 -279 96 -279 272z" />
    <glyph glyph-name="Uogonek" unicode="&#x172;" horiz-adv-x="665" 
d="M612 262c0 -143 -57 -233 -183 -262l-65 -125l186 19v-67l-197 -18c-52 -4 -77 38 -55 79l55 102h-21c-192 0 -279 96 -279 272v443h82v-430c0 -143 50 -215 197 -215s198 72 198 215v430h82v-443z" />
    <glyph glyph-name="Uring" unicode="&#x16e;" horiz-adv-x="665" 
d="M331 767c-76 0 -118 51 -118 109c0 57 42 108 118 108s119 -51 119 -108s-43 -109 -119 -109zM331 829c35 0 52 18 52 47c0 28 -18 46 -52 46c-33 0 -51 -18 -51 -46c0 -29 18 -47 51 -47zM53 262v443h82v-430c0 -143 50 -215 197 -215s198 72 198 215v430h82v-443
c0 -176 -87 -272 -280 -272c-192 0 -279 96 -279 272z" />
    <glyph glyph-name="V" unicode="V" horiz-adv-x="690" 
d="M33 705h82l218 -682h23l219 682h81l-227 -705h-168z" />
    <glyph glyph-name="W" unicode="W" horiz-adv-x="1013" 
d="M33 705h78l144 -682h24l143 682h169l143 -682h24l144 682h78l-150 -705h-167l-145 682h-23l-144 -682h-167z" />
    <glyph glyph-name="Wacute" unicode="&#x1e82;" horiz-adv-x="1013" 
d="M343 850l307 79l16 -64l-306 -79zM33 705h78l144 -682h24l143 682h169l143 -682h24l144 682h78l-150 -705h-167l-145 682h-23l-144 -682h-167z" />
    <glyph glyph-name="Wcircumflex" unicode="&#x174;" horiz-adv-x="1013" 
d="M668 815l-47 -46l-115 94l-114 -94l-48 46l162 131zM33 705h78l144 -682h24l143 682h169l143 -682h24l144 682h78l-150 -705h-167l-145 682h-23l-144 -682h-167z" />
    <glyph glyph-name="Wdieresis" unicode="&#x1e84;" horiz-adv-x="1013" 
d="M403 784c-42 0 -73 30 -73 70c0 38 31 69 73 69c41 0 73 -31 73 -69c0 -40 -32 -70 -73 -70zM609 784c-42 0 -73 30 -73 70c0 38 31 69 73 69c41 0 73 -31 73 -69c0 -40 -32 -70 -73 -70zM33 705h78l144 -682h24l143 682h169l143 -682h24l144 682h78l-150 -705h-167
l-145 682h-23l-144 -682h-167z" />
    <glyph glyph-name="Wgrave" unicode="&#x1e80;" horiz-adv-x="1013" 
d="M669 850l-16 -64l-307 79l17 64zM33 705h78l144 -682h24l143 682h169l143 -682h24l144 682h78l-150 -705h-167l-145 682h-23l-144 -682h-167z" />
    <glyph glyph-name="X" unicode="X" horiz-adv-x="687" 
d="M33 0l245 338v30l-245 337h94l216 -303l217 303h93l-245 -337v-30l245 -338h-93l-217 304l-216 -304h-94z" />
    <glyph glyph-name="Y" unicode="Y" horiz-adv-x="659" 
d="M538 705h88l-256 -442v-263h-81v263l-256 442h88l197 -344v-57h23v57z" />
    <glyph glyph-name="Yacute" unicode="&#xdd;" horiz-adv-x="659" 
d="M166 850l307 79l16 -64l-306 -79zM538 705h88l-256 -442v-263h-81v263l-256 442h88l197 -344v-57h23v57z" />
    <glyph glyph-name="Ycircumflex" unicode="&#x176;" horiz-adv-x="659" 
d="M491 815l-47 -46l-115 94l-114 -94l-48 46l162 131zM538 705h88l-256 -442v-263h-81v263l-256 442h88l197 -344v-57h23v57z" />
    <glyph glyph-name="Ydieresis" unicode="&#x178;" horiz-adv-x="659" 
d="M226 784c-42 0 -73 30 -73 70c0 38 31 69 73 69c41 0 73 -31 73 -69c0 -40 -32 -70 -73 -70zM432 784c-42 0 -73 30 -73 70c0 38 31 69 73 69c41 0 73 -31 73 -69c0 -40 -32 -70 -73 -70zM538 705h88l-256 -442v-263h-81v263l-256 442h88l197 -344v-57h23v57z" />
    <glyph glyph-name="Ygrave" unicode="&#x1ef2;" horiz-adv-x="659" 
d="M492 850l-16 -64l-307 79l17 64zM538 705h88l-256 -442v-263h-81v263l-256 442h88l197 -344v-57h23v57z" />
    <glyph glyph-name="Z" unicode="Z" horiz-adv-x="652" 
d="M53 0v158l522 467v23l-56 -13h-466v70h546v-158l-522 -467v-23l56 13h466v-70h-546z" />
    <glyph glyph-name="Zacute" unicode="&#x179;" horiz-adv-x="652" 
d="M163 850l307 79l16 -64l-306 -79zM53 0v158l522 467v23l-56 -13h-466v70h546v-158l-522 -467v-23l56 13h466v-70h-546z" />
    <glyph glyph-name="Zcaron" unicode="&#x17d;" horiz-adv-x="652" 
d="M488 901l-162 -131l-162 131l48 46l114 -94l115 94zM53 0v158l522 467v23l-56 -13h-466v70h546v-158l-522 -467v-23l56 13h466v-70h-546z" />
    <glyph glyph-name="Zdotaccent" unicode="&#x17b;" horiz-adv-x="652" 
d="M326 784c-42 0 -73 30 -73 70c0 38 31 69 73 69c41 0 73 -31 73 -69c0 -40 -32 -70 -73 -70zM53 0v158l522 467v23l-56 -13h-466v70h546v-158l-522 -467v-23l56 13h466v-70h-546z" />
    <glyph glyph-name="G.ss01" horiz-adv-x="775" 
d="M63 353c0 207 123 362 327 362c177 0 281 -108 293 -262h-81c-8 116 -81 192 -212 192c-165 0 -245 -122 -245 -292c0 -171 63 -293 231 -293c166 0 244 76 244 250h-281v66h303c41 0 60 -18 60 -55v-321h-82v96l13 60h-23c-18 -82 -88 -166 -239 -166
c-206 0 -308 155 -308 363z" />
    <glyph glyph-name="Gbreve.ss01" horiz-adv-x="775" 
d="M547 943c0 -102 -59 -172 -156 -172c-98 0 -157 70 -157 172h67c0 -73 26 -107 90 -107s89 34 89 107h67zM63 353c0 207 123 362 327 362c177 0 281 -108 293 -262h-81c-8 116 -81 192 -212 192c-165 0 -245 -122 -245 -292c0 -171 63 -293 231 -293
c166 0 244 76 244 250h-281v66h303c41 0 60 -18 60 -55v-321h-82v96l13 60h-23c-18 -82 -88 -166 -239 -166c-206 0 -308 155 -308 363z" />
    <glyph glyph-name="uni0122.ss01" horiz-adv-x="775" 
d="M63 353c0 207 123 362 327 362c177 0 281 -108 293 -262h-81c-8 116 -81 192 -212 192c-165 0 -245 -122 -245 -292c0 -171 63 -293 231 -293c166 0 244 76 244 250h-281v66h303c41 0 60 -18 60 -55v-321h-82v96l13 60h-23c-18 -82 -88 -166 -239 -166
c-206 0 -308 155 -308 363zM328 -49l73 -20l-53 -166l-73 21z" />
    <glyph glyph-name="Gdotaccent.ss01" horiz-adv-x="775" 
d="M390 784c-42 0 -73 30 -73 70c0 38 31 69 73 69c41 0 73 -31 73 -69c0 -40 -32 -70 -73 -70zM63 353c0 207 123 362 327 362c177 0 281 -108 293 -262h-81c-8 116 -81 192 -212 192c-165 0 -245 -122 -245 -292c0 -171 63 -293 231 -293c166 0 244 76 244 250h-281v66
h303c41 0 60 -18 60 -55v-321h-82v96l13 60h-23c-18 -82 -88 -166 -239 -166c-206 0 -308 155 -308 363z" />
    <glyph glyph-name="a" unicode="a" horiz-adv-x="592" 
d="M53 138c0 79 47 133 163 145l198 19c-5 91 -54 136 -140 136c-72 0 -139 -32 -139 -126h-80c0 103 78 195 219 195c139 0 222 -92 222 -225v-212h73v-70h-88c-38 0 -59 21 -59 58v27l13 52h-24c-19 -76 -72 -147 -192 -147c-144 0 -166 96 -166 148zM135 148
c0 -57 36 -88 94 -88c113 0 185 78 185 181l-184 -19c-63 -6 -95 -25 -95 -74z" />
    <glyph glyph-name="aacute" unicode="&#xe1;" horiz-adv-x="592" 
d="M121 642l307 79l16 -64l-306 -79zM53 138c0 79 47 133 163 145l198 19c-5 91 -54 136 -140 136c-72 0 -139 -32 -139 -126h-80c0 103 78 195 219 195c139 0 222 -92 222 -225v-212h73v-70h-88c-38 0 -59 21 -59 58v27l13 52h-24c-19 -76 -72 -147 -192 -147
c-144 0 -166 96 -166 148zM135 148c0 -57 36 -88 94 -88c113 0 185 78 185 181l-184 -19c-63 -6 -95 -25 -95 -74z" />
    <glyph glyph-name="abreve" unicode="&#x103;" horiz-adv-x="592" 
d="M441 735c0 -102 -59 -172 -156 -172c-98 0 -157 70 -157 172h67c0 -73 26 -107 90 -107s89 34 89 107h67zM53 138c0 79 47 133 163 145l198 19c-5 91 -54 136 -140 136c-72 0 -139 -32 -139 -126h-80c0 103 78 195 219 195c139 0 222 -92 222 -225v-212h73v-70h-88
c-38 0 -59 21 -59 58v27l13 52h-24c-19 -76 -72 -147 -192 -147c-144 0 -166 96 -166 148zM135 148c0 -57 36 -88 94 -88c113 0 185 78 185 181l-184 -19c-63 -6 -95 -25 -95 -74z" />
    <glyph glyph-name="acircumflex" unicode="&#xe2;" horiz-adv-x="592" 
d="M446 607l-47 -46l-115 94l-114 -94l-48 46l162 131zM53 138c0 79 47 133 163 145l198 19c-5 91 -54 136 -140 136c-72 0 -139 -32 -139 -126h-80c0 103 78 195 219 195c139 0 222 -92 222 -225v-212h73v-70h-88c-38 0 -59 21 -59 58v27l13 52h-24
c-19 -76 -72 -147 -192 -147c-144 0 -166 96 -166 148zM135 148c0 -57 36 -88 94 -88c113 0 185 78 185 181l-184 -19c-63 -6 -95 -25 -95 -74z" />
    <glyph glyph-name="adieresis" unicode="&#xe4;" horiz-adv-x="592" 
d="M181 576c-42 0 -73 30 -73 70c0 38 31 69 73 69c41 0 73 -31 73 -69c0 -40 -32 -70 -73 -70zM387 576c-42 0 -73 30 -73 70c0 38 31 69 73 69c41 0 73 -31 73 -69c0 -40 -32 -70 -73 -70zM53 138c0 79 47 133 163 145l198 19c-5 91 -54 136 -140 136
c-72 0 -139 -32 -139 -126h-80c0 103 78 195 219 195c139 0 222 -92 222 -225v-212h73v-70h-88c-38 0 -59 21 -59 58v27l13 52h-24c-19 -76 -72 -147 -192 -147c-144 0 -166 96 -166 148zM135 148c0 -57 36 -88 94 -88c113 0 185 78 185 181l-184 -19
c-63 -6 -95 -25 -95 -74z" />
    <glyph glyph-name="agrave" unicode="&#xe0;" horiz-adv-x="592" 
d="M447 642l-16 -64l-307 79l17 64zM53 138c0 79 47 133 163 145l198 19c-5 91 -54 136 -140 136c-72 0 -139 -32 -139 -126h-80c0 103 78 195 219 195c139 0 222 -92 222 -225v-212h73v-70h-88c-38 0 -59 21 -59 58v27l13 52h-24c-19 -76 -72 -147 -192 -147
c-144 0 -166 96 -166 148zM135 148c0 -57 36 -88 94 -88c113 0 185 78 185 181l-184 -19c-63 -6 -95 -25 -95 -74z" />
    <glyph glyph-name="amacron" unicode="&#x101;" horiz-adv-x="592" 
d="M123 683h323v-65l-323 -1v66zM53 138c0 79 47 133 163 145l198 19c-5 91 -54 136 -140 136c-72 0 -139 -32 -139 -126h-80c0 103 78 195 219 195c139 0 222 -92 222 -225v-212h73v-70h-88c-38 0 -59 21 -59 58v27l13 52h-24c-19 -76 -72 -147 -192 -147
c-144 0 -166 96 -166 148zM135 148c0 -57 36 -88 94 -88c113 0 185 78 185 181l-184 -19c-63 -6 -95 -25 -95 -74z" />
    <glyph glyph-name="aogonek" unicode="&#x105;" horiz-adv-x="592" 
d="M503 -125l186 19v-67l-197 -18c-52 -4 -77 38 -55 79l60 112h-16c-38 0 -59 21 -59 58v27l13 52h-24c-19 -76 -72 -147 -192 -147c-144 0 -166 96 -166 148c0 79 47 133 163 145l198 19c-5 91 -54 136 -140 136c-72 0 -139 -32 -139 -126h-80c0 103 78 195 219 195
c139 0 222 -92 222 -225v-212h73v-70h-1zM229 60c113 0 185 78 185 181l-184 -19c-63 -6 -95 -25 -95 -74c0 -57 36 -88 94 -88z" />
    <glyph glyph-name="aring" unicode="&#xe5;" horiz-adv-x="592" 
d="M283 559c-76 0 -118 51 -118 109c0 57 42 108 118 108s119 -51 119 -108s-43 -109 -119 -109zM283 621c35 0 52 18 52 47c0 28 -18 46 -52 46c-33 0 -51 -18 -51 -46c0 -29 18 -47 51 -47zM53 138c0 79 47 133 163 145l198 19c-5 91 -54 136 -140 136
c-72 0 -139 -32 -139 -126h-80c0 103 78 195 219 195c139 0 222 -92 222 -225v-212h73v-70h-88c-38 0 -59 21 -59 58v27l13 52h-24c-19 -76 -72 -147 -192 -147c-144 0 -166 96 -166 148zM135 148c0 -57 36 -88 94 -88c113 0 185 78 185 181l-184 -19
c-63 -6 -95 -25 -95 -74z" />
    <glyph glyph-name="atilde" unicode="&#xe3;" horiz-adv-x="592" 
d="M103 592c0 99 44 137 102 137c84 0 108 -80 152 -80c22 0 41 10 41 70h67c0 -100 -44 -137 -102 -137c-84 0 -108 80 -152 80c-22 0 -41 -10 -41 -70h-67zM53 138c0 79 47 133 163 145l198 19c-5 91 -54 136 -140 136c-72 0 -139 -32 -139 -126h-80c0 103 78 195 219 195
c139 0 222 -92 222 -225v-212h73v-70h-88c-38 0 -59 21 -59 58v27l13 52h-24c-19 -76 -72 -147 -192 -147c-144 0 -166 96 -166 148zM135 148c0 -57 36 -88 94 -88c113 0 185 78 185 181l-184 -19c-63 -6 -95 -25 -95 -74z" />
    <glyph glyph-name="ae" unicode="&#xe6;" horiz-adv-x="974" 
d="M839 174h81c-18 -77 -79 -184 -237 -184c-125 0 -199 61 -232 147h-15c-27 -76 -98 -147 -217 -147c-144 0 -166 96 -166 148c0 79 47 133 163 145l198 19c-5 91 -54 136 -140 136c-72 0 -139 -32 -139 -126h-80c0 103 78 195 219 195c93 0 159 -41 192 -109
c41 71 115 109 205 109c140 0 232 -89 232 -242v-32h-392c5 -94 49 -175 172 -175c83 0 137 40 156 116zM671 438c-97 0 -160 -63 -160 -143h312c0 80 -52 143 -152 143zM229 60c113 0 185 78 185 181l-184 -19c-63 -6 -95 -25 -95 -74c0 -58 36 -88 94 -88z" />
    <glyph glyph-name="b" unicode="b" horiz-adv-x="656" 
d="M73 0v735h82v-311l-13 -57h23c21 78 88 140 202 140c144 0 236 -111 236 -258c0 -148 -92 -259 -236 -259c-114 0 -181 62 -202 139h-23l13 -56v-73h-82zM155 249c0 -133 85 -189 187 -189c103 0 179 56 179 189c0 132 -76 188 -179 188c-102 0 -187 -56 -187 -188z" />
    <glyph glyph-name="c" unicode="c" horiz-adv-x="592" 
d="M53 249c0 143 93 258 254 258c96 0 219 -54 232 -198h-83c-14 95 -77 128 -149 128c-118 0 -172 -86 -172 -188c0 -103 54 -189 172 -189c72 0 135 33 149 128h83c-13 -144 -136 -198 -232 -198c-161 0 -254 115 -254 259z" />
    <glyph glyph-name="cacute" unicode="&#x107;" horiz-adv-x="592" 
d="M143 642l307 79l16 -64l-306 -79zM53 249c0 143 93 258 254 258c96 0 219 -54 232 -198h-83c-14 95 -77 128 -149 128c-118 0 -172 -86 -172 -188c0 -103 54 -189 172 -189c72 0 135 33 149 128h83c-13 -144 -136 -198 -232 -198c-161 0 -254 115 -254 259z" />
    <glyph glyph-name="ccaron" unicode="&#x10d;" horiz-adv-x="592" 
d="M469 693l-162 -131l-162 131l48 46l114 -94l115 94zM53 249c0 143 93 258 254 258c96 0 219 -54 232 -198h-83c-14 95 -77 128 -149 128c-118 0 -172 -86 -172 -188c0 -103 54 -189 172 -189c72 0 135 33 149 128h83c-13 -144 -136 -198 -232 -198
c-161 0 -254 115 -254 259z" />
    <glyph glyph-name="ccedilla" unicode="&#xe7;" horiz-adv-x="592" 
d="M307 60c72 0 135 33 149 128h83c-12 -135 -121 -191 -214 -197l-46 -48c18 9 39 15 65 15c34 0 65 -16 65 -56c0 -77 -83 -87 -209 -87v62c91 0 143 -1 143 31c0 13 -9 20 -23 20c-18 0 -34 -4 -70 -26l-35 46l39 46c-128 23 -201 128 -201 255c0 143 93 258 254 258
c96 0 219 -54 232 -198h-83c-14 95 -77 128 -149 128c-118 0 -172 -86 -172 -188c0 -103 54 -189 172 -189z" />
    <glyph glyph-name="cdotaccent" unicode="&#x10b;" horiz-adv-x="592" 
d="M306 576c-42 0 -73 30 -73 70c0 38 31 69 73 69c41 0 73 -31 73 -69c0 -40 -32 -70 -73 -70zM53 249c0 143 93 258 254 258c96 0 219 -54 232 -198h-83c-14 95 -77 128 -149 128c-118 0 -172 -86 -172 -188c0 -103 54 -189 172 -189c72 0 135 33 149 128h83
c-13 -144 -136 -198 -232 -198c-161 0 -254 115 -254 259z" />
    <glyph glyph-name="d" unicode="d" horiz-adv-x="657" 
d="M583 0h-82v73l14 56h-24c-21 -77 -88 -139 -201 -139c-144 0 -237 111 -237 259c0 147 93 258 237 258c113 0 180 -62 201 -140h24l-14 57v311h82v-735zM501 249c0 132 -84 188 -187 188s-179 -56 -179 -188c0 -133 76 -189 179 -189s187 56 187 189z" />
    <glyph glyph-name="eth" unicode="&#xf0;" horiz-adv-x="651" 
d="M429 644c104 -72 169 -181 169 -325c0 -206 -107 -329 -276 -329c-173 0 -269 110 -269 262c0 146 99 255 257 255c119 0 204 -75 224 -196h24l-14 57c-13 107 -81 188 -183 240l-126 -66l-48 48l97 51c-41 14 -86 24 -133 31v70c78 -9 150 -29 212 -59l109 57l48 -48z
M323 60c127 0 193 91 193 192c0 113 -78 185 -201 185c-115 0 -180 -73 -180 -185c0 -120 63 -192 188 -192z" />
    <glyph glyph-name="dcaron" unicode="&#x10f;" horiz-adv-x="766" 
d="M648 742h75v-254h-75v254zM583 0h-82v73l14 56h-24c-21 -77 -88 -139 -201 -139c-144 0 -237 111 -237 259c0 147 93 258 237 258c113 0 180 -62 201 -140h24l-14 57v311h82v-735zM501 249c0 132 -84 188 -187 188s-179 -56 -179 -188c0 -133 76 -189 179 -189
s187 56 187 189z" />
    <glyph glyph-name="dcroat" unicode="&#x111;" horiz-adv-x="686" 
d="M643 677v-67h-60v-610h-82v73l14 56h-24c-21 -77 -88 -139 -201 -139c-144 0 -237 111 -237 259c0 147 93 258 237 258c113 0 180 -62 201 -140h24l-14 57v186h-139v67h139v58h82v-58h60zM314 60c103 0 187 56 187 189c0 132 -84 188 -187 188s-179 -56 -179 -188
c0 -133 76 -189 179 -189z" />
    <glyph glyph-name="e" unicode="e" horiz-adv-x="596" 
d="M53 255c0 160 100 252 241 252c140 0 232 -89 232 -242v-32h-393c5 -94 50 -175 173 -175c82 0 137 40 155 116h82c-19 -77 -79 -184 -237 -184c-178 0 -253 122 -253 265zM133 295h313c0 80 -53 143 -152 143c-98 0 -161 -63 -161 -143z" />
    <glyph glyph-name="eacute" unicode="&#xe9;" horiz-adv-x="596" 
d="M135 642l307 79l16 -64l-306 -79zM53 255c0 160 100 252 241 252c140 0 232 -89 232 -242v-32h-393c5 -94 50 -175 173 -175c82 0 137 40 155 116h82c-19 -77 -79 -184 -237 -184c-178 0 -253 122 -253 265zM133 295h313c0 80 -53 143 -152 143c-98 0 -161 -63 -161 -143
z" />
    <glyph glyph-name="ecaron" unicode="&#x11b;" horiz-adv-x="596" 
d="M460 693l-162 -131l-162 131l48 46l114 -94l115 94zM53 255c0 160 100 252 241 252c140 0 232 -89 232 -242v-32h-393c5 -94 50 -175 173 -175c82 0 137 40 155 116h82c-19 -77 -79 -184 -237 -184c-178 0 -253 122 -253 265zM133 295h313c0 80 -53 143 -152 143
c-98 0 -161 -63 -161 -143z" />
    <glyph glyph-name="ecircumflex" unicode="&#xea;" horiz-adv-x="596" 
d="M460 607l-47 -46l-115 94l-114 -94l-48 46l162 131zM53 255c0 160 100 252 241 252c140 0 232 -89 232 -242v-32h-393c5 -94 50 -175 173 -175c82 0 137 40 155 116h82c-19 -77 -79 -184 -237 -184c-178 0 -253 122 -253 265zM133 295h313c0 80 -53 143 -152 143
c-98 0 -161 -63 -161 -143z" />
    <glyph glyph-name="edieresis" unicode="&#xeb;" horiz-adv-x="596" 
d="M195 576c-42 0 -73 30 -73 70c0 38 31 69 73 69c41 0 73 -31 73 -69c0 -40 -32 -70 -73 -70zM401 576c-42 0 -73 30 -73 70c0 38 31 69 73 69c41 0 73 -31 73 -69c0 -40 -32 -70 -73 -70zM53 255c0 160 100 252 241 252c140 0 232 -89 232 -242v-32h-393
c5 -94 50 -175 173 -175c82 0 137 40 155 116h82c-19 -77 -79 -184 -237 -184c-178 0 -253 122 -253 265zM133 295h313c0 80 -53 143 -152 143c-98 0 -161 -63 -161 -143z" />
    <glyph glyph-name="edotaccent" unicode="&#x117;" horiz-adv-x="596" 
d="M298 576c-42 0 -73 30 -73 70c0 38 31 69 73 69c41 0 73 -31 73 -69c0 -40 -32 -70 -73 -70zM53 255c0 160 100 252 241 252c140 0 232 -89 232 -242v-32h-393c5 -94 50 -175 173 -175c82 0 137 40 155 116h82c-19 -77 -79 -184 -237 -184c-178 0 -253 122 -253 265z
M133 295h313c0 80 -53 143 -152 143c-98 0 -161 -63 -161 -143z" />
    <glyph glyph-name="egrave" unicode="&#xe8;" horiz-adv-x="596" 
d="M461 642l-16 -64l-307 79l17 64zM53 255c0 160 100 252 241 252c140 0 232 -89 232 -242v-32h-393c5 -94 50 -175 173 -175c82 0 137 40 155 116h82c-19 -77 -79 -184 -237 -184c-178 0 -253 122 -253 265zM133 295h313c0 80 -53 143 -152 143c-98 0 -161 -63 -161 -143z
" />
    <glyph glyph-name="emacron" unicode="&#x113;" horiz-adv-x="596" 
d="M137 683h323v-65l-323 -1v66zM53 255c0 160 100 252 241 252c140 0 232 -89 232 -242v-32h-393c5 -94 50 -175 173 -175c82 0 137 40 155 116h82c-19 -77 -79 -184 -237 -184c-178 0 -253 122 -253 265zM133 295h313c0 80 -53 143 -152 143c-98 0 -161 -63 -161 -143z
" />
    <glyph glyph-name="eogonek" unicode="&#x119;" horiz-adv-x="596" 
d="M376 -2l-64 -123l186 19v-67l-197 -18c-52 -4 -77 38 -55 79l55 102c-174 2 -248 123 -248 265c0 160 100 252 241 252c140 0 232 -89 232 -242v-32h-393c5 -94 50 -175 173 -175c82 0 137 40 155 116h82c-16 -64 -60 -149 -167 -176zM294 438c-98 0 -161 -63 -161 -143
h313c0 80 -53 143 -152 143z" />
    <glyph glyph-name="f" unicode="f" horiz-adv-x="430" 
d="M317 665c-63 0 -83 -29 -83 -94v-74h145v-70h-145v-357h145v-70h-336v70h110v357h-110v70h110v76c0 99 49 162 168 162h86v-70h-90z" />
    <glyph glyph-name="g" unicode="g" horiz-adv-x="660" 
d="M593 497h44v-70h-42c-28 0 -46 -6 -65 -20c21 -26 34 -62 34 -105c0 -107 -84 -174 -234 -229c116 19 228 3 228 -107c0 -132 -136 -149 -469 -149v70c285 0 387 7 387 85c0 110 -219 57 -342 20l-17 57c80 22 159 45 236 69v23c-160 -41 -300 11 -300 165
c0 137 112 201 255 201c60 0 122 -15 169 -48c52 33 71 38 116 38zM309 170c105 0 173 37 173 134c0 96 -68 133 -173 133c-104 0 -174 -37 -174 -133c0 -97 70 -134 174 -134z" />
    <glyph glyph-name="gbreve" unicode="&#x11f;" horiz-adv-x="660" 
d="M310 563c-98 0 -157 70 -157 172h67c0 -73 26 -107 90 -107s89 34 89 107h67c0 -102 -59 -172 -156 -172zM593 497h44v-70h-42c-28 0 -46 -6 -65 -20c21 -26 34 -62 34 -105c0 -107 -84 -174 -234 -229c116 19 228 3 228 -107c0 -132 -136 -149 -469 -149v70
c285 0 387 7 387 85c0 110 -219 57 -342 20l-17 57c80 22 159 45 236 69v23c-160 -41 -300 11 -300 165c0 137 112 201 255 201c60 0 122 -15 169 -48c52 33 71 38 116 38zM309 170c105 0 173 37 173 134c0 96 -68 133 -173 133c-104 0 -174 -37 -174 -133
c0 -97 70 -134 174 -134z" />
    <glyph glyph-name="uni0123" unicode="&#x123;" horiz-adv-x="660" 
d="M400 757l-51 -181l-73 19l52 181zM593 497h44v-70h-42c-28 0 -46 -6 -65 -20c21 -26 34 -62 34 -105c0 -107 -84 -174 -234 -229c116 19 228 3 228 -107c0 -132 -136 -149 -469 -149v70c285 0 387 7 387 85c0 110 -219 57 -342 20l-17 57c80 22 159 45 236 69v23
c-160 -41 -300 11 -300 165c0 137 112 201 255 201c60 0 122 -15 169 -48c52 33 71 38 116 38zM309 170c105 0 173 37 173 134c0 96 -68 133 -173 133c-104 0 -174 -37 -174 -133c0 -97 70 -134 174 -134z" />
    <glyph glyph-name="gdotaccent" unicode="&#x121;" horiz-adv-x="660" 
d="M309 576c-42 0 -73 30 -73 70c0 38 31 69 73 69c41 0 73 -31 73 -69c0 -40 -32 -70 -73 -70zM593 497h44v-70h-42c-28 0 -46 -6 -65 -20c21 -26 34 -62 34 -105c0 -107 -84 -174 -234 -229c116 19 228 3 228 -107c0 -132 -136 -149 -469 -149v70c285 0 387 7 387 85
c0 110 -219 57 -342 20l-17 57c80 22 159 45 236 69v23c-160 -41 -300 11 -300 165c0 137 112 201 255 201c60 0 122 -15 169 -48c52 33 71 38 116 38zM309 170c105 0 173 37 173 134c0 96 -68 133 -173 133c-104 0 -174 -37 -174 -133c0 -97 70 -134 174 -134z" />
    <glyph glyph-name="h" unicode="h" horiz-adv-x="605" 
d="M356 507c112 0 185 -65 185 -203v-304h-81v293c0 104 -41 144 -126 144c-105 0 -179 -83 -179 -217v-220h-82v735h82v-324l-13 -57h23c20 90 83 153 191 153z" />
    <glyph glyph-name="hbar" unicode="&#x127;" horiz-adv-x="636" 
d="M388 507c112 0 185 -65 185 -203v-304h-82v293c0 104 -40 144 -125 144c-106 0 -179 -83 -179 -217v-220h-82v610h-52v67h52v58h82v-58h147v-67h-147v-199l-14 -57h24c20 90 83 153 191 153z" />
    <glyph glyph-name="i" unicode="i" horiz-adv-x="443" 
d="M219 576c-41 0 -72 30 -72 70c0 38 31 69 72 69c40 0 72 -31 72 -69c0 -40 -32 -70 -72 -70zM53 0v70h140v366l-103 -9v70l115 10c47 4 65 -22 65 -60v-377h140v-70h-357z" />
    <glyph glyph-name="dotlessi" unicode="&#x131;" horiz-adv-x="443" 
d="M53 0v70h142v366l-105 -9v70l113 10c47 4 66 -22 66 -68v-369h141v-70h-357z" />
    <glyph glyph-name="iacute" unicode="&#xed;" horiz-adv-x="447" 
d="M38 642l307 79l16 -64l-306 -79zM57 0v70h141v366l-105 -9v70l114 10c46 4 65 -22 65 -68v-369h141v-70h-356z" />
    <glyph glyph-name="icircumflex" unicode="&#xee;" horiz-adv-x="446" 
d="M361 607l-47 -46l-115 94l-114 -94l-47 46l161 131zM56 0v70h141v366l-104 -9v70l113 10c47 4 65 -22 65 -68v-369h142v-70h-357z" />
    <glyph glyph-name="idieresis" unicode="&#xef;" horiz-adv-x="447" 
d="M98 576c-41 0 -72 30 -72 70c0 38 31 69 72 69c42 0 74 -31 74 -69c0 -40 -32 -70 -74 -70zM304 576c-42 0 -72 30 -72 70c0 38 30 69 72 69c41 0 73 -31 73 -69c0 -40 -32 -70 -73 -70zM57 0v70h141v366l-105 -9v70l114 10c46 4 65 -22 65 -68v-369h141v-70h-356z" />
    <glyph glyph-name="i.loclTRK" horiz-adv-x="443" 
d="M196 576c-42 0 -73 30 -73 70c0 38 31 69 73 69c41 0 73 -31 73 -69c0 -40 -32 -70 -73 -70zM53 0v70h142v366l-105 -9v70l113 10c47 4 66 -22 66 -68v-369h141v-70h-357z" />
    <glyph glyph-name="igrave" unicode="&#xec;" horiz-adv-x="443" 
d="M359 642l-16 -64l-307 79l17 64zM53 0v70h142v366l-105 -9v70l113 10c47 4 66 -22 66 -68v-369h141v-70h-357z" />
    <glyph glyph-name="imacron" unicode="&#x12b;" horiz-adv-x="446" 
d="M40 683h323v-65l-323 -1v66zM56 0v70h141v366l-104 -9v70l113 10c47 4 65 -22 65 -68v-369h142v-70h-357z" />
    <glyph glyph-name="iogonek" unicode="&#x12f;" horiz-adv-x="443" 
d="M196 576c-42 0 -73 30 -73 70c0 38 31 69 73 69c41 0 73 -31 73 -69c0 -40 -32 -70 -73 -70zM410 0h-131l-65 -125l186 19v-67l-197 -18c-52 -4 -77 38 -55 79l60 112h-155v70h142v366l-105 -9v70l113 10c47 4 66 -22 66 -68v-369h141v-70z" />
    <glyph glyph-name="j" unicode="j" horiz-adv-x="285" 
d="M157 576c-41 0 -72 30 -72 70c0 38 31 69 72 69s73 -31 73 -69c0 -40 -32 -70 -73 -70zM23 -183l90 157c13 23 17 42 17 68v394l-107 -9v70l121 9c47 4 68 -21 68 -59v-417c0 -26 -4 -45 -17 -68l-82 -145h-90z" />
    <glyph glyph-name="k" unicode="k" horiz-adv-x="562" 
d="M425 0l-166 231l-104 -57v-174h-82v735h82v-475l253 138l-10 99h82l8 -91c3 -33 -12 -57 -40 -72l-122 -67l192 -267h-93z" />
    <glyph glyph-name="uni0137" unicode="&#x137;" horiz-adv-x="562" 
d="M326 267l192 -267h-93l-166 231l-104 -57v-174h-82v735h82v-475l253 138l-10 99h82l8 -91c3 -33 -12 -57 -40 -72zM196 -214l53 165l73 -20l-53 -166z" />
    <glyph glyph-name="l" unicode="l" horiz-adv-x="437" 
d="M43 0v70h140v604l-103 -9v70l116 10c46 4 68 -22 68 -69v-606h139v-70h-360z" />
    <glyph glyph-name="lacute" unicode="&#x13a;" horiz-adv-x="440" 
d="M41 880l307 79l16 -64l-306 -79zM47 0v70h139v604l-102 -9v70l115 10c47 4 69 -22 69 -69v-606h139v-70h-360z" />
    <glyph glyph-name="lcaron" unicode="&#x13e;" horiz-adv-x="451" 
d="M43 0v70h140v604l-103 -9v70l116 10c46 4 68 -22 68 -69v-606h139v-70h-360zM343 742h75v-254h-75v254z" />
    <glyph glyph-name="uni013C" unicode="&#x13c;" horiz-adv-x="437" 
d="M43 0v70h140v604l-103 -9v70l116 10c46 4 68 -22 68 -69v-606h139v-70h-360zM180 -49l73 -20l-53 -166l-73 21z" />
    <glyph glyph-name="lslash" unicode="&#x142;" horiz-adv-x="437" 
d="M264 70h139v-70h-360v70h140v250l-119 -32l-17 64l136 37v285l-103 -9v70l116 10c46 4 68 -22 68 -69v-265l119 32l17 -65l-136 -36v-272z" />
    <glyph glyph-name="m" unicode="m" horiz-adv-x="902" 
d="M685 507c104 0 154 -83 154 -194v-313h-82v294c0 96 -21 143 -102 143c-99 0 -158 -88 -158 -218v-219h-82v294c0 96 -21 143 -102 143c-99 0 -158 -88 -158 -218v-219h-82v497h82v-85l-13 -56h23c20 90 72 151 178 151c90 0 138 -62 149 -151h15c20 90 72 151 178 151z
" />
    <glyph glyph-name="n" unicode="n" horiz-adv-x="605" 
d="M334 437c-105 0 -179 -83 -179 -217v-220h-82v497h82v-86l-13 -57h23c20 90 83 153 191 153c112 0 185 -65 185 -203v-304h-81v293c0 104 -41 144 -126 144z" />
    <glyph glyph-name="nacute" unicode="&#x144;" horiz-adv-x="605" 
d="M163 642l307 79l16 -64l-306 -79zM334 437c-105 0 -179 -83 -179 -217v-220h-82v497h82v-86l-13 -57h23c20 90 83 153 191 153c112 0 185 -65 185 -203v-304h-81v293c0 104 -41 144 -126 144z" />
    <glyph glyph-name="ncaron" unicode="&#x148;" horiz-adv-x="605" 
d="M488 693l-162 -131l-162 131l48 46l114 -94l115 94zM334 437c-105 0 -179 -83 -179 -217v-220h-82v497h82v-86l-13 -57h23c20 90 83 153 191 153c112 0 185 -65 185 -203v-304h-81v293c0 104 -41 144 -126 144z" />
    <glyph glyph-name="uni0146" unicode="&#x146;" horiz-adv-x="605" 
d="M334 437c-105 0 -179 -83 -179 -217v-220h-82v497h82v-86l-13 -57h23c20 90 83 153 191 153c112 0 185 -65 185 -203v-304h-81v293c0 104 -41 144 -126 144zM266 -49l73 -20l-53 -166l-73 21z" />
    <glyph glyph-name="eng" unicode="&#x14b;" horiz-adv-x="605" 
d="M356 507c112 0 185 -65 185 -203v-436c0 -38 -21 -62 -68 -60l-192 10v70l179 -10v415c0 104 -41 144 -126 144c-105 0 -179 -83 -179 -217v-220h-82v497h82v-86l-13 -57h23c20 90 83 153 191 153z" />
    <glyph glyph-name="ntilde" unicode="&#xf1;" horiz-adv-x="605" 
d="M146 592c0 99 44 137 102 137c84 0 108 -80 152 -80c22 0 41 10 41 70h67c0 -100 -44 -137 -102 -137c-84 0 -108 80 -152 80c-22 0 -41 -10 -41 -70h-67zM334 437c-105 0 -179 -83 -179 -217v-220h-82v497h82v-86l-13 -57h23c20 90 83 153 191 153
c112 0 185 -65 185 -203v-304h-81v293c0 104 -41 144 -126 144z" />
    <glyph glyph-name="o" unicode="o" horiz-adv-x="631" 
d="M53 249c0 144 104 258 263 258c158 0 261 -114 261 -258c0 -145 -103 -259 -261 -259c-159 0 -263 114 -263 259zM135 249c0 -104 63 -189 181 -189c117 0 180 85 180 189c0 103 -63 188 -180 188c-118 0 -181 -85 -181 -188z" />
    <glyph glyph-name="oacute" unicode="&#xf3;" horiz-adv-x="631" 
d="M152 642l307 79l16 -64l-306 -79zM53 249c0 144 104 258 263 258c158 0 261 -114 261 -258c0 -145 -103 -259 -261 -259c-159 0 -263 114 -263 259zM135 249c0 -104 63 -189 181 -189c117 0 180 85 180 189c0 103 -63 188 -180 188c-118 0 -181 -85 -181 -188z" />
    <glyph glyph-name="ocircumflex" unicode="&#xf4;" horiz-adv-x="631" 
d="M478 607l-47 -46l-115 94l-114 -94l-48 46l162 131zM53 249c0 144 104 258 263 258c158 0 261 -114 261 -258c0 -145 -103 -259 -261 -259c-159 0 -263 114 -263 259zM135 249c0 -104 63 -189 181 -189c117 0 180 85 180 189c0 103 -63 188 -180 188
c-118 0 -181 -85 -181 -188z" />
    <glyph glyph-name="odieresis" unicode="&#xf6;" horiz-adv-x="631" 
d="M213 576c-42 0 -73 30 -73 70c0 38 31 69 73 69c41 0 73 -31 73 -69c0 -40 -32 -70 -73 -70zM419 576c-42 0 -73 30 -73 70c0 38 31 69 73 69c41 0 73 -31 73 -69c0 -40 -32 -70 -73 -70zM53 249c0 144 104 258 263 258c158 0 261 -114 261 -258
c0 -145 -103 -259 -261 -259c-159 0 -263 114 -263 259zM135 249c0 -104 63 -189 181 -189c117 0 180 85 180 189c0 103 -63 188 -180 188c-118 0 -181 -85 -181 -188z" />
    <glyph glyph-name="ograve" unicode="&#xf2;" horiz-adv-x="631" 
d="M479 642l-16 -64l-307 79l17 64zM53 249c0 144 104 258 263 258c158 0 261 -114 261 -258c0 -145 -103 -259 -261 -259c-159 0 -263 114 -263 259zM135 249c0 -104 63 -189 181 -189c117 0 180 85 180 189c0 103 -63 188 -180 188c-118 0 -181 -85 -181 -188z" />
    <glyph glyph-name="ohungarumlaut" unicode="&#x151;" horiz-adv-x="631" 
d="M178 608l143 138l46 -46l-142 -137zM343 608l143 138l46 -46l-142 -137zM53 249c0 144 104 258 263 258c158 0 261 -114 261 -258c0 -145 -103 -259 -261 -259c-159 0 -263 114 -263 259zM135 249c0 -104 63 -189 181 -189c117 0 180 85 180 189c0 103 -63 188 -180 188
c-118 0 -181 -85 -181 -188z" />
    <glyph glyph-name="omacron" unicode="&#x14d;" horiz-adv-x="631" 
d="M155 683h323v-65l-323 -1v66zM53 249c0 144 104 258 263 258c158 0 261 -114 261 -258c0 -145 -103 -259 -261 -259c-159 0 -263 114 -263 259zM135 249c0 -104 63 -189 181 -189c117 0 180 85 180 189c0 103 -63 188 -180 188c-118 0 -181 -85 -181 -188z" />
    <glyph glyph-name="oslash" unicode="&#xf8;" horiz-adv-x="631" 
d="M474 459c65 -47 103 -123 103 -210c0 -145 -103 -259 -261 -259c-38 0 -72 6 -103 18l-35 -60l-54 31l34 58c-66 47 -105 124 -105 212c0 144 104 258 263 258c38 0 72 -6 103 -18l34 59l55 -31zM135 249c0 -59 21 -112 60 -147l188 324c-20 7 -42 11 -67 11
c-118 0 -181 -85 -181 -188zM316 60c117 0 180 85 180 189c0 58 -20 111 -59 146l-188 -324c20 -7 42 -11 67 -11z" />
    <glyph glyph-name="otilde" unicode="&#xf5;" horiz-adv-x="631" 
d="M135 592c0 99 44 137 102 137c84 0 108 -80 152 -80c22 0 41 10 41 70h67c0 -100 -44 -137 -102 -137c-84 0 -108 80 -152 80c-22 0 -41 -10 -41 -70h-67zM53 249c0 144 104 258 263 258c158 0 261 -114 261 -258c0 -145 -103 -259 -261 -259c-159 0 -263 114 -263 259z
M135 249c0 -104 63 -189 181 -189c117 0 180 85 180 189c0 103 -63 188 -180 188c-118 0 -181 -85 -181 -188z" />
    <glyph glyph-name="oe" unicode="&#x153;" horiz-adv-x="1053" 
d="M918 174h82c-18 -77 -79 -184 -237 -184c-113 0 -184 50 -221 123c-43 -74 -123 -123 -226 -123c-159 0 -263 114 -263 259c0 144 104 258 263 258c102 0 181 -47 224 -119c39 77 116 119 211 119c140 0 232 -89 232 -242v-32h-392c5 -94 49 -175 172 -175
c83 0 137 40 155 116zM751 438c-97 0 -160 -63 -160 -143h312c0 80 -52 143 -152 143zM316 60c117 0 180 85 180 189c0 103 -63 188 -180 188c-118 0 -181 -85 -181 -188c0 -104 63 -189 181 -189z" />
    <glyph glyph-name="p" unicode="p" horiz-adv-x="656" 
d="M73 497h82v-73l-13 -57h23c21 78 87 140 201 140c144 0 237 -111 237 -259c0 -147 -93 -258 -237 -258c-114 0 -180 62 -201 139h-23l13 -56v-255h-82v679zM155 248c0 -132 85 -188 187 -188c103 0 179 58 179 188c0 131 -76 189 -179 189c-102 0 -187 -56 -187 -189z
" />
    <glyph glyph-name="thorn" unicode="&#xfe;" horiz-adv-x="656" 
d="M366 507c144 0 237 -111 237 -259c0 -147 -93 -258 -237 -258c-114 0 -180 62 -201 139h-23l13 -56v-255h-82v917h82v-311l-13 -57h23c21 78 87 140 201 140zM342 60c103 0 179 58 179 188c0 131 -76 189 -179 189c-102 0 -187 -56 -187 -189c0 -132 85 -188 187 -188z
" />
    <glyph glyph-name="q" unicode="q" horiz-adv-x="657" 
d="M583 497v-679h-82v255l14 56h-24c-21 -77 -87 -139 -200 -139c-145 0 -238 111 -238 258c0 148 93 259 238 259c113 0 179 -62 200 -140h24l-14 57v73h82zM501 248c0 133 -84 189 -187 189s-179 -58 -179 -189c0 -130 76 -188 179 -188s187 56 187 188z" />
    <glyph glyph-name="r" unicode="r" horiz-adv-x="441" 
d="M73 0v438c0 47 22 70 69 68l276 -9v-70l-263 9v-436h-82z" />
    <glyph glyph-name="racute" unicode="&#x155;" horiz-adv-x="443" 
d="M93 642l306 79l16 -64l-306 -79zM75 0v438c0 47 22 70 69 68l276 -9v-70l-263 9v-436h-82z" />
    <glyph glyph-name="rcaron" unicode="&#x159;" horiz-adv-x="444" 
d="M417 693l-162 -131l-162 131l48 46l114 -94l115 94zM75 0v438c0 47 22 70 68 68l276 -9v-70l-262 9v-436h-82z" />
    <glyph glyph-name="uni0157" unicode="&#x157;" horiz-adv-x="439" 
d="M72 0v438c0 47 21 70 68 68l276 -9v-70l-263 9v-436h-81zM71 -49l73 -20l-53 -166l-73 21z" />
    <glyph glyph-name="s" unicode="s" horiz-adv-x="499" 
d="M466 129c0 -75 -47 -139 -196 -139c-161 0 -227 75 -227 193h82c0 -86 50 -126 146 -126c77 0 113 18 113 69c0 65 -67 76 -148 101c-94 30 -170 59 -170 149c0 79 67 131 181 131c155 0 202 -85 202 -167h-82c0 67 -41 100 -120 100c-55 0 -99 -16 -99 -61
c0 -48 34 -63 114 -89c98 -32 204 -54 204 -161z" />
    <glyph glyph-name="sacute" unicode="&#x15b;" horiz-adv-x="499" 
d="M92 642l307 79l16 -64l-306 -79zM466 129c0 -75 -47 -139 -196 -139c-161 0 -227 75 -227 193h82c0 -86 50 -126 146 -126c77 0 113 18 113 69c0 65 -67 76 -148 101c-94 30 -170 59 -170 149c0 79 67 131 181 131c155 0 202 -85 202 -167h-82c0 67 -41 100 -120 100
c-55 0 -99 -16 -99 -61c0 -48 34 -63 114 -89c98 -32 204 -54 204 -161z" />
    <glyph glyph-name="scaron" unicode="&#x161;" horiz-adv-x="499" 
d="M417 693l-162 -131l-162 131l48 46l114 -94l115 94zM466 129c0 -75 -47 -139 -196 -139c-161 0 -227 75 -227 193h82c0 -86 50 -126 146 -126c77 0 113 18 113 69c0 65 -67 76 -148 101c-94 30 -170 59 -170 149c0 79 67 131 181 131c155 0 202 -85 202 -167h-82
c0 67 -41 100 -120 100c-55 0 -99 -16 -99 -61c0 -48 34 -63 114 -89c98 -32 204 -54 204 -161z" />
    <glyph glyph-name="scedilla" unicode="&#x15f;" horiz-adv-x="499" 
d="M466 129c0 -73 -44 -135 -183 -139l-45 -47c18 9 39 15 65 15c34 0 65 -16 65 -56c0 -77 -83 -87 -209 -87v62c91 0 143 -1 143 31c0 13 -9 20 -23 20c-18 0 -34 -4 -70 -26l-35 46l39 46c-120 16 -170 86 -170 189h82c0 -86 50 -126 146 -126c77 0 113 18 113 69
c0 65 -67 76 -148 101c-94 30 -170 59 -170 149c0 79 67 131 181 131c155 0 202 -85 202 -167h-82c0 67 -41 100 -120 100c-55 0 -99 -16 -99 -61c0 -48 34 -63 114 -89c98 -32 204 -54 204 -161z" />
    <glyph glyph-name="uni0219" unicode="&#x219;" horiz-adv-x="499" 
d="M466 129c0 -75 -47 -139 -196 -139c-161 0 -227 75 -227 193h82c0 -86 50 -126 146 -126c77 0 113 18 113 69c0 65 -67 76 -148 101c-94 30 -170 59 -170 149c0 79 67 131 181 131c155 0 202 -85 202 -167h-82c0 67 -41 100 -120 100c-55 0 -99 -16 -99 -61
c0 -48 34 -63 114 -89c98 -32 204 -54 204 -161zM213 -49l73 -20l-53 -166l-73 21z" />
    <glyph glyph-name="germandbls" unicode="&#xdf;" horiz-adv-x="550" 
d="M211 0v70l107 -9c82 -7 117 37 117 102c0 149 -198 91 -198 225c0 110 116 106 116 186c0 45 -25 71 -83 71c-66 0 -115 -21 -115 -146v-499h-82v511c0 159 98 204 197 204c112 0 165 -66 165 -135c0 -111 -116 -111 -116 -182c0 -87 198 -46 198 -239
c0 -120 -84 -179 -195 -169z" />
    <glyph glyph-name="t" unicode="t" horiz-adv-x="433" 
d="M214 59l175 11v-70l-188 -10c-47 -3 -68 22 -68 68v369h-110v70h110v128l81 25v-153h155v-70h-155v-368z" />
    <glyph glyph-name="tbar" unicode="&#x167;" horiz-adv-x="433" 
d="M214 59l175 11v-70l-188 -10c-47 -3 -68 22 -68 68v197h-90v67h90v105h-110v70h110v128l81 25v-153h155v-70h-155v-105h126v-67h-126v-196z" />
    <glyph glyph-name="tcaron" unicode="&#x165;" horiz-adv-x="433" 
d="M350 735v-180h-75v180h75zM214 59l175 11v-70l-188 -10c-47 -3 -68 22 -68 68v369h-110v70h110v128l81 25v-153h155v-70h-155v-368z" />
    <glyph glyph-name="uni0163" unicode="&#x163;" horiz-adv-x="433" 
d="M389 0l-90 -5l-50 -52c18 9 39 15 65 15c34 0 65 -16 65 -56c0 -77 -83 -87 -209 -87v62c91 0 143 -1 143 31c0 13 -9 20 -23 20c-18 0 -34 -4 -70 -26l-35 46l36 43l-20 -1c-47 -3 -68 22 -68 68v369h-110v70h110v128l81 25v-153h155v-70h-155v-368l175 11v-70z" />
    <glyph glyph-name="uni021B" unicode="&#x21b;" horiz-adv-x="433" 
d="M214 59l175 11v-70l-188 -10c-47 -3 -68 22 -68 68v369h-110v70h110v128l81 25v-153h155v-70h-155v-368zM171 -214l53 165l73 -20l-53 -166z" />
    <glyph glyph-name="u" unicode="u" horiz-adv-x="595" 
d="M271 60c105 0 179 83 179 216v221h81v-497h-81v86l13 57h-23c-20 -90 -83 -153 -191 -153c-113 0 -186 65 -186 203v304h82v-293c0 -104 40 -144 126 -144z" />
    <glyph glyph-name="uacute" unicode="&#xfa;" horiz-adv-x="595" 
d="M142 642l307 79l16 -64l-306 -79zM271 60c105 0 179 83 179 216v221h81v-497h-81v86l13 57h-23c-20 -90 -83 -153 -191 -153c-113 0 -186 65 -186 203v304h82v-293c0 -104 40 -144 126 -144z" />
    <glyph glyph-name="ucircumflex" unicode="&#xfb;" horiz-adv-x="595" 
d="M468 607l-47 -46l-115 94l-114 -94l-48 46l162 131zM271 60c105 0 179 83 179 216v221h81v-497h-81v86l13 57h-23c-20 -90 -83 -153 -191 -153c-113 0 -186 65 -186 203v304h82v-293c0 -104 40 -144 126 -144z" />
    <glyph glyph-name="udieresis" unicode="&#xfc;" horiz-adv-x="595" 
d="M203 576c-42 0 -73 30 -73 70c0 38 31 69 73 69c41 0 73 -31 73 -69c0 -40 -32 -70 -73 -70zM409 576c-42 0 -73 30 -73 70c0 38 31 69 73 69c41 0 73 -31 73 -69c0 -40 -32 -70 -73 -70zM271 60c105 0 179 83 179 216v221h81v-497h-81v86l13 57h-23
c-20 -90 -83 -153 -191 -153c-113 0 -186 65 -186 203v304h82v-293c0 -104 40 -144 126 -144z" />
    <glyph glyph-name="ugrave" unicode="&#xf9;" horiz-adv-x="595" 
d="M469 642l-16 -64l-307 79l17 64zM271 60c105 0 179 83 179 216v221h81v-497h-81v86l13 57h-23c-20 -90 -83 -153 -191 -153c-113 0 -186 65 -186 203v304h82v-293c0 -104 40 -144 126 -144z" />
    <glyph glyph-name="uhungarumlaut" unicode="&#x171;" horiz-adv-x="595" 
d="M168 608l143 138l46 -46l-142 -137zM333 608l143 138l46 -46l-142 -137zM271 60c105 0 179 83 179 216v221h81v-497h-81v86l13 57h-23c-20 -90 -83 -153 -191 -153c-113 0 -186 65 -186 203v304h82v-293c0 -104 40 -144 126 -144z" />
    <glyph glyph-name="umacron" unicode="&#x16b;" horiz-adv-x="595" 
d="M145 683h323v-65l-323 -1v66zM271 60c105 0 179 83 179 216v221h81v-497h-81v86l13 57h-23c-20 -90 -83 -153 -191 -153c-113 0 -186 65 -186 203v304h82v-293c0 -104 40 -144 126 -144z" />
    <glyph glyph-name="uogonek" unicode="&#x173;" horiz-adv-x="595" 
d="M465 -125l186 19v-67l-197 -18c-52 -4 -77 38 -55 79l60 112h-9v86l13 57h-23c-20 -90 -83 -153 -191 -153c-113 0 -186 65 -186 203v304h82v-293c0 -104 40 -144 126 -144c105 0 179 83 179 216v221h81v-497h-1z" />
    <glyph glyph-name="uring" unicode="&#x16f;" horiz-adv-x="595" 
d="M305 559c-76 0 -118 51 -118 109c0 57 42 108 118 108s119 -51 119 -108s-43 -109 -119 -109zM305 621c35 0 52 18 52 47c0 28 -18 46 -52 46c-33 0 -51 -18 -51 -46c0 -29 18 -47 51 -47zM271 60c105 0 179 83 179 216v221h81v-497h-81v86l13 57h-23
c-20 -90 -83 -153 -191 -153c-113 0 -186 65 -186 203v304h82v-293c0 -104 40 -144 126 -144z" />
    <glyph glyph-name="v" unicode="v" horiz-adv-x="539" 
d="M436 497h79l-162 -497h-166l-164 497h80l155 -474h24z" />
    <glyph glyph-name="w" unicode="w" horiz-adv-x="860" 
d="M23 497h78l120 -474h24l100 474h169l101 -474h23l121 474h77l-126 -497h-167l-101 473h-24l-101 -473h-168z" />
    <glyph glyph-name="wacute" unicode="&#x1e83;" horiz-adv-x="860" 
d="M266 642l307 79l16 -64l-306 -79zM23 497h78l120 -474h24l100 474h169l101 -474h23l121 474h77l-126 -497h-167l-101 473h-24l-101 -473h-168z" />
    <glyph glyph-name="wcircumflex" unicode="&#x175;" horiz-adv-x="860" 
d="M592 607l-47 -46l-115 94l-114 -94l-48 46l162 131zM23 497h78l120 -474h24l100 474h169l101 -474h23l121 474h77l-126 -497h-167l-101 473h-24l-101 -473h-168z" />
    <glyph glyph-name="wdieresis" unicode="&#x1e85;" horiz-adv-x="860" 
d="M327 576c-42 0 -73 30 -73 70c0 38 31 69 73 69c41 0 73 -31 73 -69c0 -40 -32 -70 -73 -70zM533 576c-42 0 -73 30 -73 70c0 38 31 69 73 69c41 0 73 -31 73 -69c0 -40 -32 -70 -73 -70zM23 497h78l120 -474h24l100 474h169l101 -474h23l121 474h77l-126 -497h-167
l-101 473h-24l-101 -473h-168z" />
    <glyph glyph-name="wgrave" unicode="&#x1e81;" horiz-adv-x="860" 
d="M593 642l-16 -64l-307 79l17 64zM23 497h78l120 -474h24l100 474h169l101 -474h23l121 474h77l-126 -497h-167l-101 473h-24l-101 -473h-168z" />
    <glyph glyph-name="x" unicode="x" horiz-adv-x="582" 
d="M43 0l187 237v24l-187 236h97l151 -200l151 200h97l-187 -236v-24l187 -237h-97l-151 201l-151 -201h-97z" />
    <glyph glyph-name="y" unicode="y" horiz-adv-x="591" 
d="M469 497h89l-216 -492v-139c0 -38 -22 -61 -69 -59l-192 9v70l179 -9v128l-217 492h90l156 -387v-38h24v38z" />
    <glyph glyph-name="yacute" unicode="&#xfd;" horiz-adv-x="591" 
d="M461 657l-306 -79l-17 64l307 79zM469 497h89l-216 -492v-139c0 -38 -22 -61 -69 -59l-192 9v70l179 -9v128l-217 492h90l156 -387v-38h24v38z" />
    <glyph glyph-name="ycircumflex" unicode="&#x177;" horiz-adv-x="591" 
d="M301 655l-114 -94l-48 46l162 131l162 -131l-47 -46zM469 497h89l-216 -492v-139c0 -38 -22 -61 -69 -59l-192 9v70l179 -9v128l-217 492h90l156 -387v-38h24v38z" />
    <glyph glyph-name="ydieresis" unicode="&#xff;" horiz-adv-x="591" 
d="M198 576c-42 0 -73 30 -73 70c0 38 31 69 73 69c41 0 73 -31 73 -69c0 -40 -32 -70 -73 -70zM404 576c-42 0 -73 30 -73 70c0 38 31 69 73 69c41 0 73 -31 73 -69c0 -40 -32 -70 -73 -70zM469 497h89l-216 -492v-139c0 -38 -22 -61 -69 -59l-192 9v70l179 -9v128
l-217 492h90l156 -387v-38h24v38z" />
    <glyph glyph-name="ygrave" unicode="&#x1ef3;" horiz-adv-x="591" 
d="M464 642l-16 -64l-307 79l17 64zM469 497h89l-216 -492v-139c0 -38 -22 -61 -69 -59l-192 9v70l179 -9v128l-217 492h90l156 -387v-38h24v38z" />
    <glyph glyph-name="z" unicode="z" horiz-adv-x="562" 
d="M53 0v150l432 267v23l-56 -13h-376v70h456v-150l-432 -267v-23l56 13h376v-70h-456z" />
    <glyph glyph-name="zacute" unicode="&#x17a;" horiz-adv-x="562" 
d="M118 642l307 79l16 -64l-306 -79zM53 0v150l432 267v23l-56 -13h-376v70h456v-150l-432 -267v-23l56 13h376v-70h-456z" />
    <glyph glyph-name="zcaron" unicode="&#x17e;" horiz-adv-x="562" 
d="M443 693l-162 -131l-162 131l48 46l114 -94l115 94zM53 0v150l432 267v23l-56 -13h-376v70h456v-150l-432 -267v-23l56 13h376v-70h-456z" />
    <glyph glyph-name="zdotaccent" unicode="&#x17c;" horiz-adv-x="562" 
d="M281 576c-42 0 -73 30 -73 70c0 38 31 69 73 69c41 0 73 -31 73 -69c0 -40 -32 -70 -73 -70zM53 0v150l432 267v23l-56 -13h-376v70h456v-150l-432 -267v-23l56 13h376v-70h-456z" />
    <glyph glyph-name="a.ss01" horiz-adv-x="660" 
d="M586 0h-81v73l13 56h-23c-21 -77 -89 -139 -201 -139c-146 0 -241 111 -241 259c0 147 95 258 241 258c112 0 180 -62 201 -140h23l-13 57v73h81v-497zM505 249c0 133 -87 188 -189 188c-103 0 -181 -55 -181 -188c0 -134 78 -189 181 -189c102 0 189 55 189 189z" />
    <glyph glyph-name="aacute.ss01" horiz-adv-x="660" 
d="M166 642l307 79l16 -64l-306 -79zM586 0h-81v73l13 56h-23c-21 -77 -89 -139 -201 -139c-146 0 -241 111 -241 259c0 147 95 258 241 258c112 0 180 -62 201 -140h23l-13 57v73h81v-497zM505 249c0 133 -87 188 -189 188c-103 0 -181 -55 -181 -188
c0 -134 78 -189 181 -189c102 0 189 55 189 189z" />
    <glyph glyph-name="abreve.ss01" horiz-adv-x="660" 
d="M486 735c0 -102 -59 -172 -156 -172c-98 0 -157 70 -157 172h67c0 -73 26 -107 90 -107s89 34 89 107h67zM586 0h-81v73l13 56h-23c-21 -77 -89 -139 -201 -139c-146 0 -241 111 -241 259c0 147 95 258 241 258c112 0 180 -62 201 -140h23l-13 57v73h81v-497zM505 249
c0 133 -87 188 -189 188c-103 0 -181 -55 -181 -188c0 -134 78 -189 181 -189c102 0 189 55 189 189z" />
    <glyph glyph-name="acircumflex.ss01" horiz-adv-x="660" 
d="M492 607l-47 -46l-115 94l-114 -94l-48 46l162 131zM586 0h-81v73l13 56h-23c-21 -77 -89 -139 -201 -139c-146 0 -241 111 -241 259c0 147 95 258 241 258c112 0 180 -62 201 -140h23l-13 57v73h81v-497zM505 249c0 133 -87 188 -189 188c-103 0 -181 -55 -181 -188
c0 -134 78 -189 181 -189c102 0 189 55 189 189z" />
    <glyph glyph-name="adieresis.ss01" horiz-adv-x="660" 
d="M227 576c-42 0 -73 30 -73 70c0 38 31 69 73 69c41 0 73 -31 73 -69c0 -40 -32 -70 -73 -70zM433 576c-42 0 -73 30 -73 70c0 38 31 69 73 69c41 0 73 -31 73 -69c0 -40 -32 -70 -73 -70zM586 0h-81v73l13 56h-23c-21 -77 -89 -139 -201 -139c-146 0 -241 111 -241 259
c0 147 95 258 241 258c112 0 180 -62 201 -140h23l-13 57v73h81v-497zM505 249c0 133 -87 188 -189 188c-103 0 -181 -55 -181 -188c0 -134 78 -189 181 -189c102 0 189 55 189 189z" />
    <glyph glyph-name="agrave.ss01" horiz-adv-x="660" 
d="M493 642l-16 -64l-307 79l17 64zM586 0h-81v73l13 56h-23c-21 -77 -89 -139 -201 -139c-146 0 -241 111 -241 259c0 147 95 258 241 258c112 0 180 -62 201 -140h23l-13 57v73h81v-497zM505 249c0 133 -87 188 -189 188c-103 0 -181 -55 -181 -188
c0 -134 78 -189 181 -189c102 0 189 55 189 189z" />
    <glyph glyph-name="amacron.ss01" horiz-adv-x="660" 
d="M169 683h323v-65l-323 -1v66zM586 0h-81v73l13 56h-23c-21 -77 -89 -139 -201 -139c-146 0 -241 111 -241 259c0 147 95 258 241 258c112 0 180 -62 201 -140h23l-13 57v73h81v-497zM505 249c0 133 -87 188 -189 188c-103 0 -181 -55 -181 -188c0 -134 78 -189 181 -189
c102 0 189 55 189 189z" />
    <glyph glyph-name="aogonek.ss01" horiz-adv-x="660" 
d="M520 -125l186 19v-67l-197 -18c-52 -4 -77 38 -55 79l60 112h-9v73l13 56h-23c-21 -77 -89 -139 -201 -139c-146 0 -241 111 -241 259c0 147 95 258 241 258c112 0 180 -62 201 -140h23l-13 57v73h81v-497h-1zM316 60c102 0 189 55 189 189c0 133 -87 188 -189 188
c-103 0 -181 -55 -181 -188c0 -134 78 -189 181 -189z" />
    <glyph glyph-name="aring.ss01" horiz-adv-x="660" 
d="M329 559c-76 0 -118 51 -118 109c0 57 42 108 118 108s119 -51 119 -108s-43 -109 -119 -109zM329 621c35 0 52 18 52 47c0 28 -18 46 -52 46c-33 0 -51 -18 -51 -46c0 -29 18 -47 51 -47zM586 0h-81v73l13 56h-23c-21 -77 -89 -139 -201 -139c-146 0 -241 111 -241 259
c0 147 95 258 241 258c112 0 180 -62 201 -140h23l-13 57v73h81v-497zM505 249c0 133 -87 188 -189 188c-103 0 -181 -55 -181 -188c0 -134 78 -189 181 -189c102 0 189 55 189 189z" />
    <glyph glyph-name="atilde.ss01" horiz-adv-x="660" 
d="M149 592c0 99 44 137 102 137c84 0 108 -80 152 -80c22 0 41 10 41 70h67c0 -100 -44 -137 -102 -137c-84 0 -108 80 -152 80c-22 0 -41 -10 -41 -70h-67zM586 0h-81v73l13 56h-23c-21 -77 -89 -139 -201 -139c-146 0 -241 111 -241 259c0 147 95 258 241 258
c112 0 180 -62 201 -140h23l-13 57v73h81v-497zM505 249c0 133 -87 188 -189 188c-103 0 -181 -55 -181 -188c0 -134 78 -189 181 -189c102 0 189 55 189 189z" />
    <glyph glyph-name="g.ss01" horiz-adv-x="660" 
d="M505 497h81v-629c0 -38 -21 -61 -68 -60l-374 10v70l361 -10v195l13 56h-23c-21 -77 -89 -139 -201 -139c-146 0 -241 111 -241 259c0 147 95 258 241 258c112 0 180 -62 201 -140h23l-13 57v73zM316 60c102 0 189 55 189 189c0 133 -87 188 -189 188
c-103 0 -181 -55 -181 -188c0 -134 78 -189 181 -189z" />
    <glyph glyph-name="gbreve.ss01" horiz-adv-x="660" 
d="M326 563c-98 0 -157 70 -157 172h67c0 -73 26 -107 90 -107s89 34 89 107h67c0 -102 -59 -172 -156 -172zM505 497h81v-629c0 -38 -21 -61 -68 -60l-374 10v70l361 -10v195l13 56h-23c-21 -77 -89 -139 -201 -139c-146 0 -241 111 -241 259c0 147 95 258 241 258
c112 0 180 -62 201 -140h23l-13 57v73zM316 60c102 0 189 55 189 189c0 133 -87 188 -189 188c-103 0 -181 -55 -181 -188c0 -134 78 -189 181 -189z" />
    <glyph glyph-name="uni0123.ss01" horiz-adv-x="660" 
d="M416 757l-51 -181l-73 19l52 181zM505 497h81v-629c0 -38 -21 -61 -68 -60l-374 10v70l361 -10v195l13 56h-23c-21 -77 -89 -139 -201 -139c-146 0 -241 111 -241 259c0 147 95 258 241 258c112 0 180 -62 201 -140h23l-13 57v73zM316 60c102 0 189 55 189 189
c0 133 -87 188 -189 188c-103 0 -181 -55 -181 -188c0 -134 78 -189 181 -189z" />
    <glyph glyph-name="gdotaccent.ss01" horiz-adv-x="660" 
d="M325 576c-42 0 -73 30 -73 70c0 38 31 69 73 69c41 0 73 -31 73 -69c0 -40 -32 -70 -73 -70zM505 497h81v-629c0 -38 -21 -61 -68 -60l-374 10v70l361 -10v195l13 56h-23c-21 -77 -89 -139 -201 -139c-146 0 -241 111 -241 259c0 147 95 258 241 258
c112 0 180 -62 201 -140h23l-13 57v73zM316 60c102 0 189 55 189 189c0 133 -87 188 -189 188c-103 0 -181 -55 -181 -188c0 -134 78 -189 181 -189z" />
    <glyph glyph-name="k.ss01" horiz-adv-x="571" 
d="M528 497l-225 -196l225 -301h-95l-187 252l-91 -80v-172h-82v735h82v-464l256 226h117z" />
    <glyph glyph-name="uni0137.ss01" horiz-adv-x="571" 
d="M528 497l-225 -196l225 -301h-95l-187 252l-91 -80v-172h-82v735h82v-464l256 226h117zM201 -214l53 165l73 -20l-53 -166z" />
    <glyph glyph-name="uni0410" unicode="&#x410;" horiz-adv-x="690" 
d="M575 0l-89 276h-283l-88 -276h-82l228 705h168l227 -705h-81zM226 346h238l-108 336h-23z" />
    <glyph glyph-name="uni0411" unicode="&#x411;" horiz-adv-x="625" 
d="M287 442c168 0 275 -47 275 -222c0 -174 -107 -220 -275 -220h-214v705h415v-70h-333v-193h132zM287 70c124 0 193 22 193 150c0 129 -69 152 -193 152h-132v-302h132z" />
    <glyph glyph-name="uni0412" unicode="&#x412;" horiz-adv-x="646" 
d="M73 0v705h187c172 0 271 -34 271 -173c0 -102 -68 -144 -141 -149v-24c108 -2 193 -46 193 -172c0 -142 -107 -187 -278 -187h-232zM155 402h108c115 0 186 17 186 117c0 109 -71 116 -186 116h-108v-233zM155 70h153c120 0 193 20 193 131c0 103 -73 131 -193 131h-153
v-262z" />
    <glyph glyph-name="uni0413" unicode="&#x413;" horiz-adv-x="541" 
d="M73 0v705h425v-70h-343v-635h-82z" />
    <glyph glyph-name="uni0403" unicode="&#x403;" horiz-adv-x="541" 
d="M133 850l307 79l16 -64l-306 -79zM73 0v705h425v-70h-343v-635h-82z" />
    <glyph glyph-name="uni0490" unicode="&#x490;" horiz-adv-x="521" 
d="M416 798h82v-163h-343v-635h-82v705h343v93z" />
    <glyph glyph-name="uni0414" unicode="&#x414;" horiz-adv-x="722" 
d="M623 70h66v-202h-82v132h-492v-132h-82v202h66c64 160 88 339 88 635h436v-635zM181 70h360v565h-273c-4 -255 -28 -418 -87 -565z" />
    <glyph glyph-name="uni0415" unicode="&#x415;" horiz-adv-x="563" 
d="M73 0v705h437v-70h-355v-247h305v-70h-305v-248h355v-70h-437z" />
    <glyph glyph-name="uni0400" unicode="&#x400;" horiz-adv-x="563" 
d="M455 850l-16 -64l-307 79l17 64zM73 0v705h437v-70h-355v-247h305v-70h-305v-248h355v-70h-437z" />
    <glyph glyph-name="uni0401" unicode="&#x401;" horiz-adv-x="563" 
d="M189 784c-42 0 -73 30 -73 70c0 38 31 69 73 69c41 0 73 -31 73 -69c0 -40 -32 -70 -73 -70zM395 784c-42 0 -73 30 -73 70c0 38 31 69 73 69c41 0 73 -31 73 -69c0 -40 -32 -70 -73 -70zM73 0v705h437v-70h-355v-247h305v-70h-305v-248h355v-70h-437z" />
    <glyph glyph-name="uni0416" unicode="&#x416;" horiz-adv-x="1015" 
d="M982 635h-121l-209 -267l330 -368h-100l-288 321c-7 -2 -15 -3 -24 -3h-21v-318h-82v318h-22c-8 0 -16 1 -23 3l-288 -321h-101l330 369l-209 266h-121v70h120c32 0 54 -13 72 -38l216 -277h26v315h82v-315h25l216 277c19 25 40 38 72 38h120v-70z" />
    <glyph glyph-name="uni0417" unicode="&#x417;" horiz-adv-x="680" 
d="M63 269h82c0 -153 67 -209 208 -209c128 0 182 52 182 147c0 93 -51 129 -136 129h-98v70h98c85 0 126 35 126 111s-44 128 -172 128c-141 0 -198 -56 -198 -171h-82c0 157 99 241 280 241c169 0 254 -79 254 -187c0 -86 -46 -131 -136 -145v-23c90 -18 146 -57 146 -165
c0 -126 -95 -205 -264 -205c-181 0 -290 84 -290 279z" />
    <glyph glyph-name="uni0418" unicode="&#x418;" horiz-adv-x="755" 
d="M682 0h-82v623l13 59h-23l-351 -682h-165v705h81v-623l-13 -59h23l352 682h165v-705z" />
    <glyph glyph-name="uni0419" unicode="&#x419;" horiz-adv-x="755" 
d="M523 943c0 -102 -59 -172 -156 -172c-98 0 -157 70 -157 172h67c0 -73 26 -107 90 -107s89 34 89 107h67zM682 0h-82v623l13 59h-23l-351 -682h-165v705h81v-623l-13 -59h23l352 682h165v-705z" />
    <glyph glyph-name="uni040D" unicode="&#x40d;" horiz-adv-x="755" 
d="M530 850l-16 -64l-307 79l17 64zM682 0h-82v623l13 59h-23l-351 -682h-165v705h81v-623l-13 -59h23l352 682h165v-705z" />
    <glyph glyph-name="uni041A" unicode="&#x41a;" horiz-adv-x="625" 
d="M592 0h-99l-288 322c-9 -3 -18 -4 -28 -4h-22v-318h-82v705h82v-315h26l216 277c18 25 40 38 72 38h120v-70h-121l-206 -263z" />
    <glyph glyph-name="uni040C" unicode="&#x40c;" horiz-adv-x="625" 
d="M471 865l-306 -79l-17 64l307 79zM592 0h-99l-288 322c-9 -3 -18 -4 -28 -4h-22v-318h-82v705h82v-315h26l216 277c18 25 40 38 72 38h120v-70h-121l-206 -263z" />
    <glyph glyph-name="uni041B" unicode="&#x41b;" horiz-adv-x="690" 
d="M617 705v-705h-82v635h-266c-1 -340 -15 -635 -236 -635v70c157 0 154 303 154 635h430z" />
    <glyph glyph-name="uni041C" unicode="&#x41c;" horiz-adv-x="899" 
d="M73 0v705h165l200 -682h23l201 682h164v-705h-82v623l14 59h-24l-202 -682h-165l-202 682h-23l13 -59v-623h-82z" />
    <glyph glyph-name="uni041D" unicode="&#x41d;" horiz-adv-x="726" 
d="M571 705h81v-705h-81v313h-416v-313h-82v705h82v-322h416v322z" />
    <glyph glyph-name="uni041E" unicode="&#x41e;" horiz-adv-x="784" 
d="M63 353c0 205 122 362 330 362c206 0 328 -157 328 -362c0 -206 -122 -363 -328 -363c-208 0 -330 157 -330 363zM145 353c0 -169 81 -293 248 -293c166 0 246 124 246 293c0 168 -80 292 -246 292c-167 0 -248 -124 -248 -292z" />
    <glyph glyph-name="uni041F" unicode="&#x41f;" horiz-adv-x="682" 
d="M609 705v-705h-82v635h-372v-635h-82v705h536z" />
    <glyph glyph-name="uni0420" unicode="&#x420;" horiz-adv-x="615" 
d="M271 705c178 0 291 -46 291 -230c0 -185 -113 -232 -291 -232h-116v-243h-82v705h198zM272 313c120 0 208 22 208 162c0 138 -88 160 -208 160h-117v-322h117z" />
    <glyph glyph-name="uni0421" unicode="&#x421;" horiz-adv-x="775" 
d="M63 353c0 205 123 362 330 362c180 0 298 -108 319 -282h-82c-16 135 -99 212 -237 212c-164 0 -248 -122 -248 -292c0 -171 84 -293 248 -293c138 0 221 78 237 213h82c-21 -175 -139 -283 -319 -283c-207 0 -330 157 -330 363z" />
    <glyph glyph-name="uni0422" unicode="&#x422;" horiz-adv-x="658" 
d="M614 705v-70h-244v-635h-81v635h-246v70h571z" />
    <glyph glyph-name="uni0423" unicode="&#x423;" horiz-adv-x="645" 
d="M525 705h86l-242 -493v-162c0 -39 -22 -62 -69 -60l-217 9v71l204 -10v152l-244 493h86l187 -388v-38h23v38z" />
    <glyph glyph-name="uni0424" unicode="&#x424;" horiz-adv-x="817" 
d="M774 351c0 -138 -96 -250 -326 -261v-90h-78v90c-231 11 -327 123 -327 261c0 137 96 249 327 260v94h78v-94c230 -11 326 -123 326 -260zM125 351c0 -101 60 -181 245 -191v381c-185 -10 -245 -90 -245 -190zM448 160c184 10 244 90 244 191c0 100 -60 180 -244 190
v-381z" />
    <glyph glyph-name="uni0425" unicode="&#x425;" horiz-adv-x="687" 
d="M33 0l245 338v30l-245 337h94l216 -303l217 303h93l-245 -337v-30l245 -338h-93l-217 304l-216 -304h-94z" />
    <glyph glyph-name="uni0427" unicode="&#x427;" horiz-adv-x="698" 
d="M543 705h82v-705h-82v263l-401 -20c-47 -2 -69 21 -69 68v394h82v-391l388 19v372z" />
    <glyph glyph-name="uni0426" unicode="&#x426;" horiz-adv-x="789" 
d="M686 70c38 0 60 -22 60 -60v-142h-82v132h-591v705h82v-635h372v635h82v-635h77z" />
    <glyph glyph-name="uni0428" unicode="&#x428;" horiz-adv-x="946" 
d="M791 705h82v-705h-800v705h82v-635h277v635h82v-635h277v635z" />
    <glyph glyph-name="uni0429" unicode="&#x429;" horiz-adv-x="1053" 
d="M950 70c38 0 60 -22 60 -60v-142h-82v132h-855v705h82v-635h277v635h82v-635h277v635h82v-635h77z" />
    <glyph glyph-name="uni040F" unicode="&#x40f;" horiz-adv-x="686" 
d="M531 705h81v-705h-228v-132h-82v132h-229v705h82v-635h376v635z" />
    <glyph glyph-name="uni042C" unicode="&#x42c;" horiz-adv-x="615" 
d="M155 705v-263h132c168 0 275 -47 275 -222c0 -174 -107 -220 -275 -220h-214v705h82zM155 70h132c124 0 193 22 193 150c0 129 -69 152 -193 152h-132v-302z" />
    <glyph glyph-name="uni042A" unicode="&#x42a;" horiz-adv-x="719" 
d="M391 442c168 0 274 -47 274 -222c0 -174 -106 -220 -274 -220h-214v635h-144v70h225v-263h133zM391 70c123 0 193 22 193 150c0 129 -70 152 -193 152h-133v-302h133z" />
    <glyph glyph-name="uni042B" unicode="&#x42b;" horiz-adv-x="815" 
d="M155 705v-263h132c168 0 275 -47 275 -222c0 -174 -107 -220 -275 -220h-214v705h82zM660 705h82v-705h-82v705zM155 70h132c124 0 193 22 193 150c0 129 -69 152 -193 152h-132v-302z" />
    <glyph glyph-name="uni0409" unicode="&#x409;" horiz-adv-x="1077" 
d="M749 442c168 0 275 -47 275 -222c0 -174 -107 -220 -275 -220h-214v635h-266c-1 -340 -15 -635 -236 -635v70c157 0 154 303 154 635h430v-263h132zM749 70c123 0 193 22 193 150c0 129 -70 152 -193 152h-132v-302h132z" />
    <glyph glyph-name="uni040A" unicode="&#x40a;" horiz-adv-x="1113" 
d="M785 442c168 0 274 -47 274 -222c0 -174 -106 -220 -274 -220h-214v313h-416v-313h-82v705h82v-322h416v322h81v-263h133zM785 70c123 0 193 22 193 150c0 129 -70 152 -193 152h-133v-302h133z" />
    <glyph glyph-name="uni0405" unicode="&#x405;" horiz-adv-x="676" 
d="M633 178c0 -105 -63 -188 -271 -188c-246 0 -319 109 -319 274h82c0 -167 89 -204 237 -204c120 0 189 29 189 114c0 107 -124 129 -236 162c-139 42 -240 80 -240 205c0 108 76 174 250 174c208 0 279 -127 279 -242h-82c0 120 -89 172 -197 172
c-97 0 -168 -24 -168 -102c0 -74 62 -101 178 -137c138 -43 298 -81 298 -228z" />
    <glyph glyph-name="uni0404" unicode="&#x404;" horiz-adv-x="775" 
d="M393 60c138 0 221 78 237 213h82c-21 -175 -139 -283 -319 -283c-207 0 -330 157 -330 363c0 205 123 362 330 362c180 0 298 -108 319 -282h-82c-16 135 -99 212 -237 212c-153 0 -236 -106 -247 -257h298v-70h-298c11 -152 94 -258 247 -258z" />
    <glyph glyph-name="uni042D" unicode="&#x42d;" horiz-adv-x="775" 
d="M382 715c208 0 330 -157 330 -362c0 -206 -122 -363 -330 -363c-180 0 -298 108 -319 283h82c16 -135 99 -213 237 -213c154 0 236 106 247 258h-298v70h298c-11 151 -94 257 -247 257c-138 0 -221 -77 -237 -212h-82c21 174 139 282 319 282z" />
    <glyph glyph-name="uni0406" unicode="&#x406;" horiz-adv-x="523" 
d="M460 635h-157v-565h157v-70h-397v70h158v565h-158v70h397v-70z" />
    <glyph glyph-name="uni0407" unicode="&#x407;" horiz-adv-x="523" 
d="M159 784c-42 0 -73 30 -73 70c0 38 31 69 73 69c41 0 73 -31 73 -69c0 -40 -32 -70 -73 -70zM365 784c-42 0 -73 30 -73 70c0 38 31 69 73 69c41 0 73 -31 73 -69c0 -40 -32 -70 -73 -70zM460 635h-157v-565h157v-70h-397v70h158v565h-158v70h397v-70z" />
    <glyph glyph-name="uni0408" unicode="&#x408;" horiz-adv-x="473" 
d="M196 -10l-163 10v70l163 -10c117 -7 132 66 132 264v321l-185 -10v70l206 10c39 2 60 -22 60 -60v-340c0 -202 -21 -337 -213 -325z" />
    <glyph glyph-name="uni040B" unicode="&#x40b;" horiz-adv-x="823" 
d="M681 462c47 2 69 -21 69 -68v-394h-82v391l-388 -19v-372h-82v635h-165v70h560v-70h-313v-193z" />
    <glyph glyph-name="uni042E" unicode="&#x42e;" horiz-adv-x="933" 
d="M570 715c198 0 299 -155 299 -362c0 -208 -101 -363 -299 -363c-188 0 -289 138 -300 328h-115v-318h-82v705h82v-317h115c11 189 112 327 300 327zM570 60c151 0 218 123 218 293s-67 292 -218 292c-152 0 -220 -122 -220 -292s68 -293 220 -293z" />
    <glyph glyph-name="uni042F" unicode="&#x42f;" horiz-adv-x="635" 
d="M562 705v-705h-82v323h-140h-11l-104 -283c-11 -28 -39 -40 -72 -40h-120v70h122l93 258c-113 15 -179 65 -179 187c0 150 103 190 271 190h222zM480 393v242h-143c-117 0 -186 -13 -186 -120c0 -108 69 -122 186 -122h143z" />
    <glyph glyph-name="uni0402" unicode="&#x402;" horiz-adv-x="807" 
d="M496 435c182 23 258 -63 258 -200c0 -189 -126 -235 -268 -235v70c149 0 186 66 186 163c0 112 -59 151 -179 133l-135 -19v-347h-82v635h-243v70h567v-70h-242v-218z" />
    <glyph glyph-name="uni0430" unicode="&#x430;" horiz-adv-x="592" 
d="M53 138c0 79 47 133 163 145l198 19c-5 91 -54 136 -140 136c-72 0 -139 -32 -139 -126h-80c0 103 78 195 219 195c139 0 222 -92 222 -225v-212h73v-70h-88c-38 0 -59 21 -59 58v27l13 52h-24c-19 -76 -72 -147 -192 -147c-144 0 -166 96 -166 148zM135 148
c0 -57 36 -88 94 -88c113 0 185 78 185 181l-184 -19c-63 -6 -95 -25 -95 -74z" />
    <glyph glyph-name="uni0431" unicode="&#x431;" horiz-adv-x="642" 
d="M63 327c0 199 87 282 262 333c113 32 136 44 145 82h99c-18 -97 -102 -113 -234 -147c-134 -34 -196 -90 -208 -208l-23 -57h23c22 105 109 177 225 177c155 0 236 -106 236 -252c0 -152 -85 -265 -262 -265c-169 0 -263 115 -263 337zM145 244c0 -94 56 -184 181 -184
c124 0 180 73 180 194c0 111 -48 183 -161 183c-121 0 -200 -73 -200 -193z" />
    <glyph glyph-name="uni0432" unicode="&#x432;" horiz-adv-x="533" 
d="M73 0v497h180c119 0 199 -24 199 -119c0 -82 -56 -102 -96 -105v-24c66 -1 133 -23 133 -118c0 -97 -80 -131 -199 -131h-217zM153 291h100c81 0 119 4 119 74c0 57 -38 67 -119 67h-100v-141zM153 65h137c80 0 119 10 119 76c0 70 -39 85 -119 85h-137v-161z" />
    <glyph glyph-name="uni0433" unicode="&#x433;" horiz-adv-x="443" 
d="M73 0v497h347v-70h-265v-427h-82z" />
    <glyph glyph-name="uni0453" unicode="&#x453;" horiz-adv-x="444" 
d="M76 642l307 79l16 -64l-307 -79zM75 0v497h346v-70h-265v-427h-81z" />
    <glyph glyph-name="uni0491" unicode="&#x491;" horiz-adv-x="443" 
d="M338 634h82v-207h-265v-427h-82v497h265v137z" />
    <glyph glyph-name="uni0434" unicode="&#x434;" horiz-adv-x="662" 
d="M599 70v-202h-82v132h-382v-132h-82v202h66c54 109 74 231 74 427h340v-427h66zM201 70h250v357h-177c-5 -156 -26 -262 -73 -357z" />
    <glyph glyph-name="uni0435" unicode="&#x435;" horiz-adv-x="596" 
d="M53 255c0 160 100 252 241 252c140 0 232 -89 232 -242v-32h-393c5 -94 50 -175 173 -175c82 0 137 40 155 116h82c-19 -77 -79 -184 -237 -184c-178 0 -253 122 -253 265zM133 295h313c0 80 -53 143 -152 143c-98 0 -161 -63 -161 -143z" />
    <glyph glyph-name="uni0450" unicode="&#x450;" horiz-adv-x="596" 
d="M461 642l-16 -64l-307 79l17 64zM53 255c0 160 100 252 241 252c140 0 232 -89 232 -242v-32h-393c5 -94 50 -175 173 -175c82 0 137 40 155 116h82c-19 -77 -79 -184 -237 -184c-178 0 -253 122 -253 265zM133 295h313c0 80 -53 143 -152 143c-98 0 -161 -63 -161 -143z
" />
    <glyph glyph-name="uni0451" unicode="&#x451;" horiz-adv-x="596" 
d="M195 576c-42 0 -73 30 -73 70c0 38 31 69 73 69c41 0 73 -31 73 -69c0 -40 -32 -70 -73 -70zM401 576c-42 0 -73 30 -73 70c0 38 31 69 73 69c41 0 73 -31 73 -69c0 -40 -32 -70 -73 -70zM53 255c0 160 100 252 241 252c140 0 232 -89 232 -242v-32h-393
c5 -94 50 -175 173 -175c82 0 137 40 155 116h82c-19 -77 -79 -184 -237 -184c-178 0 -253 122 -253 265zM133 295h313c0 80 -53 143 -152 143c-98 0 -161 -63 -161 -143z" />
    <glyph glyph-name="uni0436" unicode="&#x436;" horiz-adv-x="790" 
d="M757 427h-81l-128 -171l209 -256h-96l-176 214c-4 -1 -9 -1 -14 -1h-35v-213h-82v213h-35c-5 0 -10 0 -14 1l-176 -214h-96l209 256l-128 171h-81v70h79c32 0 54 -12 72 -37l130 -174h40v211h82v-211h40l130 174c18 25 40 37 72 37h79v-70z" />
    <glyph glyph-name="uni0437" unicode="&#x437;" horiz-adv-x="534" 
d="M63 194h80c0 -105 36 -139 133 -139c87 0 115 32 115 93c0 57 -28 82 -89 82h-67v66h67c61 0 79 26 79 72c0 44 -21 74 -109 74c-97 0 -119 -33 -119 -100h-80c0 104 65 165 199 165c125 0 189 -57 189 -130c0 -62 -38 -94 -100 -102v-23c62 -9 110 -42 110 -113
c0 -91 -70 -149 -195 -149c-134 0 -213 62 -213 204z" />
    <glyph glyph-name="uni0438" unicode="&#x438;" horiz-adv-x="604" 
d="M550 0h-81v426l13 47h-23l-221 -473h-165v497h82v-425l-13 -49h23l221 474h164v-497z" />
    <glyph glyph-name="uni0439" unicode="&#x439;" horiz-adv-x="604" 
d="M469 735c0 -102 -59 -172 -156 -172c-98 0 -157 70 -157 172h67c0 -73 26 -107 90 -107s89 34 89 107h67zM550 0h-81v426l13 47h-23l-221 -473h-165v497h82v-425l-13 -49h23l221 474h164v-497z" />
    <glyph glyph-name="uni043A" unicode="&#x43a;" horiz-adv-x="521" 
d="M488 0h-96l-177 216c-8 -2 -16 -3 -25 -3h-35v-213h-82v497h82v-211h41l129 174c18 25 40 37 73 37h78v-70h-81l-122 -164z" />
    <glyph glyph-name="uni045C" unicode="&#x45c;" horiz-adv-x="521" 
d="M419 657l-306 -79l-17 64l307 79zM488 0h-96l-177 216c-8 -2 -16 -3 -25 -3h-35v-213h-82v497h82v-211h41l129 174c18 25 40 37 73 37h78v-70h-81l-122 -164z" />
    <glyph glyph-name="uni043B" unicode="&#x43b;" horiz-adv-x="580" 
d="M507 497v-497h-82v427h-194c-1 -273 -15 -427 -178 -427v70c97 0 96 145 96 427h358z" />
    <glyph glyph-name="uni043C" unicode="&#x43c;" horiz-adv-x="732" 
d="M73 0v497h164l117 -474h23l117 474h165v-497h-82v425l14 48h-24l-119 -473h-164l-119 473h-23l13 -48v-425h-82z" />
    <glyph glyph-name="uni043D" unicode="&#x43d;" horiz-adv-x="590" 
d="M435 497h81v-497h-81v214h-280v-214h-82v497h82v-213h280v213z" />
    <glyph glyph-name="uni043E" unicode="&#x43e;" horiz-adv-x="631" 
d="M53 249c0 144 104 258 263 258c158 0 261 -114 261 -258c0 -145 -103 -259 -261 -259c-159 0 -263 114 -263 259zM135 249c0 -104 63 -189 181 -189c117 0 180 85 180 189c0 103 -63 188 -180 188c-118 0 -181 -85 -181 -188z" />
    <glyph glyph-name="uni043F" unicode="&#x43f;" horiz-adv-x="557" 
d="M484 497v-497h-82v427h-247v-427h-82v497h411z" />
    <glyph glyph-name="uni0440" unicode="&#x440;" horiz-adv-x="656" 
d="M73 497h82v-73l-13 -57h23c21 78 87 140 201 140c144 0 237 -111 237 -259c0 -147 -93 -258 -237 -258c-114 0 -180 62 -201 139h-23l13 -56v-255h-82v679zM155 248c0 -132 85 -188 187 -188c103 0 179 58 179 188c0 131 -76 189 -179 189c-102 0 -187 -56 -187 -189z
" />
    <glyph glyph-name="uni0441" unicode="&#x441;" horiz-adv-x="592" 
d="M53 249c0 143 93 258 254 258c96 0 219 -54 232 -198h-83c-14 95 -77 128 -149 128c-118 0 -172 -86 -172 -188c0 -103 54 -189 172 -189c72 0 135 33 149 128h83c-13 -144 -136 -198 -232 -198c-161 0 -254 115 -254 259z" />
    <glyph glyph-name="uni0442" unicode="&#x442;" horiz-adv-x="543" 
d="M500 497v-70h-187v-427h-82v427h-188v70h457z" />
    <glyph glyph-name="uni0443" unicode="&#x443;" horiz-adv-x="591" 
d="M469 497h89l-216 -492v-139c0 -38 -22 -61 -69 -59l-192 9v70l179 -9v128l-217 492h90l156 -387v-38h24v38z" />
    <glyph glyph-name="uni0444" unicode="&#x444;" horiz-adv-x="741" 
d="M687 249c0 -136 -93 -244 -277 -258v-171h-78v171c-185 14 -279 122 -279 258c0 135 94 243 279 257v169h78v-169c184 -14 277 -122 277 -257zM135 249c0 -97 57 -175 197 -187v373c-140 -12 -197 -90 -197 -186zM410 62c139 12 196 90 196 187c0 95 -57 174 -196 186
v-373z" />
    <glyph glyph-name="uni0445" unicode="&#x445;" horiz-adv-x="582" 
d="M43 0l187 237v24l-187 236h97l151 -200l151 200h97l-187 -236v-24l187 -237h-97l-151 201l-151 -201h-97z" />
    <glyph glyph-name="uni0447" unicode="&#x447;" horiz-adv-x="608" 
d="M453 497h82v-497h-82v180l-311 -20c-47 -3 -69 21 -69 68v269h82v-267l298 20v247z" />
    <glyph glyph-name="uni0446" unicode="&#x446;" horiz-adv-x="651" 
d="M557 70c39 0 60 -22 60 -60v-142h-81v132h-463v497h82v-427h247v427h82v-427h73z" />
    <glyph glyph-name="uni0448" unicode="&#x448;" horiz-adv-x="766" 
d="M611 497h82v-497h-620v497h82v-427h187v427h82v-427h187v427z" />
    <glyph glyph-name="uni0449" unicode="&#x449;" horiz-adv-x="860" 
d="M766 70c39 0 60 -22 60 -60v-142h-81v132h-672v497h82v-427h187v427h82v-427h187v427h82v-427h73z" />
    <glyph glyph-name="uni045F" unicode="&#x45f;" horiz-adv-x="589" 
d="M434 495h82v-495h-181v-132h-81v132h-181v495h82v-425h279v425z" />
    <glyph glyph-name="uni044C" unicode="&#x44c;" horiz-adv-x="524" 
d="M258 354c118 0 213 -38 213 -177s-95 -177 -213 -177h-185v497h82v-143h103zM155 70h93c84 0 141 10 141 107s-57 107 -141 107h-93v-214z" />
    <glyph glyph-name="uni044A" unicode="&#x44a;" horiz-adv-x="608" 
d="M342 354c118 0 213 -38 213 -177s-95 -177 -213 -177h-185v427h-124v70h206v-143h103zM332 70c83 0 141 10 141 107s-58 107 -141 107h-93v-214h93z" />
    <glyph glyph-name="uni044B" unicode="&#x44b;" horiz-adv-x="696" 
d="M258 354c118 0 213 -38 213 -177s-95 -177 -213 -177h-185v497h82v-143h103zM541 0v497h81v-497h-81zM155 70h93c84 0 141 10 141 107s-57 107 -141 107h-93v-214z" />
    <glyph glyph-name="uni0459" unicode="&#x459;" horiz-adv-x="876" 
d="M610 354c118 0 213 -38 213 -177s-95 -177 -213 -177h-185v427h-194c-1 -273 -15 -427 -178 -427v70c97 0 96 145 96 427h358v-143h103zM600 70c83 0 141 10 141 107s-58 107 -141 107h-93v-214h93z" />
    <glyph glyph-name="uni045A" unicode="&#x45a;" horiz-adv-x="886" 
d="M619 354c118 0 213 -38 213 -177s-95 -177 -213 -177h-184v214h-280v-214h-82v497h82v-213h280v213h81v-143h103zM609 70c84 0 142 10 142 107s-58 107 -142 107h-93v-214h93z" />
    <glyph glyph-name="uni0455" unicode="&#x455;" horiz-adv-x="499" 
d="M466 129c0 -75 -47 -139 -196 -139c-161 0 -227 75 -227 193h82c0 -86 50 -126 146 -126c77 0 113 18 113 69c0 65 -67 76 -148 101c-94 30 -170 59 -170 149c0 79 67 131 181 131c155 0 202 -85 202 -167h-82c0 67 -41 100 -120 100c-55 0 -99 -16 -99 -61
c0 -48 34 -63 114 -89c98 -32 204 -54 204 -161z" />
    <glyph glyph-name="uni0454" unicode="&#x454;" horiz-adv-x="592" 
d="M307 60c72 0 135 33 149 128h83c-13 -144 -136 -198 -232 -198c-161 0 -254 115 -254 259c0 143 93 258 254 258c96 0 219 -54 232 -198h-83c-14 95 -77 128 -149 128c-105 0 -160 -69 -170 -156h217v-64h-217c10 -88 64 -157 170 -157z" />
    <glyph glyph-name="uni044D" unicode="&#x44d;" horiz-adv-x="592" 
d="M285 507c161 0 254 -115 254 -258c0 -144 -93 -259 -254 -259c-96 0 -219 54 -232 198h83c14 -95 77 -128 149 -128c106 0 160 69 170 157h-217v64h217c-10 87 -65 156 -170 156c-72 0 -135 -33 -149 -128h-83c13 144 136 198 232 198z" />
    <glyph glyph-name="uni0456" unicode="&#x456;" horiz-adv-x="443" 
d="M219 576c-41 0 -72 30 -72 70c0 38 31 69 72 69c40 0 72 -31 72 -69c0 -40 -32 -70 -72 -70zM53 0v70h140v366l-103 -9v70l115 10c47 4 65 -22 65 -60v-377h140v-70h-357z" />
    <glyph glyph-name="uni0457" unicode="&#x457;" horiz-adv-x="447" 
d="M98 576c-41 0 -72 30 -72 70c0 38 31 69 72 69c42 0 74 -31 74 -69c0 -40 -32 -70 -74 -70zM304 576c-42 0 -72 30 -72 70c0 38 30 69 72 69c41 0 73 -31 73 -69c0 -40 -32 -70 -73 -70zM57 0v70h141v366l-105 -9v70l114 10c46 4 65 -22 65 -68v-369h141v-70h-356z" />
    <glyph glyph-name="uni0458" unicode="&#x458;" horiz-adv-x="285" 
d="M157 576c-41 0 -72 30 -72 70c0 38 31 69 72 69s73 -31 73 -69c0 -40 -32 -70 -73 -70zM23 -183l90 157c13 23 17 42 17 68v394l-107 -9v70l121 9c47 4 68 -21 68 -59v-417c0 -26 -4 -45 -17 -68l-82 -145h-90z" />
    <glyph glyph-name="uni045B" unicode="&#x45b;" horiz-adv-x="636" 
d="M388 507c112 0 185 -65 185 -203v-304h-82v293c0 104 -40 144 -125 144c-106 0 -179 -83 -179 -217v-220h-82v610h-52v67h52v58h82v-58h147v-67h-147v-199l-14 -57h24c20 90 83 153 191 153z" />
    <glyph glyph-name="uni044E" unicode="&#x44e;" horiz-adv-x="804" 
d="M511 507c160 0 240 -118 240 -258c0 -142 -80 -259 -240 -259c-148 0 -227 98 -239 224h-117v-214h-82v497h82v-213h117c12 124 92 223 239 223zM511 60c115 0 158 85 158 189c0 103 -43 188 -158 188c-116 0 -159 -85 -159 -188c0 -104 43 -189 159 -189z" />
    <glyph glyph-name="uni044F" unicode="&#x44f;" horiz-adv-x="487" 
d="M413 497v-497h-81v217h-62l-101 -178c-16 -25 -40 -39 -72 -39h-74v68h81l86 153c-83 12 -131 50 -131 136c0 101 73 140 196 140h158zM332 282v150h-70c-80 0 -121 -15 -121 -75s41 -75 121 -75h70z" />
    <glyph glyph-name="uni0452" unicode="&#x452;" horiz-adv-x="638" 
d="M389 507c113 0 186 -65 186 -203v-436c0 -38 -22 -62 -69 -60l-192 10v70l179 -10v415c0 104 -40 144 -126 144c-105 0 -179 -83 -179 -217v-220h-81v610h-52v67h52v58h81v-58h148v-67h-148v-199l-13 -57h23c20 90 83 153 191 153z" />
    <glyph glyph-name="uni0438.loclBGR" horiz-adv-x="604" 
d="M550 0h-81v426l13 47h-23l-221 -473h-165v497h82v-425l-13 -49h23l221 474h164v-497z" />
    <glyph glyph-name="uni0439.loclBGR" horiz-adv-x="604" 
d="M469 735c0 -102 -59 -172 -156 -172c-98 0 -157 70 -157 172h67c0 -73 26 -107 90 -107s89 34 89 107h67zM550 0h-81v426l13 47h-23l-221 -473h-165v497h82v-425l-13 -49h23l221 474h164v-497z" />
    <glyph glyph-name="uni045D.loclBGR" horiz-adv-x="604" 
d="M476 642l-16 -64l-307 79l17 64zM550 0h-81v426l13 47h-23l-221 -473h-165v497h82v-425l-13 -49h23l221 474h164v-497z" />
    <glyph glyph-name="zero" unicode="0" horiz-adv-x="724" 
d="M363 715c196 0 299 -155 299 -362c0 -208 -103 -363 -299 -363c-198 0 -301 155 -301 363c0 207 103 362 301 362zM363 645c-147 0 -220 -122 -220 -292c0 -66 11 -124 32 -171l332 405c-36 37 -83 58 -144 58zM363 60c146 0 218 122 218 293c0 66 -11 124 -32 171
l-332 -405c36 -38 84 -59 146 -59z" />
    <glyph glyph-name="one" unicode="1" horiz-adv-x="482" 
d="M52 392c134 54 180 174 182 313h166v-705h-82v625l14 57h-24c-10 -156 -55 -303 -230 -360z" />
    <glyph glyph-name="two" unicode="2" horiz-adv-x="669" 
d="M53 365c0 254 134 350 303 350c150 0 252 -83 252 -237c0 -229 -230 -352 -521 -398v-23l58 13h463v-70h-545v143c72 10 463 78 463 336c0 109 -61 166 -168 166c-130 0 -223 -70 -223 -280h-82z" />
    <glyph glyph-name="three" unicode="3" horiz-adv-x="677" 
d="M60 269h82c0 -153 66 -209 208 -209c128 0 182 52 182 147c0 93 -51 129 -136 129h-98v70h98c85 0 126 35 126 111s-44 128 -172 128c-142 0 -198 -56 -198 -171h-82c0 157 99 241 280 241c169 0 254 -79 254 -187c0 -86 -46 -131 -136 -145v-23c90 -18 146 -57 146 -165
c0 -126 -95 -205 -264 -205c-181 0 -290 84 -290 279z" />
    <glyph glyph-name="four" unicode="4" horiz-adv-x="663" 
d="M610 226v-70h-91v-156h-82v156h-374v146c160 68 293 209 314 403h82c-26 -197 -134 -363 -372 -469v-24l58 14h292v256h82v-256h91z" />
    <glyph glyph-name="five" unicode="5" horiz-adv-x="705" 
d="M62 251h81c0 -124 71 -191 212 -191c130 0 205 72 205 202c0 108 -51 175 -159 175c-90 0 -145 -44 -179 -95l-105 54v309h475v-70h-394v-171l-13 -57l20 -11c38 61 112 111 212 111c139 0 225 -96 225 -249c0 -169 -115 -268 -287 -268c-181 0 -293 94 -293 261z" />
    <glyph glyph-name="six" unicode="6" horiz-adv-x="688" 
d="M63 330c0 229 83 408 310 385l204 -20v-70l-204 20c-169 17 -225 -113 -244 -253l-23 -57h23c20 102 121 172 247 172c158 0 252 -106 252 -254c0 -153 -107 -263 -282 -263c-169 0 -283 113 -283 340zM145 243c0 -90 73 -183 201 -183c127 0 200 70 200 193
c0 111 -64 184 -181 184c-125 0 -220 -74 -220 -194z" />
    <glyph glyph-name="seven" unicode="7" horiz-adv-x="586" 
d="M157 0c0 305 121 501 370 625v23l-56 -13h-436v70h516v-138c-210 -106 -311 -282 -311 -567h-83z" />
    <glyph glyph-name="eight" unicode="8" horiz-adv-x="671" 
d="M50 194c0 102 61 154 168 182v24c-79 23 -128 62 -128 148c0 115 107 167 246 167c138 0 245 -52 245 -167c0 -86 -49 -125 -128 -148v-24c107 -28 168 -82 168 -182c0 -120 -105 -204 -285 -204c-182 0 -286 84 -286 204zM172 534c0 -85 61 -112 164 -112
c102 0 163 27 163 112c0 83 -61 111 -163 111c-103 0 -164 -28 -164 -111zM132 206c0 -88 63 -146 204 -146c140 0 203 58 203 146c0 87 -63 146 -203 146c-141 0 -204 -59 -204 -146z" />
    <glyph glyph-name="nine" unicode="9" horiz-adv-x="688" 
d="M625 375c0 -229 -83 -408 -310 -385l-204 20v70l204 -20c170 -17 225 113 244 253l24 57h-24c-20 -102 -121 -172 -247 -172c-158 0 -252 106 -252 254c0 153 107 263 282 263c169 0 283 -113 283 -340zM543 462c0 90 -72 183 -201 183c-127 0 -200 -70 -200 -193
c0 -111 65 -184 181 -184c125 0 220 74 220 194z" />
    <glyph glyph-name="uni24FF" unicode="&#x24ff;" 
d="M508 -140c-268 0 -445 199 -445 444c0 246 177 445 445 445s445 -199 445 -445c0 -245 -177 -444 -445 -444zM329 305c0 -128 61 -223 180 -223c118 0 179 95 179 223c0 127 -61 222 -179 222c-119 0 -180 -95 -180 -222zM404 305c0 102 40 156 105 156
c33 0 57 -11 73 -30l-165 -211c-9 23 -13 51 -13 85zM437 183l166 208c7 -22 10 -51 10 -86c0 -102 -29 -156 -104 -156c-30 0 -54 11 -72 34z" />
    <glyph glyph-name="uni2776" unicode="&#x2776;" 
d="M508 -140c268 0 445 199 445 444c0 246 -177 445 -445 445s-445 -199 -445 -445c0 -245 177 -444 445 -444zM353 354c61 41 82 76 83 163h148v-425h-75v366l8 36h-15c-6 -89 -32 -162 -121 -204z" />
    <glyph glyph-name="uni2777" unicode="&#x2777;" 
d="M508 -140c268 0 445 199 445 444c0 246 -177 445 -445 445s-445 -199 -445 -445c0 -245 177 -444 445 -444zM330 326c0 145 87 209 192 209c103 0 163 -55 163 -144c0 -135 -141 -192 -312 -220v-15l37 7h263v-63h-323v123c43 6 260 46 260 168c0 49 -25 80 -88 80
c-76 0 -117 -39 -117 -145h-75z" />
    <glyph glyph-name="uni2778" unicode="&#x2778;" 
d="M508 -140c268 0 445 199 445 444c0 246 -177 445 -445 445s-445 -199 -445 -445c0 -245 177 -444 445 -444zM328 253h75c0 -84 39 -107 113 -107c66 0 98 21 98 70c0 59 -47 68 -81 68h-50v64h50c34 0 75 10 75 57c0 38 -26 59 -92 59c-74 0 -108 -24 -108 -84h-75
c0 93 70 147 183 147c108 0 167 -52 167 -114c0 -53 -41 -81 -96 -90v-15c55 -11 101 -35 101 -100c0 -76 -64 -126 -172 -126c-113 0 -188 54 -188 171z" />
    <glyph glyph-name="uni2779" unicode="&#x2779;" 
d="M508 -140c268 0 445 199 445 444c0 246 -177 445 -445 445s-445 -199 -445 -445c0 -245 177 -444 445 -444zM328 178v138c94 41 152 105 171 207h75c-13 -109 -78 -217 -226 -272v-15l36 8h161v139h75v-139h54v-66h-54v-80h-75v80h-217z" />
    <glyph glyph-name="uni277A" unicode="&#x277a;" 
d="M508 -140c268 0 445 199 445 444c0 246 -177 445 -445 445s-445 -199 -445 -445c0 -245 177 -444 445 -444zM328 224h75c0 -63 40 -91 111 -91c57 0 109 22 109 99c0 67 -37 85 -82 85c-54 0 -86 -25 -105 -55l-89 46v194h311v-64h-236v-86l-8 -31l12 -7
c21 34 65 66 127 66c95 0 145 -60 145 -149c0 -97 -69 -161 -184 -161c-119 0 -186 57 -186 154z" />
    <glyph glyph-name="uni277B" unicode="&#x277b;" 
d="M508 -140c268 0 445 199 445 444c0 246 -177 445 -445 445s-445 -199 -445 -445c0 -245 177 -444 445 -444zM326 284c0 148 68 258 221 242l97 -10v-63l-107 10c-111 11 -159 -62 -159 -141l-15 -37h15c13 58 68 113 155 113c98 0 152 -64 152 -156
c0 -95 -69 -161 -178 -161c-111 0 -181 67 -181 203zM401 241c0 -55 31 -96 105 -96c73 0 104 34 104 97c0 56 -26 92 -94 92c-72 0 -115 -39 -115 -93z" />
    <glyph glyph-name="uni277C" unicode="&#x277c;" 
d="M508 -140c268 0 445 199 445 444c0 246 -177 445 -445 445s-445 -199 -445 -445c0 -245 177 -444 445 -444zM425 72c0 184 74 278 226 346v16h-288v63h311v-133c-128 -54 -174 -140 -174 -292h-75z" />
    <glyph glyph-name="uni277D" unicode="&#x277d;" 
d="M508 -140c268 0 445 199 445 444c0 246 -177 445 -445 445s-445 -199 -445 -445c0 -245 177 -444 445 -444zM327 206c0 73 49 104 112 113v13c-47 6 -89 35 -89 92c0 65 61 103 158 103c96 0 158 -38 158 -103c0 -57 -43 -86 -89 -92v-13c63 -9 113 -40 113 -113
c0 -72 -64 -124 -182 -124c-117 0 -181 52 -181 124zM425 412c0 -30 23 -55 83 -55s83 25 83 55s-23 52 -83 52s-83 -22 -83 -52zM402 220c0 -37 25 -74 106 -74c80 0 107 37 107 74s-27 74 -107 74c-81 0 -106 -37 -106 -74z" />
    <glyph glyph-name="uni277E" unicode="&#x277e;" 
d="M508 -140c268 0 445 199 445 444c0 246 -177 445 -445 445s-445 -199 -445 -445c0 -245 177 -444 445 -444zM702 323c0 -148 -67 -258 -220 -242l-98 10v63l108 -10c110 -10 158 62 158 141l15 37h-15c-13 -58 -67 -112 -155 -112c-97 0 -152 64 -152 155
c0 95 70 161 178 161c111 0 181 -67 181 -203zM627 367c0 54 -31 96 -104 96c-74 0 -105 -34 -105 -97c0 -57 26 -93 94 -93c72 0 115 39 115 94z" />
    <glyph glyph-name="uni24EA" unicode="&#x24ea;" 
d="M508 749c268 0 445 -199 445 -445c0 -245 -177 -444 -445 -444s-445 199 -445 444c0 246 177 445 445 445zM508 -77c228 0 381 176 381 381c0 206 -153 382 -381 382s-381 -176 -381 -382c0 -205 153 -381 381 -381zM509 527c118 0 179 -95 179 -222
c0 -128 -61 -223 -179 -223c-119 0 -180 95 -180 223c0 127 61 222 180 222zM509 461c-65 0 -105 -54 -105 -156c0 -33 4 -62 12 -84l165 207c-17 22 -42 33 -72 33zM509 149c67 0 104 54 104 156c0 33 -4 62 -12 85l-165 -207c18 -22 43 -34 73 -34z" />
    <glyph glyph-name="uni2460" unicode="&#x2460;" 
d="M508 -140c-268 0 -445 199 -445 444c0 246 177 445 445 445s445 -199 445 -445c0 -245 -177 -444 -445 -444zM508 -77c228 0 381 176 381 381c0 206 -153 382 -381 382s-381 -176 -381 -382c0 -205 153 -381 381 -381zM353 354c61 41 82 76 83 163h148v-425h-75v366l8 36
h-15c-6 -89 -32 -162 -121 -204z" />
    <glyph glyph-name="uni2461" unicode="&#x2461;" 
d="M508 -140c-268 0 -445 199 -445 444c0 246 177 445 445 445s445 -199 445 -445c0 -245 -177 -444 -445 -444zM508 -77c228 0 381 176 381 381c0 206 -153 382 -381 382s-381 -176 -381 -382c0 -205 153 -381 381 -381zM330 326c0 145 87 209 192 209
c103 0 163 -55 163 -144c0 -135 -141 -192 -312 -220v-15l37 7h263v-63h-323v123c43 6 260 46 260 168c0 49 -25 80 -88 80c-76 0 -117 -39 -117 -145h-75z" />
    <glyph glyph-name="uni2462" unicode="&#x2462;" 
d="M508 -140c-268 0 -445 199 -445 444c0 246 177 445 445 445s445 -199 445 -445c0 -245 -177 -444 -445 -444zM508 -77c228 0 381 176 381 381c0 206 -153 382 -381 382s-381 -176 -381 -382c0 -205 153 -381 381 -381zM328 253h75c0 -84 39 -107 113 -107
c66 0 98 21 98 70c0 59 -47 68 -81 68h-50v64h50c34 0 75 10 75 57c0 38 -26 59 -92 59c-74 0 -108 -24 -108 -84h-75c0 93 70 147 183 147c108 0 167 -52 167 -114c0 -53 -41 -81 -96 -90v-15c55 -11 101 -35 101 -100c0 -76 -64 -126 -172 -126c-113 0 -188 54 -188 171z
" />
    <glyph glyph-name="uni2463" unicode="&#x2463;" 
d="M508 -140c-268 0 -445 199 -445 444c0 246 177 445 445 445s445 -199 445 -445c0 -245 -177 -444 -445 -444zM508 -77c228 0 381 176 381 381c0 206 -153 382 -381 382s-381 -176 -381 -382c0 -205 153 -381 381 -381zM332 178v139c94 40 152 105 171 206h75
c-13 -108 -79 -216 -226 -272v-15l36 9h161v139h75v-139h54v-67h-54v-80h-75v80h-217z" />
    <glyph glyph-name="uni2464" unicode="&#x2464;" 
d="M508 -140c-268 0 -445 199 -445 444c0 246 177 445 445 445s445 -199 445 -445c0 -245 -177 -444 -445 -444zM508 -77c228 0 381 176 381 381c0 206 -153 382 -381 382s-381 -176 -381 -382c0 -205 153 -381 381 -381zM328 224h75c0 -63 40 -91 111 -91
c57 0 109 22 109 99c0 67 -37 85 -82 85c-54 0 -86 -25 -105 -55l-89 46v194h311v-64h-236v-86l-8 -31l12 -7c21 34 65 66 127 66c95 0 145 -60 145 -149c0 -97 -69 -161 -184 -161c-119 0 -186 57 -186 154z" />
    <glyph glyph-name="uni2465" unicode="&#x2465;" 
d="M508 -140c-268 0 -445 199 -445 444c0 246 177 445 445 445s445 -199 445 -445c0 -245 -177 -444 -445 -444zM508 -77c228 0 381 176 381 381c0 206 -153 382 -381 382s-381 -176 -381 -382c0 -205 153 -381 381 -381zM326 284c0 148 68 258 221 242l97 -10v-63l-107 10
c-111 11 -159 -62 -159 -141l-15 -37h15c13 58 68 113 155 113c98 0 152 -64 152 -156c0 -95 -69 -161 -178 -161c-111 0 -181 67 -181 203zM401 241c0 -55 31 -96 105 -96c73 0 104 34 104 97c0 56 -26 92 -94 92c-72 0 -115 -39 -115 -93z" />
    <glyph glyph-name="uni2466" unicode="&#x2466;" 
d="M508 -140c-268 0 -445 199 -445 444c0 246 177 445 445 445s445 -199 445 -445c0 -245 -177 -444 -445 -444zM508 -77c228 0 381 176 381 381c0 206 -153 382 -381 382s-381 -176 -381 -382c0 -205 153 -381 381 -381zM425 72c0 184 74 278 226 346v16h-288v63h311v-133
c-128 -54 -174 -140 -174 -292h-75z" />
    <glyph glyph-name="uni2467" unicode="&#x2467;" 
d="M508 -140c-268 0 -445 199 -445 444c0 246 177 445 445 445s445 -199 445 -445c0 -245 -177 -444 -445 -444zM508 -77c228 0 381 176 381 381c0 206 -153 382 -381 382s-381 -176 -381 -382c0 -205 153 -381 381 -381zM327 206c0 73 49 104 112 113v13
c-47 6 -89 35 -89 92c0 65 61 103 158 103c96 0 158 -38 158 -103c0 -57 -43 -86 -89 -92v-13c63 -9 113 -40 113 -113c0 -72 -64 -124 -182 -124c-117 0 -181 52 -181 124zM425 412c0 -30 23 -55 83 -55s83 25 83 55s-23 52 -83 52s-83 -22 -83 -52zM402 220
c0 -37 25 -74 106 -74c80 0 107 37 107 74s-27 74 -107 74c-81 0 -106 -37 -106 -74z" />
    <glyph glyph-name="uni2468" unicode="&#x2468;" 
d="M508 -140c-268 0 -445 199 -445 444c0 246 177 445 445 445s445 -199 445 -445c0 -245 -177 -444 -445 -444zM508 -77c228 0 381 176 381 381c0 206 -153 382 -381 382s-381 -176 -381 -382c0 -205 153 -381 381 -381zM702 323c0 -148 -67 -258 -220 -242l-98 10v63
l108 -10c110 -10 158 62 158 141l15 37h-15c-13 -58 -67 -112 -155 -112c-97 0 -152 64 -152 155c0 95 70 161 178 161c111 0 181 -67 181 -203zM627 367c0 54 -31 96 -104 96c-74 0 -105 -34 -105 -97c0 -57 26 -93 94 -93c72 0 115 39 115 94z" />
    <glyph glyph-name="zero.dnom" horiz-adv-x="446" 
d="M224 435c118 0 179 -95 179 -222c0 -129 -61 -223 -179 -223c-119 0 -181 94 -181 223c0 127 62 222 181 222zM224 368c-65 0 -106 -53 -106 -155c0 -34 4 -62 13 -85l164 208c-17 21 -41 32 -71 32zM224 57c66 0 104 53 104 156c0 33 -4 61 -12 84l-165 -207
c19 -22 43 -33 73 -33z" />
    <glyph glyph-name="one.dnom" horiz-adv-x="317" 
d="M43 262c61 41 82 76 83 163h148v-425h-75v366l8 36h-15c-6 -89 -32 -162 -121 -204z" />
    <glyph glyph-name="two.dnom" horiz-adv-x="442" 
d="M43 226c0 145 88 209 193 209c103 0 162 -55 162 -144c0 -135 -141 -192 -311 -220v-15l37 7h263v-63h-323v123c43 6 259 46 259 168c0 49 -24 81 -88 81c-75 0 -117 -40 -117 -146h-75z" />
    <glyph glyph-name="three.dnom" horiz-adv-x="447" 
d="M43 161h75c0 -85 40 -108 114 -108c66 0 97 21 97 71c0 59 -47 68 -81 68h-49v64h49c34 0 75 10 75 57c0 38 -25 59 -91 59c-74 0 -108 -24 -108 -84h-75c0 93 69 147 183 147c107 0 166 -52 166 -114c0 -53 -40 -81 -96 -90v-15c56 -11 102 -36 102 -100
c0 -76 -65 -126 -172 -126c-114 0 -189 53 -189 171z" />
    <glyph glyph-name="four.dnom" horiz-adv-x="433" 
d="M43 80v139c95 40 153 105 172 206h75c-13 -108 -79 -216 -227 -272v-15l37 9h161v139h75v-139h54v-67h-54v-80h-75v80h-218z" />
    <glyph glyph-name="five.dnom" horiz-adv-x="457" 
d="M43 144h75c0 -63 40 -91 111 -91c57 0 109 22 109 99c0 67 -36 85 -82 85c-53 0 -86 -25 -105 -55l-89 46v194h312v-64h-237v-86l-7 -31l11 -7c21 34 65 66 128 66c95 0 144 -60 144 -149c0 -97 -68 -161 -183 -161c-120 0 -187 57 -187 154z" />
    <glyph glyph-name="six.dnom" horiz-adv-x="446" 
d="M43 193c0 148 68 258 221 242l97 -10v-63l-107 10c-110 10 -158 -62 -158 -141l-16 -37h15c13 58 68 112 155 112c98 0 152 -63 152 -155c0 -95 -69 -161 -177 -161c-111 0 -182 67 -182 203zM118 150c0 -55 31 -97 105 -97c73 0 104 35 104 97c0 57 -26 93 -93 93
c-72 0 -116 -39 -116 -93z" />
    <glyph glyph-name="seven.dnom" horiz-adv-x="397" 
d="M105 0c0 184 75 278 226 346v16h-288v63h311v-133c-128 -54 -174 -140 -174 -292h-75z" />
    <glyph glyph-name="eight.dnom" horiz-adv-x="450" 
d="M43 114c0 72 50 104 113 113v13c-47 6 -90 34 -90 92c0 64 62 103 159 103c96 0 157 -39 157 -103c0 -58 -42 -86 -88 -92v-13c63 -9 112 -41 112 -113s-64 -124 -181 -124c-118 0 -182 52 -182 124zM141 320c0 -30 24 -55 84 -55s82 25 82 55c0 29 -22 52 -82 52
s-84 -23 -84 -52zM118 127c0 -37 26 -74 107 -74c80 0 106 37 106 74s-26 75 -106 75c-81 0 -107 -38 -107 -75z" />
    <glyph glyph-name="nine.dnom" horiz-adv-x="446" 
d="M403 233c0 -148 -68 -258 -221 -242l-97 10v63l107 -10c110 -10 159 62 159 141l15 37h-15c-13 -58 -68 -112 -155 -112c-98 0 -152 64 -152 155c0 95 69 161 178 161c111 0 181 -67 181 -203zM328 277c0 54 -31 96 -105 96c-73 0 -104 -34 -104 -97c0 -57 26 -93 93 -93
c72 0 116 39 116 94z" />
    <glyph glyph-name="zero.numr" horiz-adv-x="446" 
d="M224 733c118 0 179 -95 179 -222c0 -129 -61 -223 -179 -223c-119 0 -181 94 -181 223c0 127 62 222 181 222zM224 666c-65 0 -106 -53 -106 -155c0 -34 4 -62 13 -85l164 208c-17 21 -41 32 -71 32zM224 355c66 0 104 53 104 156c0 33 -4 61 -12 84l-165 -207
c19 -22 43 -33 73 -33z" />
    <glyph glyph-name="one.numr" horiz-adv-x="317" 
d="M43 552c61 41 82 76 83 163h148v-425h-75v366l8 36h-15c-6 -89 -32 -162 -121 -204z" />
    <glyph glyph-name="two.numr" horiz-adv-x="442" 
d="M43 520c0 145 88 209 193 209c103 0 162 -55 162 -144c0 -135 -141 -192 -311 -220v-15l37 7h263v-63h-323v123c43 6 259 46 259 168c0 49 -24 81 -88 81c-75 0 -117 -40 -117 -146h-75z" />
    <glyph glyph-name="three.numr" horiz-adv-x="447" 
d="M43 455h75c0 -85 40 -108 114 -108c66 0 97 21 97 71c0 59 -47 68 -81 68h-49v64h49c34 0 75 10 75 57c0 38 -25 59 -91 59c-74 0 -108 -24 -108 -84h-75c0 93 69 147 183 147c107 0 166 -52 166 -114c0 -53 -40 -81 -96 -90v-15c56 -11 102 -36 102 -100
c0 -76 -65 -126 -172 -126c-114 0 -189 53 -189 171z" />
    <glyph glyph-name="four.numr" horiz-adv-x="433" 
d="M43 370v139c95 40 153 105 172 206h75c-13 -108 -79 -216 -227 -272v-15l37 9h161v139h75v-139h54v-67h-54v-80h-75v80h-218z" />
    <glyph glyph-name="five.numr" horiz-adv-x="457" 
d="M43 438h75c0 -63 40 -91 111 -91c57 0 109 22 109 99c0 67 -36 85 -82 85c-53 0 -86 -25 -105 -55l-89 46v194h312v-64h-237v-86l-7 -31l11 -7c21 34 65 66 128 66c95 0 144 -60 144 -149c0 -97 -68 -161 -183 -161c-120 0 -187 57 -187 154z" />
    <glyph glyph-name="six.numr" horiz-adv-x="446" 
d="M43 492c0 148 68 258 221 242l97 -10v-63l-107 10c-110 10 -158 -62 -158 -141l-16 -37h15c13 58 68 112 155 112c98 0 152 -63 152 -155c0 -95 -69 -161 -177 -161c-111 0 -182 67 -182 203zM118 449c0 -55 31 -97 105 -97c73 0 104 35 104 97c0 57 -26 93 -93 93
c-72 0 -116 -39 -116 -93z" />
    <glyph glyph-name="seven.numr" horiz-adv-x="397" 
d="M105 290c0 184 75 278 226 346v16h-288v63h311v-133c-128 -54 -174 -140 -174 -292h-75z" />
    <glyph glyph-name="eight.numr" horiz-adv-x="450" 
d="M43 412c0 72 50 104 113 113v13c-47 6 -90 34 -90 92c0 64 62 103 159 103c96 0 157 -39 157 -103c0 -58 -42 -86 -88 -92v-13c63 -9 112 -41 112 -113s-64 -124 -181 -124c-118 0 -182 52 -182 124zM141 618c0 -30 24 -55 84 -55s82 25 82 55c0 29 -22 52 -82 52
s-84 -23 -84 -52zM118 425c0 -37 26 -74 107 -74c80 0 106 37 106 74s-26 75 -106 75c-81 0 -107 -38 -107 -75z" />
    <glyph glyph-name="nine.numr" horiz-adv-x="446" 
d="M403 532c0 -148 -68 -258 -221 -242l-97 10v63l107 -10c110 -10 159 62 159 141l15 37h-15c-13 -58 -68 -112 -155 -112c-98 0 -152 64 -152 155c0 95 69 161 178 161c111 0 181 -67 181 -203zM328 576c0 54 -31 96 -105 96c-73 0 -104 -34 -104 -97c0 -57 26 -93 93 -93
c72 0 116 39 116 94z" />
    <glyph glyph-name="fraction" unicode="&#x2044;" horiz-adv-x="374" 
d="M308 814l63 -22l-305 -901l-63 22z" />
    <glyph glyph-name="onehalf" unicode="&#xbd;" horiz-adv-x="1017" 
d="M597 814l63 -22l-305 -901l-63 22zM43 552c61 41 82 76 83 163h148v-425h-75v366l8 36h-15c-6 -89 -32 -162 -121 -204zM618 226c0 145 88 209 193 209c103 0 162 -55 162 -144c0 -135 -141 -192 -311 -220v-15l37 7h263v-63h-323v123c43 6 259 46 259 168
c0 49 -24 81 -88 81c-75 0 -117 -40 -117 -146h-75z" />
    <glyph glyph-name="onequarter" unicode="&#xbc;" horiz-adv-x="985" 
d="M597 814l63 -22l-305 -901l-63 22zM43 552c61 41 82 76 83 163h148v-425h-75v366l8 36h-15c-6 -89 -32 -162 -121 -204zM595 80v139c94 40 153 105 171 206h75c-13 -108 -78 -216 -226 -272v-15l37 9h161v139h75v-139h54v-67h-54v-80h-75v80h-218z" />
    <glyph glyph-name="threequarters" unicode="&#xbe;" horiz-adv-x="1083" 
d="M677 814l63 -22l-305 -901l-63 22zM43 455h75c0 -85 40 -108 114 -108c66 0 97 21 97 71c0 59 -47 68 -81 68h-49v64h49c34 0 75 10 75 57c0 38 -25 59 -91 59c-74 0 -108 -24 -108 -84h-75c0 93 69 147 183 147c107 0 166 -52 166 -114c0 -53 -40 -81 -96 -90v-15
c56 -11 102 -36 102 -100c0 -76 -65 -126 -172 -126c-114 0 -189 53 -189 171zM693 80v139c94 40 153 105 171 206h75c-13 -108 -78 -216 -226 -272v-15l37 9h161v139h75v-139h54v-67h-54v-80h-75v80h-218z" />
    <glyph glyph-name="oneeighth" unicode="&#x215b;" 
d="M597 814l63 -22l-305 -901l-63 22zM43 552c61 41 82 76 83 163h148v-425h-75v366l8 36h-15c-6 -89 -32 -162 -121 -204zM610 114c0 72 49 104 112 113v13c-47 6 -89 34 -89 92c0 64 61 103 158 103c96 0 158 -39 158 -103c0 -58 -43 -86 -89 -92v-13
c63 -9 113 -41 113 -113s-64 -124 -182 -124c-117 0 -181 52 -181 124zM708 320c0 -30 23 -55 83 -55c61 0 83 25 83 55c0 29 -22 52 -83 52c-60 0 -83 -23 -83 -52zM685 127c0 -37 25 -74 106 -74c80 0 107 37 107 74s-27 75 -107 75c-81 0 -106 -38 -106 -75z" />
    <glyph glyph-name="threeeighths" unicode="&#x215c;" horiz-adv-x="1136" 
d="M690 814l63 -22l-305 -901l-63 22zM43 455h75c0 -85 40 -108 114 -108c66 0 97 21 97 71c0 59 -47 68 -81 68h-49v64h49c34 0 75 10 75 57c0 38 -25 59 -91 59c-74 0 -108 -24 -108 -84h-75c0 93 69 147 183 147c107 0 166 -52 166 -114c0 -53 -40 -81 -96 -90v-15
c56 -11 102 -36 102 -100c0 -76 -65 -126 -172 -126c-114 0 -189 53 -189 171zM730 114c0 72 49 104 112 113v13c-47 6 -89 34 -89 92c0 64 61 103 158 103c96 0 158 -39 158 -103c0 -58 -43 -86 -89 -92v-13c63 -9 113 -41 113 -113s-64 -124 -182 -124
c-117 0 -181 52 -181 124zM828 320c0 -30 23 -55 83 -55s83 25 83 55c0 29 -23 52 -83 52s-83 -23 -83 -52zM805 127c0 -37 25 -74 106 -74c80 0 107 37 107 74s-27 75 -107 75c-81 0 -106 -38 -106 -75z" />
    <glyph glyph-name="fiveeighths" unicode="&#x215d;" horiz-adv-x="1129" 
d="M683 814l63 -22l-305 -901l-63 22zM43 438h75c0 -63 40 -91 111 -91c57 0 109 22 109 99c0 67 -36 85 -82 85c-53 0 -86 -25 -105 -55l-89 46v194h312v-64h-237v-86l-7 -31l11 -7c21 34 65 66 128 66c95 0 144 -60 144 -149c0 -97 -68 -161 -183 -161
c-120 0 -187 57 -187 154zM723 114c0 72 49 104 112 113v13c-47 6 -89 34 -89 92c0 64 61 103 158 103c96 0 158 -39 158 -103c0 -58 -43 -86 -89 -92v-13c63 -9 113 -41 113 -113s-64 -124 -182 -124c-117 0 -181 52 -181 124zM821 320c0 -30 23 -55 83 -55s83 25 83 55
c0 29 -23 52 -83 52s-83 -23 -83 -52zM798 127c0 -37 25 -74 106 -74c80 0 107 37 107 74s-27 75 -107 75c-81 0 -106 -38 -106 -75z" />
    <glyph glyph-name="seveneighths" unicode="&#x215e;" horiz-adv-x="1083" 
d="M620 814l63 -22l-304 -901l-63 22zM105 290c0 184 75 278 226 346v16h-288v63h311v-133c-128 -54 -174 -140 -174 -292h-75zM677 114c0 72 49 104 112 113v13c-47 6 -89 34 -89 92c0 64 61 103 158 103c96 0 158 -39 158 -103c0 -58 -43 -86 -89 -92v-13
c63 -9 113 -41 113 -113s-64 -124 -182 -124c-117 0 -181 52 -181 124zM775 320c0 -30 23 -55 83 -55c61 0 83 25 83 55c0 29 -22 52 -83 52c-60 0 -83 -23 -83 -52zM752 127c0 -37 25 -74 106 -74c80 0 107 37 107 74s-27 75 -107 75c-81 0 -106 -38 -106 -75z" />
    <glyph glyph-name="period" unicode="." horiz-adv-x="333" 
d="M166 -10c-47 0 -83 36 -83 84c0 46 36 82 83 82c46 0 83 -36 83 -82c0 -48 -37 -84 -83 -84z" />
    <glyph glyph-name="comma" unicode="," horiz-adv-x="277" 
d="M121 163l73 -19l-78 -290l-73 20z" />
    <glyph glyph-name="colon" unicode=":" horiz-adv-x="333" 
d="M166 341c-47 0 -83 36 -83 83c0 46 36 83 83 83c46 0 83 -37 83 -83c0 -47 -37 -83 -83 -83zM166 -10c-47 0 -83 36 -83 84c0 46 36 82 83 82c46 0 83 -36 83 -82c0 -48 -37 -84 -83 -84z" />
    <glyph glyph-name="semicolon" unicode=";" horiz-adv-x="338" 
d="M171 341c-47 0 -83 36 -83 83c0 46 36 83 83 83c46 0 83 -37 83 -83c0 -47 -37 -83 -83 -83zM121 163l73 -19l-78 -290l-73 20z" />
    <glyph glyph-name="ellipsis" unicode="&#x2026;" horiz-adv-x="816" 
d="M166 -10c-47 0 -83 36 -83 84c0 46 36 82 83 82c46 0 83 -36 83 -82c0 -48 -37 -84 -83 -84zM407 -10c-47 0 -82 36 -82 84c0 46 35 82 82 82c46 0 84 -36 84 -82c0 -48 -38 -84 -84 -84zM649 -10c-47 0 -82 36 -82 84c0 46 35 82 82 82c46 0 84 -36 84 -82
c0 -48 -38 -84 -84 -84z" />
    <glyph glyph-name="exclam" unicode="!" horiz-adv-x="333" 
d="M126 705h82l-10 -463h-63zM166 -10c-47 0 -83 36 -83 84c0 46 36 82 83 82c46 0 83 -36 83 -82c0 -48 -37 -84 -83 -84z" />
    <glyph glyph-name="exclamdown" unicode="&#xa1;" horiz-adv-x="333" 
d="M166 507c46 0 83 -37 83 -84c0 -46 -37 -82 -83 -82c-47 0 -82 36 -82 82c0 47 35 84 82 84zM126 -208l9 462h63l10 -462h-82z" />
    <glyph glyph-name="question" unicode="?" horiz-adv-x="518" 
d="M63 507c0 128 73 213 208 213c123 0 184 -69 184 -169c0 -148 -153 -213 -312 -238v-18l43 11h211v-64h-277v128c67 7 260 38 260 188c0 60 -33 99 -108 99c-92 0 -134 -50 -134 -150h-75zM255 -10c-47 0 -82 36 -82 84c0 46 35 82 82 82c46 0 84 -36 84 -82
c0 -48 -38 -84 -84 -84z" />
    <glyph glyph-name="questiondown" unicode="&#xbf;" horiz-adv-x="528" 
d="M273 507c48 0 83 -37 83 -84c0 -46 -35 -82 -83 -82c-46 0 -83 36 -83 82c0 47 37 84 83 84zM465 -10c0 -129 -72 -213 -208 -213c-122 0 -184 69 -184 169c0 148 153 213 312 238v17l-42 -10h-212v63h278v-127c-67 -7 -261 -38 -261 -189c0 -59 33 -98 109 -98
c92 0 133 50 133 150h75z" />
    <glyph glyph-name="periodcentered" unicode="&#xb7;" horiz-adv-x="333" 
d="M166 166c-47 0 -83 36 -83 83c0 46 36 82 83 82c46 0 83 -36 83 -82c0 -47 -37 -83 -83 -83z" />
    <glyph glyph-name="bullet" unicode="&#x2022;" horiz-adv-x="651" 
d="M324 6c-138 0 -241 106 -241 244c0 135 103 241 241 241c134 0 244 -106 244 -241c0 -138 -110 -244 -244 -244z" />
    <glyph glyph-name="asterisk" unicode="*" horiz-adv-x="507" 
d="M63 574l20 61l116 -38l36 -26l-12 42v122h63v-122l-13 -43l35 26l117 37l19 -60l-116 -38l-43 -2l34 -24l71 -99l-51 -37l-72 98l-14 41l-15 -40l-72 -99l-51 37l72 99l35 25l-42 2z" />
    <glyph glyph-name="numbersign" unicode="#" horiz-adv-x="1082" 
d="M998 433h-217l-79 -236h199v-64h-221l-95 -282l-63 22l88 260h-260l-95 -282l-63 22l88 260h-197v64h218l80 236h-201v64h223l93 277l63 -22l-86 -255h260l93 277l63 -22l-86 -255h195v-64zM631 197l80 236h-260l-79 -236h259z" />
    <glyph glyph-name="slash" unicode="/" horiz-adv-x="494" 
d="M368 814l63 -22l-305 -901l-63 22z" />
    <glyph glyph-name="backslash" unicode="\" horiz-adv-x="494" 
d="M126 814l305 -901l-63 -22l-305 901z" />
    <glyph glyph-name="colon.case" horiz-adv-x="333" 
d="M166 445c-47 0 -83 36 -83 83c0 46 36 82 83 82c46 0 83 -36 83 -82c0 -47 -37 -83 -83 -83zM166 95c-47 0 -83 36 -83 83c0 46 36 82 83 82c46 0 83 -36 83 -82c0 -47 -37 -83 -83 -83z" />
    <glyph glyph-name="bullet.case" horiz-adv-x="651" 
d="M324 110c-138 0 -241 106 -241 244c0 135 103 241 241 241c134 0 244 -106 244 -241c0 -138 -110 -244 -244 -244z" />
    <glyph glyph-name="parenleft" unicode="(" horiz-adv-x="430" 
d="M347 -81v-69c-191 40 -264 208 -264 428s73 387 264 427v-69c-135 -33 -189 -165 -189 -358s54 -326 189 -359z" />
    <glyph glyph-name="parenright" unicode=")" horiz-adv-x="430" 
d="M83 -81c135 33 189 166 189 359s-54 325 -189 358v69c191 -40 264 -207 264 -427s-73 -388 -264 -428v69z" />
    <glyph glyph-name="braceleft" unicode="{" horiz-adv-x="593" 
d="M286 642l-56 13v-23c148 -47 199 -137 199 -232c0 -34 -13 -78 -35 -120c22 -42 35 -86 35 -120c0 -95 -51 -185 -199 -232v-23l56 13h222v-63h-302v109c121 52 152 119 152 209c0 16 -2 31 -5 46c-35 -43 -81 -74 -130 -74c-74 0 -138 49 -138 135s63 135 138 135
c49 0 95 -31 130 -74c3 15 5 30 5 46c0 90 -31 158 -152 209v109h302v-63h-222zM231 206c38 0 76 29 100 74c-24 45 -62 74 -100 74c-41 0 -71 -30 -71 -74s30 -74 71 -74z" />
    <glyph glyph-name="braceright" unicode="}" horiz-adv-x="590" 
d="M368 145c-49 0 -94 31 -130 73c-2 -14 -4 -29 -4 -45c0 -90 31 -157 151 -209v-109h-302v63h222l57 -13v23c-149 47 -200 137 -200 232c0 34 13 78 35 120c-22 42 -35 86 -35 120c0 95 51 185 200 232v23l-57 -13h-222v63h302v-109c-120 -51 -151 -119 -151 -209
c0 -16 2 -31 4 -45c36 42 81 73 130 73c76 0 139 -49 139 -135s-65 -135 -139 -135zM361 354c-38 0 -76 -29 -100 -74c24 -45 62 -74 100 -74c40 0 71 30 71 74s-31 74 -71 74z" />
    <glyph glyph-name="bracketleft" unicode="[" horiz-adv-x="431" 
d="M83 705h265v-63h-190v-729h190v-63h-265v855z" />
    <glyph glyph-name="bracketright" unicode="]" horiz-adv-x="431" 
d="M348 705v-855h-265v63h190v729h-190v63h265z" />
    <glyph glyph-name="parenleft.case" horiz-adv-x="430" 
d="M347 -6v-69c-191 40 -264 208 -264 428s73 387 264 427v-69c-135 -33 -189 -165 -189 -358s54 -325 189 -359z" />
    <glyph glyph-name="parenright.case" horiz-adv-x="430" 
d="M83 -6c135 34 189 166 189 359s-54 325 -189 358v69c191 -40 264 -207 264 -427s-73 -388 -264 -428v69z" />
    <glyph glyph-name="braceleft.case" horiz-adv-x="590" 
d="M285 712l-57 13v-23c149 -47 200 -137 200 -232c0 -34 -13 -78 -35 -120c22 -42 35 -86 35 -120c0 -95 -51 -185 -200 -232v-23l57 13h222v-63h-302v109c120 52 151 119 151 209c0 16 -2 31 -4 45c-36 -42 -81 -73 -130 -73c-74 0 -139 49 -139 135s63 135 139 135
c49 0 94 -31 130 -73c2 14 4 29 4 45c0 90 -31 158 -151 209v109h302v-63h-222zM229 276c38 0 76 29 100 74c-24 45 -62 74 -100 74c-40 0 -71 -30 -71 -74s31 -74 71 -74z" />
    <glyph glyph-name="braceright.case" horiz-adv-x="557" 
d="M336 215c-49 0 -94 31 -130 73c-2 -15 -4 -30 -4 -45c0 -90 30 -157 151 -209v-109h-302v63h222l57 -13v23c-149 47 -200 137 -200 232c0 34 13 78 35 120c-22 42 -35 86 -35 120c0 95 51 185 200 232v23l-57 -13h-222v63h302v-109c-121 -51 -151 -119 -151 -209
c0 -15 2 -30 4 -45c36 42 81 73 130 73c76 0 138 -49 138 -135s-64 -135 -138 -135zM329 424c-38 0 -76 -29 -100 -74c24 -45 62 -74 100 -74c40 0 70 30 70 74s-30 74 -70 74z" />
    <glyph glyph-name="bracketleft.case" horiz-adv-x="431" 
d="M83 780h265v-63h-190v-729h190v-63h-265v855z" />
    <glyph glyph-name="bracketright.case" horiz-adv-x="431" 
d="M348 780v-855h-265v63h190v729h-190v63h265z" />
    <glyph glyph-name="braceleft.ss01" horiz-adv-x="475" 
d="M83 315c134 14 161 80 161 138c0 83 -46 130 -118 140v112h266v-63h-193l-50 13v-23c128 -25 170 -90 170 -178c0 -82 -55 -149 -153 -165v-24c98 -16 153 -84 153 -165c0 -88 -42 -151 -170 -177v-23l50 13h193v-63h-266v112c73 11 118 56 118 138
c0 58 -27 125 -161 139v76z" />
    <glyph glyph-name="braceright.ss01" horiz-adv-x="475" 
d="M392 315v-76c-134 -14 -161 -81 -161 -139c0 -82 45 -127 118 -138v-112h-266v63h193l50 -13v23c-128 26 -170 89 -170 177c0 81 55 149 153 165v24c-98 16 -153 83 -153 165c0 88 42 153 170 178v23l-50 -13h-193v63h266v-112c-72 -10 -118 -57 -118 -140
c0 -58 27 -124 161 -138z" />
    <glyph glyph-name="braceleft.case.ss01" horiz-adv-x="475" 
d="M83 390c134 14 161 80 161 138c0 83 -46 130 -118 140v112h266v-63h-193l-50 13v-23c128 -25 170 -90 170 -178c0 -82 -55 -149 -153 -165v-24c98 -16 153 -84 153 -165c0 -88 -42 -151 -170 -177v-23l50 13h193v-63h-266v112c73 11 118 56 118 138
c0 58 -27 125 -161 139v76z" />
    <glyph glyph-name="braceright.case.ss01" horiz-adv-x="475" 
d="M392 390v-76c-134 -14 -161 -81 -161 -139c0 -82 45 -127 118 -138v-112h-266v63h193l50 -13v23c-128 26 -170 89 -170 177c0 81 55 149 153 165v24c-98 16 -153 83 -153 165c0 88 42 153 170 178v23l-50 -13h-193v63h266v-112c-72 -10 -118 -57 -118 -140
c0 -58 27 -124 161 -138z" />
    <glyph glyph-name="hyphen" unicode="-" horiz-adv-x="643" 
d="M83 285h477v-67h-477v67z" />
    <glyph glyph-name="endash" unicode="&#x2013;" horiz-adv-x="845" 
d="M83 285h679v-67h-679v67z" />
    <glyph glyph-name="emdash" unicode="&#x2014;" horiz-adv-x="1045" 
d="M83 285h879v-67h-879v67z" />
    <glyph glyph-name="underscore" unicode="_" horiz-adv-x="603" 
d="M63 -45h477v-67h-477v67z" />
    <glyph glyph-name="hyphen.case" horiz-adv-x="643" 
d="M83 386h477v-66h-477v66z" />
    <glyph glyph-name="endash.case" horiz-adv-x="845" 
d="M83 386h679v-66h-679v66z" />
    <glyph glyph-name="emdash.case" horiz-adv-x="1045" 
d="M83 386h879v-66h-879v66z" />
    <glyph glyph-name="quotesinglbase" unicode="&#x201a;" horiz-adv-x="317" 
d="M161 163l73 -19l-78 -290l-73 20z" />
    <glyph glyph-name="quotedblbase" unicode="&#x201e;" horiz-adv-x="457" 
d="M161 163l73 -19l-78 -290l-73 20zM301 163l73 -19l-78 -290l-73 20z" />
    <glyph glyph-name="quotedblleft" unicode="&#x201c;" horiz-adv-x="444" 
d="M156 746l65 -245l-72 -19l-66 245zM295 746l65 -245l-72 -19l-66 245z" />
    <glyph glyph-name="quotedblright" unicode="&#x201d;" horiz-adv-x="444" 
d="M149 746l73 -19l-66 -245l-72 19zM288 746l73 -19l-66 -245l-72 19z" />
    <glyph glyph-name="quoteleft" unicode="&#x2018;" horiz-adv-x="305" 
d="M156 746l65 -245l-72 -19l-66 245z" />
    <glyph glyph-name="quoteright" unicode="&#x2019;" horiz-adv-x="305" 
d="M149 746l73 -19l-66 -245l-72 19z" />
    <glyph glyph-name="guillemotleft" unicode="&#xab;" horiz-adv-x="702" 
d="M414 18l-53 -46l-278 276l278 275l53 -46l-231 -229zM619 18l-53 -46l-278 276l278 275l53 -46l-231 -229z" />
    <glyph glyph-name="guillemotright" unicode="&#xbb;" horiz-adv-x="702" 
d="M83 18l231 230l-231 229l53 46l278 -275l-278 -276zM288 18l231 230l-231 229l53 46l278 -275l-278 -276z" />
    <glyph glyph-name="guilsinglleft" unicode="&#x2039;" horiz-adv-x="497" 
d="M414 18l-53 -46l-278 276l278 275l53 -46l-231 -229z" />
    <glyph glyph-name="guilsinglright" unicode="&#x203a;" horiz-adv-x="497" 
d="M83 18l231 230l-231 229l53 46l278 -275l-278 -276z" />
    <glyph glyph-name="quotedbl" unicode="&#x22;" horiz-adv-x="378" 
d="M83 742h75v-254h-75v254zM220 742h75v-254h-75v254z" />
    <glyph glyph-name="quotesingle" unicode="'" horiz-adv-x="242" 
d="M83 742h75v-254h-75v254z" />
    <glyph glyph-name="guillemotleft.case" horiz-adv-x="702" 
d="M414 123l-53 -46l-278 276l278 275l53 -46l-231 -229zM619 123l-53 -46l-278 276l278 275l53 -46l-231 -229z" />
    <glyph glyph-name="guillemotright.case" horiz-adv-x="705" 
d="M87 123l230 230l-230 229l53 46l277 -275l-277 -276zM292 123l230 230l-230 229l53 46l277 -275l-277 -276z" />
    <glyph glyph-name="guilsinglleft.case" horiz-adv-x="497" 
d="M414 123l-53 -46l-278 276l278 275l53 -46l-231 -229z" />
    <glyph glyph-name="guilsinglright.case" horiz-adv-x="500" 
d="M87 123l230 230l-230 229l53 46l277 -275l-277 -276z" />
    <glyph glyph-name="cent" unicode="&#xa2;" horiz-adv-x="652" 
d="M358 166c63 6 115 41 128 127h83c-12 -134 -119 -190 -211 -197v-244l-63 1v245c-135 18 -212 125 -212 256c0 130 77 237 211 255v244l63 -1v-241c92 -7 200 -63 212 -197h-83c-13 86 -65 121 -129 127zM165 354c0 -90 41 -167 130 -185l-1 369
c-88 -19 -129 -95 -129 -184z" />
    <glyph glyph-name="currency" unicode="&#xa4;" horiz-adv-x="778" 
d="M596 338c0 -47 -14 -90 -39 -124l137 -137l-45 -45l-137 137c-33 -24 -75 -38 -123 -38s-90 14 -124 38l-137 -137l-45 45l137 137c-24 35 -38 78 -38 124s14 88 38 123l-137 137l45 45l137 -137c33 25 75 39 124 39c48 0 90 -14 124 -38l136 136l45 -45l-136 -136
c24 -35 38 -78 38 -124zM389 198c83 0 141 64 141 140s-58 140 -141 140c-82 0 -140 -64 -140 -140s58 -140 140 -140z" />
    <glyph glyph-name="dollar" unicode="$" horiz-adv-x="756" 
d="M673 178c0 -104 -61 -186 -263 -188v-138h-63v140c-202 16 -264 120 -264 272h82c0 -145 67 -192 182 -202v276c-135 41 -232 80 -232 203c0 104 71 169 232 174v138h63v-140c173 -17 234 -134 234 -240h-82c0 103 -65 156 -152 169v-247c129 -39 263 -82 263 -217z
M197 543c0 -68 52 -96 150 -128v230c-88 -3 -150 -29 -150 -102zM410 60c115 1 181 31 181 114c0 90 -87 120 -181 146v-260z" />
    <glyph glyph-name="Euro" unicode="&#x20ac;" horiz-adv-x="812" 
d="M465 60c109 0 169 62 184 162h80c-22 -139 -113 -232 -264 -232c-167 0 -260 111 -285 269h-97v63h91c-1 10 -1 21 -1 31s0 19 1 29h-91v63h97c25 158 117 270 285 270c151 0 242 -92 264 -231h-81c-14 100 -74 161 -183 161c-124 0 -185 -77 -204 -200h232v-63h-237
c-1 -9 -1 -19 -1 -29c0 -11 0 -21 1 -31h237v-63h-231c18 -122 79 -199 203 -199z" />
    <glyph glyph-name="sterling" unicode="&#xa3;" horiz-adv-x="621" 
d="M390 635c-105 8 -160 -10 -160 -89c0 -59 35 -107 58 -167h210v-63h-192c2 -12 3 -25 3 -39c0 -101 -71 -154 -202 -197v-23l56 13h375v-70h-455v131c98 32 144 75 144 151c0 12 -1 23 -4 34h-140v63h119c-23 53 -53 107 -53 173c0 139 122 161 242 153l147 -10v-70z" />
    <glyph glyph-name="yen" unicode="&#xa5;" horiz-adv-x="759" 
d="M676 705l-232 -401h146v-63h-170v-48h170v-64h-170v-129h-81v129h-170v64h170v48h-170v63h146l-232 401h88l197 -344v-57h23v57l197 344h88z" />
    <glyph glyph-name="plus" unicode="+" horiz-adv-x="643" 
d="M560 285v-67h-205v-205h-67v205h-205v67h205v205h67v-205h205z" />
    <glyph glyph-name="minus" unicode="&#x2212;" horiz-adv-x="643" 
d="M83 285h477v-67h-477v67z" />
    <glyph glyph-name="multiply" unicode="&#xd7;" horiz-adv-x="551" 
d="M468 395l-145 -145l145 -145l-47 -47l-145 145l-145 -145l-47 47l145 145l-145 145l47 47l145 -145l145 145z" />
    <glyph glyph-name="divide" unicode="&#xf7;" horiz-adv-x="643" 
d="M322 354c-48 0 -83 37 -83 84c0 46 35 82 83 82c46 0 83 -36 83 -82c0 -47 -37 -84 -83 -84zM83 285h477v-67h-477v67zM322 -17c-48 0 -83 37 -83 84c0 46 35 82 83 82c46 0 83 -36 83 -82c0 -47 -37 -84 -83 -84z" />
    <glyph glyph-name="equal" unicode="=" horiz-adv-x="643" 
d="M83 387h477v-67h-477v67zM83 183h477v-66h-477v66z" />
    <glyph glyph-name="notequal" unicode="&#x2260;" horiz-adv-x="643" 
d="M560 320h-163l-79 -137h242v-66h-280l-85 -148l-55 31l68 117h-125v66h163l79 137h-242v67h281l85 148l54 -32l-67 -116h124v-67z" />
    <glyph glyph-name="greater" unicode="&#x3e;" horiz-adv-x="645" 
d="M561 208l-451 -156l-27 64l395 131l-395 135l27 64l451 -160v-78z" />
    <glyph glyph-name="less" unicode="&#x3c;" horiz-adv-x="645" 
d="M83 208v78l452 160l26 -64l-394 -135l394 -131l-26 -64z" />
    <glyph glyph-name="greaterequal" unicode="&#x2265;" horiz-adv-x="645" 
d="M561 301l-451 -156l-27 64l395 131l-395 135l27 64l451 -159v-79zM83 92h477v-67h-477v67z" />
    <glyph glyph-name="lessequal" unicode="&#x2264;" horiz-adv-x="645" 
d="M83 301v79l452 159l26 -64l-394 -135l394 -131l-26 -64zM561 92v-67h-476v67h476z" />
    <glyph glyph-name="plusminus" unicode="&#xb1;" horiz-adv-x="643" 
d="M355 366h205v-67h-205v-142h-67v142h-205v67h205v143h67v-143zM83 25v67h477v-67h-477z" />
    <glyph glyph-name="approxequal" unicode="&#x2248;" horiz-adv-x="641" 
d="M83 288c0 101 63 139 118 139c96 0 163 -80 235 -80c27 0 55 11 55 71h67c0 -101 -62 -138 -118 -138c-96 0 -162 80 -235 80c-27 0 -55 -12 -55 -72h-67zM83 82c0 101 63 138 118 138c96 0 163 -80 235 -80c27 0 55 12 55 72h67c0 -101 -62 -139 -118 -139
c-96 0 -162 80 -235 80c-27 0 -55 -11 -55 -71h-67z" />
    <glyph glyph-name="asciitilde" unicode="~" horiz-adv-x="641" 
d="M83 187c0 101 63 138 118 138c96 0 163 -80 235 -80c27 0 55 12 55 72h67c0 -101 -62 -139 -118 -139c-96 0 -162 80 -235 80c-27 0 -55 -11 -55 -71h-67z" />
    <glyph glyph-name="logicalnot" unicode="&#xac;" horiz-adv-x="643" 
d="M560 362v-238h-67v171h-410v67h477z" />
    <glyph glyph-name="asciicircum" unicode="^" horiz-adv-x="544" 
d="M385 383l-101 299h-23l-101 -299h-77l114 322h152l112 -322h-76z" />
    <glyph glyph-name="emptyset" unicode="&#x2205;" horiz-adv-x="981" 
d="M725 620c109 -73 173 -198 173 -339c0 -225 -163 -407 -407 -407c-65 0 -124 13 -176 36l-60 -104l-58 34l59 102c-108 73 -173 198 -173 339c0 225 164 407 408 407c65 0 123 -13 175 -36l60 104l58 -34zM150 281c0 -113 53 -217 141 -279l341 591
c-42 19 -89 29 -141 29c-202 0 -341 -157 -341 -341zM491 -60c201 0 340 157 340 341c0 113 -53 217 -141 279l-341 -591c42 -19 90 -29 142 -29z" />
    <glyph glyph-name="infinity" unicode="&#x221e;" horiz-adv-x="1017" 
d="M83 300c0 114 84 192 199 192c112 0 174 -76 226 -142c52 66 114 142 226 142c115 0 199 -78 199 -192s-84 -192 -199 -192c-112 0 -174 76 -226 142c-52 -66 -114 -142 -226 -142c-115 0 -199 78 -199 192zM158 300c0 -76 50 -125 129 -125c81 0 130 56 183 125
c-53 69 -102 125 -183 125c-79 0 -129 -49 -129 -125zM547 300c53 -69 101 -125 182 -125c79 0 129 49 129 125s-50 125 -129 125c-81 0 -129 -56 -182 -125z" />
    <glyph glyph-name="integral" unicode="&#x222b;" horiz-adv-x="683" 
d="M83 -180v67h144l167 765c8 35 30 53 66 53h140v-67h-137l-167 -765c-7 -35 -30 -53 -65 -53h-148z" />
    <glyph glyph-name="product" unicode="&#x220f;" horiz-adv-x="761" 
d="M678 705v-67h-133v-818h-75v818h-179v-818h-75v818h-133v67h595z" />
    <glyph glyph-name="summation" unicode="&#x2211;" horiz-adv-x="596" 
d="M83 -180v111l298 320v24l-298 319v111h430v-67h-315l-57 14v-24l313 -328v-74l-313 -329v-24l57 14h315v-67h-430z" />
    <glyph glyph-name="radical" unicode="&#x221a;" horiz-adv-x="803" 
d="M469 653c8 36 30 52 66 52h185v-67h-184l-186 -818h-154l-113 385h73l105 -362h24z" />
    <glyph glyph-name="partialdiff" unicode="&#x2202;" horiz-adv-x="711" 
d="M628 319c0 -206 -107 -329 -276 -329c-173 0 -269 110 -269 262c0 146 99 255 257 255c119 0 204 -75 224 -196h24l-14 57c-20 171 -182 274 -393 304v70c254 -30 447 -175 447 -423zM546 252c0 113 -78 185 -201 185c-115 0 -180 -73 -180 -185c0 -120 63 -192 188 -192
c127 0 193 91 193 192z" />
    <glyph glyph-name="percent" unicode="%" horiz-adv-x="1171" 
d="M704 812l63 -22l-305 -901l-63 23zM290 331c-124 0 -207 93 -207 207s83 207 207 207s207 -93 207 -207s-83 -207 -207 -207zM290 398c83 0 141 64 141 140s-58 140 -141 140c-82 0 -140 -64 -140 -140s58 -140 140 -140zM881 -20c-124 0 -207 93 -207 207
s83 207 207 207s207 -93 207 -207s-83 -207 -207 -207zM881 47c83 0 140 64 140 140s-57 140 -140 140s-140 -64 -140 -140s57 -140 140 -140z" />
    <glyph glyph-name="perthousand" unicode="&#x2030;" horiz-adv-x="1659" 
d="M704 812l63 -22l-305 -901l-63 23zM290 331c-124 0 -207 93 -207 207s83 207 207 207s207 -93 207 -207s-83 -207 -207 -207zM290 398c83 0 141 64 141 140s-58 140 -141 140c-82 0 -140 -64 -140 -140s58 -140 140 -140zM881 -20c-124 0 -207 93 -207 207
s83 207 207 207s207 -93 207 -207s-83 -207 -207 -207zM1369 -20c-124 0 -207 93 -207 207s83 207 207 207s207 -93 207 -207s-83 -207 -207 -207zM881 47c83 0 140 64 140 140s-57 140 -140 140s-140 -64 -140 -140s57 -140 140 -140zM1369 47c83 0 140 64 140 140
s-57 140 -140 140s-140 -64 -140 -140s57 -140 140 -140z" />
    <glyph glyph-name="arrowup" unicode="&#x2191;" horiz-adv-x="718" 
d="M635 262l-47 -53l-194 195v-443h-71v442l-193 -194l-47 53l276 277z" />
    <glyph glyph-name="uni2197" unicode="&#x2197;" horiz-adv-x="599" 
d="M125 458l390 2v-392l-71 -4l1 275l-314 -313l-50 50l313 313l-274 -1z" />
    <glyph glyph-name="arrowright" unicode="&#x2192;" horiz-adv-x="745" 
d="M384 523l278 -275l-278 -276l-53 46l196 195h-444v71h443l-195 193z" />
    <glyph glyph-name="uni2198" unicode="&#x2198;" horiz-adv-x="599" 
d="M444 418l71 -4v-392l-390 2l-5 70l274 -1l-313 313l50 50l314 -313z" />
    <glyph glyph-name="arrowdown" unicode="&#x2193;" horiz-adv-x="718" 
d="M588 291l47 -53l-276 -278l-276 278l47 53l193 -195v443h71v-444z" />
    <glyph glyph-name="uni2199" unicode="&#x2199;" horiz-adv-x="599" 
d="M518 406l-314 -313l275 1l-5 -70l-391 -2l1 392l71 4l-1 -275l314 313z" />
    <glyph glyph-name="arrowleft" unicode="&#x2190;" horiz-adv-x="745" 
d="M662 284v-71h-444l196 -195l-53 -46l-278 276l278 275l53 -46l-195 -193h443z" />
    <glyph glyph-name="uni2196" unicode="&#x2196;" horiz-adv-x="599" 
d="M518 76l-50 -50l-314 313l1 -275l-71 4l-1 392l391 -2l5 -70l-275 1z" />
    <glyph glyph-name="arrowboth" unicode="&#x2194;" horiz-adv-x="1144" 
d="M783 605l277 -275l-277 -277l-53 47l195 195h-443v71h442l-194 192zM414 395l-195 -193h443v-71h-444l196 -194l-53 -47l-278 276l278 276z" />
    <glyph glyph-name="arrowupdn" unicode="&#x2195;" horiz-adv-x="865" 
d="M313 150v443l-193 -195l-47 53l276 278l276 -278l-47 -53l-194 196v-444h-71zM745 83l47 -53l-277 -278l-275 278l47 53l193 -196v444h70v-444z" />
    <glyph glyph-name="lozenge" unicode="&#x25ca;" horiz-adv-x="544" 
d="M349 705l112 -322l-112 -323h-152l-114 323l114 322h152zM284 84l101 299l-101 299h-23l-101 -299l101 -299h23z" />
    <glyph glyph-name="at" unicode="@" horiz-adv-x="1059" 
d="M696 94v30l13 55h-23c-20 -81 -90 -142 -199 -142c-143 0 -238 107 -238 258c0 149 95 257 238 257c109 0 179 -61 199 -143h23l-13 57v51h75v-417h23c95 0 117 101 117 198c0 205 -149 361 -375 361c-225 0 -388 -164 -388 -370c0 -215 155 -377 405 -359l336 23v-63
l-336 -24c-286 -19 -470 165 -470 423c0 252 192 433 453 433c262 0 440 -179 440 -424c0 -117 -43 -261 -188 -261h-37c-35 0 -55 20 -55 57zM501 100c103 0 186 59 186 195c0 134 -83 193 -186 193c-102 0 -177 -59 -177 -193c0 -136 75 -195 177 -195z" />
    <glyph glyph-name="ampersand" unicode="&#x26;" horiz-adv-x="954" 
d="M870 -17l-64 -42l-109 139c-73 -67 -171 -105 -290 -105c-189 0 -324 101 -324 266c0 145 101 230 214 230c58 0 97 -28 115 -51v24l-167 213l-1 48h526v-70h-415l343 -435c47 75 71 175 71 292h81c0 -143 -36 -265 -102 -355zM407 45c102 0 183 34 243 94l-134 171
c-57 73 -104 99 -182 99c-100 0 -169 -61 -169 -169c0 -123 97 -195 242 -195z" />
    <glyph glyph-name="paragraph" unicode="&#xb6;" horiz-adv-x="656" 
d="M83 621c0 126 56 232 296 232h67v-1001h-67v536c-240 0 -296 106 -296 233zM506 853h66v-1001h-66v1001z" />
    <glyph glyph-name="section" unicode="&#xa7;" horiz-adv-x="588" 
d="M83 360c0 50 23 97 97 119c-53 25 -75 56 -75 106c0 78 67 130 181 130c154 0 202 -85 202 -166h-82c0 67 -41 99 -120 99c-56 0 -99 -16 -99 -61c0 -48 34 -62 114 -88c98 -32 204 -55 204 -160c0 -50 -23 -97 -96 -119c52 -24 74 -56 74 -105c0 -79 -67 -131 -181 -131
c-154 0 -202 85 -202 167h82c0 -67 41 -100 120 -100c56 0 99 17 99 61c0 48 -34 62 -114 88c-98 32 -204 55 -204 160zM163 376c0 -67 69 -85 137 -109c75 -27 125 4 125 57c0 66 -69 85 -137 108c-76 26 -125 -3 -125 -56z" />
    <glyph glyph-name="copyright" unicode="&#xa9;" horiz-adv-x="1056" 
d="M528 -164c-268 0 -445 199 -445 445s177 445 445 445s445 -199 445 -445s-177 -445 -445 -445zM528 -100c228 0 381 175 381 381s-153 381 -381 381s-381 -175 -381 -381s153 -381 381 -381zM281 282c0 143 92 258 253 258c97 0 219 -54 232 -198h-82
c-15 95 -77 128 -150 128c-117 0 -171 -86 -171 -188c0 -103 54 -189 171 -189c73 0 135 33 150 128h82c-13 -144 -135 -198 -232 -198c-161 0 -253 115 -253 259z" />
    <glyph glyph-name="registered" unicode="&#xae;" horiz-adv-x="652" 
d="M326 270c-147 0 -243 109 -243 243s96 243 243 243s243 -109 243 -243s-96 -243 -243 -243zM326 322c115 0 191 88 191 191s-76 191 -191 191s-191 -88 -191 -191s76 -191 191 -191zM222 395v239h99c57 0 119 -13 119 -69c0 -40 -26 -50 -68 -54v-20h43
c16 0 25 -9 25 -25v-71h-51v78h-116v-78h-51zM273 524h48c42 0 68 0 68 30c0 29 -26 29 -68 29h-48v-59z" />
    <glyph glyph-name="trademark" unicode="&#x2122;" horiz-adv-x="891" 
d="M355 705v-53h-104v-281h-62v281h-106v53h272zM680 705h127v-334h-63v278l8 33h-13l-73 -311h-129l-74 311h-13l8 -33v-278h-64v334h128l73 -311h11z" />
    <glyph glyph-name="degree" unicode="&#xb0;" horiz-adv-x="581" 
d="M290 331c-124 0 -207 93 -207 207s83 207 207 207s207 -93 207 -207s-83 -207 -207 -207zM290 398c83 0 141 64 141 140s-58 140 -141 140c-82 0 -140 -64 -140 -140s58 -140 140 -140z" />
    <glyph glyph-name="bar" unicode="|" horiz-adv-x="233" 
d="M83 853h67v-1001h-67v1001z" />
    <glyph glyph-name="brokenbar" unicode="&#xa6;" horiz-adv-x="233" 
d="M83 483v370h67v-370h-67zM150 222v-370h-67v370h67z" />
    <glyph glyph-name="dagger" unicode="&#x2020;" horiz-adv-x="557" 
d="M473 659v-66h-161v-442h-67v442h-162v66h162v194h67v-194h161z" />
    <glyph glyph-name="daggerdbl" unicode="&#x2021;" horiz-adv-x="557" 
d="M473 593h-161v-182h161v-66h-161v-194h-67v194h-162v66h162v182h-162v66h162v194h67v-194h161v-66z" />
    <glyph glyph-name="ampersand.ss01" horiz-adv-x="846" 
d="M763 33l-39 -62c-50 31 -98 63 -145 96c-68 -49 -154 -77 -251 -77c-138 0 -245 64 -245 183c0 115 77 166 168 202c-34 52 -53 103 -53 151c0 119 84 189 218 189c113 0 185 -60 185 -159c0 -111 -104 -164 -231 -209c53 -61 126 -126 208 -188c66 69 102 173 102 303
h82c0 -141 -46 -261 -126 -345c41 -29 84 -57 127 -84zM280 526c0 -37 17 -79 48 -124c3 1 7 3 11 4c117 41 181 74 181 148c0 58 -34 91 -105 91c-92 0 -135 -47 -135 -119zM328 60c74 0 138 18 191 51c-90 67 -169 138 -226 207c-82 -36 -128 -72 -128 -144
c0 -73 68 -114 163 -114z" />
    <glyph glyph-name="uni0308" unicode="&#x308;" horiz-adv-x="0" 
d="M-362 576c-42 0 -73 30 -73 70c0 38 31 69 73 69c41 0 73 -31 73 -69c0 -40 -32 -70 -73 -70zM-156 576c-42 0 -73 30 -73 70c0 38 31 69 73 69c41 0 73 -31 73 -69c0 -40 -32 -70 -73 -70z" />
    <glyph glyph-name="uni0307" unicode="&#x307;" horiz-adv-x="0" 
d="M-157 576c-42 0 -73 30 -73 70c0 38 31 69 73 69c41 0 73 -31 73 -69c0 -40 -32 -70 -73 -70z" />
    <glyph glyph-name="gravecomb" unicode="&#x300;" horiz-adv-x="0" 
d="M-84 642l-16 -64l-307 79l17 64z" />
    <glyph glyph-name="acutecomb" unicode="&#x301;" horiz-adv-x="0" 
d="M-407 642l307 79l16 -64l-306 -79z" />
    <glyph glyph-name="uni030B" unicode="&#x30b;" horiz-adv-x="0" 
d="M-438 608l143 138l46 -46l-142 -137zM-273 608l143 138l46 -46l-142 -137z" />
    <glyph glyph-name="uni0302" unicode="&#x302;" horiz-adv-x="0" 
d="M-83 607l-47 -46l-115 94l-114 -94l-48 46l162 131z" />
    <glyph glyph-name="uni030C" unicode="&#x30c;" horiz-adv-x="0" 
d="M-83 693l-162 -131l-162 131l48 46l114 -94l115 94z" />
    <glyph glyph-name="uni0306" unicode="&#x306;" horiz-adv-x="0" 
d="M-83 735c0 -102 -59 -172 -156 -172c-98 0 -157 70 -157 172h67c0 -73 26 -107 90 -107s89 34 89 107h67z" />
    <glyph glyph-name="uni030A" unicode="&#x30a;" horiz-adv-x="0" 
d="M-202 559c-76 0 -118 51 -118 109c0 57 42 108 118 108s119 -51 119 -108s-43 -109 -119 -109zM-202 621c35 0 52 18 52 47c0 28 -18 46 -52 46c-33 0 -51 -18 -51 -46c0 -29 18 -47 51 -47z" />
    <glyph glyph-name="tildecomb" unicode="&#x303;" horiz-adv-x="0" 
d="M-445 590c0 99 44 137 102 137c84 0 108 -80 152 -80c22 0 41 10 41 70h67c0 -100 -44 -137 -102 -137c-84 0 -108 80 -152 80c-22 0 -41 -10 -41 -70h-67z" />
    <glyph glyph-name="uni0304" unicode="&#x304;" horiz-adv-x="0" 
d="M-406 683h323v-65l-323 -1v66z" />
    <glyph glyph-name="uni0312" unicode="&#x312;" horiz-adv-x="0" 
d="M-156 776l72 -19l-51 -181l-73 19z" />
    <glyph glyph-name="uni0326" unicode="&#x326;" horiz-adv-x="0" 
d="M-161 -49l73 -20l-53 -166l-73 21z" />
    <glyph glyph-name="uni0327" unicode="&#x327;" horiz-adv-x="0" 
d="M-149 -42c34 0 65 -16 65 -56c0 -77 -83 -87 -209 -87v62c91 0 143 -1 143 31c0 13 -9 20 -23 20c-18 0 -34 -4 -70 -26l-35 46l44 52h75l-55 -57c18 9 39 15 65 15z" />
    <glyph glyph-name="uni0328" unicode="&#x328;" horiz-adv-x="0" 
d="M-84 -106v-67l-197 -18c-52 -4 -77 38 -55 79l61 113h71l-66 -126z" />
    <glyph glyph-name="acute" unicode="&#xb4;" horiz-adv-x="490" 
d="M83 642l307 79l16 -64l-306 -79z" />
    <glyph glyph-name="breve" unicode="&#x2d8;" horiz-adv-x="479" 
d="M396 735c0 -102 -59 -172 -156 -172c-98 0 -157 70 -157 172h67c0 -73 26 -107 90 -107s89 34 89 107h67z" />
    <glyph glyph-name="caron" unicode="&#x2c7;" horiz-adv-x="490" 
d="M407 693l-162 -131l-162 131l48 46l114 -94l115 94z" />
    <glyph glyph-name="cedilla" unicode="&#xb8;" horiz-adv-x="376" 
d="M227 -42c34 0 65 -16 65 -56c0 -77 -83 -87 -209 -87v62c91 0 143 -1 143 31c0 13 -9 20 -23 20c-18 0 -34 -4 -70 -26l-35 46l44 52h75l-55 -57c18 9 39 15 65 15z" />
    <glyph glyph-name="circumflex" unicode="&#x2c6;" horiz-adv-x="490" 
d="M407 607l-47 -46l-115 94l-114 -94l-48 46l162 131z" />
    <glyph glyph-name="dieresis" unicode="&#xa8;" horiz-adv-x="518" 
d="M156 576c-42 0 -73 30 -73 70c0 38 31 69 73 69c41 0 73 -31 73 -69c0 -40 -32 -70 -73 -70zM362 576c-42 0 -73 30 -73 70c0 38 31 69 73 69c41 0 73 -31 73 -69c0 -40 -32 -70 -73 -70z" />
    <glyph glyph-name="dotaccent" unicode="&#x2d9;" horiz-adv-x="313" 
d="M156 576c-42 0 -73 30 -73 70c0 38 31 69 73 69c41 0 73 -31 73 -69c0 -40 -32 -70 -73 -70z" />
    <glyph glyph-name="grave" unicode="`" horiz-adv-x="490" 
d="M406 642l-16 -64l-307 79l17 64z" />
    <glyph glyph-name="hungarumlaut" unicode="&#x2dd;" horiz-adv-x="521" 
d="M83 608l143 138l46 -46l-142 -137zM248 608l143 138l46 -46l-142 -137z" />
    <glyph glyph-name="macron" unicode="&#xaf;" horiz-adv-x="489" 
d="M83 683h323v-65l-323 -1v66z" />
    <glyph glyph-name="ogonek" unicode="&#x2db;" horiz-adv-x="428" 
d="M344 -106v-67l-197 -18c-52 -4 -77 38 -55 79l61 113h71l-66 -126z" />
    <glyph glyph-name="ring" unicode="&#x2da;" horiz-adv-x="375" 
d="M201 559c-76 0 -118 51 -118 109c0 57 42 108 118 108s119 -51 119 -108s-43 -109 -119 -109zM201 621c35 0 52 18 52 47c0 28 -18 46 -52 46c-33 0 -51 -18 -51 -46c0 -29 18 -47 51 -47z" />
    <glyph glyph-name="tilde" unicode="&#x2dc;" horiz-adv-x="528" 
d="M83 590c0 99 44 137 102 137c84 0 108 -80 152 -80c22 0 41 10 41 70h67c0 -100 -44 -137 -102 -137c-84 0 -108 80 -152 80c-22 0 -41 -10 -41 -70h-67z" />
    <glyph glyph-name="brevecombcy" horiz-adv-x="0" 
d="M-83 735c0 -102 -59 -172 -156 -172c-98 0 -157 70 -157 172h67c0 -73 26 -107 90 -107s89 34 89 107h67z" />
    </font>
</defs>
</svg>
